<?xml version="1.0" encoding="UTF-8"?>
<svg width="114px" height="32px" viewBox="0 0 114 32" version="1.1" xmlns="http://www.w3.org/2000/svg" xmlns:xlink="http://www.w3.org/1999/xlink">
    <!-- Generator: Sketch 62 (91390) - https://sketch.com -->
    <title>Group 21</title>
    <desc>Created with Sketch.</desc>
    <defs>
        <polygon id="path-1" points="0 32 113.851517 32 113.851517 0.0829918699 0 0.0829918699"></polygon>
    </defs>
    <g id="Symbols" stroke="none" stroke-width="1" fill="none" fill-rule="evenodd">
        <g id="Footer---Slate" transform="translate(-133.000000, -53.000000)">
            <g id="Group-21" transform="translate(133.000000, 53.000000)">
                <polygon id="Fill-1" fill="#FEFEFE" points="21 16 30.475125 31 40 31 30.5243725 16"></polygon>
                <polygon id="Fill-2" fill="#FEFEFE" points="9.47575281 16 0 31 9.52399593 31 19 16"></polygon>
                <polygon id="Fill-3" fill="#FEFEFE" points="11 0 20.4753749 15 30 15 20.5258815 0"></polygon>
                <path d="M40.2641868,0 L35,15 L37.3507981,15 L38.5766697,11.4471123 L44.2224597,11.4471123 L45.4281933,15 L48,15 L42.7358132,0 L40.2641868,0 Z M41.4095063,3.16942177 L41.4495274,3.16942177 L43.4791364,9.22623723 L39.340131,9.22623723 L41.4095063,3.16942177 Z" id="Fill-4" fill="#FEFEFE"></path>
                <g id="Group-20">
                    <path d="M55.8193923,12.0369951 L55.8193923,7.66964553 C55.1500605,6.78795447 54.1765571,6.31627967 53.2841147,6.31627967 C51.3975819,6.31627967 50.6268596,7.54658862 50.6268596,9.96610081 C50.6268596,12.2625561 51.600363,13.4109138 53.2030537,13.4109138 C54.2375458,13.4109138 55.2313788,12.7547837 55.8193923,12.0369951 M48.1319837,9.90470244 C48.1319837,6.13182439 49.9778573,4.22509268 52.7365029,4.22509268 C53.8927151,4.22509268 55.0283404,4.69650732 55.8193923,5.59849106 L55.8193923,0.144702439 L58.3142682,0.144702439 L58.3142682,12.6520195 C58.3142682,13.9645398 58.3955865,14.7640195 58.6387693,15.3176455 L56.0630898,15.3176455 C55.9207828,15.0101333 55.8193923,14.3951089 55.8193923,13.8414829 C55.0283404,14.7640195 53.9938483,15.4818081 52.3916722,15.4818081 C49.9371982,15.4818081 48.1319837,13.6773203 48.1319837,9.90470244" id="Fill-5" fill="#FEFEFE"></path>
                    <polygon id="Fill-7" fill="#FEFEFE" points="63.2233192 15.3381984 59.328791 4.42984065 61.9451296 4.42984065 64.5820551 12.4675642 64.6227142 12.4675642 67.2395675 4.42984065 69.6531251 4.42984065 65.7588542 15.3381984"></polygon>
                    <mask id="mask-2" fill="white">
                        <use xlink:href="#path-1"></use>
                    </mask>
                    <g id="Clip-10"></g>
                    <path d="M70.5253409,15.3175935 L73.0405463,15.3175935 L73.0405463,4.42978862 L70.5253409,4.42978862 L70.5253409,15.3175935 Z M70.5050113,2.54360976 L73.0606185,2.54360976 L73.0606185,0.349398374 L70.5050113,0.349398374 L70.5050113,2.54360976 Z" id="Fill-9" fill="#FEFEFE" mask="url(#mask-2)"></path>
                    <path d="M74.3181955,13.8209041 L75.6771887,12.2830829 C76.4885702,12.9803187 77.6851842,13.5750504 79.064507,13.5750504 C80.4031707,13.5750504 81.2145521,13.2264325 81.2145521,12.3241886 C81.2145521,11.4424976 80.1193287,11.1758309 78.8210668,10.8683187 C76.9751932,10.4377496 74.7641594,9.94552195 74.7641594,7.42350569 C74.7641594,5.51677398 76.3869223,4.22506667 78.7605928,4.22506667 C80.8089901,4.22506667 82.0663354,4.81953821 83.1818885,5.76262764 L81.9852745,7.40295285 C81.1942226,6.74682276 79.9162903,6.21374959 78.9427869,6.21374959 C77.5634641,6.21374959 77.1172429,6.70597724 77.1172429,7.32100163 C77.1172429,8.20269268 78.1923941,8.46935935 79.4703264,8.7563187 C81.3159427,9.16633496 83.5673783,9.63800976 83.5673783,12.1805789 C83.5673783,14.476774 81.5187237,15.5431805 79.064507,15.5431805 C77.0768411,15.5431805 75.2919562,14.8253919 74.3181955,13.8209041" id="Fill-11" fill="#FEFEFE" mask="url(#mask-2)"></path>
                    <path d="M92.3101233,9.88404553 C92.3101233,7.85399675 91.4580826,6.37783415 89.5718072,6.37783415 C87.7665928,6.37783415 86.8334912,7.69009431 86.8334912,9.88404553 C86.8334912,11.9549398 87.6652023,13.4311024 89.5718072,13.4311024 C91.3770217,13.4311024 92.3101233,12.1188423 92.3101233,9.88404553 M84.3182858,9.88404553 C84.3182858,5.86531382 86.9348817,4.22498862 89.5718072,4.22498862 C92.1884032,4.22498862 94.8253287,5.86531382 94.8253287,9.88404553 C94.8253287,13.8619317 92.1884032,15.5431024 89.5718072,15.5431024 C86.9552113,15.5431024 84.3182858,13.8619317 84.3182858,9.88404553" id="Fill-12" fill="#FEFEFE" mask="url(#mask-2)"></path>
                    <path d="M96.0020506,15.3176195 L96.0020506,4.42981463 L98.4969264,4.42981463 L98.4969264,6.21374959 L98.5378429,6.21374959 C99.2069174,5.12705041 100.362872,4.22506667 102.411527,4.22506667 L102.573906,4.22506667 L102.492845,6.54181463 C102.371382,6.52152195 101.965563,6.50096911 101.823513,6.50096911 C100.22108,6.50096911 99.2069174,7.25960325 98.4969264,8.42825366 L98.4969264,15.3176195 L96.0020506,15.3176195 Z" id="Fill-13" fill="#FEFEFE" mask="url(#mask-2)"></path>
                    <path d="M102.939066,19.2134504 L103.507008,17.1836618 C103.811179,17.265613 104.460181,17.4089626 105.332552,17.4089626 C106.224994,17.4089626 106.691545,17.0606049 107.036376,16.1789138 L107.340547,15.3794341 L103.202579,4.42997073 L105.798845,4.42997073 L108.57782,12.3651902 L108.618222,12.3651902 L111.377125,4.42997073 L113.851414,4.42997073 L109.267482,16.5069789 C108.557491,18.4139707 107.624647,19.5415154 105.494931,19.5415154 C104.216999,19.5415154 103.466349,19.3570602 102.939066,19.2134504" id="Fill-14" fill="#FEFEFE" mask="url(#mask-2)"></path>
                    <path d="M50.8897801,30.4769041 C53.475753,30.4769041 54.63634,29.4268878 54.63634,27.5742699 C54.63634,25.5156033 53.0279878,24.5894244 50.4417576,24.5894244 L46.6545386,24.5894244 L46.6545386,30.4769041 L50.8897801,30.4769041 Z M50.3401097,23.3130667 C52.7423445,23.3130667 54.1476582,22.4488065 54.1476582,20.5545626 C54.1476582,18.6813919 52.9870713,17.8582374 50.3807688,17.8582374 L46.6545386,17.8582374 L46.6545386,23.3130667 L50.3401097,23.3130667 Z M45.2291526,16.540774 L50.4620871,16.540774 C53.8627869,16.540774 55.5727869,17.9612618 55.5727869,20.3693268 C55.5727869,22.4282537 54.2696357,23.5394081 52.7222722,23.889587 L52.7222722,23.9306927 C54.5954235,24.2806114 56.061726,25.4539447 56.061726,27.6359285 C56.061726,30.0445138 54.3918704,31.7732943 50.9101097,31.7732943 L45.2291526,31.7732943 L45.2291526,16.540774 Z" id="Fill-15" fill="#FEFEFE" mask="url(#mask-2)"></path>
                    <path d="M65.3948519,26.3392 C65.3948519,23.9714602 64.2139354,21.9338667 61.9537503,21.9338667 C59.7753982,21.9338667 58.4925765,23.7864846 58.4925765,26.3392 C58.4925765,28.7475252 59.6531634,30.7853789 61.9537503,30.7853789 C64.1122876,30.7853789 65.3948519,28.9533138 65.3948519,26.3392 M57.0875201,26.3594927 C57.0875201,22.7367285 59.307046,20.7191675 61.9537503,20.7191675 C64.5806397,20.7191675 66.8001657,22.7367285 66.8001657,26.3594927 C66.8001657,29.9622244 64.5806397,32.000078 61.9537503,32.000078 C59.3273756,32.000078 57.0875201,29.9622244 57.0875201,26.3594927" id="Fill-16" fill="#FEFEFE" mask="url(#mask-2)"></path>
                    <path d="M75.0223449,29.0770211 L75.0223449,25.7008911 C70.4203991,26.4832 69.1380921,27.6359805 69.1380921,29.0564683 C69.1380921,30.1886959 69.8913156,30.7852488 71.0925616,30.7852488 C72.5992659,30.7852488 73.9230041,30.1473301 75.0223449,29.0770211 M67.7533652,29.2414439 C67.7533652,27.100826 69.5655278,25.5364683 75.0223449,24.6922407 L75.0223449,24.1365333 C75.0223449,22.633574 74.2487919,21.9134439 72.8434781,21.9134439 C71.1538077,21.9134439 69.9523043,22.633574 68.8323765,23.6219317 L68.079153,22.7368585 C69.3619747,21.5427122 70.8480921,20.7192976 72.9659702,20.7192976 C75.3687196,20.7192976 76.4070718,22.0162081 76.4070718,24.177639 L76.4070718,29.0973138 C76.4070718,30.4150374 76.4883901,31.2178992 76.7120153,31.7733463 L75.2665571,31.7733463 C75.1242501,31.3209236 75.0223449,30.8474276 75.0223449,30.2295415 C73.7804397,31.3620293 72.3957129,31.9588423 70.7871034,31.9588423 C68.8730357,31.9588423 67.7533652,30.9293789 67.7533652,29.2414439" id="Fill-17" fill="#FEFEFE" mask="url(#mask-2)"></path>
                    <path d="M78.4529214,20.9253203 L79.8577205,20.9253203 L79.8577205,23.0661984 L79.898637,23.0661984 C80.7334361,21.7281821 82.0365874,20.7192715 84.1539508,20.7192715 L84.3984203,20.7192715 L84.2561133,22.036735 C84.2561133,22.036735 83.8690795,22.0161821 83.8286777,22.0161821 C82.0772465,22.0161821 80.6925196,23.0042797 79.8577205,24.7127675 L79.8577205,31.7733203 L78.4529214,31.7733203 L78.4529214,20.9253203 Z" id="Fill-18" fill="#FEFEFE" mask="url(#mask-2)"></path>
                    <path d="M92.6652217,28.9741008 L92.6652217,23.7042472 C91.6062826,22.5514667 90.5679305,21.9132878 89.3260253,21.9132878 C87.4322871,21.9132878 86.0681472,23.3129626 86.0681472,26.3802797 C86.0681472,29.3651252 87.5341923,30.7442472 89.3260253,30.7442472 C90.6495061,30.7442472 91.6469418,30.0649626 92.6652217,28.9741008 M84.6628334,26.3594667 C84.6628334,22.5722797 86.6381472,20.7194016 89.2037905,20.7194016 C90.5885174,20.7194016 91.8304226,21.4606049 92.6652217,22.4075967 L92.6652217,16.5406699 L94.0700208,16.5406699 L94.0700208,29.0974179 C94.0700208,30.4148813 94.1513391,31.2177431 94.3958086,31.7734504 L92.9094339,31.7734504 C92.7874564,31.4029789 92.6652217,30.7650602 92.6652217,30.1888 C91.7895061,31.1355317 90.6901652,31.9589463 89.0815558,31.9589463 C86.6178176,31.9589463 84.6628334,30.1474341 84.6628334,26.3594667" id="Fill-19" fill="#FEFEFE" mask="url(#mask-2)"></path>
                </g>
            </g>
        </g>
    </g>
</svg>