<?xml version="1.0" encoding="utf-8"?>
<!-- Generator: Adobe Illustrator 24.0.1, SVG Export Plug-In . SVG Version: 6.00 Build 0)  -->
<svg version="1.0" id="big-circle" xmlns="http://www.w3.org/2000/svg" xmlns:xlink="http://www.w3.org/1999/xlink" x="0px" y="0px"
	 viewBox="0 0 480 249" style="enable-background:new 0 0 480 249;" width="480px" height="249px" xml:space="preserve">
	<defs>
		<clipPath id="big-circle-mask">
			<path d="M327.6,31.6c0,0.5,0,0.9,0,1.4c0,0.2,0,0.4-0.1,0.6c-0.1,0.6-0.9,0.6-0.9,1.3c0,0.5,0,1.2-0.3,1.5
			c-0.6,0.7-0.9,1.4-0.9,2.2c0,0.1-0.2,0.2-0.3,0.3c-0.3,0.2-0.9,0.4-0.9,0.7c0,0.6-0.5,0.5-0.7,0.6c-0.3,0.2-0.1,0.8-0.7,0.8
			c-0.4,0,0.2,0.8-0.5,0.9c-0.4,0-0.3,0.8-1,0.6c-0.2-0.1-0.3,0.6-0.7,0.7c-0.4,0.1-0.6,0.7-1.2,0.5c-0.4,0.6-1,0.5-1.5,0.7
			s-0.9,0.4-1.4,0.6c-1,0.3-1.9,1-3,1.2h-0.1c-0.3,1.2-1.6,1.1-2.3,1.7c-0.3,0.2-0.5,0.4-0.9,0.4s-0.9,0.1-1,0.4
			c-0.2,0.4-0.4,0.5-0.8,0.6s-0.7,0.7-1.3,0.6c-0.4,0-0.8,0.2-1.2,0.3c-0.2,0.1-0.4,0.2-0.6,0.3c-1.2,0.8-2.8,1-3.9,2.1
			c-0.8-0.2-1.1,0.9-1.9,0.7c-0.5,0.5-1.1,0.5-1.7,0.7c-0.5,0.1-0.9,0.7-1.5,0.8s-1.1,0.4-1.5,0.7c-0.7,0.5-1.3,0.7-2.1,0.6
			c-0.5-0.1-0.9,0.3-1.3,0.5c-0.8,0.4-1.5,0.9-2.4,1.2c-0.7,0.2-1.4,0.3-2.1,0.5c-0.5,0.1-1,0.2-1.6,0.3c-0.1,0-0.3-0.1-0.3-0.2
			c0-0.1,0.1-0.3,0.1-0.4c0.1-0.1,0.3-0.3,0.5-0.3c0.5-0.1,1-0.3,1.4-0.7c0.1-0.1,0.2-0.2,0.4-0.2c0.5,0,1,0.1,1.1-0.6
			c0.5,0.1,0.9-0.3,1.3-0.4c1.5-0.5,2.8-1.5,4.3-2.1c0.5-0.2,1.1-0.4,1.5-0.9c0.2-0.2,0.7-0.3,1-0.5c1.3-0.8,2.9-1.2,4.2-2
			c0.3-0.2,0.6-0.4,0.8-0.5c0.7-0.5,1.5-0.9,2.4-1.2c0.5-0.2,1-0.5,1.5-0.9c1.5-1.1,2.9-2.3,4.5-3.1c0.5-0.9,1.9-1,2.1-2.2
			c0.5-0.2,0.7-0.8,1.2-1c0.1,0,0.5-0.6,0.6-0.8c0-0.1,0.1-0.2,0.1-0.2c0.9,0.2,0.8-0.5,0.9-0.9c0.2-0.5,0.9-0.4,1.1-1
			c0.1-0.3,0.5-0.6,0.9-0.8s0.1-0.9,0.7-0.9c0.2,0,0.4-0.5,0.4-0.8c0.1-0.6,0.2-1.1,0.8-1.3c0.1,0,0.1-0.2,0.1-0.3
			c0.1-0.3,0.3-0.6,0.3-0.9c0-0.5,0.3-0.5,0.5-0.7c0.3-0.4,0-1.5-0.3-2c-0.1-0.1-0.1-0.4-0.2-0.5c-0.1-0.9-0.1-0.8-0.9-2
			c0-0.1,0-0.2,0-0.3c-0.2-0.4-0.4-0.9-0.6-1.2c-0.3-0.3-0.7-0.7-1.1-0.7c-0.6-0.1-0.3-0.8-0.8-0.9s-0.8-0.3-0.8-0.8
			c-0.8-0.5-1.7-1.1-2.5-1.6c-0.1,0-0.2,0-0.3,0c-0.5-0.1-0.3-1-1-0.9c-0.1-0.7-1.1,0.1-1.1-0.7c0-0.1-0.3-0.2-0.5-0.2
			c-1.1-0.3-2-1.1-2.9-1.7c-0.2-0.2-0.5-0.3-0.8-0.4c-1.2-0.3-2.3-0.6-3.4-1.3c-1.2-0.8-2.7-1.2-4-1.6c-0.2-0.1-0.5,0.2-0.7,0.1
			s-0.2-0.4-0.3-0.6c-0.4-0.4-1.1-0.3-1.5-0.8c0-0.1-0.5,0.2-0.7,0.1c-0.3-0.1-0.5-0.3-0.7-0.4c-0.7-0.2-1.5-0.3-2.2-0.6
			c-0.7-0.3-1.5-0.4-2.2-0.6c-0.7-0.3-1.4-0.7-2.1-0.8c-0.8-0.1-1.6-0.5-2.3-0.6c-0.8-0.1-1.6-0.3-2.3-0.6c-1.5,0.2-2.7-0.7-4-1
			c-0.2,0-0.4-0.2-0.5-0.2c-1.3,0.2-2.5-0.4-3.8-0.3c-0.3,0-0.6-0.3-0.9-0.3c-0.8,0-1.5-0.4-2.3-0.4c-0.7,0-1.5-0.1-2.1-0.3
			c-1.2-0.4-2.6,0-3.8-0.8c-0.3-0.2-0.7,0-1-0.1c-0.6-0.1-1.2,0.2-1.7-0.2c-0.1-0.1-0.3,0.1-0.5,0.1s-0.5,0.2-0.7,0.1
			c-0.1-0.1-0.1-0.4-0.2-0.6c-0.1-0.1-0.3-0.3-0.4-0.2c-1.4,0.4-2.1,0.4-3.3,0.1C258,7,257.7,7,257.4,7c-0.9,0-1.8,0-2.7,0
			c-0.3,0-0.6,0.1-0.6-0.4c0,0-0.4-0.2-0.5-0.2c-0.5,0.3-0.9,0.2-1.4,0c-0.4-0.2-0.8,0.7-1.3,0c-0.2-0.2-0.9,0-1.3,0
			c-0.5,0-1,0.1-1.4-0.3c0,0-0.3,0.1-0.4,0.1c-0.4,0.1-0.9,0.6-1-0.3c0-0.1-0.6-0.2-0.8-0.1c-0.6,0.4-1.3,0.1-1.9,0.2
			c-0.1,0-0.2,0-0.3-0.1c-0.5-0.2-1.7-0.3-2.5-0.2c-0.2,0-0.5,0-0.8,0c-0.5-0.1-0.9-0.2-1.4-0.3s-1,0.2-1.4-0.3
			c-0.8,0.5-1.6,0.2-2.5,0.4c-0.2,0-0.3,0.2-0.6,0c-0.2-0.1-0.6-0.1-0.9-0.1c-0.5,0-1,0.5-1.4,0c-0.6,0.7-1.3,0-1.9,0
			c-0.5,0-0.9-0.6-1.4-0.2c-0.4,0.4-0.9,0.1-1.3,0.3c-0.4,0.1-0.8,0.4-1.3,0c-0.1-0.1-0.4,0-0.5,0.1c-0.4,0.4-0.8,0.3-1.1,0.2
			c-1.3-0.5-2.6-0.2-3.9-0.3c-0.6,0-1.2,0.2-1.7-0.3c-0.2-0.1-0.5-0.1-0.7,0c-1.1,0.5-2.2,0.3-3.3,0.1c-0.3,0-0.6,0.1-0.9,0.2
			c-1.3,0.1-2.6-0.2-3.9,0.3c-0.5,0.2-1.3,0.3-1.8-0.3c-0.7,0.6-1.4-0.2-2.2,0c-0.7,0.1-1.5-0.1-2.2,0.3c-0.3,0.2-0.7,0-1.1,0
			c-0.9,0.1-1.7-0.1-2.6,0.2c-0.6,0.2-1.3,0.1-2-0.2c-1-0.4-2,0.1-3,0.3c-0.4,0.1-0.7,0.2-1.1,0.2c-1.1,0.1-2.3-0.2-3.4,0.3
			c-0.1,0.1-0.3,0.1-0.4,0c-0.7-0.5-1.3-0.1-2,0c-1.6,0.2-3.3,0.2-4.9,0.4c-0.6,0-1.1,0.2-1.7,0.3c-0.3,0.1-0.6,0.6-1,0
			c0-0.1-0.3,0-0.4,0c-0.7,0.7-1.7,0.5-2.5,0.5c-1.2,0.1-2.4-0.3-3.5,0.3c-0.6-0.8-1.3,0.1-1.9,0.1c-0.5,0-1,0.2-1.6,0
			c-0.4-0.2-1.1,0-1.5,0.3c-0.7,0.4-1.3,0.2-2,0.3c-0.4,0-0.8-0.2-1.1,0.2c-0.1,0.1-0.4,0-0.5-0.1c-0.3-0.3-0.5,0-0.8,0.1
			c-0.5,0.4-1,0.9-1.8,0.5c-0.3-0.2-0.9,0-1.3,0.3c-0.4,0.2-0.6,0.3-0.9,0c0,0-0.4,0.1-0.4,0.2c0,0.6-0.6,0.5-0.8,0.7
			c-0.4,0.2-0.9,0.1-1.3,0c-0.4-0.1-0.7,0.4-1.2,0.1c-0.2-0.2-0.9-0.2-1.1,0c-0.4,0.3-0.8,0.2-1.1,0.2c-0.8,0-1.6-0.1-2.4,0.5
			c-0.3,0.2-0.9,0.1-1.3,0.1c-0.5,0-1,0-1.4,0.3c-0.3,0.2-0.5,0.3-0.8,0c-0.2-0.1-0.6,0.3-0.9,0.2c-1.5-0.2-2.8,0.7-4.3,0.6
			c-0.1,0-0.1,0-0.1,0c-0.6,0.9-1.5,0.5-2.3,0.6c-0.2,0-0.4,0.2-0.7,0.2c-0.7,0.1-1.4,0.5-2.1,0.4c-0.1,0-0.2,0-0.3,0
			c-1,0.5-2.1,0.5-3.2,0.8c-0.4,0.1-0.8,0.1-1.2,0.1c-0.6,0.1-1.3,0-1.7,0.3c-0.6,0.5-1.1,0.5-1.8,0.3c-0.3-0.1-0.6,0-0.8,0.3
			s-0.5,0.3-0.8,0.3s-0.6-0.1-0.6,0.4c0,0.1-0.4,0.2-0.6,0.2c-0.4,0-1-0.1-1.3,0.1s-0.3,0.6-0.8,0.5c-0.4,0-0.7-0.1-1.1-0.3
			c-0.2-0.1-0.5,0.1-0.7,0.2c-1.3,0.5-2.6,0.9-4,1.1c-0.5,0-1.2,0-1.5,0.7l-0.1,0.1c-0.8,0-1.7,0-2.3,0.6c-0.8-0.1-1.5,0.5-2.3,0.3
			c-0.4-0.1-0.7,0.1-0.9,0.3c-0.5,0.5-1.3,0.1-1.9,0.7c-0.4,0.4-1.1,0.6-1.6,0.8c-0.6,0.2-1.3-0.1-1.8,0.4c-0.2,0.2-0.5,0.1-0.6,0.5
			c0,0.2-0.5,0.4-0.8,0.4c-0.9,0-1.8-0.1-2.5,0.6c-0.8,0-1.5,0.5-2.2,0.6c-0.7,0-0.7,0.8-1.1,0.9c-0.5,0.1-1,0.1-1.5,0.4
			c-0.7,0.4-1.5,1-2.5,0.9s-1.7,0.6-2.4,1.1c-0.4,0.3-0.7,0.6-1.2,0.2c-0.1-0.1-0.5,0-0.7,0.1c-0.3,0.1-0.4,0.4-0.7,0.6
			c-0.7,0.4-1.2,1.1-2.2,0.9c-0.4-0.1-0.6,0.1-0.9,0.4C88,30,87.5,30.1,87,30.3c-0.4,0.1-0.7,0.5-1.3,0.6c-0.4,0-0.9,0.4-1.2,0.7
			c-0.7,0.5-1.3,1.2-2.3,1.2c-0.5,0-0.7,0.8-1.1,0.8c-0.5,0.1-1.1,0.1-1.4,0.4c-0.8,1-2.4,1-3.1,2.1c-0.7,0.2-1.4,0.7-2.1,0.9
			c-0.5,0.1-0.5,1-1.2,0.7c-0.8,0.9-2.1,1-2.9,1.8c-0.8,0.9-2.1,1.2-2.9,2.1c-0.1,0.1-0.4,0-0.4,0.1c-0.5,1.2-1.5,1.5-2.6,1.9
			c-0.5,0.2-1,0.4-1.4,0.7c-0.5,0.4-1,0.7-1.6,1c-0.5,0.3-1.1,0.4-1.5,0.8c-0.3,0.3-0.6,0.4-0.7,0.8c-0.1,0.3-1,0-1,0.8
			c-0.9-0.2-1.1,0.9-1.9,1c-0.1,0.9-1,0.8-1.5,1.1c-0.3,0.2-0.6,0.3-0.8,0.6c-0.1,0.1-0.1,0.3-0.2,0.4c-0.4,0.6-1.5,0.3-1.8,1.2
			c-0.3,0.7-0.5,1.1-1.6,1.5c-0.6,0.2-0.5,1-1.2,1.1c-0.3,0-0.5,0.6-1,0.5c-0.2,0-0.6,0.3-0.5,0.4c0.2,0.6-0.5,0.7-0.7,1.1
			c-0.2,0.5-0.5,0.9-1,0.9c-0.1,0.8-1.1,0.8-1.3,1.4c-0.3,0.7-1.2,0.7-1.3,1.4c0,0.1-0.3,0.1-0.4,0.2c-0.5,0.5-1,0.8-1.4,1.4
			c-0.3,0.5-1.1,0.6-1.2,1.3c0,0.1-0.2,0.3-0.3,0.3c-0.4,0.2-0.5,0.5-0.6,0.9c-0.1,0.3-0.1,1-0.9,0.9c-0.1,0-0.3,0.2-0.3,0.2
			c0.2,0.8-0.6,0.7-1,1c-0.1,0.1-0.2,0.1-0.6,0.8c-0.1,0.2-0.3,0.3-0.4,0.4c-0.3,0.3-1,0.3-0.8,1c0,0-0.1,0.2-0.2,0.2
			c-0.8-0.1-0.8,0.6-1.1,1.1c-0.3,0.6-0.8,1.1-1.3,1.6c-0.7,0.7-0.7,0.8-1.2,1.6c-0.3,0.5-0.8,0.8-1.2,1.2c-0.3,0.2-0.6,0.5-1,0.6
			c-0.6,0.2,0.1,1-0.6,1.1c0,0.5-0.2,0.8-0.7,1.1c-0.6,0.3-1.2,0.7-1.3,1.5c-0.1,0.3-0.4,0.8-0.5,0.8c-1-0.1-0.8,0.6-0.8,1.2
			c0,0.1-0.1,0.4-0.1,0.4c-0.9,0-0.7,0.8-0.9,1.3c-0.1,0.2-0.1,0.6-0.2,0.8c-0.1,0.2-0.4,0.2-0.5,0.4c-0.3,0.3-0.8,0.6-0.9,1
			c-0.1,0.5-0.3,0.7-0.8,0.9c-0.4,0.1,0,1-0.7,1c-0.1,0,0,0.9-0.1,0.9c-0.4,0.1-0.4,0.4-0.6,0.7c-0.2,0.2-0.1,0.3,0,0.5
			c0.1,0.1,0,0.4-0.1,0.5c-0.2,0.4-0.9,0.3-0.8,1c0,0.4-0.7,0.7-0.6,1.3c0,0-0.3,0.1-0.4,0.2c-0.3,0.2-0.2,0.2,0.1,0.3
			c0.2,0,0.5,0.2,0.2,0.3c-0.4,0.1-0.4,0.3-0.5,0.6c-0.1,0.5-0.3,1.1-0.5,1.6c-0.7-0.1-0.5,0.9-1.1,0.9c-0.1,0-0.2,0.1-0.2,0.2
			c0.2,0.9-0.7,1.6-0.7,2.5c0,0.2-0.5,0.4-0.6,0.6c-0.2,0.4-0.2,0.9-0.3,1.4c0,0.2-0.1,0.5-0.2,0.5c-0.5,0-0.4,0.4-0.4,0.6
			c0,0.7-0.3,1.4-0.6,2c-0.1,0.3-0.2,0.3-0.5,0.4c-0.2,0.1-0.7,0.3-0.2,0.7c0.1,0.1-0.4,1.1-0.7,1.4c-0.2,0.3-0.4,0.6-0.7,0.9
			c0,0.1-0.1,0.2-0.1,0.2c0.6,0.6,0,1.2-0.1,1.8c0,0.4,0,0.7-0.5,0.9c-0.4,0.1,0,0.8-0.3,1.2c-0.3,0.3-0.2,0.9-0.3,1.4
			c-0.8-0.1-0.3,0.7-0.6,1c-0.1,0.1-0.2,0.6-0.1,0.7c0.6,0.6,0,1.1,0,1.6c0,0.3-0.2,0.3-0.4,0.5c-0.4,0.3-0.6,0.7-0.5,1.2
			c0,0.3,0.6,0.5,0.1,0.9c-0.2,0.2,0.4,0.6-0.1,0.8c-0.1,1.2-0.2,2.5-0.3,3.7c0,0.7,0,1.4,0,2.1c0,0.3-0.1,0.4-0.4,0.5
			s-0.3,0.4-0.1,0.6c0.6,0.6,0.6,0.6,0,1.2C8.2,127,8,127.3,8,127.5c-0.1,0.3,0.1,0.6-0.1,0.9c-0.1,0.2-0.5,0.3-0.7,0.5
			c-0.1,0.1-0.1,0.2-0.1,0.3c0.2,1.2,0.4,2.4-0.1,3.6c-0.1,0.2,0,0.5,0.2,0.7c0.2,0.3-0.1,0.2-0.2,0.3c-0.1,0-0.2,0.2-0.2,0.2
			c0.9,0.8,0.6,1.8,0.3,2.8c-0.1,0.4-0.2,0.8,0,1.2c0.1,0.3,0.2,0.6,0.1,0.8c-0.5,1.5,0.3,3,0,4.5c-0.1,0.4-0.1,0.8,0.5,0.9
			c0,0,0.2,0.4,0.1,0.5c-0.1,0.2-0.5,0.4-0.5,0.6c0,0.2,0.6,0.4,0.5,0.6c-0.2,1.6,0.5,3.2,0.3,4.8c0,0.5,0,0.9,0,1.4
			c0,0.1,0,0.3,0.1,0.4c0.2,0.2,0.6,0,0.6,0.5c0,0.4-0.3,0.4-0.5,0.6c-0.3,0.3-0.2,0.8,0.2,1.2c0.1,0.1,0.1,0.2,0.1,0.3
			c-0.1,0.1-0.3,0.2-0.5,0.2c0.2,0.1,0.5,0.1,0.5,0.2c0.2,0.7,0.8,1.2,0.7,2c-0.1,0.4,0,0.6,0.5,0.7c0.2,0,0.2,0.4-0.1,0.5
			c-0.1,0-0.2,0.1-0.4,0.2c0.1,0,0.2,0.2,0.2,0.1c0.7-0.3,0.5,0.7,1.1,0.7c0.3,0,0.1,0.2-0.1,0.3c-0.1,0-0.3,0.2-0.3,0.4
			s0,0.5,0.1,0.7l0.1,0.1c1-0.2,0.7,0.6,0.7,1c0,0.5-0.1,1,0.6,1.3c0.6,0.3,0.7,1,0.6,1.7s0,0.6,0.5,1.5c0.3,0.5,0.3,1.1,0.5,1.6
			c0,0.1,0,0.4,0.1,0.4c1.1,0.2,0.9,1.3,1.1,2c0.1,0.3,0.1,0.6,0.5,0.6c0,0,0.1,0.4,0.1,0.7c0,0.6-0.1,1.3,0.8,1.5
			c0.2,0,0.3,0.6,0.6,0.8c0.2,0.2,0,0.8,0.6,0.6c0,0.3,0.1,0.6,0.1,0.8c-0.1,0.3-0.1,0.5,0.1,0.5c1,0.2,1.3,0.8,1.2,1.7
			c-0.1,0.5,0.3,0.5,0.5,0.7s0.2,0.6,0.3,0.9c0.3,0.7,1.2,0.9,1.4,1.7c0.8,0.1,0.7,0.7,0.8,1.3c0,0.2,0,0.5,0.2,0.5
			c0.7,0.3,0.9,0.9,1.2,1.5c0.9,0,0.4,1.3,1.3,1.3c0.1,0,0.2,0.3,0.2,0.5c-0.2,0.7,0.9,0.8,0.7,1.5c0,0.1,0.5,0.4,0.8,0.5
			c0.6,0.2,0.8,0.7,0.9,1.1c0.1,0.4,0.3,0.6,0.6,0.9c0.5,0.4,1.4,0.4,1.2,1.3c0.8-0.1,0.3,1.1,1,1.1c0.2,0.5,0.5,1,1.1,1
			c0.4,0.8,1.3,1.1,1.6,1.9c0.2,0.4,0.5,0.8,0.9,1.1c0.3,0.3,0.8,0.4,0.6,1c0,0.1,0.2,0.3,0.3,0.3c0.9,0,1.2,0.9,1.9,1.3
			c1,0.7,1.8,1.8,3,2.3c0.5,1.2,2,1.4,2.6,2.5c0.2,0.3,0.6,0.6,0.9,0.6c0.9,0.1,1.4,0.6,1.9,1.3c0.1,0.2,0.3,0.3,0.4,0.4
			c0.6,0.4,1.5,0.5,1.8,1c0.4,0.7,1.1,0.7,1.5,1.2c0.2,0.3,0.6,0.5,0.9,0.7s0.6,0.3,0.8,0.5c0.4,0.3,0.9,0.6,1.4,0.6
			c0.4,0,0.5,0.1,0.5,0.5s0.3,0.7,0.7,0.7c0.4,0.1,0.8,0.2,1,0.4c0.6,0.6,1.4,1.1,2.1,1.5c0.9,0.5,1.8,1,2.8,1.4
			c1.2,0.5,2.3,1.4,3.5,1.8c0.2,0.5,0.5,1,1.1,1c0.8,0.1,1.5,0.6,2.3,0.8c0.7,0.2,1.3,0.8,2,1c1.3,0.3,2.4,1.2,3.7,1.4
			c0.2,0,0.3,0.5,0.5,0.6c1.2,0.4,2.3,1.3,3.6,1.2c0.1,0,0.4,0,0.4,0.1c0.3,0.7,1.4,0.4,1.6,1.3c0,0.1,0.2,0.1,0.2,0.1
			c0.7,0,1.3,0.1,1.9,0.5c0.5,0.3,1.1,0.5,1.7,0.7c0.8,0.4,1.6,0.3,2.4,0.9c0.6,0.5,1.7,0.4,2.4,0.7c0.9,0.4,1.9,0.4,2.7,0.9
			c0.1,0.1,0.3,0,0.4,0.1c0.8,0.7,1.8,0.7,2.7,1.1c0.3,0.1,0.7,0.1,0.9,0.4c0.1,0.1,0.3,0.3,0.5,0.2c1.1-0.2,2.1,0.4,3.1,0.7
			c0.6,0.2,1.3,0.3,1.9,0.5c0.7,0.3,1.4,0.4,2,0.6c0.6,0.3,1.3,0.1,1.9,0.6c0.2,0.1,0.6,0,0.9,0c0.4,0,0.7,0.1,0.9,0.3
			c0.2,0.1,0.4,0.3,0.6,0.3c0.5,0,1-0.1,1.4,0s0.6,0.6,1.1,0.6c0.4,0,0.8,0.6,1.3,0c0.6,0.1,1.1,0.2,1.6,0.4c1.9,0.6,3.9,1,5.8,1.5
			c1.1,0.2,2.3,0.3,3.3,0.8c0.3,0.1,0.7,0,1.1,0c0.6-0.1,1.2,0,1.7,0.4c0.4,0.3,0.8,0.2,1.1,0.2c0.5,0,0.9,0.1,1.4,0.3
			s0.8,0.5,1.3,0.5c0.4,0.1,0.9-0.3,1.3-0.2c1.5,0.4,3.1,0.2,4.5,0.9c0.2,0.1,0.4,0.1,0.6,0c0.9-0.2,1.8,0.2,2.6,0.4
			c0.6,0.2,1.2,0.2,1.9,0.3c0.6,0.1,1.2,0.1,1.7,0.3c1.4,0.4,2.8,0.6,4.3,0.6c0.7,0,1.4,0.2,2,0.4c0.5,0.2,1,0.2,1.6,0.2
			c1.4,0.1,2.9,0.1,4.3,0.4c0.7,0.1,1.5,0.1,2.2,0.3s1.5,0.1,2.2,0.3c0.8,0.2,1.6,0.5,2.4,0c0.4,0.5,1,0.1,1.4,0.3
			c0.7,0.4,1.5,0.1,2.2,0.3c1.5,0.4,3,0.1,4.4,0.3c0.8,0.1,1.7,0.1,2.5,0.3c1.2,0.3,2.4,0,3.5,0.3c1.6,0.4,3.1,0.2,4.6,0.2
			c0.5,0,1,0.4,1.6,0.1c0.4-0.2,1.1,0.2,1.7,0.2c0.6,0.1,1.1,0,1.7,0c0.6,0,1.2-0.1,1.8,0c1.9,0.5,3.8,0.2,5.7,0.3
			c1.2,0,2.4,0.5,3.7,0.3c0.5-0.1,0.9,0.1,1.5-0.2c0.3-0.2,0.9,0.2,1.3,0.2c0.5,0,0.9,0.1,1.4-0.2c0.2-0.2,0.9,0.3,1.2,0.2
			c0.7-0.3,1.4,0,2.1,0.1c2.6,0.1,5.1-0.3,7.7,0.3c0.9,0.2,1.9-0.1,2.8-0.3c0.4-0.1,0.9,0,1.4,0s0.9,0,1.4,0c0.4,0,0.8,0,1.2,0
			s0.7,0.4,1.1,0c0.3-0.2,0.9,0,1.3,0c0.4,0,0.5,0.1,0.5,0.5c0,0.3,0.1,0.4,0.4,0.4c0.3,0,0.5,0,0.5-0.4c-0.1-0.5,0.2-0.5,0.6-0.5
			c1.1,0,2.1,0,3.2,0c1.2,0,2.4,0,3.7,0c1.2,0,2.4-0.2,3.5-0.3c0.4,0,0.9-0.2,1.3,0.2c0.2,0.2,0.7,0.2,1,0.1
			c1.1-0.5,2.2-0.2,3.2-0.3c0.7-0.1,1.4,0.2,2-0.3c0.1-0.1,0.3,0,0.4,0c0.6,0.1,1.2,0.6,1.9,0.1c0.5-0.3,1.3-0.1,1.9-0.1
			c0.7,0,1.4-0.1,2.1,0c0.5,0.1,0.7-0.7,1.2-0.2s0.9-0.1,1.3-0.1c0.5,0,0.9,0,1.4,0s0.9,0,1.4,0c0.3,0,0.6,0,1-0.2
			c0.2-0.2,0.7-0.1,1,0.1c0.4,0.2,0.7,0.3,1.1,0c0.2-0.1,0.5-0.1,0.7-0.1c0.3,0,0.6,0.3,0.8,0.3c0.3-0.1,0.4-0.4,0.7-0.5
			c0.2-0.1,0.5,0,0.7-0.1c0.5,0,1.1,0.2,1.5,0c0.5-0.2,0.8,0.1,1.1,0c1.1-0.5,2.3,0,3.4-0.3s2.3-0.2,3.4-0.3
			c0.8-0.1,1.5-0.2,2.3-0.3s1.6,0.2,2.3-0.3c0.1-0.1,0.3,0,0.5,0c1.4-0.1,2.9-0.2,4.3-0.3c0.4,0,0.8-0.2,1.2-0.3
			c0.4-0.1,0.9,0.1,1.3-0.3c0.1-0.1,0.5-0.1,0.7,0c0.3,0.1,0.7,0.3,0.9,0.3c0.6-0.1,1.4-0.1,1.9-0.3c0.6-0.3,1.2-0.3,1.7-0.2
			c0.8,0.1,1.6-0.1,2.3-0.4c0.3-0.1,0.6-0.2,1-0.2c1.7-0.1,3.4-0.1,5.1-0.3c1.6-0.3,3.3-0.3,4.9-0.8c0.5,0.3,1,0,1.5-0.1
			c1.2-0.2,2.5-0.1,3.7-0.4c1.5-0.3,3.1-0.3,4.6-0.8c0.7-0.2,1.4-0.3,2.1-0.4c0.3,0,0.6-0.1,0.6,0.4c0.3,0,0.6,0.2,0.8,0.1
			c0.3-0.1,0.6-0.3,0.8-0.5c0.7-0.8,1.7-0.7,2.7-0.9c0.4-0.1,0.9,0.2,1.3-0.2c0.1-0.1,0.6,0,0.8,0.1c0.3,0.2,0.5,0.2,0.6-0.1
			c0.3-0.4,0.6-0.5,1-0.4c0.7,0,1.4,0.2,2,0c0.6-0.3,1.3,0,1.8-0.5c0.1-0.1,0.4,0,0.6,0c0.7,0.1,1.3-0.1,1.8-0.3
			c0.9-0.4,1.9-0.3,2.8-0.5c0.5-0.1,1.1-0.8,1.7-0.1c0.1-0.8,0.7-0.4,1.1-0.6c0.5-0.3,1-0.2,1.6-0.3c1.6-0.2,3.1-0.5,4.6-1
			c0.3-0.1,0.6-0.2,1-0.3c0.9-0.1,1.8-0.4,2.7-0.5c0.7-0.1,1.3-0.1,1.8-0.6c0.1-0.1,0.3-0.1,0.4-0.1c0.7,0.1,1.2-0.2,1.9-0.3
			c0.6-0.1,1.1-0.2,1.7-0.3s1.4,0,1.8-0.4c0.5-0.4,1.3,0.1,1.6-0.6c1.2-0.2,2.4-0.3,3.6-0.6c1.1-0.3,2.2-0.6,3.2-1
			c0.6-0.3,1.2,0,1.8-0.4c0.4-0.3,1.2-0.4,1.8-0.3c0.7,0.1,0.8-0.6,1.3-0.6c0.5-0.1,1.1,0.1,1.5-0.1c1.1-0.8,2.3-0.8,3.5-1.1
			c0.7-0.2,1.6-0.1,2.1-0.8c0.1-0.1,0.3-0.1,0.4-0.1c0.6,0.1,1.1-0.2,1.7-0.4c0.1,0,0.2-0.2,0.2-0.2c1.1,0.2,1.9-0.6,2.9-0.8
			c0.2-0.1,0.5-0.1,0.7-0.1s0.5,0.1,0.6,0c0.6-0.9,1.8-0.6,2.6-1.2c0.6-0.4,1.5-0.5,2.3-0.7c0.6,0.8,0.7,0.1,1-0.3
			c0.1-0.1,0.2-0.3,0.3-0.3c1.2,0.3,1.9-0.8,3-1c1-0.2,1.8-0.7,2.8-1c0.3-0.1,0.7-0.1,1-0.2c0.3-0.1,0.4-0.5,0.7-0.6
			c0.3-0.1,0.7,0,1.1,0c0.1,0,0.1-0.3,0.2-0.3c0.2-0.2,0.5-0.5,0.8-0.5c0.5-0.1,1.1,0.2,1.5-0.4c0.3-0.5,1.1-0.2,1.4-0.8l0.1-0.1
			c0.9,0.2,1.6-0.3,2.2-0.9c0.5,0.3,0.9-0.1,1.4-0.1c1.1-0.1,1.9-0.9,2.9-1.2c0.7-0.2,1.3-0.5,2.1-0.5c0.2,0,0.6-0.2,0.6-0.3
			c0.1-0.8,0.9-0.5,1.3-0.9c0.2-0.2,0.9,0.3,1-0.3s0.7-0.1,0.8-0.4c0.2-0.4,0.3-0.6,0.8-0.6c0.3,0,0.7-0.2,1.1-0.3
			c0.1,0,0.3-0.1,0.3-0.2c-0.2-1.1,0.9-0.5,1.2-1c1.1,0.1,2-1,3.1-0.9c0.3-0.6,0.8-0.8,1.4-1c1.7-0.6,3.1-1.5,4.6-2.5
			c0.1-0.1,0.3-0.1,0.4-0.2c0.5-0.1,0.9-0.3,1.4-0.4c0.1-0.8,0.7-0.4,1.1-0.6c0.2-0.1,0.3-0.4,0.5-0.6c0.6-0.5,1.3-1,2.1-1.2
			c0.3-0.1,0.5-0.3,0.7-0.5s0.5-0.3,0.7-0.4c0.6-0.3,1.2-0.6,1.8-0.9c0.3-0.1,0.4-0.4,0.7,0c0-0.2,0.1-0.5,0.2-0.7
			c0-0.1,0.2-0.2,0.3-0.2c0.4-0.2,0.9-0.2,1.2-0.5c0.7-0.7,1.6-1.1,2.4-1.7c0.3-0.2,1-0.3,1.1-0.6c0.2-0.7,0.9-0.7,1.3-0.9
			c0.5-0.2,0.8-1,1.6-0.7c0.4-0.3,0.9-0.5,1.1-0.9c0.3-0.7,0.9-0.9,1.4-1.4c0.7-0.6,1.9-0.8,2.2-1.9c1.3-0.4,1.9-1.8,3.3-1.9
			c0.8-0.6,1.6-1.2,2.4-1.8c0.2-0.2,0.3-0.5,0.7-0.6c0.7-0.2,0.7-1.1,1.4-1.3c0.4-0.2,1-0.5,1.1-0.9c0.2-0.6,0.7-0.7,1.1-1.1
			c0.3-0.3,0.7-0.6,0.8-1c0.2-0.5,0.5-0.3,0.7-0.3c0.5-0.1,1.1-0.1,0.6-0.8c0.4,0,0.1-1.3,1-0.5c0.1,0.1,0.9-0.5,0.8-0.7
			c-0.1-0.6,0.3-1.1,0.7-1.2c0.6-0.2,0.5-0.9,0.9-1c0.6-0.1,0.5-0.7,0.8-1c0.1-0.1,0.3-0.2,0.4-0.3c0.3-0.2,0.6-0.4,0.8-0.7
			c0.6-0.8,0.6-0.8,1.3-1.4c0.2-0.2,0.3-0.5,0.5-0.6c0.5-0.3-0.1-1.1,0.8-1.2c0.4-0.1,0.5-0.9,1.1-1c0.2,0,0.3-0.4,0.3-0.6
			c0-0.7,0.8-0.6,0.9-1c0.1-0.5,0.3-1.2,0.6-1.2c0.6-0.2,0.6-0.8,0.8-0.9c0.5-0.1,0.4-0.6,0.7-0.8c0.1-0.1,0.3-0.2,0.3-0.3
			c0.1-0.4,0.2-0.7,0.2-1.1c0.6,0.2,0.5-0.5,0.6-0.6c0.2-0.8,1-1.3,1.2-2.1c0-0.1,0.3-0.2,0.5-0.3c0.1,0,0.2-0.1,0.2-0.1
			c0-0.8,0.3-1.5,1-2c-0.1-0.6,0.3-1.1,0.5-1.6c0.1-0.3,0-0.7,0.1-1c0.1-0.2,0.7-0.1,0.6-0.7c0-0.2,0.3-0.7,0.5-0.7
			c0.5,0,0.4-0.3,0.4-0.6c0.1-0.5,0.3-1,0.3-1.6c0-0.5,0.8-0.2,0.7-0.8c-0.1-0.4,0-0.8,0.2-1.3c0.2-0.3,0-0.8,0-1.2
			c0-0.3,0.2-0.5,0.3-0.8c0-0.3,0-0.6,0.5-0.6c0,0,0.2-0.2,0.1-0.2c-0.2-0.8,0.3-1.5,0.3-2.3c0-0.7,0-0.7,0.6-1.7
			c0.1-0.2,0.3-0.4,0.3-0.6c0.1-0.9,0.2-1.8,0.3-2.8c0-0.3-0.1-0.6,0.4-0.6c0,0,0.2-0.1,0.2-0.2c0.1-1,0.2-1.9,0.3-2.9
			c0-0.3-0.2-0.9,0.5-0.9l0.1-0.2c0-0.6,0-1.2,0-1.8c0-0.1-0.2-0.2-0.3-0.3c-0.1-0.1-0.1-0.2-0.1-0.3c0.8,0,0.5-0.6,0.5-1
			c0-0.5,0.1-1,0-1.5s0.4-1.1-0.5-1.3c-0.1,0-0.1-0.4-0.1-0.6c0-0.6,0-1.2,0-1.8c-0.1-1.9-0.2-3.8-0.3-5.7c0-0.1-0.2-0.3-0.3-0.4
			c-0.1-0.1-0.1-0.1-0.2-0.2c0.1,0,0.2-0.1,0.3-0.1c0.3-0.1,0.4-0.3,0.1-0.3c-0.6,0-0.6-0.6-0.7-0.8c-0.2-0.6-0.3-1.3-0.3-2
			c0-0.3,0-0.6-0.5-0.6c0,0-0.2-0.2-0.2-0.4c0-0.7,0.1-1.5-0.8-1.8c-0.1,0-0.1-0.2-0.1-0.2c0.2-0.7-0.3-1.3-0.3-2
			c0-0.6-0.1-1.1-0.7-1.4c-0.1-0.1-0.1-0.4-0.2-0.6c-0.1-0.5-0.2-0.9-0.4-1.4c-0.7,0-0.5-1-1.2-1c-0.3,0-0.2-0.1,0-0.3
			c0.5-0.3,0.5-0.3,0.1-0.6c-0.2-0.2-0.5-0.3-0.6-0.5c-0.4-0.4-0.1-1.3-0.9-1.4c-0.1-0.6-0.4-1-0.9-1.3c-0.1,0-0.1-0.3-0.1-0.4
			c-0.3-0.4-0.1-1.1-0.8-1.3c-0.5-0.1-0.3-0.8-1-1c-0.3-0.1-0.6-0.7-0.7-1.2c-0.2-0.8-0.8-1.1-1.3-1.5c-0.1-0.1-0.3,0-0.3,0
			c0.1-1.2-1.5-1.3-1.7-2.3c0-0.1-0.2-0.3-0.3-0.4c-0.2-0.1-0.4-0.1-0.6-0.1c0.2-0.6-0.6-0.3-0.7-0.8c0-0.3-0.4-0.5-0.6-0.8
			s-0.4-0.6-0.6-0.8c-0.2-0.2-0.6-0.3-0.8-0.6c-0.2-0.2-0.4-0.6-0.5-0.8c-0.2-0.3-0.2-0.7-0.7-0.8c-0.1,0-0.3-0.2-0.3-0.3
			c0.1-0.6,0.3-1.1-0.6-1.2c-0.3-0.6-0.9-0.6-1.4-0.7c-0.7-0.2-1.1-0.5-1.2-1.2c0-0.4-0.1-0.5-0.5-0.5c-0.5-0.1-1.9-1.2-2.3-1.6
			c-0.2-0.2-0.4-0.4-0.7-0.5c-0.1-0.1-0.2-0.1-0.2-0.1c0.1-0.1,0.3-0.1,0.4-0.2s0.2-0.3,0.2-0.3c-0.1-0.1-0.2-0.2-0.4-0.3
			c-0.4-0.1-0.7,0.5-1.1,0c-0.4-0.4-1.1-0.5-1.3-1.2c-0.1-0.3-0.4-0.7-0.9-0.7c-0.3-0.6-1.3-0.5-1.4-1.4c-0.1-0.3-0.9-0.2-1.2-0.6
			c-0.2-0.3-0.7-0.5-1.1-0.7c-0.1-0.1-0.4-0.1-0.4-0.1c-0.2-0.4-0.2-1-0.5-1.3s-0.9,0-1.4-0.4c-0.3-0.2-0.6-0.3-0.6-0.7
			c0-0.7-0.4-1-1-0.8c-0.7,0.2-0.8-0.5-1.3-0.6s-0.8-0.3-1.2-0.5c-0.8-0.2-1-1-1.4-1.4c-0.3-0.3-0.4-0.6-0.9-0.6
			c-0.2,0-1.6-1-1.8-1.2c-0.1-0.1-0.4-0.3-0.5-0.3c-0.9,0.3-1.4-0.6-2.2-0.7c-0.3,0-0.5-0.6-0.8-0.9c-0.3-0.2-1-0.2-1.1-0.5
			c-0.3-0.5-0.7-0.7-1.2-0.8c-0.3-0.1-0.8-0.1-0.9-0.4c-0.3-0.6-0.9-0.5-1.4-0.7c-0.4-0.2-1.1-0.1-1.2-0.8c0-0.2-0.7-0.3-1-0.5
			c-0.7-0.4-1.2-1.1-2.2-1c-0.2,0-0.4-0.2-0.6-0.3c-0.5-0.4-1-0.8-1.5-1.2c-0.7,0.3-0.8-0.9-1.6-0.7c-0.1,0-0.4-0.2-0.4-0.4
			c-0.1-0.5-0.2-0.7-0.6-0.3l-0.1,0.1c-0.5-0.7-1.2-0.6-1.9-0.6c-0.3-0.8-1.2-0.4-1.8-0.9c-0.5-0.4-1.1-0.6-1.6-1
			c-0.5-0.5-1.2-0.2-1.8-0.6c-0.5-0.3-0.8-1.2-1.6-0.9c-0.2-0.3-0.7-0.2-0.9-0.3c-0.3-0.1-0.6-0.2-0.8-0.3c-0.5-0.3-1.2-0.4-1.7-0.8
			c-0.6-0.5-1.4-0.6-2.2-1c-0.9-0.4-1.6-1-2.7-0.9c-0.4-0.5-1.1-0.3-1.5-0.8c-0.6-0.7-2.3-1.1-3.4-1.3c-0.4-0.1-0.7-0.3-1-0.4
			c-0.7-0.3-1.3-0.9-2.1-0.8c-0.1,0-0.3-0.1-0.4-0.2c-0.9-0.9-2.1-1.3-3.3-1.6c-0.3-0.1-0.6,0-0.7-0.5c-0.2-0.5-0.8-0.8-1.5-0.5
			c-0.2,0.1-0.5,0.1-0.6-0.3c0-0.2,0.1-0.6-0.2-0.6c-0.4,0-0.6-0.3-1-0.2c-0.5,0.2-0.5,0.1-1.2-0.4c-0.1-0.1-0.3-0.1-0.4-0.1
			c-0.5,0-1,0-1.3-0.6c-0.2-0.3-0.8-0.6-1.2-0.6c-1.8-0.1-3.2-1.2-4.8-1.6c-0.7-0.9-2.1-0.5-2.7-1.5c-0.8,0-1.5-0.3-2.2-0.6
			c-0.3-0.1-0.6-0.1-0.9-0.4c-0.1-0.1-0.3-0.2-0.5-0.2c-1.5-0.2-2.9-0.8-4.4-1.1c-0.7-0.1-1.2-0.5-1.6-0.8c-0.9-0.7-1.9-0.9-2.9-1.2
			c-0.6-0.2-1.3-0.2-1.9-0.7c-0.2-0.2-0.6-0.2-1-0.2c-0.3-0.1-0.8,0.2-1-0.2s-1-0.2-0.8-0.8c0.5,0,1,0,1.4-0.1
			c0.4,0.7,1.1,0.5,1.8,0.5c0.4,0,0.8,0.2,1.2,0.3c0.5,0.1,0.9,0,1.4,0c0.1,0,0.3,0.2,0.3,0.3c0,0.5,0.4,0.3,0.7,0.3
			c0.2,0,0.4-0.3,0.6-0.3c0.8,0,1.6-0.3,2.2,0.6c0.5,0,0.9,0.7,1.5,0.1c0.3-0.3,0.5,0.1,0.7,0.2c0.4,0.1,0.8,0.3,1.2,0.3
			c0.6-0.1,0.2,0.9,0.8,0.6c0.4,0.6,1.2,0.6,1.8,0.9c0.3,0.1,0.6,0.1,0.8,0.4c0.2,0.3,0.3,0.1,0.6,0c0.2-0.1,0.5-0.1,0.7,0.1
			c0.3,0.2,0.4,0.2,0.8,0s0.9-0.1,1.3-0.1l0.1,0.2c0,0.2-0.1,0.4-0.2,0.6c0.2,0,0.5,0,0.7,0.1c0.3,0.1,0.7,0.3,0.8,0.6
			c0.3,0.4,0.6-0.1,0.9,0.2c0.2,0.2,0.5,0.4,0.8,0.5c0.5,0.2,1,0.6,1.2-0.3c0-0.1,0.2-0.1,0.2-0.1c0.4,0.2,0.9,0.3,1.3,0.5
			c0.5,0.2,0.4,1,1.1,1c0.5,0.1,0.9,0.6,1.4,0.8s1.1,0.5,1.3-0.4h0.5c0.2,0.7,0.5,1,1.3,0.6c0.2-0.1,2.1,0.5,2.1,0.7
			c0.1,0.5,0.5,0.4,0.7,0.3c0.7-0.4,1.2,0,1.5,0.5c0.4,0.5,0.8,0.7,1.4,0.7c0.2,0,0.5-0.1,0.7-0.2c0,0.3,0.1,0.3,0.4,0.5
			c0.8,0.6,0.8,0.6,1.5,0.4c0.5-0.1,1-0.5,1.3,0.4c0,0.1,0.3,0.1,0.4,0.1c1-0.1,1.9,0,2.7,0.8c0.3,0.3,0.9,0.2,1.3,0.4
			c0.3,0.1,0.6,0.3,0.6,0.5c0,0.9,1.1,0.9,1.4,1.6c0,0,0.4,0,0.5-0.1c0.8-0.5,0.8-0.5,1.5,0c0.4,0.2,0.8,0.6,1.3,0.5
			c0.6,0,1.3,0,1.5,0.8c0,0.1,0.2,0.1,0.4,0.1c1,0.2,1.1,0.3,2.1,1.1c0.2,0.2,0.6,0.4,0.7,0.3c1.4-0.6,2.4,0.8,3.6,0.7
			c0.3,0.4,0.6,0.9,1,1.2c0.4,0.2,1,0,1.5,0.1c0.3,0.1,0.7,0.4,0.9,0.6c0.3,0.3,0.7,0.6,1.2,0.5s0.4,1,1.1,0.6
			c0.7,0.6,1.7,0.5,2.5,1.1c0.7,0.4,1.5,0.7,2.3,1.1c0.1,0,0.2,0,0.3,0.1c0.4,1,1.4,1,2.2,1.3c0.5,0.2,1,0.3,1.4,0.7
			c0.4,0.3,1,0.7,1.7,0.7c0.3,0,0.6,0.1,0.8,0.3c0.8,0.9,1.8,1.2,2.9,1.5c0.4,0.1,0.2,0.8,0.8,0.7c0.2,0.5,1.2,0,1.1,0.8
			c0.5,0.1,0.9,0.2,1.4,0.4c0.1,0,0.3,0.1,0.3,0.2c1.1,1.2,1.5,1.5,2.7,1.9c0.2,0.1,0.4,0.2,0.5,0.3c0.4,0.8,1.2,1,1.9,1.2
			c0.5,0.1,0.4,0.9,1.1,0.7c0.3-0.1,0.7,0.4,1.1,0.7c2.2,1.7,4.6,3.2,6.8,5c0.3,0.3,0.9,0.2,0.9,0.8c0,0.1,0.3,0.1,0.5,0.2
			c0.5,0.3,1.2,0.3,1.4,1.1c0,0.2,0.2,0.4,0.4,0.4c1,0.3,1.5,1.1,2,1.9c0.1,0.1,0.2,0.3,0.3,0.3c0.8-0.1,1.3,0.6,1.9,0.9
			c0.2,0.1,0.4,0.2,0.5,0.3c0.2,0.7,0.7,1,1.3,1.4c0.5,0.4,1,0.8,1.5,1.3c0.7,0.7,1.4,1.5,2.4,1.9l0.1,0.1c0.2,1,1,1.3,1.8,1.8
			c0.3,0.2,0.6,0.5,0.7,1.1c0.1,0.4,0.6,0.7,1,0.9c0.4,0.2,0.6,0.3,0.8,0.7c0.2,0.5,0.8,0.7,1.2,1.1c0.4,0.4,0.9,0.8,1.1,1.2
			c0.2,0.5,1.1,0.6,0.8,1.3c0.2,0.1,0.3,0.2,0.5,0.2c0.3,0,0.4,0.2,0.4,0.5c0,0.1,0.1,0.4,0.1,0.4c1-0.2,0.7,0.9,1.1,1.2
			c0.2,0.2,0.3,0.7,0.5,0.7c0.5,0,0.4,0.3,0.5,0.6c0.1,0.5,0.7,0.7,0.9,1.1c0.2,0.4,0.2,1.2,1,1.1l0.1,0.1c-0.1,0.9,0.8,1.3,1,2
			c0.2,0.6,1,0.7,0.9,1.5c-0.1,0.6,0.8,1,0.6,1.7c0.8,0.1,0.4,1.4,1.3,1.5c0.1,0,0.2,0.2,0.2,0.3c-0.2,0.9,0.8,1.5,0.6,2.5
			c-0.1,0.3,0.7,0.1,0.6,0.8c-0.1,0.4,0.4,0.9,0.3,1.4c0.6,0.2,0.4,0.9,0.7,1.2c0.4,0.6,0,1.2,0.3,1.7s0.3,1,0.3,1.6
			c0,0.3-0.1,0.6,0.4,0.6c0,0,0.2,0.2,0.2,0.4c0.1,1.2,0.5,2.3,0.3,3.5c0,0.3-0.1,0.8,0.5,0.7l0.1,0.2c0.1,1,0.2,1.9,0.3,2.9
			c0,0.4-0.4,0.9-0.3,1.2c0.5,1.5,0.2,3.1,0.3,4.6c0,0.9-0.2,1.7-0.3,2.6c0,0.4,0.1,0.8,0.2,1.3c0.2,0.6-0.2,1.3-0.3,1.9
			c-0.8,0.1-0.5,0.7-0.5,1.1c0.1,1-0.2,2-0.3,2.9c-0.1,0.4-0.9,0.2-0.6,1c0.1,0.4,0.2,0.9-0.2,1.3c-0.3,0.3,0.1,0.9-0.3,1.2
			c-0.1,0.1,0,0.4-0.1,0.6c-0.1,0.6,0.4,1.3-0.6,1.6c-0.1,0.6-0.2,1.1-0.3,1.7c-0.1,0.4,0.2,0.9-0.5,1c-0.1,0-0.1,0.5-0.1,0.8
			c0,0.8-0.1,1.5-1.1,1.8c-0.3,0.1-0.5,0.4-0.5,0.9c0,0.6,0.5,1.4-0.6,1.7c0.2,0.6-0.3,1.1-0.3,1.7c0,0.5-0.1,1.1-0.3,1.5
			c-0.1,0.2-0.4,0.3-0.6,0.5c-0.3,0.3-0.1,0.9-0.7,1s0.1,0.9-0.6,1.1c0.1,0.5-0.9,0.6-0.6,1.2c-0.4,0.4-0.4,1-0.6,1.4
			s-0.5,0.9-1,1.1c-0.4,0.2-0.4,0.4-0.5,0.7c-0.2,0.7,0.1,1.6-1,1.8c-0.1,0-0.1,0.2-0.1,0.4c0,0.7-0.4,1-0.9,1.3c0,0-0.9,1.5-1,1.6
			c-0.4,0.7-0.7,1.5-1.5,1.8c-0.5,0.2-0.6,0.6-0.8,0.9c-0.2,0.3-0.4,0.8-0.6,0.8c-0.6,0-0.4,0.5-0.5,0.7s-0.2,0.4-0.4,0.4
			c-0.9,0.1-0.9,1.3-1.7,1.4c0,0.6-0.6,0.7-0.9,1c-0.5,0.4-1.2,0.8-1.3,1.6c-0.1,0.5-0.6,1-1.1,1c-0.6,0-0.7,0.4-0.9,0.7
			c-0.2,0.3-0.4,0.8-0.5,0.8c-0.5,0-0.6,0.5-0.6,0.7c-0.1,0.7-1,0.6-1.2,1.3c-0.1,0.5-0.8,0.7-1.4,0.8c-0.1,0-0.3,0.1-0.3,0.2
			c-0.4,1.3-1.8,1.6-2.6,2.5c-0.8-0.1-1,0.7-1.5,1s-0.9,0.7-1.3,1.2s-1.2,0.7-1.6,1.2c-0.5,0.5-1.4,0.5-1.5,1.4
			c0,0.1-0.2,0.3-0.3,0.3c-0.8,0.4-1.5,0.9-2.1,1.5c-0.3,0.3-0.9,0.4-1.3,0.4c-0.5,0.1-0.2,0.9-0.8,0.9c-0.4,0-0.6,0.7-1.1,0.6
			c-0.1,0-0.2,0.1-0.2,0.1c-1.2,1.4-1.7,1.7-3.1,2.3c-0.1,0.1-0.2,0.4-0.3,0.4c-0.6,0.1-0.7,1.1-1.5,0.8c-0.1,0-0.3,0.2-0.4,0.3
			c-0.2,0.2-0.4,0.6-0.6,0.6c-0.4,0-0.6,0.2-0.9,0.4s-0.7,0.5-1,0.5c-0.6,0-0.9,0.2-1.3,0.6c-0.2,0.2-0.6,0.2-0.9,0.4
			c-0.1,0-0.4,0.1-0.4,0.1c-0.1,0.9-1.1,0.8-1.4,1.4c-0.1,0.2-0.3,0.4-0.5,0.3c-0.9-0.2-1.4,0.5-2.1,0.9c-0.6,0.4-1.4,0.5-2,1
			c-0.7,0.5-1.1,1.3-2.1,1.2c-0.5,0.7-1.5,0.5-1.9,1.2c-0.8-0.1-1.2,0.8-1.9,0.9c-0.8,0.1-1.2,0.7-1.9,1.1c-0.2,0.1-0.4,0.1-0.5,0.2
			c-0.2,0.1-0.5,0-0.7,0.2c-1.2,0.7-2.3,1.3-3.7,1.4c-0.1,0-0.2,0.1-0.2,0.1c-0.2,1.1-1,0.8-1.6,0.8s-0.7,1-1.4,0.7
			c0,0.5-0.4,0.6-0.8,0.5c-0.5,0.9-1.5,0.9-2.3,1.1c-0.6,0.2-1.1,0.5-1.7,0.7c-0.3,0.1-0.7,0.3-1.1,0.3c-0.3,0-0.6,0.1-0.8,0.3
			c-0.4,0.4-1,0.6-1.6,0.6c-0.3,0-0.8-0.1-0.7,0.5c-0.4,0-0.9,0.1-1.3,0.1c-0.2,0-0.5,0.2-0.5,0.2c0.1,0.8-0.4,0.7-0.9,0.7
			c-0.4,0-0.8-0.2-1,0.5c-0.1,0.2-0.7,0.3-1.2,0.4c-1.1,0.2-2.2,0.4-3.1,1.1c-0.1,0.1-0.3,0.1-0.4,0.1c-0.7,0.1-1.4,0.3-2,0.7
			c-0.4,0.3-1.1,0.4-1.6,0.5c-0.3,0.1-0.8-0.1-1,0.1c-0.4,0.5-0.6-0.4-0.9-0.1c-0.1,0.1-0.3,0.1-0.4,0.3c-0.5,0.5-0.4,0.5-1.2,0.4
			c-0.2,0-0.6,0-0.7,0.2c-0.5,0.7-1.5,1.3-2.3,1.7c-0.9,0.5-1.7,0.6-2.7,0.6c-0.5,0-1,0-1.5,0.5c-0.3,0.4-1,0.2-1.5,0.4
			c-0.7,0.3-1.6,0.4-2.3,0.7c-0.3,0.2-0.6,0.2-1,0.2c-0.3,0.1-0.5,0.2-0.8,0.3c-0.6,0.1-1.1,1-1.9,0.7c-0.6,0.4-1.2,0.6-1.9,0.6
			c-0.1,0-0.3,0.1-0.4,0.1c-0.5,0.2-0.9,0.5-1.4,0.8c-0.5-0.5-1,0-1.4,0.1c-0.5,0.1-1,0.2-1.6,0.2c-0.4,0-0.8,0.2-1.2,0.3
			c-0.4,0.1-0.6-0.1-0.5-0.5c0.1-0.5-0.3-0.4-0.6-0.4c-0.4,0-0.3,0.3-0.3,0.5c0,0.3,0,0.6,0,0.9c0,0.4-0.2,0.5-0.6,0.3
			c-0.2-0.1-0.4-0.2-0.5-0.2c-1.1,0.5-2.2,0.6-3.4,0.6c-0.3,0-0.8-0.2-0.7,0.5c0,0-0.2,0.1-0.4,0.1c-0.6,0-1.2,0.3-1.8,0.5
			c-0.3,0.1-0.4,0.2-0.6-0.1c-0.1-0.1-0.2-0.2-0.3-0.4c-0.1,0.1-0.2,0.4-0.3,0.4c-0.6,0.2-1.1,0.6-1.8,0.5c-0.6,0-1.2-0.1-1.3,0.8
			c0,0-0.4,0.1-0.5,0c-0.2-0.1-0.3-0.3-0.4-0.4c-0.1-0.1-0.4-0.1-0.4-0.1c-0.2,1-1.5,0.3-1.8,1.1c-0.1,0.2-0.6,0.4-1.1,0.1
			c-0.3-0.2-0.8,0.2-1.2,0.2c-0.4,0.1-1-0.1-1.3,0.1c-0.5,0.3-1,0.2-1.4,0.2c-0.5,0-1,0-1.2,0.6c0,0.1-0.3,0.2-0.4,0.3
			c-0.4,0.1-0.9,0.3-1.3,0.2c-0.5-0.1-0.7,0.3-1.1,0.4c-0.3,0.1-0.7,0.1-1,0.1c-0.7-0.2-1.4,0.5-2.2,0.1c-0.1-0.1-0.4,0.1-0.5,0.2
			c-0.4,1-1.1,0.8-1.8,0.4c-0.7-0.4-1.3-0.3-1.9,0.2c-0.4,0.4-0.7,0.4-1.4,0.3c-0.1,0-0.4,0-0.4,0c-0.2,0.9-0.9,0.5-1.4,0.6
			c-0.3,0.1-0.5,0.2-0.8,0.3c-0.5,0.2-0.9,0.6-1.4,0c-0.1-0.2-0.7-0.1-0.9,0c-0.7,0.4-1.6,0.3-2.4,0.6c-0.2,0.1-0.4,0-0.5,0.2
			c-0.6,0.7-1.4,0.6-2.1,0.3c-0.6-0.3-0.9-0.2-1.3,0.2c-0.3,0.3-0.6,0.4-0.7-0.2c0,0-0.2-0.1-0.3,0c-0.7,0.6-1.8,0.2-2.3,1.1
			c0,0.1-0.3,0-0.4,0c-1.3-0.2-1.9-0.1-2.8,0.5c-0.2,0.1-1.4-0.2-1.5-0.4s-0.1-0.4-0.3-0.5c-0.2-0.1-0.5-0.1-0.8-0.2
			c0,0.2-0.2,0.6-0.1,0.7c0.5,0.5,0,0.6-0.3,0.8c-0.1,0-0.2,0-0.3,0c-0.6,0-1-0.3-1.4-0.6c-0.3,0.4-0.7,0.7-1.3,0.6
			c-0.4,0-0.8-0.1-1.1,0.2c-0.2,0.2-0.6,0.1-0.9-0.2c-0.1-0.1-0.7-0.3-0.8,0.3c0,0.1-0.3,0.2-0.4,0.2c-0.2,0-0.5-0.2-0.7-0.2
			c-0.3,0-0.6,0.2-0.8,0.2c-1.3-0.2-2.5,0.4-3.8,0.3c-0.1,0-0.4,0.3-0.4,0.2c-0.7-0.5-1.5,0-2.2-0.3l-2.1,0.1
			c-0.1,0.2-0.2,0.5-0.3,0.6c-0.7,0.3-1.3,0.8-2.2,0.6c-0.5-0.1-0.9,0.2-1.4,0.3c-0.6,0.1-1-0.2-1.6-0.3c-0.4,0.5-1,0.2-1.6,0.3
			c-0.1,0-0.3,0-0.4-0.1c-0.6-0.4-0.8-0.2-1.1,0.4c-0.1,0.2-0.3,0.3-0.4,0.3c-0.9,0-1.8,0.2-2.6,0c-0.9-0.3-1.6-0.4-2.4,0.2
			c-0.3,0.3-1.1,0.1-1.6,0.1c-0.2,0-0.3-0.1-0.6,0c-1.9,0.7-2.9,1-5.2,0.4c-0.7-0.2-1.5,0-2.3,0c-0.2,0-0.4,0.1-0.6,0.1
			c0.2,0.1,0.4,0.1,0.6,0.2c0.1,0,0.2,0.1,0.3,0.1c-0.1,0.1-0.1,0.2-0.2,0.2c-0.7-0.1-1.4,0.3-2-0.2c-0.1-0.1-0.2-0.1-0.3,0
			c-0.7,0.1-1.5,0.1-1.9,0.4c-0.5,0.4-0.9,0.3-1.3,0c-0.6-0.3-1.1-0.3-1.7,0.1c-0.5,0.3-1.1,0.3-1.7,0.4c-1,0.1-2-0.3-2.9,0.3
			c-0.1,0-0.2,0-0.3,0c-1.1-0.6-2-0.4-3,0.2c-0.2,0.2-0.7,0.1-1,0c-1.1-0.3-1-0.3-2.4,0c-0.3,0.1-0.7,0-1.1,0
			c-1.3,0.1-2.7-0.3-4,0.3c-0.1,0.1-0.4,0.1-0.4,0c-0.4-0.4-0.9-0.4-1.3-0.2c-0.4,0.2-0.7-0.5-1.1,0.1c-0.1,0.2-0.7,0.1-1,0
			c-0.7-0.1-1.4-0.3-2.2-0.3c-0.7,0-1.4,0.2-2.2,0.3c-0.7,0.1-1.3,0-2,0c-0.5,0-1.1-0.2-1.6,0.3c-0.1,0.1-0.3,0.1-0.4,0
			c-0.8-0.5-1.7-0.4-2.5,0c-0.1,0.1-0.3,0.1-0.5,0c-1.7-0.6-3.5-0.2-5.2-0.3c-0.7,0-1.4,0.4-2.2,0.3c-0.5-0.1-1,0.2-1.4-0.3
			c-0.1-0.1-0.5,0-0.7,0.1c-0.7,0.4-1.4,0.3-2,0.1c-1.6-0.3-2-0.3-3.3,0c-0.3,0.1-0.6,0.1-0.9,0c-0.9-0.4-1.6-0.4-2.5,0
			c-0.6,0.2-1.3,0.1-2-0.1c-1-0.2-2.2,0-3.3,0c-0.4,0.5-1-0.3-1.3,0.2c-0.4-0.6-1.3,0-1.7-0.7c-0.1-0.1-0.3-0.1-0.5-0.2
			c-0.2,0.7-0.5,0.8-1.2,0.4c-0.2-0.1-0.8,0.3-1.2,0.5c-0.7-0.7-1.7,0.1-2.5-0.6c-0.3-0.2-0.9-0.1-1.3,0c-0.6,0.1-1.1,0.1-1.7,0
			c-1.8-0.2-3.6-0.2-5.4-0.3c-0.3,0-0.7,0.1-1-0.3c-0.1-0.1-0.5-0.1-0.6,0c-0.6,0.7-1.6-0.1-2.2,0.6c-0.6-0.7-1.6,0.1-2.2-0.6
			c-1.4-0.1-2.9-0.2-4.3-0.3c-0.3,0-0.6,0-0.8,0.3c-0.1,0.1-0.5,0.1-0.6,0c-0.5-0.9-1.3-0.1-1.9-0.3c-0.3-0.1-0.6,0-0.9,0
			c-0.6,0-0.7-0.8-1.4-0.6c-0.4,0.1-0.8,0.8-1.3,0.1c-0.1-0.1-0.5,0-0.7,0c-1.4,0.2-2.7-0.4-4.1-0.3c-0.4,0-0.7-0.3-1.1-0.3
			c-0.3,0-0.6,0.2-0.9,0.3c-1.5,0.1-3-0.2-4.5-0.6c-0.5-0.2-1-0.3-1.6-0.3c-0.9,0-1.8,0.2-2.6-0.1c-0.7-0.2-1.4-0.5-2.2-0.6
			c-0.5-0.1-1.1-0.4-1.6-0.5c-0.1,0-0.3,0-0.5,0c-0.8,0.3-1.5,0.4-2.4,0c-0.7-0.3-1.6,0-2.4-0.1c-0.8-0.1-1.6-0.3-2.3-0.7
			c-0.5-0.3-0.9-0.3-1.4-0.1s-0.9,0.3-1.4-0.2c-0.2-0.2-0.6-0.3-0.6-0.3c-0.4,0.4-0.8-0.1-1.2-0.1c-0.5,0.1-1.1,0.1-1.5-0.4
			c-0.1-0.1-0.4-0.2-0.5-0.1c-1,0.7-1.9,0-2.8,0c-0.3,0-0.7-0.4-1.1-0.3c-0.9,0.2-1.8-0.1-2.6-0.4c-0.7-0.2-1.5-0.2-2.2-0.5
			s-1.5-0.3-2.3-0.3c-0.3,0-0.5-0.2-0.8-0.3c-1-0.3-2.1-0.5-3.1-0.6c-0.4-0.1-0.9,0.1-1.3-0.3c-0.3-0.3-0.7,0.6-1.1,0
			c-0.4,0.1-0.7-0.3-1.1-0.3c-0.5,0-0.9-0.3-1.2-0.3c-0.8,0-1.5-0.1-2.2-0.4c-1.1-0.4-2.4-0.3-3.4-0.9c-0.4-0.3-0.8,0.5-1.3,0
			c-0.3-0.3-0.7-0.5-1.1-0.6c-0.5-0.2-1.2,0.1-1.7-0.3c-1.1,0.1-2-0.6-3-0.7c-1-0.1-1.9-1-3-0.8c-0.1,0-0.3-0.2-0.5-0.3
			c-0.5-0.2-1-0.4-1.5-0.3c-0.5,0.1-1,0.1-1.4-0.4c-0.1-0.1-0.4-0.2-0.7-0.2c-0.5,0-1.1,0.1-1.5-0.5c-0.1-0.1-0.3-0.1-0.4-0.1
			c-1.5,0.1-2.8-0.7-4.2-0.9c-0.8-0.1-1.6-0.5-2.4-0.8c-1-0.3-1.8-1.1-2.9-1.1l-0.1-0.1c-0.5-0.4-1.2,0.1-1.8-0.4
			c-0.4-0.4-1-0.7-1.6-0.9c-1.1-0.4-2.2-0.9-3.3-1.2c-0.7-0.2-1.4-0.6-2.1-0.8c-0.6-0.2-1.4-0.2-1.9-0.9c-0.1-0.1-0.5-0.1-0.7-0.1
			c-0.4-0.1-1-0.2-1-0.4c-0.2-1-1.1-0.9-1.7-1.1c-0.7-0.2-1.4-0.4-2.1-0.8c-0.5-0.3-1.2-0.5-1.8-0.8c-0.8-0.4-1.7-0.6-2.4-1.2
			c-0.1-0.1-0.2-0.2-0.4-0.2c-1.1,0-1.8-0.8-2.7-1.2c-0.9-0.4-1.7-0.9-2.5-1.3c-0.2-0.7-1-0.6-1.4-1s-1-0.5-1.5-0.8
			c-0.2-0.1-0.6-0.3-0.6-0.5c0-0.5-0.3-0.4-0.6-0.4c-0.4-0.1-0.9-0.1-1.1-0.3c-0.4-0.5-0.9-0.5-1.4-0.7c-0.3-0.2-0.8-0.4-0.9-0.7
			c-0.1-0.7-0.8-0.9-1.2-1c-0.7-0.1-1.1-0.4-1.3-1c-0.1-0.1-0.3-0.2-0.4-0.3c-0.4-0.2-0.9-0.4-1.3-0.6c-0.4-0.3-0.8-0.6-1.2-0.9
			c-0.2-0.1-0.3-0.4-0.5-0.3c-0.8,0.2-0.4-0.4-0.5-0.6c-0.1-0.2-0.1-0.4-0.2-0.5c-0.5-0.4-1-0.7-1.6-1l-1.7-1.2
			c0-0.4-0.3-0.3-0.5-0.4c-0.1,0-0.4-0.1-0.4-0.1c0-1.1-0.9-1.1-1.5-1.5c-0.6-0.5-1.2-0.9-1.8-1.4c-0.3-0.3-0.8-0.5-0.9-0.9
			c-0.1-0.3-0.3-0.3-0.5-0.4c-0.1,0-0.4-0.1-0.4-0.1c0.2-0.9-1.1-0.9-1.1-1.7c0-0.1-0.3-0.3-0.4-0.3c-0.6,0.2-0.6-0.6-0.8-0.6
			c-0.6,0-0.4-0.9-0.8-0.9c-0.6,0-0.6-0.6-0.8-0.9c-0.3-0.6-0.8-0.9-1.2-1.1c-0.5-0.3-0.6-0.7-0.9-1c-0.3-0.3-0.7-0.5-1-0.8
			s-0.5-0.7-0.8-1c-0.2-0.3-0.4-0.6-0.8-0.5c-0.1,0-0.4-0.1-0.4-0.1c0.1-1.1-1-1.2-1.6-1.6c-0.5-0.3-0.1-1-0.7-1.2
			c-0.4-0.2-0.7-0.5-1.1-0.7l-0.1-0.1c0.3-0.7-0.4-0.9-0.6-1.4c-0.3-0.7-0.8-1.2-1.5-1.3c-0.6,0-0.5-0.6-0.8-0.9
			c-0.3-0.3,0.3-0.9-0.4-1.1c-0.3-0.1-0.5-0.5-0.6-0.9c-0.1-0.5-0.4-0.6-0.8-0.7c0.1-1-0.7-1.4-1.2-1.9c-0.3-0.3-0.1-0.9-0.7-1.1
			c-0.3-0.1-0.6-0.6-0.8-0.9c-0.1-0.1-0.3-0.3-0.3-0.4c0.1-0.6-0.4-0.9-0.5-1.3c-0.2-0.4-0.6-0.4-0.7-0.6c-0.1-0.3,0.1-0.7-0.1-0.9
			c-0.3-0.3-0.2-0.8-0.8-0.9c-0.3-0.1-0.2-0.9-0.7-1.1c-0.6-0.2-0.2-0.9-0.6-1.2c-0.3-0.3-0.2-0.8-0.3-1.2c0-0.1-0.2-0.3-0.4-0.3
			c-0.3-0.1-0.3-0.2,0-0.3c0.1,0,0.5-0.1,0.2-0.3c-0.9-0.4-0.7-1.1-0.8-1.8c0-0.5,0.1-0.8-0.5-1.2c-0.5-0.2-0.5-1.2-1-1.6
			c-0.6-0.5-0.6-1-0.6-1.6c0-0.3-0.1-0.5-0.4-0.6s-0.4-0.7-0.5-1.1c-0.1-0.3,0.1-0.7,0-1.1c-0.1-0.2-0.5-0.3-0.6-0.5
			c-0.1-0.5-0.8-0.8-0.4-1.4C3.8,160,4.4,159,3.6,159c0,0-0.1-0.3-0.1-0.5c0-0.3-0.1-0.6,0-0.9c0.1-0.3-0.6-0.4-0.1-0.7
			c0.1-0.1-0.2-0.5-0.2-0.7c0-0.3-0.1-0.4-0.5-0.4l-0.1-0.2c0.2-0.1,0.3-0.2,0.5-0.3c-0.2-0.1-0.5-0.2-0.5-0.4c0-1-1.2-1.9-0.4-3
			c-0.5-0.6-0.2-1.2-0.3-1.9c0-0.3,0.1-0.8-0.5-0.7c0,0-0.1-0.4-0.1-0.7c-0.1-1.2-0.2-2.4-0.3-3.5c0-0.1-0.1-0.2-0.2-0.3
			c-0.5-0.6-0.6-1,0-1.5c0.3-0.3,0.3-0.8,0.1-0.8c-0.6-0.1-0.5-0.4-0.5-0.7c0-1,0-1.9,0-2.9c0-0.6,0.1-1.2-0.1-1.8
			c-0.1-0.4,0.3-0.9-0.2-1.3c-0.1-0.1-0.1-0.6,0-0.7c0.6-0.8,0.1-1.8,0.3-2.6c-0.4-0.4-0.1-0.8,0-1.3S0.2,130.2,1,130
			c0,0,0-0.3,0.1-0.4c0.1-0.7-0.2-1.5,0.3-2.2c0.1-0.1,0-0.4-0.1-0.6c0-0.1-0.2-0.3-0.2-0.4c0.5-0.8,0.2-1.8,0.3-2.6
			c0-0.1,0.3-0.1,0.4-0.1c0.3-0.2,0.3-0.4,0.1-0.6c-1-1-1.1-1.3-0.1-2.2c0.1-0.1,0.2-0.2,0.2-0.3c0-0.8,0.4-1.6,0.4-2.5
			c0-1.1,0.1-2.3,0.3-3.4c0-0.2,0.5-0.4,0.6-0.6c0.1-0.3-0.1-0.9,0.1-1c0.5-0.3-0.3-0.6,0.1-0.8c0.1,0,0.1-0.2,0.1-0.3
			c0-0.6-0.1-1.3,0-1.8s0.8-0.7,0.9-1.3c0.1-0.3,0.6-0.6,0-1c0.2-0.4,0.3-1,0.5-1.1c0.5-0.1,0.4-0.4,0.4-0.7c0-0.6-0.1-1.3,0.3-1.9
			c0.1-0.2,0-0.5,0.4-0.6c0.3-0.1,0.4-0.7,0.5-1.1c0.1-0.3-0.1-0.7,0-1.1c0.1-0.2,0.5-0.3,0.6-0.5c0.4-0.7,0.2-1.6,0.6-2.3
			c0.3-0.4-0.4-1.2,0.5-1.4c0.1-0.5,0.1-1.2,0.4-1.5C9.6,95,9.5,93.8,9.9,93c0.1-0.2,0.5-0.3,0.6-0.5c0.1-0.5,0.4-0.6,0.7-0.8
			c0.2-0.1,0.1-0.7,0.3-1.1c0.1-0.2,0.3-0.4,0.4-0.4c0.5,0,0.4-0.3,0.4-0.6c0.1-0.6,0.1-1.2,0.3-1.7c0.1-0.3,0.2-0.9,0.8-0.9
			c0.1,0,0.3-0.2,0.3-0.3c-0.1-0.6,0.5-0.8,0.7-1.2c0.2-0.4,0.4-0.8,0.6-1.3c0.1-0.3-0.2-0.9,0.3-1c0.6-0.1,0.2-0.6,0.4-0.8
			c0.1-0.1,0.2-0.3,0.3-0.3c0.6-0.1,0.7-0.6,0.9-1s0.3-0.8,0.4-1.2c0.6,0,0.5-0.6,0.8-0.8c-0.2-0.6,0.8-0.3,0.6-0.9
			c0.6-0.5,1.3-0.8,1.2-1.8c0-0.1,0.3-0.3,0.5-0.5c0.1-0.1,0.3-0.2,0.4-0.3c0.2-0.4,0.5-0.8,1-1.1c0.4-0.2,0.7-0.6,0.6-1.1
			c0-0.1,0.1-0.4,0.1-0.4c0.7,0.1,0.9-0.4,0.9-1c0.7-0.1,0.5-1,1-1.2c0.6-0.2,0.5-0.8,0.8-1.2c0.2-0.3,0.8-0.5,0.8-0.7
			c0-0.7,1-0.4,1-1.1c0-0.6,0.5-0.9,1.1-1.1c0.1,0,0-0.3,0.1-0.4c0.3-0.3,0.4-0.8,0.9-1c0.5-0.3,1-0.8,1.1-1.3c0.2-0.6,0.9,0,1-0.6
			c0-0.4,0.1-1,0.3-1c0.8-0.3,0.9-0.9,1.2-1.5c0.1-0.3,0.5-0.4,0.8-0.6c0.5-0.4,1-0.7,1.1-1.4c0-0.2,0.2-0.6,0.5-0.7
			c0.4-0.1,0.6-0.4,0.8-0.7s0.7-0.4,0.9-0.7c0.3-0.6,1.1-0.7,1.1-1.2c0.1-0.7,1.2-0.4,1-1.3c0-0.1,0.5-0.3,0.7-0.4
			c0.2-0.1,0.5-0.2,0.5-0.2c-0.1-0.9,0.8-0.9,1.2-1.3c0.5-0.5,1.2-0.8,1.7-1.4c0.1-0.2,0.4-0.3,0.6-0.4c0.5-0.4,1.1-0.7,1.4-1.3
			c0.1-0.2,0.4-0.4,0.7-0.5c0.5-0.4,1.1-0.6,1.4-1.3c0.1-0.2,0.4-0.4,0.7-0.6c0.5-0.4,1-0.7,1.5-1.2c0.6-0.7,1.6-1.3,2.4-1.8
			c0.5-0.3,1-0.7,1.6-0.8c0.5-0.1,1.2-0.2,1.3-0.9c0-0.1,0.3-0.3,0.4-0.4c0.6-0.3,1.1-0.6,1.5-1.2c0.1-0.2,0.4-0.2,0.6-0.3
			c0.1-0.1,0.3,0,0.4-0.1c0.2-0.3,0.3-0.9,0.6-1.1c0.3-0.2,0.8,0,1.2-0.1c0.2,0,0.2-0.5,0.3-0.6c1.1-0.4,1.9-1.2,2.9-1.8
			c0.6-0.3,1.5-0.3,1.6-1.2c0.8-0.4,1.6-0.8,2.4-1.2c0.7-0.4,1.4-0.7,2.1-1.2c0.5-0.4,1-0.6,1.5-0.8c0.8-0.2,1.5-0.7,2.1-1.2
			s1.2-1.2,2.2-1.1c0.1,0,0.3-0.2,0.5-0.3c1.2-0.8,2.8-1,3.9-2.1c1,0,1.6-0.9,2.7-1c0.4,0,0.8-0.4,1.2-0.7c0.5-0.4,1-0.7,1.7-0.8
			c0.4,0,0.7-0.4,1.1-0.6c1.2-0.4,2.4-0.9,3.6-1.2c0.7-0.2,1.1-0.8,1.8-0.8c0.2-0.5,0.9-0.5,1.3-0.6c1.2-0.2,2.3-1,3.7-0.8
			c0.4,0.1,0.9-0.1,1.2-0.7c0.4-0.7,1.1-1.1,2-1.1c0.6,0,1.2-0.3,1.8-0.5c0.5-0.2,0.8-0.8,1.5-0.7c0.5,0.1,1-0.4,1.6-0.5
			c0.5-0.1,1-0.2,1.4-0.4c0.4-0.2,1.3,0,1.3-0.8c0.5-0.2,0.9-0.5,1.5-0.4c0.3,0,0.9,0.3,0.8-0.5c0.4-0.1,0.8-0.1,1.1-0.2
			c1.8-0.6,3.6-1.3,5.4-1.6c2-0.3,4-1.3,6.2-1c0.2,0,0.5,0.1,0.6,0c0.5-0.5,1.1-0.8,1.9-0.9c0.7-0.1,1.4-0.3,2-0.7
			c0.6-0.3,1.1-0.1,1.7-0.3c0.9-0.3,1.8-0.6,2.7-0.8c0.9-0.1,1.8-0.6,2.8-0.3c0.1,0,0.3,0.1,0.4,0c0.8-0.6,1.6-0.5,2.5-0.6
			s1.9-0.3,2.7-0.7c0.5-0.2,0.5,0.4,0.9,0.1c0.3-0.2,0.5-0.5,0.8-0.6c0.6-0.2,1.2-0.4,1.9-0.3c1.3,0.1,2.5,0,3.7-0.6
			c0.1-0.1,0.3,0,0.5,0c0.5,0,0.9,0,1.4,0c0.4,0,0.7-0.2,1.1-0.3c0.6-0.1,1.2-0.6,1.9,0c0.1,0.1,0.3,0,0.4,0
			c0.8-0.5,1.7-0.5,2.5-0.6c0.7-0.1,1.5-0.2,2.2-0.6c0.5-0.3,0.9-0.3,1.4-0.3c0.4,0,0.8,0,1.3-0.3c0.4-0.3,0.9,0.2,1.4,0
			c0.9-0.3,1.9-0.2,2.9-0.4c0.5-0.1,1-0.2,1.6-0.3c0.5-0.1,1,0.1,1.4-0.3c0.2-0.1,0.6,0,0.9,0c0.6,0,1.1,0,1.7-0.3
			c0.6-0.3,1.3-0.3,2-0.4c1.4-0.1,2.9-0.1,4.3-0.3c1.4-0.2,2.9-0.4,4.3-0.6c1.3-0.2,2.6-0.2,3.8-0.2c0.2,0,0.3,0.1,0.5,0
			c1.7-1,3.5-0.5,5.2-0.6c1.4-0.1,2.9-0.2,4.3-0.3c1.5-0.1,3,0,4.4,0c0.7,0,1.3-0.2,2-0.4c0.4-0.1,0.7-0.4,1.2,0
			c0.1,0.1,0.2,0.1,0.3,0.1c1.3-0.6,2.8-0.1,4.1-0.3c0.7-0.1,1.5,0.1,2.2-0.3c0.3-0.2,1-0.2,1.3,0c0.5,0.3,1.1,0.3,1.6,0.3
			c1.1-0.1,2.3-0.1,3.4-0.3c0.6-0.2,1.2,0.1,1.7,0.1c3.3-0.1,6.5,0,9.8,0c0.4,0,0.8-0.1,1.3,0.2c0.4,0.3,1,0.7,1.5-0.1
			c0.1-0.1,0.5-0.2,0.7-0.1c0.7,0.4,1.4,0.4,2.1,0c0.1,0,0.2,0,0.3-0.1c0.6-0.2,1.2,0.4,1.8,0.1c0.6-0.2,1.1-0.3,1.7,0.1
			c0.2,0.2,0.8,0.2,1,0c0.9-0.5,1.8-0.3,2.6-0.3s1.5,0.2,2.3,0.3c0.8,0.1,1.5,0,2.3,0c0.4,0,0.8,0.5,1.4,0.2
			c0.3-0.2,0.8,0.1,1.2,0.1c0.5,0,1,0.1,1.5,0c1.6-0.2,3.2,0.2,4.7,0.4c1.5,0.2,2.9,0.2,4.3,0.2c1,0.1,2,0.5,3.1,0.4
			c0.1,0,0.2,0.2,0.2,0.2c0.9-0.7,1.9,0.2,2.8,0.1c0.9,0.7,1.9,0.1,2.8,0.3c0.2,0,0.3,0.2,0.5,0.2c0.7,0.1,1.4,0.5,2.1,0.4
			c0.9,0,1.8,0.4,2.8,0.3c0.9-0.1,1.7,0.3,2.5,0.5c0.8,0.3,1.6,0.3,2.5,0.3c0.7,0,1.3,0.5,2,0.3c0.7-0.1,1.3,0.1,2,0.3
			c0.3,0.1,0.7,0.1,0.9,0.4c0.1,0.1,0.2,0.2,0.4,0.2c0.4,0,0.8,0,1.2,0c0.3,0,0.6,0.3,0.9,0.3c1.1-0.2,2.1,0.4,3.2,0.3
			c0.2,0,0.4,0.2,0.6,0.3c0.5,0.2,1,0.5,1.6,0.6c1,0.1,1.9,0.3,2.8,0.6c0.3,0.1,0.6,0,0.8,0.3c0.1,0.1,0.2,0.3,0.3,0.3
			c1.2-0.4,2.1,0.7,3.3,0.6c0.8,0,1.4,0.5,2.2,0.6c0.5,0.1,1,0.5,1.6,0.5s1.1,0.3,1.6,0.5c0.4,0.2,0.8,0.6,1.4,0.2
			c0.9,0.8,2,1,3,1.5c0.2,0.1,0.4,0.3,0.6,0.3c1-0.1,1.7,0.5,2.5,1s1.6,1.2,2.7,1.2c0.6,0,0.8,0.9,1.6,0.7c1.1,0.5,2.1,0.9,3.2,1.6
			c0.8,0.5,1.6,0.9,2.3,1.4c0.2,0.1,0.3,0.2,0.4,0.4c0.1,0.2,0.5,0.5,0.7,0.5c1-0.1,1.6,0.6,2.3,1.1c0.6,0.4,1.5,0.8,1.6,1.7
			c0,0.1,0.1,0.2,0.1,0.2c0.9,0,1,0.8,1.4,1.3c0.9,0.8,1.9,1.6,2.4,2.8c0.1,0.3,0.2,0.9,0.8,0.9c0.1,0,0.3,0.4,0.4,0.6
			c0.1,0.4,0,0.8,0,1.2s0.5,0.1,0.7,0.6C327.6,30,327.6,30.8,327.6,31.6z"/>
		</clipPath>
	</defs>
	<path id="big-circle-path" clip-path="url(#big-circle-mask)" fill="none" stroke="#A1A1A1" stroke-width="15" stroke-linecap="round" stroke-linejoin="round" stroke-miterlimit="10" stroke-dasharray="10000" stroke-dashoffset="-10000" d="M349.7,37.8c144.1,41.4,125.8,102,125.8,102c-8.4,51.6-81.1,76.5-81.1,76.5c-191.4,62.3-317.6,9.4-317.6,9.4 C30.7,209.1-30.7,143.9,29.9,70.2c65.9-80.1,225.5-76.8,277-54.3c48.7,21.3-21,42.5-21,42.5"/>
</svg>
