<?xml version="1.0" encoding="utf-8"?>
<!-- Generator: Adobe Illustrator 24.0.1, SVG Export Plug-In . SVG Version: 6.00 Build 0)  -->
<svg version="1.0" id="arrow" xmlns="http://www.w3.org/2000/svg" xmlns:xlink="http://www.w3.org/1999/xlink" x="0px" y="0px"
	 viewBox="0 0 206 339" style="enable-background:new 0 0 206 339;" width="206px" height="339px" xml:space="preserve">
	<defs>
		<clipPath id="arrow-body-mask">
			<path d="M206.3,309.5c-0.3-0.3-0.2-0.6-0.3-1s0.6-0.8,0-1.1c0.2-0.4,0.5-0.8,0.6-1.3c0.1-0.4,0-0.9,0-1.4
			c0-0.4-0.8-0.1-0.6-0.6c0.1-0.4,0.4-1,0.3-1.2c-0.5-0.7,0.2-0.7,0.4-1c0.1-0.1,0.2-0.4,0.1-0.4c-0.6-0.6-0.6-1.4-0.8-2.1
			c-0.3-0.8-0.3-0.9,0.4-1.2c0.4-0.2,0.4-0.3,0.2-0.6c-0.2-0.2-0.4-0.5-0.4-0.7c0-1.1-0.2-2.2,0-3.2c0.3-1,0.2-1.9,0.2-2.8
			c0-0.2,0-0.5-0.1-0.6c-0.8-0.5-0.3-1.1,0-1.6c0.2-0.4,0.3-0.9,0.4-1.3c0.1-0.4,0-0.9-0.4-1s-0.6-0.3-0.5-0.7
			c0.1-0.4-0.1-0.9,0.2-1.3c0.1-0.2-0.4-0.7-0.5-1.1c-0.1-0.3,0-0.7,0.2-1c0.5-0.7,0.4-1.5,0.4-2.3c0-0.4-0.1-0.8-0.4-1
			c-0.5-0.4-0.7-1-0.4-1.4c0.5-0.7-0.2-1.5,0.5-2.1c-0.8-0.4,0.3-1.6-0.8-1.8c0-0.1,0-0.2,0-0.2c0.2-0.4,0.2-0.5-0.1-0.8
			c-0.4-0.4-0.5-0.7-0.1-1.1c0.2-0.3,0.6-0.6,0.4-0.9c-0.5-0.8-0.2-1.7-0.3-2.5c0-0.5,0-0.9,0-1.4c0-0.4,0-0.8,0-1.2
			c-0.1-0.4-0.1-1-0.4-1.2c-0.6-0.4,0.1-0.7-0.1-1.1c-0.4-0.9-0.6-2-0.5-3c0-0.4,0.1-0.8,0-1.2c-0.1-0.5-0.2-1.2-0.5-1.4
			c-0.2-0.2-0.4-0.3-0.4-0.6c0.1-0.5-0.1-0.9,0.2-1.4s-0.3-1.1-0.3-1.6h-0.1c-0.5,0.5-0.5-0.1-0.4-0.2c0.7-1.4,0-2.8,0-4.2
			c0-0.1-0.1-0.2-0.2-0.2c-0.5,0.1-0.4-0.3-0.4-0.6c0-0.2,0-0.5-0.1-0.6c-0.7-0.1-0.4-0.7-0.5-1c-0.4-0.8-0.2-1.6-0.6-2.4
			c-0.2-0.5-0.4-1-0.3-1.5c0-0.2-0.1-0.5-0.2-0.7c-0.4-0.9-0.5-1.8-0.4-2.7c0.1-0.5,0.1-1-0.6-1.1c-0.2-0.1-0.4-0.3-0.2-0.7
			c0.3-0.7,0.5-1.5-0.3-2.2c-0.1-0.1-0.1-0.3-0.1-0.4c0-0.4-0.1-0.8,0-1.2c0.2-0.6-0.6-0.4-0.6-0.8c-0.1-0.7-0.2-1.4-0.3-2.2
			c-0.1-0.5,0.1-1.1-0.6-1.4c-0.2-0.1-0.3-0.5-0.3-0.8c0-1.2-0.2-2.4-0.9-3.4c-0.1-0.2,0-0.5,0.1-0.7c0.1-0.3,0.3-0.5,0.4-0.7
			c0.1-0.1,0-0.5,0-0.5c-0.5-0.1-0.9-0.4-0.8-0.9c0.2-0.7-0.5-0.6-0.6-0.9c-0.2-0.6,0.4-1.4-0.6-1.7c0,0,0-0.3,0.1-0.4
			c0.3-0.3,0.3-0.8,0.2-1c-0.4-0.7-0.2-1.3-0.3-2c-0.1-0.9-0.4-1.7-0.9-2.4c-0.2-0.3-0.7,0-0.7-0.6c0-0.3-0.3-0.7-0.3-1.1
			c0-0.5-0.5-0.7-0.5-1c-0.1-0.4,0.2-0.8,0.2-1.2c-0.1-0.4-0.5-0.7-0.7-1.1c-0.3-0.6-0.9-1.2-0.3-2c0.1-0.1-0.1-0.4-0.2-0.6
			c-0.5-0.8-1-1.5-1-2.5c0-0.1-0.1-0.4-0.1-0.4c-0.7,0-0.4-0.5-0.5-0.9c-0.1-0.3-0.2-0.5-0.2-0.8c-0.1-0.5-0.2-0.8-0.5-1.2
			c-0.2-0.2,0.5-0.6-0.1-0.9c-0.3-0.2-0.5-0.5-0.4-0.9s-0.1-0.6-0.4-0.8c-0.2-0.2-0.5-0.3-0.5-0.5c-0.1-1-0.6-1.8-1.2-2.6
			c-0.4-0.5-0.7-1.2-0.6-1.7c0.1-0.8-0.7-1-0.7-1.7c0-0.6-0.7-1.1-0.6-1.9c-0.9-0.3-0.6-1.1-0.6-1.7c0-0.1-0.1-0.3-0.2-0.4
			c-0.3-0.6-0.7-1.1-0.9-1.6c-0.2-0.7-0.3-1.3-0.9-1.8c-0.1-0.1-0.1-0.4-0.1-0.5c0-0.3-0.1-0.6-0.3-0.8c-0.3-0.3-0.5-0.6-0.6-1
			s0-0.7-0.2-1.1c-0.2-0.4-0.3-0.8-0.6-1.1c-0.3-0.6-1.1-1.1-0.8-2c0-0.1-0.1-0.3-0.1-0.4c-0.3-0.5-0.7-1-0.9-1.6s-0.4-1.1-0.7-1.7
			c-0.5-1.1-0.8-2.3-1.6-3.3c0.2-0.6-0.5-0.7-0.6-0.9c-0.1-1-0.6-1.8-1-2.7c-0.5-1.1-0.5-2.5-1.7-3.3c-0.4-0.3-0.7-0.9-0.7-1.3
			c-0.1-1.3-0.7-2.3-1.5-3.2c-0.3-0.3-0.3-1-0.9-1c0.1-0.6-0.6-1-0.6-1.4c0-0.9-0.6-1.3-0.9-1.9c-0.2-0.4-0.6-0.7-0.6-1.1
			c-0.1-0.5-0.3-0.9-0.5-1.3c-0.2-0.5-0.5-0.9-0.7-1.4c-0.4-1-1.3-1.7-1.5-2.9c0-0.1-0.1-0.3-0.2-0.4c-0.8-0.5-1-1.4-1.6-2.1
			c-0.6-0.8-1.1-1.8-1.5-2.7c-0.1-0.3-0.5-0.2-0.5-0.4s0.2-0.5,0.2-0.7c0-0.1-0.1-0.4-0.3-0.4c-0.6-0.1-0.6-0.5-0.6-1
			c0-0.2-0.1-0.5-0.3-0.6c-0.8-0.8-1.2-1.8-1.5-2.9c-0.1-0.1-0.2-0.3-0.3-0.4c-0.6-0.5-0.7-1.4-1.5-1.7c0.1-0.8-0.7-1.2-0.9-1.9
			c-0.1-0.4-0.6-0.7-0.9-1.1c-0.3-0.4-0.4-0.9-0.7-1.2c-0.2-0.3-0.5-0.5-0.7-0.8c-0.3-0.2,0.3-0.9-0.5-0.9c-0.1,0-0.1-0.6-0.2-0.9
			c0-0.1-0.3-0.1-0.4-0.3c-0.7-1-1.1-2.1-2-3c0.1-0.6-0.5-0.8-0.6-1.1c-0.1-0.5-0.5-0.7-0.8-1c-0.5-0.6-0.9-1.2-1.4-1.9
			c-0.4-0.6-1-1.1-1.1-1.8c-0.6-0.1-0.6-0.8-0.8-1.2c-0.3-0.5-0.9-0.8-1.2-1.3c-0.2-0.5-0.5-0.9-0.7-1.4c-0.1-0.4-0.5-0.7-0.7-1.1
			c-0.3-0.4-0.7-0.6-0.7-1.2c0-0.5-0.5-1-0.9-1.3c-0.6-0.4-0.9-0.9-1.2-1.5c-0.2-0.4-0.5-0.7-0.7-1.1c-0.6-0.6-1.3-1.1-1.4-2
			c-0.9-0.8-1.4-1.8-2.1-2.8c-0.5-0.7-1-1.5-1.7-2c-0.7-1.7-2.5-2.7-3.2-4.5c-0.2-0.4-0.7-0.6-0.9-1c-0.3-0.4-0.4-0.8-0.7-1.2
			l-0.1-0.1c-0.2-0.5-0.8-0.4-1-0.9c-0.1-0.5-0.9-0.7-0.9-1.3l-0.2-0.1c-0.6,0.1-0.7-0.2-0.6-0.7c0-0.4-0.1-0.6-0.5-0.5
			c-0.2-0.7-1-0.7-1.2-1.5c-0.2-0.5-0.9-0.9-1.3-1.4c-0.7-1-1.5-1.8-2.2-2.7c-0.6-0.8-1-1.8-2.1-2.2c0-1.1-1.6-1-1.6-2.2l-0.1-0.1
			c-1.4-0.6-1.9-2.1-2.8-3.1c-0.8-0.9-1.5-1.9-2.3-2.7c-0.3-0.3-0.7-0.7-1.1-0.9c-0.4-0.3-0.7-0.8-1-1.2c-0.3-0.3-0.5-0.7-0.9-0.8
			c-0.8-0.3-1.3-0.9-1.8-1.6c-0.3-0.5-0.8-0.9-1.2-1.3c-0.4-0.5-0.9-1-1.3-1.4c-0.6-0.6-1.1-1.3-1.7-1.7c-0.7-0.5-1-1.2-1.5-1.8
			c-0.2-0.2-0.6-0.3-0.8-0.6c-0.5-0.4-1.2-0.5-1.4-1.2c0-0.1-0.2-0.2-0.3-0.2c-0.9-0.7-1.8-1.4-2.5-2.4c-0.3-0.4-0.6-0.7-1-1
			c-0.7-0.6-1.4-1.1-2-1.7c-0.4-0.3-1-0.6-1.2-1c-0.2-0.6-0.8-0.5-1.1-0.9s-0.6-1-1-1.2c-1-0.5-1.8-1.4-2.7-2
			c-0.7-0.5-1.2-1.2-1.9-1.6c-1-0.6-1.8-1.3-2.7-2.1c-0.8-0.7-1.6-1.4-2.4-2c-0.2-0.1-0.4-0.2-0.6-0.3c-0.8-0.5-1.6-0.9-2.2-1.6
			c-0.5-0.5-1-1-1.7-1.3c-0.6-0.3-1.3-0.6-1.8-1.1c-1.2-1.1-1.2-1.1-2.7-1.6c-0.2-0.1-0.4-0.1-0.5-0.3c-0.8-0.7-1.4-1.6-2.5-2
			c-0.2-0.1-0.2-0.5-0.4-0.6c-0.6-0.3-0.9-1.1-1.7-0.9c-0.7,0.2-1.1-0.2-1.3-0.8c-0.2-0.6-0.5-0.8-1.1-0.7c-0.4,0-0.5-0.2-0.5-0.5
			c0-0.4-0.2-0.5-0.6-0.3c-0.3,0.3-0.5,0.2-0.8,0c-0.1-0.1-0.2-0.5-0.5-0.2c-0.2,0.1-0.5,0.1-0.8,0.1c0,0-0.1-0.3,0-0.4
			c0.2-0.2,0.3-0.4,0-0.5c-0.2-0.1-0.6-0.2-0.6-0.3c-0.1-0.7-0.6-0.8-1.2-0.8c-0.3,0-0.6-0.1-0.8-0.3c-0.2-0.2-0.3-0.5-0.5-0.7
			c-0.1-0.2-0.3-0.3-0.4-0.4c-0.3-0.4-0.6-0.5-1.2-0.3c-0.6,0.3-1.3-0.1-1.5-0.7c-0.1-0.3,0.1-0.7-0.1-0.9c-0.2-0.4-0.5,0.1-0.7,0.1
			c-0.1,0-0.2-0.2-0.3-0.3c-0.5-0.4-1.1-0.7-1.7-0.6c-0.1,0-0.3,0.1-0.4,0.1c0.1,0.1,0.1,0.2,0.2,0.3c0.2,0.2,0.4,0.4,0.6,0.6
			c0.3,0.3,0.5,0.5,0.8,0.7c0.1,0.1,0.4-0.6,0.5,0.1c0,0.3,0.4,0.5,0.7,0.8c0.6,0.5,1.7,0.4,1.8,1.5c0,0,0.3,0.1,0.4,0.1
			c0.6,0,0.9,0.1,1.1,0.8c0,0.2,0.4,0.4,0.7,0.5c0.2,0.1,0.5,0,0.5,0.4c0.1,0.6,1.2,0.5,1,1.4c0.1,0,0.3,0.1,0.4,0.1
			c0.4,0,0.6,0.2,0.3,0.5c-0.2,0.3-0.1,0.4,0,0.8c0.2,0.6,0.7,0.8,1.1,1.1s0.1,1.1,0.8,1.4c0.2,0.1,0.3,0.2,0.5,0.3
			c0.4,0.3,0.8,0.5,1.2,0.8c0.4,0.3,0.9,0.5,1.1,1c0.1,0.2,0.4,0.5,0.5,0.5c0.9-0.1,1.4,0.7,2.2,1c0.9,0.4,1.6,1.2,2.2,2
			c0.3,0.4,0.5,0.7,0.9,0.8c0.5,0.2,0.8,0.6,0.9,1c0.3,0.9,1.4,1.1,1.7,2c0,0,0.3,0,0.4,0s0.3,0.1,0.3,0.2c0.6,0.9,1.5,1.4,2.2,2.1
			c0.4,0.3,0.7,1,1.2,0.9c0.7-0.1,0.3,0.8,0.9,0.8c0.1,0,0.1,0.4,0.2,0.4c0.5,0.2,0.5,0.8,1,1.1c0.4,0.3,0.9,0.6,1.2,0.9
			c0.4,0.5,0.7,1.1,1.3,1.4c1.2,0.7,2,1.8,3,2.7c0.5,0.5,0.9,1.3,1.5,1.4c0.8,0.3,0.8,1.1,1.5,1.4c0.3,0.1,0.2,0.8,0.8,0.6
			c0.4-0.1,0.2,0.8,0.8,0.6c0.8,1.1,2,2,2.9,3c0.1,0.1,0.2,0.3,0.2,0.3c0.7-0.3,0.7,0.4,0.9,0.7c0.4,0.4,0.8,0.7,1.1,1.2
			c0.2,0.4,0.8,0.7,0.9,1.3c0,0.1,0.2,0.3,0.3,0.3c0.5,0.2,0.7,0.6,1,0.9s0.8,0.6,1.1,0.9c0.5,0.5,1,1.1,1.5,1.5
			c0.6,0.4,0.9,1,1.4,1.4c0.5,0.5,0.9,1.1,1.4,1.5s0.8,1.1,1.3,1.4c0.6,0.3,0.9,0.9,1.4,1.4c0.4,0.5,0.8,1,1.4,1.4
			c0.6,0.4,0.9,1.1,1.4,1.7s1.2,1.1,1.5,1.8c0.9,0.2,0.7,1.4,1.5,1.6c0.5,1.2,1.4,2,2.3,2.9c0.3,0.3,0.5,0.8,1,0.3
			c0.1,0.1,0.2,0.2,0.4,0.3c0.4,0.3,0,0.7,0,1c0.1,0.5,0.8-0.1,0.9,0.5c0,0.1,0,0.1,0,0.1c0.2,0.1,0.4,0.2,0.5,0.1
			c0.3-0.2,0.6-0.6,0.9-0.8c0.2-0.1,0.4-0.2,0.6-0.3c0.1,0,0.3,0,0.4,0.1c0.1,0.1,0,0.3,0,0.4c-0.4,0.3-0.8,0.6-1.1,0.9
			c-0.1,0.1-0.3,0.5-0.2,0.6c0.5,0.4,0.7,1,1,1.6c1.1-0.2,0.7,0.8,0.9,1.2h0.1c0.7,0.1,0.6,0.8,1,1.2c0.3,0.3,0.1,1,0.8,1
			c0.3,0.8,1.2,1.2,1.6,1.9c0.2,0.4,0.5,0.4,0.7,0.6s1.5,0,0.4,0.9c0.1,0.1,0.2,0.2,0.2,0.2c0.6,0.4,1,0.8,1.3,1.5
			c0.2,0.3,0.4,0.6,0.6,1c0.2,0.3,0.4,0.8,0.7,0.9c0.7,0.1,0.2,0.9,0.5,0.9c0.5,0,0.4,0.7,0.8,0.7c0.7,0.1,0.1,0.7,0.5,0.9
			c1.2,0.8,1.2,2.5,2.6,3.2c0.3,0.9,0.8,1.7,1.5,2.2c0.3,0.2,0.5,0.7,0.5,1c0,0.5,1.2,0,0.5,0.8c0.3,0.3,0.6,0.6,0.9,0.9
			c0.2,0.2,0.6,0.4,0.6,0.6c0,1.4,1.5,1.7,1.7,2.9c0.6,0.1,0.8,0.8,1.2,1.2c0.2,0.3,0.2,0.8,0.5,1c0.7,0.6,0.8,1.5,1.6,2.1
			c0.3,0.2,0.4,0.7,0.6,0.9c0.2,0.3,0.5,0.5,0.8,0.8c-0.4,0.5,0.3,0.6,0.4,0.9c0.2,0.4,0.6,0.6,0.6,1.1c0,0.3,0.7,0.6,1.1,0.9
			c0.1,0.1,0.1,0.2,0.1,0.3c0,0.9,0.6,1.4,1,2s0.4,1.7,1.4,1.9c0.1,0,0.3,0.3,0.3,0.5c-0.2,1,0.6,1.6,1,2.3c0.2,0.4,0.6,0.7,0.7,1.1
			c0.3,0.7,0.7,1.2,1.2,1.8c0.6,0.7,1.1,1.5,1.6,2.2c-0.1,1.4,1.6,1.8,1.6,3.1c0.6,0,0.4,0.5,0.5,0.8s0.5,0.5,0.6,1
			c0.1,0.4,0.5,0.7,0.8,1c0.3,0.4-0.1,0.9,0.3,1.2c0.1,0.1,0.2,0.1,0.2,0.2c0.4,0.5,0.8,1,1.1,1.5c0.2,0.4,0.3,0.8,0.4,1.2
			c0.9-0.1,0.3,0.8,0.7,1.1c0.3,0.2,0.3,0.9,0.6,1.1c0.5,0.3,0.6,0.7,0.7,1.1c0.2,0.9,0.9,1.5,1,2.5c0,0.3,0.6,0.4,0.8,0.7
			s-0.1,0.8,0.3,1.1c0.2,0.2,0.3,0.5,0.4,0.7c0.3,0.4,0.7,0.7,1.1,1.1c0.2,0.2,0.3,0.4,0.3,0.6c-0.1,0.7,0.1,1.2,0.7,1.6
			c0.1,0.1,0.3,0.3,0.3,0.5c-0.2,1.3,0.7,2.1,1.2,3c0.4,0.9,0.9,1.8,1.3,2.7c0.4,0.8,0.5,1.7,1.1,2.3c0.2,0.2,0.3,0.5,0.4,0.8
			c0.3,1.1,1,2,1.6,2.5c0.1,0.1,0.2,0.2,0.2,0.4c-0.1,0.8,0.1,1.5,0.7,2c0.1,0.1,0.2,0.3,0.2,0.4c-0.2,1.1,1,1.8,0.9,2.8
			c0.6,0.5,0.5,1.5,1.1,2c0.5,0.4,0.4,1,0.7,1.4c0.3,0.5-0.1,1.3,0.9,1.5c0.1,0,0.1,0.3,0.1,0.4c-0.1,1.1,0.3,1.9,1,2.6
			c0.3,0.4,0.5,1.1,0.4,1.6c-0.1,0.4-0.2,0.7,0.2,0.8c0.5,0.1,0.5,0.3,0.5,0.7s0.1,0.8,0.3,1.1c0.5,0.5,0.6,1.2,0.9,1.8
			c0.1,0.2,0.2,0.5,0.3,0.6c0.5,0.4,0.7,0.8,0.6,1.4c0,0.2,0.1,0.5,0.2,0.6c0.2,0.2,0.3,0.4,0.4,0.8c0.1,0.5,0.4,1.1,0.6,1.6
			c0.2,0.5,0.2,1.2,0.6,1.6c0.4,0.5,0.2,1.2,0.8,1.5c0,0,0.1,0.2,0,0.2c-0.6,0.5,0.4,0.9,0.1,1.5c0.8,0.4,0.8,1.3,1.1,2
			c0.1,0.5,0.3,0.9,0.6,1.3c0.4,0.6,0.5,1.4,0.7,2.1c0.2,0.8,0.3,1.6,0.5,2.4c0.1,0.6,0.6,1.2,0.8,1.8s0.5,1.1,0.3,1.8v0.1
			c0.7,0.5,0.5,1.2,0.6,1.9c0,0.3,0.3,0.6,0.6,0.7c0.2,0.1,0.4,0.1,0.1,0.3c-0.4,0.5-0.1,0.8,0.2,1.1s0.6,0.5,0.5,1
			c-0.1,0.7,0.2,1.2,0.4,1.8c0.2,0.4,0.1,0.9,0.2,1.3c0.1,0.4,0.4,0.8,0.6,1.3c0.1,0.5-0.3,1.1,0.2,1.4c0.7,0.4-0.1,0.8,0.2,1.2
			c0.4,0.6,0.5,1.4,0.8,2.1c0.2,0.5,0.8,1.1,0.1,1.7c0,0,0.2,0.3,0.3,0.4c0.1,0.1,0.3,0.2,0.3,0.2c-0.1,0.7,0.3,1.2,0.3,1.9
			c0,0.9,0.2,1.6,0.4,2.4c1,0.5,0.3,1.6,0.7,2.3c0.3,0.5,0.6,1.1,0.4,1.8c-0.2,0.7,0.2,1.2,0.5,1.7c-0.7,0.4,0,0.9,0.1,1.1
			c0.3,0.5,0.4,1.1,0.5,1.6c0.1,0.8-0.1,1.6,0.5,2.2c0,0.1,0,0.2-0.1,0.3c0,0.3-0.1,0.6,0,0.8c0.1,0.7,0.5,1.4,0.5,2.1
			c0,0.8,0,1.7,0.4,2.3c0.5,0.7-0.2,1.8,0.9,2.3c0,0,0,0.2,0,0.3c-0.2,0.2-0.5,0.5-0.2,0.7c0.3,0.3-0.4,0.5,0.1,0.8
			c0.2,0.1,0.1,0.8,0.3,1.1c0.2,0.3-0.1,0.9,0.4,1.1c-0.5,0.3-0.1,0.6,0,1c0.1,0.6-0.1,1.4,0.1,2c0.2,0.5,0.2,0.9,0.3,1.4
			s0.2,1,0.3,1.6s0.2,1.1,0.3,1.7c0.1,1.2,0,2.4,0.3,3.7c0.3,1.7,0.3,3.6,0.4,5.3c0,0.7-0.1,1.5,0.3,2.2c0.1,0.3,0,0.7,0.2,1
			c0.1,0.1-0.1,0.6-0.2,0.9c-0.2,0.6,0.3,1.1,0.3,1.7c0.1,2.7,0.2,5.4,0.3,8.1c0,0.4-0.1,1,0.1,1.3c0.5,0.6-0.5,0.9-0.2,1.4
			c0,0.1,0,0.3,0,0.3c0.4,0.3-0.1,0.8,0.3,1c-0.6,0.4,0.2,0.8,0,1.3c-0.2,0.4-0.1,0.9,0,1.4c0,0.6-0.2,1.2,0.3,1.7
			c0.1,0.2,0.1,0.7,0,0.9c-0.4,0.4-0.2,0.8-0.2,1.1c0.1,1,0.4,2.1,0.2,3.1c-0.2,1.4-0.2,2.8-0.3,4.1c0,0.2-0.2,0.4-0.2,0.6
			c0.4,1.3,0.1,2.6,0.1,3.9c-0.6,0.3,0.4,0.7,0,0.9c-0.6,0.4,0.1,0.7,0.1,1s0,0.6-0.1,0.9c-0.3,0.5-0.3,0.9,0,1.4
			c0.1,0.1,0.1,0.2,0.1,0.3c-0.6,0.5-0.1,1.2-0.4,1.8c-0.3,0.4-0.3,0.8,0,1.2c0.2,0.3,0.1,0.4-0.1,0.6c-0.1,0.2-0.1,0.6,0,0.8
			c0.2,0.3,0,0.5,0,0.8c-0.2,0.9-0.3,1.8-0.4,2.7c0,0.4,0.3,1,0.2,1.3c-0.3,0.6-0.1,1.1-0.2,1.6c0,0.2,0.1,0.6,0,0.7
			c-0.5,0.6-0.2,1.4-0.3,2c0,0.7,0,1.1-0.3,1.9c-0.2,0.5-0.3,1-0.3,1.5c-0.1,1.4-0.2,2.9-0.3,4.3c0,0.1,0,0.3,0,0.3
			c-0.6,0.5,0,2.5-0.3,2.9l8.5,0.1c0-0.4,0.1-1,0.5-1.3c0.7-0.5,0.5-1.1,0.4-1.8c0-0.3-0.1-0.6-0.3-0.8c-0.2-0.3-0.4-0.5,0-0.7
			c0.5-0.2,0-1.2,0.8-1.2c0-0.6,0.1-1.1,0-1.6c0-0.4-0.3-0.7-0.3-1.1c0.1-1.2,0.1-2.5,0.3-3.7c0.2-0.8,1-1.6,0.3-2.5
			c0.5-1,0.4-2,0-3l0.1-0.2c0.8,0,0.4-0.6,0.4-0.9c0-0.4-0.7-0.9-0.1-1.3c0.9-0.6-0.5-0.8-0.2-1.3c0.2-0.4,0.5-0.7,0-1
			c0.6-0.5,0.8-1.1,0.3-1.8c0-0.1,0.2-0.3,0.3-0.5c0.5-0.9,0.4-1.8,0.2-2.7c-0.1-0.3-0.1-0.4,0-0.8
			C206.7,310.6,206.9,310,206.3,309.5z"/>
		</clipPath>
	</defs>
		<path id="arrow-body-path" clip-path="url(#arrow-body-mask)" fill="none" stroke="#828282" stroke-width="15" stroke-linecap="round" stroke-linejoin="round" stroke-miterlimit="10" stroke-dasharray="1000" stroke-dashoffset="-1000" d="M51.2,29.7C236.2,165,199,339.1,199,339.1"/>
	<defs>
		<clipPath id="arrow-tip-mask">
			<path d="M52.1,14c0.6-0.1,1.1,0.2,1.7,0.3c0.4,0.1,0.7,0.7,1.1,0c0.5,0.5,1.2,0,1.6,0.4c0.7,0.6,1.6,0.5,2.4,0.5
			c0.7,0,1.3,0,2,0.3c0.8,0.3,1.7,0.4,2.6,0.4c0.5,0,0.9,0.2,1.4,0.3s1-0.2,1.5,0.2c0.1,0.1,0.6-0.2,0.7-0.1
			c0.6,0.6,1.5,0.4,2.2,0.6c0.7,0.2,1.5,0.1,2.1,0.3c1,0.3,1.9,0.6,3,0.5c0.2,0,0.5,0,0.7,0.1c1.3,0.8,2.8,0.8,4.3,1
			c1.4,0.2,2.9,0.4,4.3,0.7c0.4,0.1,0.7,0.2,1.1,0.3c0.5,0.1,0.9,0,1.4,0c0.2,0,0.4,0.1,0.6,0.1c0.9,0.3,1.9,0.5,2.8,0.5
			c1.3,0,2.6-0.2,3.7,0.6c0.1,0,0.2,0,0.3,0c1.1,0,2.2-0.1,3.2,0.3c0.5,0.2,1.1,0.1,1.7,0c0.5-0.1,1-0.4,1.4,0
			c1-0.6,2.2-0.2,3.2-0.3c0.4,0,0.8,0,1.3,0.3c0.8,0.5,1.7,0.5,2.5,0.1c0.2-0.1,0.4-0.1,0.5,0c0.4,0.2,0.7,0.2,1.1,0
			c0.3-0.2,0.8-0.4,1.2-0.4c1.1,0,1.7-0.8,2-1.5c0.4-1,0.8-2.2,0.7-3.4c0-0.2-0.1-0.5-0.2-0.7c-0.7-0.7-1.3-1.4-1.6-2.2
			c-0.6,0-0.6-1-1.3-0.8c-0.3,0.1-0.7-0.1-0.9-0.3c-0.4-0.6-1.2,0-1.6-0.6c-0.3,0.2-0.7,0.4-1,0.5s-0.7,0.1-1,0.1
			c-1.3,0-2.5,0-3.8,0c-0.5,0-1,0.3-1.6,0.3c-0.5,0-1-0.2-1.6-0.3c-0.7-0.1-1.4-0.1-2.1,0c-0.6,0.1-1.2-0.3-1.8-0.2
			c-0.2,0-0.5,0.2-0.7,0.1c-0.3,0-0.6-0.3-0.9-0.3c-0.4,0-0.8-0.7-1.3,0c0,0-0.3,0-0.4-0.1c-0.3-0.5-0.8-0.5-1.3-0.5
			c-0.8,0-1.5,0-2.3,0c-0.2,0-0.5,0-0.6-0.1c-0.2-0.9-1-0.5-1.4-0.5s-0.7-0.2-1.1-0.3c-0.8-0.3-1.5-1.1-2.4-0.3c0,0-0.2,0-0.3,0
			c-0.3-0.1-0.3-0.8-0.7-0.4C80,10,79.9,9.1,79.4,9.3c-0.3,0.1-0.7-0.2-1.1-0.3c-0.6-0.1-1.1-0.4-1.7-0.3c-0.6,0-1.2-0.1-1.7-0.3
			c-0.6-0.3-1.2,0.3-1.5,0c-0.6-0.5-1.3,0.1-1.8-0.5c-0.6-0.7-1.2-0.3-1.9-0.1c0,0-0.1,0-0.1-0.1c-0.4-0.5-0.9-0.1-1.3-0.2
			c-0.5-0.1-0.9-0.2-1.4-0.3c-0.8-0.1-1.6-0.4-2.5-0.3c-0.4-0.5-1-0.2-1.6-0.3c-0.5-0.1-1-0.2-1.6-0.3c-1-0.1-2-0.2-3.1-0.3
			c-0.1,0-0.2,0-0.3-0.1c-0.9-1.1-2.1-0.8-3.3-0.8c-0.9,0-1.9,0.1-2.8-0.3c-0.7-0.3-1.3-0.3-2-0.3s-1.4,0-2.1-0.4
			c-0.4-0.3-1.1-0.7-1.6-0.4c-0.5,0.3-0.8,0.2-1.3,0c-0.7-0.2-1.5-0.6-2.3-0.3c-0.6,0.2-1.1-0.5-1.6,0c0,0-0.1,0-0.1-0.1
			c-0.7-0.7-1.6-0.5-2.4-0.5c-1.2,0-2.3-0.5-3.5-0.3c-0.5-0.4-1-0.3-1.5-0.3c-0.6-0.1-1.1-0.2-1.7-0.3c-0.5-0.1-0.9-0.2-1.4-0.3
			c-0.3,0-0.7,0-1.1,0c-0.3,0-0.7,0-0.9-0.1c-0.4-0.4-0.5,0.4-0.9,0.1c-0.1-0.1-0.5,0-0.6-0.1c-0.4-0.6-1.2,0-1.6-0.6
			c-0.5-0.7-1.1,0.4-1.7,0c-0.1,0-0.2,0-0.3,0c-0.5-0.6-1.4,0-1.8-0.3c-0.6-0.4-1.3-0.2-1.9-0.3C18.6,0.2,17.7,0.6,17,0
			c-0.8,0.5-1.7,0.2-2.5,0.2c-0.8,0.1-1.6,0-2.4,0c-0.6,0-1.2-0.1-1.6,0.5c-0.1,0.1-0.4,0.1-0.5,0.1c-1.5,0-3-0.1-4.2,0.9
			c-0.1,0.1-0.3,0-0.4,0C4.1,2.3,2.6,2.5,2,4.1c0,0.1-0.2,0.2-0.3,0.3C1.1,4.9,0.9,5.3,0.6,5.9C0.4,6.4,0.4,7,0.3,7.4
			C0.1,7.9,0,8.4,0,9c0.1,1.9-0.3,3.8,0.3,5.7c0.2,0.7,0.1,1.5,0,2.3c-0.1,0.7,0.5,1.5,0,2.2c-0.1,0.1,0,0.4,0.2,0.5
			c0.4,0.3,0.4,0.7,0.4,1.2c0,0.4,0.2,0.8,0.3,1.2c0.1,0.5,0,0.9,0,1.4c0,0.2,0.1,0.4,0.2,0.5c0.4,0.3,0.4,0.7,0.4,1.1
			c0,1.3,0.8,2.4,0.7,3.7C3.1,29.4,3,30.1,3,30.9c0,0.1,0,0.3,0.1,0.4c0.6,0.9,1.1,1.9,1.1,3.1c0,0.2,0.2,0.4,0.3,0.6
			c0.6,1.4,1.6,2.7,1.5,4.4c0,0.2,0.2,0.3,0.3,0.5c0.4,0.8,0.7,1.6,1.1,2.4c0.4,0.9,1.3,1.5,1.1,2.6c0.8,0.6,0.9,1.8,1.7,2.3
			c0.7,0.5,0.8,1.3,1,2c0,0.2,0,0.6,0.1,0.6c0.7,0.1,0.5,0.6,0.5,1c0,0.3,0.1,0.6,0.3,0.8c0.3,0.3,0.4,0.7,0.7,0.9
			c0.8,0.6,0.6,1.6,1.3,2.2c0.5,0.4,0.6,1.2,1.1,1.6c0.6,0.5,0.7,1.3,1.1,1.9c0.4,0.7,0.8,1.4,1.2,2.1c0.5,0.7,0.9,1.3,1.4,2
			s1.1,1.4,1.4,2.3s0.7,1.9,1.7,2.3c0.2,0.1,0.4,0.3,0.5,0.6c0.2,0.5,0.6,0.7,1,1c0.5,0.4,0.8,1,1.4,1.3c0.2,0.1,0.1,0.8,0.3,1.1
			c0.2,0.3,0.6,0.4,0.9,0.7c0.1,0,0.1,0.2,0.1,0.3c0.1,0.8,0.8,1,1.4,1.2c0.2,0.1,0.3,0.2,0.5,0.4c0.3,0.5,0.8,1,1.3,1.4
			c0.2,0.2,0.7,0,0.9,0.3c0.6,0.8,1.5,1.3,2,2.2c0.2,0.3,0.8,0.6,1,0.5c0.8-0.5,1.1-0.2,1.4,0.6c0.2,0.5,0.8,0.6,1.1,0.3
			c0.4-0.3,0.4-0.5,0.2-1.2c-0.2-0.5-0.5-0.8-0.9-1.2c-0.6-0.5-0.9-1-0.8-1.8c0-0.2,0-0.4,0-0.6c0.1-0.9-0.2-1.6-0.8-2.3
			c-1.2-1.3-2.1-2.8-2.5-4.6c0-0.1,0-0.4-0.1-0.4c-0.9-0.2-1-1.2-1.6-1.6c-0.4-0.3-0.9-0.5-0.5-1.2c0.1-0.1-0.4-0.5-0.6-0.8
			c-0.7-1.1-1.3-2.3-2.1-3.4c-0.9-1.1-1.6-2.3-2.1-3.5c-0.4-1.1-1-2-1.6-3c-0.1-0.2-0.3-0.3-0.3-0.5c0-0.4,0.1-0.9-0.4-1.2
			c-0.4-0.3-0.3-0.9-0.6-1.3c-0.6-0.8-1-1.7-1.4-2.6c0.2-1.5-1.3-2.3-1.3-3.7c0-0.3-0.4-0.6-0.6-1c-0.2-0.4-0.4-0.8-0.5-1.1
			c-0.2-0.3-0.2-0.9-0.5-1c-0.7-0.4,0.1-0.8-0.1-1.1c-0.6-1-1.1-2.1-1.4-3.2c-0.2-0.5-0.4-1.1-0.7-1.5c-0.2-0.3-0.4-0.6-0.3-0.9
			c0.1-0.6-0.2-1.1-0.4-1.7c-0.1-0.2-0.2-0.4-0.2-0.7c0-1.1-0.5-2.1-0.8-3c-0.3-0.8-0.4-1.5-0.4-2.3c0-0.3,0.1-0.6,0-0.9
			c-0.5-1.2-1-2.4-0.9-3.7c-0.6-0.5-0.2-1.2-0.3-1.9C11.2,19.3,11,18.7,11,18c-0.1-0.8,0-1.5,0-2.5c0.1-1.2-0.2-2.6,0.3-3.9
			c0.3-0.8,0.5-1.2,1.3-1.3c0.2,0,0.6,0.1,0.7-0.1c0.6-0.5,1.3,0,1.9-0.3c0.7-0.3,1.4-0.4,2-0.2c0.6,0.1,1.1,0.3,1.7,0.3
			c2.3,0.1,4.7,0.2,7,0.3c0.1,0,0.2,0,0.3,0c0.4,0.4,0.9,0.3,1.4,0.3c0.5,0.1,1,0.3,1.6,0.3c1.3,0.1,2.6,0,3.8,0.3
			c1.2,0.3,2.4,0.2,3.7,0.3c0.1,0,0.3,0,0.3,0c0.6,0.7,1.6-0.1,2.2,0.6c0.9-0.2,1.7,0.2,2.5,0.3c0.9,0.2,1.7,0.4,2.6,0.3
			c0.4,0.5,1.1,0.1,1.5,0.3c0.5,0.3,1,0.2,1.6,0.3c0.6,0,1.1,0,1.7,0c0.9,0,1.8-0.2,2.5,0.5C51.7,14,51.9,14,52.1,14z"/>
		</clipPath>
	</defs>
	<path id="arrow-tip-path" clip-path="url(#arrow-tip-mask)" fill="none" stroke="#828282" stroke-width="15" stroke-linecap="round" stroke-linejoin="round" stroke-miterlimit="10" stroke-dasharray="1000" stroke-dashoffset="-1000" d="M35.8,78.7C17.1,61.1,5.1,20.5,5.1,20.5c-6.3-23,16-15.6,16-15.6
		c69.6,14.2,91.3,11.2,91.3,11.2"/>
</svg>
