<?xml version="1.0" encoding="utf-8"?>
<!-- Generator: Adobe Illustrator 24.0.1, SVG Export Plug-In . SVG Version: 6.00 Build 0)  -->
<svg version="1.0" id="underline_1_" xmlns="http://www.w3.org/2000/svg" xmlns:xlink="http://www.w3.org/1999/xlink" x="0px"
	 y="0px" viewBox="0 0 500 17" style="enable-background:new 0 0 500 17;" width="500" height="17" xml:space="preserve">
	<defs>
		<clipPath id="underline-mask">
			<path d="M370.8,7.8c-0.1-0.1-0.2-0.1-0.2-0.2c-0.1-0.1-0.1-0.3-0.2-0.4c0.2,0.2,0.5,0.3,0.9,0.5
			C371.1,7.7,370.9,7.8,370.8,7.8z M195.2,3.4c0.4-0.2,0.8-0.3,1-0.4c-0.4,0.1-0.7,0.1-1,0.1c0,0,0,0,0,0
			C195.1,3.2,195.2,3.3,195.2,3.4z M293.9,7.1C293.8,7.1,293.8,7.1,293.9,7.1C293.8,7.1,293.8,7.2,293.9,7.1
			C293.8,7.1,293.8,7.1,293.9,7.1z M429.2,13.5C429.2,13.5,429.1,13.6,429.2,13.5C429.1,13.6,429.2,13.6,429.2,13.5
			C429.2,13.5,429.2,13.5,429.2,13.5z M439.2,13.9C439.2,13.9,439.1,13.9,439.2,13.9C439.1,13.9,439.2,13.9,439.2,13.9
			C439.2,13.9,439.2,13.9,439.2,13.9z M152.7,7.2c0.2,0.2,0.3,0.3,0.4,0.4c0.1,0,0.1,0,0.2,0c0-0.1-0.1-0.1-0.1-0.2
			C153,7.3,152.9,7.3,152.7,7.2z M80.6,8.6C80.5,8.6,80.5,8.6,80.6,8.6c-0.1,0.1,0,0.1,0,0.1C80.6,8.7,80.6,8.7,80.6,8.6
			C80.6,8.6,80.6,8.6,80.6,8.6z M180,5.4C180,5.4,180,5.4,180,5.4C180,5.4,180,5.4,180,5.4C180,5.4,180,5.4,180,5.4z M395.1,8.6
			c-0.1,0-0.3,0-0.4,0c0,0,0,0.1,0,0.1c0.1,0,0.2,0,0.4,0c0,0,0,0,0,0C395,8.7,395,8.6,395.1,8.6z M195.1,4.2
			C195.1,4.2,195,4.2,195.1,4.2c0,0,0,0.1,0,0.1C195.1,4.3,195.1,4.3,195.1,4.2z M107.6,8.4c-0.2,0-0.5,0.1-0.6,0.1
			c0,0,0,0.1,0.1,0.1C107.2,8.6,107.4,8.5,107.6,8.4z M490.5,12.9c0.2-0.1,0.1-0.1,0.1-0.1C490.5,12.9,490.5,12.9,490.5,12.9z
			 M490.1,13.7c0.1,0,0.2,0.1,0.2,0.1C490.4,13.9,490.5,13.8,490.1,13.7z M490.5,12.9c-0.2,0.1-0.5,0.1-1.3,0.3
			C489.6,13.3,490,13.2,490.5,12.9z M487.2,13.5c0.9-0.1,1.5-0.2,2-0.3c-0.2-0.1-0.4-0.2-0.6-0.3c-0.1-0.1-0.2,0-0.4,0
			c-0.6-0.1-1.3,1-1.9,0c-0.7,0-1.4,0-2.1,0c-0.8,0-1.5,0-2.3,0c-0.3,0-0.5,0.4-0.3,0.6c0.2,0.2,0.4,0.4,0.5,0.5
			c0.5,0.5,0.5,0.5,1.2-0.1c-0.3,0-0.3,0.1-0.3,0.1c-0.1,0-0.2-0.1-0.3-0.1c0,0,0-0.1,0.1-0.2c0,0,0.1,0.1,0.7,0
			c0.1-0.1,0.2-0.2,0.4-0.4c0,0,0.2,0.2,0.3,0.2c0,0,0.1,0.1,0.1,0.1C484.9,13.6,485.8,13.6,487.2,13.5z M483.4,13.8
			C483.4,13.9,483.3,13.9,483.4,13.8c0.1,0,0.5,0,1-0.1c0,0-0.1-0.1-0.1-0.1c-0.3,0-0.5,0-0.7,0C483.5,13.7,483.4,13.8,483.4,13.8z
			 M489.7,13.6c0.2,0,0.3,0,0.5,0.1C489.9,13.6,489.7,13.6,489.7,13.6z M487.2,13.5c-1.3,0.1-2.2,0.2-2.8,0.3
			c0.1,0.1,0.2,0.2,0.3,0.2c0.7-0.3,1.4-0.1,2.1,0c0.8,0.1,1.5,0.2,2.2,0.8c0.1,0,0.5-0.2,0.5-0.3c0-0.4,0-0.7,0.2-0.8
			C489.2,13.6,488.4,13.5,487.2,13.5z M460,14.9c-0.1,0.2-0.4,0.4-0.3,0.5c0.1,0.3,0.3,0.6,0.5,0.9c0.1,0.1,0.2,0.2,0.3,0.3
			c1-1.1,2.4,0.9,3.4-0.5c0.3-0.4,0.6-0.2,0.7,0.3c0,0.1,0.4,0.2,0.5,0.3c0.1-0.2,0.2-0.3,0.2-0.3c0.1-1-0.7-1-1.1-1.3
			c-0.4-0.3-0.6-0.1-0.9,0.1c-0.5,0.3-1,0.6-1.5,0.8c-0.4,0.1-0.9-0.2-1.4-0.8C460.2,14.9,460,14.8,460,14.9z M280.7,6.7
			c0.4-0.7,0.9-0.4,1.4-0.2c0.3,0.1,0.5,0.3,0.8,0.3c0.7,0.1,0.8,0,0.8-0.8c0-0.3,0-0.6,0-0.9c0-0.2,0.2-0.5,0.2-0.5
			c-0.2-0.2-0.5-0.3-0.8-0.4c0,0-0.2,0.1-0.2,0.2c0.2,1.2-0.6,0.9-1.2,0.9c-0.6,0-1.3,0.6-1.4,1.2c0,0.1,0.1,0.2,0.2,0.3
			C280.6,6.8,280.7,6.7,280.7,6.7z M430.4,11.4c0,0.2-0.1,0.5-0.1,0.7c0.7,0.2,0.3,0.8,0.4,1.2c0.1,1,0,1,1.2,1
			c0.1-0.5-0.2-1.1,0.2-1.6c0,0,0-0.2,0-0.3c-0.8,0.1-0.5-0.8-1-1C430.9,11.5,430.6,11.4,430.4,11.4z M497.3,13.9
			c0.3-0.3,0.2-0.6-0.1-0.7c-0.3-0.2-0.6-0.3-1-0.4c-0.3,0.1-0.5,0.2-0.7,0.3c-0.3,0.2-0.4,0.5,0,0.6c0.4,0.2,0.8,0.2,1.1,0.4
			C497.1,14.5,497.2,14,497.3,13.9z M465.6,16c0,0.1,0,0.1,0,0.3c0.1,0.1,0.2,0.2,0.3,0.3c0.4,0.1,0.7,0,1.1,0.1
			c0.3,0,0.7,0.2,0.7,0.2c0.2-0.4,0.2-0.8-0.2-1.1c-0.2-0.2-0.3-0.2-0.6,0C466.6,16.1,465.9,15.2,465.6,16z M475.5,14
			c0.1,0,0.2-0.1,0.3-0.1c0.1-0.3-0.8-1.3-1.2-1.4c-0.2,0-0.4,0-0.5,0.1c0.1,0.1,0.1,0.3,0.2,0.4c0.2,0.3,0.3,0.7,0.6,0.9
			C474.9,14,475.2,13.9,475.5,14z M281.9,8.3c-0.1,0.7,0.2,0.9,0.8,0.8c0.1,0,0.3,0,0.4,0c0.1-0.1,0.3-0.2,0.3-0.3
			c0-0.1-0.1-0.4-0.2-0.4c-0.5,0-1,0.1-1-0.6c0,0-0.1-0.1-0.1-0.1c-0.1,0-0.2,0.1-0.2,0.2C281.9,7.9,281.9,8.1,281.9,8.3z
			 M468.8,14.8c0.1,0.1,0.1,0.3,0.2,0.4c0.2,0.4-0.1,1,0.5,1.3c0.1,0,0.2,0,0.3,0c0,0,0-0.1,0.1-0.2c-0.2-0.4-0.4-0.8,0-1.2
			c0,0-0.2-0.3-0.3-0.4C469.2,14.7,469,14.8,468.8,14.8z M455,15.3c0.1,0.2,0.5,0.6,0.6,0.5c0.3-0.1,0.6-0.4,1.3-0.8
			c-0.4-0.2-0.5-0.2-0.7-0.3C455.8,14.6,454.9,15.1,455,15.3z M499.8,13c-0.3-0.1-0.6-0.1-0.7-0.2c-0.3-0.3-0.5-0.3-0.7,0
			c-0.1,0.2-0.2,0.5-0.2,0.6c0.1,0.2,0.3,0.4,0.5,0.5c0.1-0.2,0.1-0.4,0.2-0.5C499.2,13.3,499.5,13.2,499.8,13z M485.5,15.2
			c-0.3,0-0.6,0.3-0.9,0.5c0.3,0.2,0.6,0.5,1,0.8c0.2-0.3,0.5-0.5,0.4-0.5C485.9,15.6,485.7,15.2,485.5,15.2z M240.2,7.8
			c0.1,0.1,0.3,0.2,0.3,0.2c0.6,0.1,0.9,0,0.8-0.6c0-0.2-0.2-0.4-0.3-0.6C241,6.8,240.1,7.7,240.2,7.8z M178.3,7.6
			c0,0.2,0,0.4,0,0.6c0,0.1,0.2,0.1,0.3,0.2c0.6,0,1.1-0.8,0.8-1.3c0,0-0.2,0-0.3,0C179.1,7.5,178.8,7.7,178.3,7.6z M479.3,14.1
			c0.1-0.2,0.3-0.5,0.4-0.7c-0.1-0.2-0.2-0.4-0.3-0.5c-0.1,0.1-0.3,0.2-0.4,0.4c-0.1,0.3-0.2,0.5-0.2,0.8c0,0.1,0.1,0.2,0.2,0.3
			C479.2,14.3,479.3,14.2,479.3,14.1z M252.3,5.6c0,0.2,0.2,0.3,0.4,0.5c0.2-0.2,0.3-0.4,0.6-0.7C253,5.2,252.9,5,252.7,5
			C252.2,4.9,252.3,5.3,252.3,5.6z M255.7,7.8c0,0.2,0,0.5,0,0.7c0,0,0.1,0.1,0.1,0.1c0.2,0,0.3,0,0.5,0c0.1,0,0.1-0.2,0.1-0.3
			c-0.2-0.2-0.3-0.5-0.5-0.7C256,7.6,255.7,7.7,255.7,7.8z M280.2,7.6c-0.1,0.1-0.2,0.3-0.2,0.5c0,0.1,0.1,0.2,0.2,0.3
			c0.1,0.1,0.3,0.3,0.4,0.4c0.1-0.1,0.2-0.3,0.2-0.4c0-0.2,0.1-0.4,0-0.5C280.6,7.8,280.4,7.7,280.2,7.6z M482.7,15.6
			c0,0.3-0.1,0.7,0.4,0.6c0.1,0,0.3-0.1,0.5-0.3c-0.3-0.3-0.5-0.6-0.7-0.8C482.8,15.3,482.7,15.4,482.7,15.6z M452.8,14.7
			c0,0-0.2,0.1-0.4,0.1c0.1,0.1,0.2,0.2,0.3,0.2c0,0,0.1,0,0.2,0c0.3,0.1,0.5,0.2,0.8,0.3c0-0.1,0.1-0.2,0-0.3
			C453.6,15,453.2,14.7,452.8,14.7z M147.8,7.6c-0.1,0.2-0.2,0.3-0.2,0.5c0.1,0.5,0.5,0.3,0.7,0.3c0.1,0,0.2-0.1,0.6-0.2
			C148.4,7.9,148.1,7.7,147.8,7.6z M214,8c0,0,0.2,0.3,0.3,0.3c0.2,0,0.4-0.1,0.7-0.3c-0.3-0.2-0.4-0.5-0.5-0.4
			C214.3,7.7,214.1,7.8,214,8z M273,7.2c-0.1,0.2-0.2,0.4-0.2,0.5c0,0.2,0.2,0.3,0.2,0.5c0.2-0.2,0.4-0.3,0.5-0.5
			C273.4,7.6,273.2,7.4,273,7.2z M181.1,8c-0.2,0-0.3,0.1-0.5,0.2c0.2,0.1,0.3,0.1,0.5,0.2c0.1,0,0.2,0,0.4,0s0.3,0,0.4,0
			c0.1,0,0.2-0.1,0.3-0.2C182,8.1,181.9,8,181.8,8C181.6,7.9,181.3,7.9,181.1,8z M160.8,7.4c0-0.1-0.2-0.1-0.2-0.1
			c0,0.5,0,0.9,0,1.4c0.1,0,0.2-0.1,0.2-0.1c0-0.2,0-0.5,0-0.7C160.9,7.6,160.9,7.5,160.8,7.4z M432.7,13.3c0,0.1-0.1,0.2-0.1,0.3
			c0.1,0.2,0.2,0.4,0.4,0.6c0.1,0.1,0.2,0.1,0.3,0.1c0-0.1,0.1-0.2,0.2-0.4c-0.1-0.1-0.3-0.3-0.4-0.4
			C432.9,13.3,432.8,13.3,432.7,13.3z M289.7,8.4c0,0.1,0,0.2,0,0.4c0.3-0.1,0.6-0.2,0.6-0.3c0-0.3-0.1-0.6-0.1-1
			C289.9,7.8,289.8,8.1,289.7,8.4z M175.6,8c-0.1,0-0.2,0.1-0.3,0.2c0.2,0.2,0.4,0.3,0.6,0.5c0-0.1,0.1-0.2,0.2-0.5
			C175.9,8.1,175.8,8,175.6,8z M175.2,6.9c-0.2,0.2-0.4,0.3-0.6,0.5c0.1,0.1,0.2,0.2,0.3,0.2c0.2,0,0.4-0.1,0.5-0.2
			C175.2,7.1,175.2,7,175.2,6.9z M473.4,14.7c-0.1,0.2-0.2,0.4-0.2,0.7c0,0.2,0.1,0.3,0.2,0.5c0.1-0.2,0.2-0.4,0.3-0.6
			C473.5,15,473.5,14.9,473.4,14.7z M309.4,9.3c-0.2,0.2-0.4,0.3-0.5,0.4c0.2,0.2,0.3,0.3,0.5,0.5c0.1-0.1,0.2-0.2,0.2-0.4
			C309.6,9.7,309.5,9.5,309.4,9.3z M389.5,11.3c-0.3,0.1-0.4,0.1-0.5,0.2c0.2,0.2,0.3,0.4,0.5,0.6c0.1-0.1,0.2-0.2,0.2-0.3
			C389.6,11.6,389.5,11.5,389.5,11.3z M149.6,6.8c-0.2,0-0.3,0.1-0.5,0.2c0.2,0.1,0.4,0.2,0.6,0.3c0.2-0.1,0.3-0.2,0.5-0.3
			C150,7,149.8,6.9,149.6,6.8z M309.6,5.3c0.1,0,0.2-0.2,0.3-0.2c-0.2-0.1-0.4-0.1-0.9-0.2c0,0.1-0.1,0.2-0.1,0.3
			C309.1,5.2,309.4,5.3,309.6,5.3z M355.9,10.2c0,0.1,0,0.2,0,0.3c0,0.1,0.1,0.3,0.2,0.6c0.1-0.3,0.2-0.5,0.1-0.6
			C356.2,10.4,356,10.3,355.9,10.2z M302.2,9c0,0.1-0.1,0.2-0.1,0.3c0.1,0,0.2,0.1,0.3,0.1c0.1,0,0.2-0.2,0.3-0.2
			C302.6,9.2,302.5,9.1,302.2,9z M454.1,13.6c-0.1,0.2-0.2,0.4-0.2,0.5c0,0,0.1,0.1,0.2,0.2c0.1-0.1,0.2-0.3,0.2-0.4
			C454.2,13.8,454.1,13.7,454.1,13.6z M310,9c-0.1-0.1-0.3-0.2-0.4-0.3c0,0.3,0,0.5,0,0.8C309.7,9.3,309.9,9.1,310,9z M465.6,14.8
			c0,0.1,0.1,0.2,0.2,0.3c0.1-0.1,0.2-0.3,0.2-0.4c-0.1-0.1-0.2-0.2-0.2-0.3C465.7,14.5,465.6,14.7,465.6,14.8z M424.6,14.1
			c0.1,0.1,0.3,0.2,0.4,0.2c0.1-0.1,0.2-0.1,0.3-0.2c-0.2-0.1-0.4-0.2-0.6-0.2C424.7,14,424.7,14.1,424.6,14.1z M359.3,11.5
			c0,0.2,0.1,0.3,0.1,0.5c0.1,0,0.2-0.1,0.2-0.1c0-0.2,0-0.3-0.1-0.5C359.5,11.4,359.3,11.5,359.3,11.5z M475.3,14.8
			c-0.1,0.1-0.2,0.2-0.2,0.3c0,0.1,0.1,0.2,0.1,0.3c0.1-0.1,0.3-0.1,0.3-0.1C475.4,15,475.4,14.9,475.3,14.8z M339.6,8.3
			c0,0.1,0,0.2,0,0.3c0,0.1,0.1,0.3,0.2,0.6c0.1-0.3,0.2-0.5,0.1-0.6C339.9,8.5,339.7,8.4,339.6,8.3z M487.8,15.9
			c-0.1,0-0.1,0.2-0.1,0.2c0.2,0,0.3,0.1,0.5,0.1c0,0,0.1-0.1,0.2-0.3C488.1,15.9,488,15.9,487.8,15.9z M311.2,9.3
			c0,0.3-0.1,0.5-0.1,0.7c0,0,0.2,0,0.2,0.1c0-0.2,0.1-0.3,0.1-0.5C311.5,9.6,311.4,9.5,311.2,9.3z M392.5,11.9
			c0,0.3-0.1,0.5-0.1,0.7c0,0,0.2,0,0.2,0.1c0-0.2,0.1-0.3,0.1-0.5C392.7,12.2,392.6,12.1,392.5,11.9z M479,15.3
			c-0.1-0.3-0.2-0.4-0.2-0.5c-0.1,0.1-0.2,0.2-0.2,0.3c0,0.1,0.1,0.2,0.1,0.3C478.8,15.4,478.9,15.3,479,15.3z M306.2,8
			c-0.1,0-0.3,0-0.4,0c0,0.1,0,0.3,0,0.4c0,0.1,0.2,0.2,0.2,0.3c0-0.1,0.1-0.2,0.1-0.3C306.2,8.2,306.2,8.1,306.2,8z M419.5,13.3
			c-0.1,0-0.2,0.1-0.2,0.1c0,0,0.1,0.1,0.1,0.1c0.1,0,0.2-0.1,0.3-0.1C419.6,13.4,419.6,13.3,419.5,13.3z M489.1,16
			c0.1,0,0.2,0.1,0.2,0.1c0.1-0.1,0.1-0.1,0.1-0.1c-0.1,0-0.2-0.1-0.3-0.1C489.2,15.9,489.2,16,489.1,16z M384.2,5.7
			c0-0.1,0.1-0.2,0.1-0.2c-0.1-0.1-0.1-0.1-0.1-0.1c0,0.1-0.1,0.2-0.1,0.3C384.1,5.6,384.1,5.7,384.2,5.7z M371.5,10.8
			c0.1,0,0.2,0.1,0.3,0.1c0,0,0.1-0.1,0.1-0.1c-0.1,0-0.2-0.1-0.3-0.1C371.6,10.6,371.5,10.7,371.5,10.8z M354.9,11.4
			c-0.1,0.1-0.1,0.1-0.1,0.1c0.1,0,0.2,0.1,0.3,0.1c0,0,0.1-0.1,0.1-0.1C355.1,11.5,355,11.4,354.9,11.4z M281.3,6.9
			c0,0.1-0.1,0.2-0.1,0.2c0.1,0.1,0.2,0.1,0.3,0.1c0-0.1,0-0.1,0-0.2C281.5,7,281.4,6.9,281.3,6.9z M185,7.2c0,0.1-0.1,0.2-0.1,0.3
			c0,0,0.1,0.1,0.1,0.1c0-0.1,0.1-0.2,0.1-0.2C185,7.3,185,7.2,185,7.2z M253.6,7.6c0,0.1-0.1,0.2-0.1,0.3c0,0,0.1,0.1,0.1,0.1
			c0-0.1,0.1-0.2,0.1-0.2C253.7,7.7,253.7,7.6,253.6,7.6z M288.2,8c0,0.1-0.1,0.2-0.1,0.3c0,0,0.1,0.1,0.1,0.1
			c0-0.1,0.1-0.2,0.1-0.2C288.3,8,288.2,8,288.2,8z M276.1,8c-0.1,0-0.2,0.1-0.3,0.1c0,0,0.1,0.1,0.1,0.1c0.1,0,0.2-0.1,0.2-0.1
			C276.2,8.1,276.1,8,276.1,8z M156.9,8c-0.1,0.1-0.1,0.1-0.2,0.2c0.1,0.1,0.1,0.1,0.2,0.2c0,0,0.1-0.1,0.1-0.1
			C157,8.1,156.9,8,156.9,8z M143.2,8c-0.1,0.1-0.1,0.1-0.2,0.2c0.1,0.1,0.1,0.1,0.2,0.2c0,0,0.1-0.1,0.1-0.1
			C143.3,8.1,143.2,8,143.2,8z M117,8c0,0-0.1,0.1-0.1,0.1c0,0.1,0.1,0.2,0.1,0.2c0,0,0.1-0.1,0.1-0.1C117.1,8.1,117.1,8,117,8z
			 M451.7,15.1c0,0.1-0.1,0.2-0.1,0.3c0,0,0.1,0.1,0.1,0.1c0-0.1,0.1-0.2,0.1-0.3C451.9,15.2,451.8,15.1,451.7,15.1z M132.5,8.8
			c0,0.1,0.1,0.2,0.1,0.3c0,0,0.1-0.1,0.1-0.1c0-0.1-0.1-0.2-0.1-0.2C132.5,8.7,132.5,8.8,132.5,8.8z M334.2,10.3
			c-0.1,0-0.2,0.1-0.2,0.1c0,0,0.1,0.1,0.1,0.1c0.1,0,0.2-0.1,0.3-0.1C334.2,10.4,334.2,10.3,334.2,10.3z M432,14.3
			c-0.1,0.1-0.1,0.1-0.2,0.2c0.1,0.1,0.1,0.1,0.2,0.2c0,0,0.1-0.1,0.1-0.1C432.1,14.5,432,14.4,432,14.3z M473.4,14.4
			c-0.7,0-1.4-0.1-1.9-0.4c-0.6-0.4-1.1-0.5-1.6,0c-0.1,0.1-0.6-0.3-1-0.3c-0.5,0-0.9-0.6-1.4-0.2c-0.7,0.5-0.8-0.4-1.2-0.5
			c-0.5-0.1-0.9,0.5-1.4,0c0,0,0-0.1,0-0.2c-0.4-0.5-0.4-0.5-0.8,0c-0.2,0.4-0.4,0.9-0.7,1.1c-0.5,0.2-1.1,0.1-1.5-0.5
			c0-0.1-0.1-0.1-0.1-0.1c-0.1,0-0.2,0-0.3,0.1c-0.2,0.1-0.5,0.2-0.6,0.1c-0.3-0.3-0.1-0.5,0.1-0.8c0,0,0-0.2,0-0.2
			c-0.4-0.2-0.9-0.3-1.3-0.4c-0.1,0-0.3,0-0.3,0.1c0,0.2-0.1,0.4,0,0.5c0.2,0.2,0.5,0.3,0.7,0.5c0,0-0.1,0.3-0.2,0.4
			c-0.8-0.7-1.7-0.2-2.5-0.3c-0.7-0.1-1-0.3-1.1-1c0-0.2-0.1-0.3-0.1-0.5c-0.1,0.2-0.1,0.5-0.3,0.5c-0.3,0.2-1,0.2-1,0.5
			c-0.2,0.7-0.4,0.5-0.9,0.2c-0.7-0.4-0.5-1.2-0.9-1.7c-0.2-0.2-0.3-0.4-0.5-0.1c-0.1,0.2-0.4,0.2-0.2,0.5c0.3,0.3,0.5,0.7,0.7,1
			c0.1,0.1,0.1,0.3,0.1,0.4c-0.2-0.1-0.5,0-0.6-0.2c-0.6-0.6-1-0.7-1.6-0.3c-0.3,0.2-0.9,0.4-1-0.2c-0.1-0.4-0.5-0.6-0.6-0.4
			c-0.2,0.5-1.2,0-1,0.9c0.1,0.2,0.2,0.5,0.3,0.5c0.6,0.2,1.3,0.3,1.9,0.4c0.3,0.1,0.9,1.5,0.7,1.7c-0.1,0.1-0.4,0.2-0.5,0.1
			c-0.5-0.8-1.1-0.5-1.8-0.2c-0.4,0.2-0.9,0.1-1.4,0.1c-0.3,0-0.6-0.3-0.8-0.2c-0.8,0.2-1.3-0.3-1.8-0.8c-0.4-0.5-0.5-0.4-0.6,0.2
			c0,0.5-0.5,0.8-0.8,0.6c-0.3-0.1-0.4-0.5-0.7-0.6c-0.4-0.2-0.9-0.6-1.1,0.3c0,0.1-0.2,0.1-0.3,0.1c-0.5-0.1-0.9-0.1-1.4-0.2
			c-0.6-0.1-0.9-0.4-0.7-1.1c0,0,0,0,0,0c0.1-0.1,0.1-0.1,0-0.1c0.1-0.2,0.1-0.2,0.1-0.2c-0.1,0-0.2,0.1-0.2,0.2
			c0,0,0.1,0.1,0.1,0.1c-0.7,0.2-1.3-0.1-1.8,0.5c-0.7,0.7-0.8,0.7-2,0.4c-0.2-0.1-0.5-0.1-0.7-0.1c0.2-0.1,0.5-0.2,0.6-0.4
			c0.2-0.3,0.1-0.6-0.3-0.6c-0.4-0.1-1,0.3-1.1-0.3c0-0.3,0.4-0.7,0.7-1c0.2-0.2,0.5-0.1,0.6-0.3c0.1-0.1,0.1-0.3,0.1-0.5
			c-0.6,0.2-0.9-1-1.6-0.3c-0.1,0.1-0.4,0.2-0.5,0.1c-0.6-0.7-1.4-0.3-2.1-0.3c-0.6-0.1-1.1,0-1.5-0.6c-0.2-0.3-0.3-0.2-0.4,0.2
			c-0.1,0.4-0.3,0.8-0.4,1.2c-0.1,0.4,0.1,0.7,0.4,1c0,0,0.1,0.1,0.1,0.1c0.1-0.2,0.2-0.5,0.4-0.7c0.1-0.1,0.4,0,0.5,0
			c0,0.4,0,0.7,0,1.1c0,0.4,0,1-0.2,1.1c-0.7,0.4-0.3-0.8-0.9-0.8c-0.1-0.1-0.1-0.2-0.2-0.3c0,0.1-0.1,0.2-0.1,0.2
			c0.1,0.1,0.2,0.1,0.3,0.1c-0.1,0.5-0.4,0.7-0.9,0.8c-0.5,0-0.7-0.2-0.7-0.6c-0.1,0-0.3,0.1-0.4,0.1c-1.2,0.3-1.4,0.2-1.8-0.9
			c0-0.1,0-0.3,0-0.4c0-0.1-0.1-0.3-0.2-0.4c-0.1,0.1-0.4,0.2-0.4,0.4c-0.1,0.5-0.1,1-0.1,1.4c-0.9,0-1.9-0.3-2.6,0.1
			c-1,0.4-1.2-0.6-1.9-0.6c0-0.1,0-0.3,0-0.4c0.1-0.2,0.1-0.4,0.2-0.5c-0.2,0-0.5,0-0.5,0.1c-0.1,0.4-1,0-0.9,0.7
			c0,0.1-0.1,0.3-0.2,0.3c-0.7,0.1-1.3-0.5-2,0c0,0-0.1,0-0.2,0c-0.1,0-0.2,0-0.2-0.1c-0.1-0.4-0.1-0.7-0.1-1.1
			c0-0.2-0.1-0.7-0.1-0.7c-0.7,0-1.4,0-2,0c0.1,0.1,0.1,0.3,0.2,0.4c0.2,0.4,0.2,0.8-0.2,1.2c-0.4,0.3-0.7,0.6-1.1,1
			c0-0.2-0.1-0.3-0.1-0.5c0-0.4,0-0.6-0.5-0.6c-0.2,0-0.4,0-0.5,0.1c-0.5,0.6-1.4,0-1.7,0.3c-0.9,0.8-1.1-0.1-1.7-0.4
			c-0.2-0.1-0.6,0-0.9,0.1c-0.3,0.2-0.5,0.2-0.4-0.1c0.1-1.4-0.5-2.4-1.3-3.4c-0.3-0.3-0.4-0.9-0.7-1c-0.4,0-0.8,0.4-1.2,0.5
			c-0.3,0.1-0.7-0.1-1-0.1c-0.2,0-0.4,0.2-0.7,0.3c0.1,0.1,0.2,0.2,0.3,0.2c0.3,0.1,0.5,0.1,0.1,0.4c-0.2,0.1-0.4,0.2-0.6,0.3
			c-0.5,0.3,0,0.6,0.1,0.6c0.5-0.1,0.9,0.3,1.3,0.2c0.3-0.1,0.5-0.5,0.6-0.9c0.1-0.3,0-0.7,0.5-0.6c0.1,0,0.2,0.3,0.3,0.5
			c0,0,0,0.1,0,0.2c0.3,0.6,0.9,1.3-0.5,1.2c0,0-0.1,0.3-0.1,0.3c0.2,0.1,0.4,0.2,0.6,0.3c0.1,0.1,0.2,0.3,0.3,0.4
			c-0.1,0-0.2,0.1-0.3,0.1c-0.3,0-0.6,0-0.9,0c-0.6,0.1-1-0.1-1.3-0.6c-0.1-0.2-0.2-0.5-0.3-0.6c-0.4-0.1-0.5,0.2-0.5,0.5
			c0,0.1-0.4,0.2-0.6,0.2c-0.8,0.1-1.6-0.1-2.3,0.4c-0.3,0.2-0.9,0.1-0.8-0.6c0.1-0.5-0.2-0.6-0.7-0.4c-0.2,0.1-0.5,0.1-0.6,0.3
			c-0.3,0.3-0.4,0.6-0.6-0.1c-0.1-0.4-1-0.4-1.6,0.1c-0.4,0.3-0.6,0.7-0.7-0.2c-0.1,0-0.3,0.1-0.4,0.1c-0.2,0-0.5,0.1-0.7,0.1
			c-0.2-0.2-0.4-0.5-0.5-0.7c-0.4-0.6-0.6-0.3-0.7,0.2c0,0.1-0.6,0.1-0.9,0.1c-0.1,0-0.1-0.2-0.2-0.3c-0.2-0.4,0.8-0.7,0.3-1.1
			c-0.8-0.6-0.4,0.7-0.9,0.6c-0.4,0-0.9,0-1.3,0c-0.1,0-0.2,0.1-0.3,0.2c0.8,0.6-0.1,0.5-0.3,0.7c-0.4,0.6-0.7,0.2-1.1-0.1
			c-0.1-0.1-0.3,0.1-0.5,0.1c-0.1,0-0.3,0-0.4,0.1c0-0.9-0.7-0.7-1-0.5c-0.6,0.4-0.9,0.4-1.5,0c-0.2-0.1-0.9-0.4-1,0.4
			c-0.1,0.5-0.2,0.2-0.4,0.1c-0.3-0.2-0.8-0.2-0.7-0.8c0-0.1-0.1-0.4-0.2-0.4c-0.4-0.2-0.9-0.4-1.4-0.4c-0.5,0-0.2,0.2-0.1,0.4
			c0.1,0.1,0.1,0.3,0.1,0.5c-0.1,0-0.3,0-0.4-0.1c-0.5-0.4-0.9-1.1-1.2,0.1c0,0-0.2,0-0.3,0c-0.1-0.1-0.2-0.2-0.3-0.3
			c-0.5-0.5-0.5-0.2-0.5,0.2c0,0.2-0.1,0.3-0.1,0.5c-0.1-0.1-0.2-0.2-0.2-0.4c-0.1-0.1-0.2-0.3-0.3-0.4c-0.1-0.2-0.2-0.4-0.3-0.6
			c-0.1,0.2-0.1,0.5-0.2,0.7c-0.1,0.2-0.3,0.5-0.4,0.4c-0.4-0.2-0.9-0.4-1.1-0.7c-0.2-0.4-0.3-0.8,0.8-1.6c0.1-0.1,0.3-0.2,0.5-0.3
			c0,0,0.1-0.1,0.1-0.1c-0.2,0.1-0.4,0.3-0.6,0.4c-0.4,0.2-0.7,0.2-1,0c0.4-0.1,0.9-0.3,1.9-0.5c0,0,0,0-0.1,0c0.1,0,0.1,0,0.2-0.1
			c0,0-0.1,0-0.1,0c1.9-0.7,1.6-0.8,1.4-1c-0.2-0.2-0.3-0.3-0.6,0c-0.3,0.4-0.5,0.5-1,0.1c-0.5-0.5-1.2-1-2-0.4
			c-0.2,0.2-0.7,0-1.1,0c-0.1,0-0.4,0.2-0.4,0.3c0,0.1,0.1,0.4,0.2,0.5c0.3,0.2,0.6,0.3,0.9,0.6c0.2,0.2,0.4,0.3,0.6,0.4
			c-0.5,0.1-0.7,0.1-0.8,0.1c-0.3-0.1-0.5-0.2-0.8-0.3c0.1,0.2,0.2,0.4,0.3,0.7c0.2,0.4,0.4,0.7,0.6,1.1c0,0.1,0,0.2,0,0.4
			c-0.1,0-0.3,0-0.4-0.1c-0.3,0-0.6,0-0.9-0.2c-0.3-0.2-0.5-0.7-0.6-0.7c-0.9,0.2-1-0.5-1.5-0.9c-0.5-0.5-0.3-0.8,0.4-1.1
			c0.4,0.3,0.8,0.1,1.3,0.1c0,0,0.1-0.2-0.8-0.3c0.8,0,0.7-0.2,0.6-0.2c-0.4-0.1-0.8-0.3-1.2-0.4c-0.1,0-0.3,0-0.4,0
			c0,0,0,0.1,0,0.2c-0.7-0.5-1-1-1.8-0.8c0-0.2-0.1-0.5-0.1-0.7c0-0.1-0.1-0.2-0.1-0.3c-0.1,0.1-0.2,0.2-0.2,0.3c0,0.2,0,0.5,0,0.7
			c0,0.2-0.1,0.5-0.1,0.7c-0.2-0.1-0.3-0.3-0.5-0.4c-0.1-0.1-0.3-0.1-0.4-0.1c0,1-0.8,0.5-1.2,0.6c-0.1,0-0.2,0.1-0.3,0.2
			c0.1,0.1,0.1,0.2,0.2,0.2c0.5,0,0.7,0.4,0.9,0.8c0.8,1.3,1,1.3,1.9,0c0,0,0-0.1,0-0.2c0.1,0,0.3,0,0.4,0c0.4,0.6,0.8,1.3,1.1,2
			c0,0.1-0.1,0.3-0.2,0.4c-0.1-1.1-1.3,0.6-1.3-0.6c-0.1,0-0.3,0-0.3,0.1c0,0.5-0.2,0.7-0.7,0.4c-0.3-0.1-0.5-0.2-0.8-0.4
			c-0.2-0.2-0.4-0.3-0.4,0.1c0,0.1,0,0.1,0,0.2c0,0.3-0.1,0.6-0.1,0.9c-0.2-0.2-0.5-0.3-0.7-0.5c-0.3-0.2-0.7-0.3-0.7,0.1
			c-0.1,0.9-0.8,0.6-1.1,0.5c-0.6-0.2-1.2-0.6-1.5-1.1c-0.3-0.4,0.2-1.2-0.4-1.7c0.4-0.1,0.8-0.3,1.2-0.4c0.1,0,0.2-0.2,0.3-0.3
			c0.3-0.5,0.5-0.1,0.7,0.1c0.2,0.2,0.2,0.5,0.4,0.8c0.1,0.2,0.4,0.2,0.6,0.4c0.1-0.2,0.3-0.4,0.3-0.6c0.1-1.5-0.1-1.7-1.6-1.7
			c-0.3,0-0.6,0-0.9,0c-0.5,0-0.9,0-0.9-0.6c-0.2,0-0.6-0.1-0.6,0c-0.7,0.9-1.8,0.8-2.6,0.5c-0.9-0.4-1.8-0.2-2.7-0.2
			c0,0-0.1,0.1-0.5,0c1,0.3,1.3,0.5,1.7,0.4c0.5-0.1,0.4,0.9,0.6,1.3c0.1,0.2,0.2,0.3,0.2,0.5c0.1,0.1,0.1,0.2,0.2,0.3
			c0.1-0.1,0.2-0.2,0.2-0.3c0-0.1,0-0.2,0-0.4c0.1-1.2,0.1-1.2,1.3-1.2c0.5,0,1,0,1.5,0c0,0,0.1,0.2,0.1,0.3c0,0-0.1,0.1-0.1,0.1
			c-0.7,0-0.6,0.3-0.3,0.8c0.3,0.4,0.4,1,0.5,1.5c0.1,0.2-0.1,0.5-0.1,0.7c-0.3-0.1-0.6-0.2-0.8-0.3c-0.1-0.1-0.2-0.4-0.1-0.6
			c0-0.2,0.5-0.3,0.1-0.5c-0.1,0-0.5,0.2-0.5,0.3c-0.2,0.7-0.7,0.9-1.3,0.8c-0.5-0.1-1-0.9-1.1,0.3c0,0-0.2,0.1-0.3,0
			c-0.3-0.3-0.5-0.5-0.8-0.8c-0.1-0.1-0.3,0-0.4,0c0,0.2,0,0.4,0,0.6c-0.1,0-0.1,0-0.2,0c-0.8-0.1-1.6,0.1-2.6,0.7
			c-0.1,0.1-0.4,0.1-0.5,0c-0.2-0.2-0.4-0.5-0.5-0.7c-0.2-0.4-0.4-0.4-0.7-0.2c-0.2,0.2-0.3,0.2-0.6,0c-0.3-0.2-0.6-0.4-0.9-0.5
			c-0.1,0-0.4,0.2-0.5,0.3c-0.1,0.3,0.2,0.8-0.5,0.8c-0.5-0.1-0.3-0.5-0.3-0.8c0-0.4,0-0.8,0-1.1c0-0.1,0.2-0.3,0.3-0.3
			c0.5,0,0.6-0.3,0.4-0.6c-0.1-0.2-0.4-0.5-0.7-0.5c-0.5-0.1-0.4,0.4-0.4,0.6c0,0.4,0,0.9,0,1.3c0,0.6-0.4,0.9-1,0.6
			c-0.3-0.1-0.5-0.4-0.9-0.2c-0.7,0.3-0.9,0.1-0.8-0.5c0.1-0.3,0.6-0.8-0.1-1c-0.6-0.2-0.2,0.6-0.6,0.8c-0.2,0.1-0.1,0.7-0.5,0.5
			c-0.6-0.3-1,0-1.5,0.2c-0.1,0-0.3,0-0.4-0.1c-0.8-0.4-1.2-0.3-1.1,0.7c0,0.1-0.2,0.2-0.4,0.3c-0.1,0-0.3-0.1-0.3-0.1
			c-0.4-0.7-0.5-1.5-0.5-2.3c0-0.3,0.3-1-0.4-0.9c-0.6,0.1-0.2,0.7-0.3,1.1c-0.2,0.4-0.7-1.1-0.8,0.1c0,0.1,0,0.1,0,0.2
			c0,0.2-0.1,0.5-0.1,0.7c-0.2-0.2-0.4-0.3-0.7-0.5c-0.5-0.3-0.6-0.3-0.7,0.4c0,0.1,0,0.2,0,0.4c-0.1,0-0.3,0-0.3-0.1
			c-0.3-0.3-1.9-0.8-2.2-0.7c-0.9,0.3-2,0.3-2.8,1c-0.1,0.1-0.4-0.1-0.6-0.2c0.4-0.9-0.9-0.8-0.8-1.5c0,0-0.3-0.2-0.5-0.1
			c-0.1,0-0.2,0.3-0.2,0.4c0,0.2,0.2,0.3,0.3,0.4c0,0.1,0,0.3,0,0.5c-0.1-0.1-0.3-0.1-0.4-0.2c-0.8-0.6-0.8-0.6-1,0.3
			c0,0.1-0.1,0.2-0.1,0.3c-0.1-0.1-0.2-0.1-0.2-0.2c-0.1-0.4-0.3-0.9-0.7-0.7c-0.6,0.3-0.8-0.2-0.8-0.4c-0.1-0.4,0-0.9-0.4-1.1
			c-0.2-0.1-0.4-0.1-0.6-0.1c0.1,0.1,0.2,0.3,0.2,0.4c0,0.2-0.1,0.4-0.1,0.6c-0.2-0.1-0.5-0.2-0.5-0.3c-0.2-0.9-0.5-0.1-0.6,0
			c-0.3,0.4-0.3,1.1-1.1,0.4c-0.4-0.3-0.6,0.1-0.6,0.5c0,0.2-0.1,0.3-0.2,0.5c-0.6-0.5-1.2-1-1.7-1.5c0,0,0-0.1,0-0.2
			c0.5-0.5,0.4-0.8-0.3-0.5c-0.5,0.3-1,0.3-1.4,0.2c-0.2,0-0.9-0.3-0.3-0.9c0.1-0.1-0.1-0.5-0.2-0.6C318,6,318.4,5.5,318.5,5
			c0-0.1,0.1-0.3,0.1-0.4c-1-0.1-2.1-0.2-3,0.3c-0.1,0-0.2,0.2-0.2,0.2c0.5,0.4,1,1,1.6,1.2c0.5,0.2,0.9,0,0.3-0.6
			c-0.1-0.1,0-0.4,0.2-0.5c0.1-0.1,0.5,0,0.5,0c0,0.8,0.7,1.4,0.5,2.2c0,0.1-0.3,0.2-0.3,0.1c-0.3-0.3-0.6-0.6-1-0.9
			c-0.1-0.1-0.4-0.1-0.5,0c-0.4,0.6-1.1,1.2-1.2,1.9c-0.1,0.8-0.7,0.8-1,0.6c-0.5-0.3-0.6-0.4-0.6,0.2c0,0-0.5,0.2-0.6,0.1
			c-0.3-0.4-0.5-0.2-0.7,0.1c-0.3-0.3-0.6-0.4-1-0.4c-0.7-0.6-0.7-0.6-0.8-1.5c0-0.3,0.1-0.7,0-0.9c-0.2-0.4-0.8-0.8,0-0.9
			c0.6-0.1,0.2-1.1,1-0.8c0.2,0.1,0.4-0.1,0.6-0.2c0.4-0.2,0.2-0.4,0-0.7c-0.3-0.2-0.5-0.3-0.8,0c-0.1,0.1-0.3,0.1-0.4,0
			c-0.1-0.2,0.1-0.8-0.4-0.3c-0.4,0.3-0.9,1.2-1.2-0.1c0-0.1-0.6-0.1-0.9-0.1c-0.4,0-0.3,1-1.1,0.5c-0.2-0.2-0.9,0.2-1.3,0.3
			c-0.1,0-0.3,0.1-0.4,0.2c0.1,0.1,0.3,0.3,0.4,0.4c0.3,0.3,0.5,0,0.8-0.1c0.3-0.1,0.8-0.1,1,0c1.6,1,1.6,1,1.6,2.9
			c0,0.2,0,0.5,0,0.7c-0.8,0,0-1-0.7-1.1c-0.6-0.1-0.5-0.8-0.8-1.2c-0.1-0.1-0.3-0.3-0.4-0.3c-0.1,0-0.3,0.1-0.4,0.3
			c-0.1,0.3,0.2,0.7-0.4,0.9c-0.3,0.1-0.5,0.5-0.8,0.7c0-0.1,0-0.3,0-0.4c0-0.1-0.2-0.2-0.2-0.3c0,0.1-0.1,0.2-0.1,0.3
			c0,0.1,0,0.2,0,0.4c-0.9,0.5-0.9,0.5-1.1-0.3c-0.2-0.6-0.5-0.9-1.1-1.1c-0.1-0.5-0.2-0.7-0.3-0.8c-0.1,0.2-0.1,0.4-0.1,0.6
			c0,0.1,0.1,0.3,0.2,0.4c0.1-0.2,0.2-0.3,0.2-0.3c-0.1,0.5,0.1,0.9-0.3,1c-0.4,0.1-0.9,0-1.2,0.2c-0.6,0.3-0.8,0.2-0.8-0.4
			c0-0.2-0.2-0.4-0.3-0.5c-0.1,0.1-0.3,0.3-0.4,0.4c-0.1,0.2-0.2,0.6-0.3,0.8c-0.1,0.2-0.4,0.5-0.4,0c-0.1-0.4-0.2-0.5-0.6-0.5
			c-0.6,0-1.1,0-1.7,0c-0.5,0-0.8-0.1-0.8-0.6c0,0-0.2-0.1-0.3-0.1C296.2,6.9,296,7,296,7.1c-0.2,0.6-0.5,0.9-1.2,0.8
			c-0.4,0-0.8-0.2-1-0.4c0-0.1-0.1-0.2,0-0.3c0,0,0,0,0,0c0.1-0.1,0.1-0.1,0-0.1c0.1-0.2,0.1-0.2,0.1-0.2c-0.1,0-0.2,0.1-0.2,0.2
			c0,0,0.1,0,0.1,0.1c-0.4,0.1-0.7,0-1,0.1c-0.9,0.2-0.4-0.7-0.9-1c-0.2-0.1-0.1-0.5,0.4-0.6c0.4,0,0.3-0.3,0.1-0.4
			c-0.2-0.1-0.6-0.3-0.8-0.2c-0.3,0.2-0.8,0.5-0.4,0.9c0.5,0.5-0.1,0.8-0.1,1.2c-0.1,1.1-0.7-0.5-1,0.1c0,0.1-0.1,0.2-0.1,0.3
			c-0.4-0.1-1.1-0.5-1.3-0.3c-0.6,0.6-1.4-0.6-1.9,0.2c0,0-0.2-0.1-0.2-0.1c0-0.8-0.7-0.8-1.2-1.2c-0.3-0.2-0.5-0.5-0.2-0.9
			c0.2-0.3-0.1-0.7,0.2-1.1c0.1-0.1-0.3-0.5-0.5-0.7c-0.5,0.6-1.4-0.1-1.8,0.7c-0.2-0.2-0.3-0.6-0.5-0.6c-0.2,0-0.5,0.2-0.7,0.4
			c-0.3,0.3-0.4,0-0.5-0.1c-0.2-0.2-0.2-0.5-0.4-0.8c-0.1-0.1-0.5,0-0.5,0.1c0,0.8-0.3,1.5-0.9,2.1c0.2,1.2-0.3,2.1-1.1,2.9
			c-0.1,0.1,0,0.2,0,0.4c0.1,0,0.3-0.1,0.4-0.1c0.2,0,0.4,0,0.6,0c-0.1,0.2-0.3,0.5-0.4,0.5c-0.4,0.1-0.9,0-1.3,0.1
			c-0.8,0.2-0.9-0.4-1.1-0.8c-0.4-0.8-0.6-1-1.3-1.3c-0.2-0.1-0.3-0.2-0.5-0.1c-0.5,0.1-0.6-0.2-0.6-0.7c0-0.2-0.1-0.3-0.2-0.5
			c-0.1,0.2-0.1,0.4-0.2,0.5c-0.3,0.3-0.5,1-1.1,0.5c-0.2-0.2-0.4-0.4-0.5-0.5c-0.1,0.2-0.2,0.5-0.4,0.7c-0.1,0.1-0.4,0-0.5-0.1
			c-0.5-0.5-0.4-0.1-0.5,0.2c0,0.1-0.3,0.1-0.3,0.1c-0.5-0.5-0.7,0-1.1,0.2c-0.8,0.6-0.9,0.6-1.7,0.1c-0.4-0.3-1-0.3-1.5-0.5
			c-0.1,0-0.2-0.1-0.3-0.2c0.1-0.1,0.2-0.1,0.3-0.2c0.2-0.1,0.5-0.4,0.6-0.3c0.9,0.7,0.7-0.4,0.6-0.5c-0.7-0.6-0.6-1.8-1.7-1.9
			c-0.2,0-0.3-0.5-0.5-0.1c-0.1,0.1,0.1,0.3,0.2,0.5c0.1,0.1,0.7-0.2,0.4,0.4c-0.1,0.2-0.3,0.5-0.4,0.7c-0.7-0.8-0.7,0.1-0.9,0.4
			c-0.1,0.1-0.1,0.2-0.2,0.3c-0.1-0.1-0.2-0.3-0.2-0.4c0-0.2,0-0.5,0-0.7c0-0.1-0.1-0.2-0.2-0.3c-0.1,0.1-0.2,0.2-0.2,0.3
			c0.1,1.1-0.4,2.2,0.3,3.3c0.2,0.3,0.1,0.6-0.3,0.6c-0.4,0.1-0.7,0.6-1.3,0.1c-0.3-0.3-1.2,0-1.7,0.1c-0.6,0.1-1.1-0.1-1.1-0.7
			c0-0.6,0-1.1,0-1.7c0-0.4-0.2-0.5-0.6-0.5c-0.9,0-1.1-0.1-1,1.1c0,0.2,0.1,0.5,0,0.7c-0.1,0.2-0.3,0.3-0.5,0.4
			c-0.3,0-0.7,0.1-0.7-0.4c0-0.5,0.1-1-0.4-1.4c-0.2-0.1-0.2-0.3-0.4-0.5c-0.1,0.2-0.3,0.3-0.4,0.5c-0.2,0.3-0.2,0.8-0.5,0.9
			c-0.3,0.1-0.7-0.1-1.1-0.2c-0.4-0.2-0.7-0.4-0.7-0.9c0-0.8-0.2-1.6,0.7-2.2c0.1-0.1,0.1-0.5,0.1-0.7c0-0.1-0.1-0.2-0.2-0.3
			c-0.1,0.1-0.2,0.2-0.2,0.3c-0.2,0.8-1,0.5-1.1,0.3c-0.2-0.9-0.7-0.6-1.2-0.4c-0.3,0.1-0.7,0.3-0.8,0.2c-0.4-0.3-0.7-0.3-1,0.1
			c-0.1,0.1-0.3,0.3-0.4,0.3c-0.4-0.1-0.8-0.3-1.2-0.3c-0.3,0-0.7,0.4-1,0c0,0-0.2,0-0.3,0.1c0,0,0,0.2,0,0.2
			c0.3,0.3,0.6,0.6,0.9,0.9c0.5,0.5,0.3-0.1,0.4-0.3c0.3-0.3,1.5-0.3,1.9-0.1c0.3,0.2,0.7,0.2,0.9-0.1c0.1-0.1,0.3-0.3,0.4-0.4
			c0.1-0.1,0.3-0.1,0.4,0c0.1,0.1,0.1,0.3,0,0.4c-1,2.3-1,2.3-0.6,3.8c0.1,0.3,0.9,0.8,0.2,1c-0.9,0.3-0.4-0.6-0.6-0.9
			c0,0-0.1-0.1-0.1-0.1c-0.2-0.2-0.4-0.5-0.7-0.1c-0.1,0.2-0.1,0.5-0.3,0.6c-0.2,0.1-0.6,0.3-0.8,0.2c-0.7-0.2,0.1-0.4,0.1-0.6
			c0-0.2,0-0.5,0-0.7c0-0.2-0.2-0.3-0.3-0.5c-0.1,0.2-0.3,0.3-0.4,0.5c-0.1,0.5-0.5,0.2-0.8,0.2c-0.1-0.5-0.3-0.8-0.4-1.2
			c0-0.1-0.2-0.1-0.3-0.1c-0.1,0.4-0.3,0.8-0.4,1.1c0,0.1,0.1,0.3,0.2,0.4c0.1,0.1,0.3,0.2,0.4,0.2c0.2-0.1,0.3-0.3,0.5-0.4
			c0.2,1.2,0.2,1.2-0.7,1.3c-0.7,0-0.9-0.2-0.8-0.8c0-0.5,0.2-1.1-0.3-1.6c-0.2-0.2-0.1-0.7-0.1-1.1c0-0.3,0.1-0.6-0.4-0.7
			c-0.9-0.2,0.2-0.4,0-0.7c-0.1-0.1-0.2-0.4-0.3-0.4c-0.4-0.1-0.9,0.5-0.7,0.7c0.4,0.4-0.1,1.1,0.6,1.5c0.6,0.3,0,0.6-0.2,0.8
			c-0.2,0.1-0.5,0-0.7,0.1c-0.3,0.1-0.5,0.3-0.7,0.6c-0.3,0.4-0.5,0.7-0.6,0.5c-0.4-0.6-0.9-1-1.6-1.2c-0.3-0.1-0.2-0.9,0.1-1.1
			c0.1,0,0.3,0,0.4,0c0.2,0,0.3-0.1,0.5-0.2c-0.2-0.1-0.3-0.2-0.5-0.2c-0.2,0-0.5,0-0.8,0c-0.8,0-0.8,0.3-0.4,0.9
			c0.3,0.4-0.1,0.7-0.4,0.9c-0.1,0.1-0.3-0.2-0.5-0.3c-0.2-0.1-0.4-0.1-0.5-0.2c0.2,0.7-0.7,0.4-0.8,0.8c-0.2,1.1-0.7,0.1-0.7,0
			c-0.1-0.4,0-0.7-0.1-1.1c0-0.1-0.2-0.3-0.4-0.3c-0.4,0-0.4,0.1-0.2,0.4c0.3,0.5-0.3,0.5-0.5,0.7c0,0-0.3-0.2-0.5-0.4
			c-0.2-0.1-0.3-0.2-0.5-0.4c-0.3,0.5-0.7,0.1-1,0c-0.2,0-0.5-0.1-0.7-0.2c0,0.3,0,0.6,0.1,0.9c0,0.2,0.3,0.3,0.4,0.4
			c0.1,0.1,0.1,0.3,0.1,0.4c-0.1,0-0.3,0.1-0.4,0c-0.2-0.1-0.6-0.1-0.6-0.2c-0.1-0.4-0.3-1-0.7-0.7c-0.5,0.4-0.7-0.1-1.1-0.1
			c-0.4,0-0.8,0.2-1.2,0.4c0.1,0.2,0.2,0.5,0.3,0.7c0,0,0,0.2,0,0.2c-0.1,0-0.2,0.1-0.3,0c-0.5-0.6-1.1-1.2-1.6-1.8
			c-0.1-0.1-0.1-0.2-0.2-0.3c-0.1,0.1-0.2,0.3-0.2,0.4c0,0.3,0,0.6,0,0.9c0,0.2-0.1,0.3-0.2,0.5c-0.1-0.1-0.3-0.3-0.4-0.4
			c-0.6-0.4-0.9-1.7-1.9-0.4c0,0-0.1-0.1-0.1-0.1c-0.3-0.1-0.3-1-1-0.4c0,0-0.6-0.5-0.9-0.7c-0.1-0.1-0.3-0.2-0.4-0.2
			c-0.2,0.1-0.3,0.3-0.4,0.5c-0.1,0.5-0.2,0.6-0.3,0.4c-0.2-0.2-0.4-0.4-0.5-0.5c-0.5-0.4-0.5-0.4-0.8,0.3c0,0.1-0.2,0.2-0.3,0.1
			c-0.1,0-0.2-0.2-0.3-0.2c-0.7-0.5-0.7-0.5-1.3,0.2c-0.2,0.2-0.6,0.4-0.9,0.5c-0.3,0.1-0.7-0.2-1,0.3c-0.2,0.4-0.3,0.3-0.4,0.2
			c-0.2-0.5-0.5-1-0.4-1.5c0-0.1-0.1-0.2-0.2-0.4c-0.2,0.2-0.4,0.4-0.7,0.7c-0.2-0.2-0.4-0.5-0.6-0.7c0,0-0.3,0.1-0.4,0.3
			c-0.5,0.7-0.5,0.6-1.1,0c-0.1-0.1-0.1-0.2-0.2-0.3c-0.3-0.1-0.9,0.2-0.9-0.3c0-0.8,0.7-0.3,1-0.4c0.1,0,0.3,0,0.4-0.1
			c0.1-0.1,0.1-0.2,0.1-0.3c0-0.1-0.1-0.3-0.1-0.3c-0.4,0-0.7,0-1.1-0.1c-0.7-0.1,0.4-0.6-0.1-0.7c-0.6-0.1-1.3,0-1.9,0
			c0,0-0.1,0.3,0,0.4c0.2,0.4,0.5,0.3,0.8,0c0,0.3-0.1,0.7-0.1,1c0,0,0.1,0.1,0.1,0.1c0.1,0.2,0.6,0.2,0.3,0.7
			c-0.2,0.3-0.3,0.7-0.6,0.9c-0.5,0.4-0.6-0.3-0.9-0.5c-0.2-0.1-0.3-0.6-0.7-0.2c0,0-0.5-0.3-0.8-0.5c0,0-0.3,0.2-0.3,0.3
			c0,0.3-0.2,0.7,0.3,0.8c0.4,0.1,0.6,0.1,0.2,0.5c-0.2,0.2-0.3,0.5-0.5,0.7c-0.3,0.4-0.6,0.4-0.8,0c-0.1-0.3-0.4-0.6-0.4-1
			c0-1-0.9,0-1.1-0.5c-0.2,0.6-1.4-0.2-1.3,0.9c-0.1,0-0.2,0-0.3,0c-0.3-0.4-0.6-0.3-0.9,0c-0.5,0.5-1.3,0.9-2.3,1.1
			c-0.6,0.1-1.2,0.1-1.8,0.1c-0.1,0-0.3-0.3-0.3-0.5c-0.1-0.2-0.1-0.3-0.1-0.5c-0.2,0.1-0.4,0.2-0.5,0.4c-0.2,0.3-0.2,0.7-0.8,0.7
			c-0.9,0-1.7-0.1-2.3-0.9c-0.2-0.3-0.4-0.5-0.7-0.7c-0.2-0.1-0.5-0.2-0.8-0.3c0,0.3-0.1,0.6-0.1,0.9c0,0.1,0.3,0.3,0.3,0.4
			c0,0.2-0.2,0.4-0.3,0.5c-0.2,0.1-0.5,0-0.7-0.1c0-0.2,0-0.5,0.1-0.6c0.2-0.3,0.3-0.5,0-0.8c-0.2-0.1-0.5-0.2-0.8-0.3
			c0,0.2-0.1,0.5-0.1,0.7c0,0.4,0,0.8,0,1.1c0,0.2-0.3,0.3-0.4,0.4c-0.1-0.1-0.3-0.3-0.3-0.4c0.1-1.1-0.1-2.2-0.4-3.2
			c-0.1-0.2-0.2-0.5-0.3-0.5c-0.2,0-0.5,0.2-0.6,0.4c-0.1,0.2-0.2,0.6-0.2,0.8c0.1,0.7-0.3,0.8-0.8,0.6c-0.4-0.1-0.8-0.6-0.8,0.4
			c0,0.5-0.4,1-0.3,1.5c0,0.1-0.3,0.4-0.5,0.3c-0.3-0.1-0.6-0.3-1-0.3c-0.7-0.2-0.8-0.5-0.4-1.1c0-0.1-0.1-0.2-0.1-0.3
			c-0.1,0-0.2,0-0.3,0.1c-0.1,0.1-0.3,0.2-0.4,0.4c-0.1,0.1-0.1,0.3-0.1,0.5c-0.1-0.2-0.2-0.4-0.3-0.5c-0.2-0.5-0.4-1-0.7-1.4
			c-0.1-0.2-0.4-0.2-0.6-0.3c0,0.2-0.2,0.5-0.1,0.6c0.3,0.4,0.6,0.7-0.2,0.9c-0.1,0-0.3,0.1-0.3,0.2c-0.1,0.3,0.3,1.1-0.5,0.9
			c-0.4-0.1-0.7,0-1-0.1c-0.3-0.1-0.6-0.3-0.8-0.2c-0.6,0.1-0.7-0.2-0.9-0.7c-0.2-0.5-0.5-1-1.3-0.9c0,0-0.1-0.2,0.4-0.6l0,0
			c0.5-0.3,0.4-0.5,0.4-0.5c-0.6,0.1-0.4-0.5-0.6-0.7c-0.1-0.1-0.3-0.1-0.5,0c-0.1,0-0.2,0.2-0.1,0.3c0.1,0.3,0.2,0.6,0.4,1
			c0,0.1,0,0.1,0,0.2c0.2-0.1,0.5-0.2,0.6-0.3c-1,0.5-1.5,0.9-1.9,0.6c-0.4-0.3-0.5-0.3-0.8,0.1c-0.1,0.2-0.4,0.2-0.6,0.4
			c-0.1,0.1-0.2,0.3-0.3,0.5c0.2,0.1,0.5,0.2,0.6,0.2c0.8-0.7,1-0.1,1.3,0.4c-0.2,0.2-0.5,0.4-0.7,0.5c-0.2,0.1-0.5,0.2-0.6,0.2
			c-1.1-0.5-1.4-1.1-1.1-2.2c0-0.1,0-0.3,0-0.4c-0.4,0-0.9-0.1-1.3,0c-0.2,0-0.3,0.4-0.5,0.6c-0.3,0.4-0.5,0.8-0.8,1.2
			c-0.3,0.4-0.3,0.6,0,0.9c0.1,0.1,0,0.4,0,0.6c-0.2-0.2-0.5-0.3-0.5-0.5c0-0.5-0.1-1,0.2-1.4c0.5-0.7-0.5-0.9-0.4-1.4
			c-0.1,0.1-0.2,0.2-0.3,0.3c-0.1,0.1-0.2,0.3-0.3,0.3c-0.2-0.1-0.3-0.5-0.5,0c0,0.1,0.1,0.5,0.2,0.5c0.9,0.1,0.6,0.5,0.2,0.9
			c-0.2,0.2-0.5,0.5-0.5,0.5c-0.8-0.4-1.2,0.4-1.8,0.5c-0.1,0-0.4-0.2-0.4-0.3c0-0.3,0.1-0.6,0.2-0.9c0.1-0.4,0.1-0.4-0.3-0.4
			c-0.3,0-0.6-0.2-0.7,0.3c0,0.3-0.3,0.5-0.3,0.8c-0.1,0.5-0.4,0.3-0.7,0.4c-0.5,0-0.5-0.3-0.4-0.6c0.1-0.5,0.3-1,0.4-1.5
			c0-0.1-0.1-0.3-0.2-0.5c-0.1,0.1-0.2,0.2-0.3,0.3c-0.4,0.6-0.8,1.2-0.7,2c0,0.5-0.5,0.5-0.6,0.3c-0.4-0.8-0.8-1-1.5-0.4
			c-0.2,0.2-0.5,0-0.6-0.4c-0.1-0.5-0.2-1-0.4-1.5c0-0.1-0.1-0.2-0.2-0.3c-0.1,0.2-0.1,0.3-0.2,0.5c0,0.1-0.2,0.2-0.2,0.2
			c-0.3-0.3-0.7-0.6-0.9-0.9c-0.2-0.4-0.9,0.8-0.8-0.2c0,0-0.3-0.2-0.3-0.1c-0.5,0.3-0.5,0.6,0,1c0.1,0.1,0.2,0.1,0.3,0.2
			c-0.1,0.1-0.2,0.2-0.3,0.2c-0.8,0-1.5,0-1.7,1c-0.1,0.3-0.6,0.3-0.7-0.1c-0.1-0.4-0.3-0.5-0.6-0.5c-0.2,0-0.5-0.2-0.5-0.3
			c-0.1-0.4-0.3-0.5-0.6-0.4c0.1,0.2,0.2,0.3,0.2,0.5c0,0.3,0,0.6,0,0.9c-0.3,0-0.8,0.2-0.8-0.5c0-0.7-0.2-1-0.8-0.4
			c-0.4,0.4-0.6,0-0.9-0.2c-0.1-0.1-0.3,0.1-0.5,0.2c0.1,0.1,0.2,0.3,0.3,0.4c-0.2,0-0.4,0.1-0.8-0.1c0,0,0-0.1-0.1-0.1
			c-0.2-0.3-0.7-0.5-0.6-1.1c0-0.1-0.1-0.3-0.2-0.5c-0.1,0.1-0.2,0.3-0.2,0.4c0,0.2,0,0.4,0.6,1c-0.6,0.1-0.6,0.6,0.2,0.4
			c0.1,0,0.1,0,0.2,0c0.2,0.2,0.2,0.3,0.2,0.4c0.1,0.5-0.2,0.9-0.5,1.1c-0.4,0.2-0.9,0.1-1.1-0.3c-0.3-0.5-1.2-0.6-0.6-1.5
			c0.1-0.1-0.4-0.7-0.6-1c-0.3,0.8-1.5-0.3-1.7,0.9c-0.1,0.4-1.5-0.1-1.2-0.5c0.4-0.5-0.3-0.6-0.2-0.9c0-0.1-0.1-0.2-0.1-0.3
			c-0.1,0.1-0.2,0.2-0.2,0.3c-0.1,0.8,0.5,2.1-1.3,1.9c-0.1,0-0.1,0.3-0.3,0.4c-0.2,0.2-0.5,0.4-0.7,0.6c-0.1-0.4-1,0-0.8-0.8
			c0.1-0.5-0.2-0.8-0.6-0.9c0,0.4-0.1,0.7-0.1,1.1c-0.1,0-0.3-0.1-0.3-0.1c-0.2-0.3-0.5-0.6-0.7-0.9c0,0.4-0.1,0.7-0.1,1.1
			c0,0.5-0.4,0.4-0.7,0.4c-0.4,0-0.5-0.2-0.5-0.6c0-0.2,0-0.4,0.1-0.5c0.3-0.4,0.3-0.8,0.1-1.2c-0.2,0.3-0.4,0.6-0.6,0.8
			c-0.1,0.1-0.2,0.2-0.2,0.3c-0.2,0.4-0.5,0.5-1.2,0.8c-1,0.4-1.9,0.4-2.8,0.1c-0.1,0-0.3,0-0.4,0.1c-0.2,0-0.4,0.2-0.5,0.1
			c-0.4-0.2,0-0.3,0.1-0.5c-0.3-0.1-0.5-0.2-0.8-0.2c-0.4,0-0.2,0.2-0.1,0.4c0,0.2-0.2,0.5-0.4,0.6c-0.3,0.1-0.6,0.1-0.9-0.1
			c-0.1-0.1-0.1-0.5-0.1-0.7c0.1-0.3,0.2-0.5,0.4-0.8c0,0,0-0.1-0.1-0.1c-0.1,0-0.2,0-0.3,0c-0.2,0.2-0.3,0.5-0.4,0.8
			c-0.1,0.2-0.2,0.4-0.3,0.6l-1.8,0c-0.3,0.1-0.7,0.1-1,0.2c-0.5,0.2-0.7,0.2-0.7-0.3c0-0.4-0.1-0.7-0.2-1c-0.3-0.8-0.4-0.8-1-0.1
			c-0.2,0.2-0.4,0.5-0.7,0.7c-0.1,0.1-0.2,0.1-0.3,0.1c0-0.1-0.1-0.2-0.1-0.3c0.2-0.8,0.3-1.6,0.9-2.2c0.5-0.5,0.2-0.9-0.5-1.1
			c-0.1,0-0.2,0-0.4-0.1c-0.6-0.2-0.9,0-0.9,0.5c0,0.2,0,0.5,0.2,0.7c0.7,0.6-0.5,1.3,0.2,1.9c0,0,0,0.2,0,0.2
			c-0.7,0.2-0.8,1-1.3,1.3c-0.1,0.1-0.3,0-0.5-0.1c-0.1,0-0.1-0.2-0.1-0.3c0.1-0.2,0.3-0.4,0.4-0.6c0-0.1,0-0.2-0.1-0.3
			c0,0-0.2,0-0.3,0c-0.4,0.2-0.7,0.4-1,0.7c0,0,0,0.3,0.1,0.4c0.2,0.3,0.2,0.6-0.2,0.7c-0.1,0-0.4-0.2-0.4-0.4
			c-0.2-0.4-0.3-0.9-0.5-1.3c-0.1-0.1-0.4-0.1-0.7-0.2c-0.1-0.2-0.2-0.3-0.3-0.3c-0.1,0-0.3,0-0.3,0c-0.1,0.2-0.1,0.4-0.1,0.6
			c0,0.1,0.1,0.3,0.2,0.4c0.1-0.1,0.1-0.2,0.2-0.3c0.1-0.2,0.3-0.4,0.4-0.5c0,0.2,0,0.3,0,0.5c-0.1,1-0.3,1.1-1.3,1.1
			c-0.9,0-0.5-0.6-0.6-1c0-0.1,0-0.1,0-0.2c0-0.1-0.1-0.2-0.2-0.3c-0.1,0.1-0.1,0.2-0.2,0.3c-0.2,0.3-0.4,0.6-0.6,0.9
			c-0.3,0.3-0.5,0.7-0.8,1c0-0.4,0-0.9-0.1-1.3c-0.1-0.3-0.2-0.5-0.4-0.8c-0.4-0.4-0.9-0.7-0.7-1.4c-0.9-0.6,0.2-1.2,0-1.8
			c-0.1-0.2-0.1-0.5-0.1-0.7c-0.1,0.2-0.2,0.4-0.3,0.5c-0.4,0.5-0.9,0.8-1.4,0.4c-0.4-0.3-0.8-0.3-1.2-0.2c-0.3,0-0.5,0.3-0.7,0.5
			c0.6,0.2-0.1,0.7,0.2,0.9c0.1,0.1,0.4,0.8,0.6,0.1c0.3-1.2,1.3-0.9,2-0.8c0.7,0.1,0.2,0.9,0.3,1.4c0.1,0.2,0,0.5,0,0.7
			c0,0.1-0.2,0.4-0.3,0.4c-0.8,0.1-0.6,0.4-0.2,0.9c0.1,0.1,0.1,0.5,0,0.6c-0.2,0.1-0.5,0.1-0.7,0c-0.1-0.1-0.3-0.4-0.2-0.6
			c0.1-0.5,0.3-0.9,0.3-1.4c0-0.1-0.2-0.2-0.4-0.3c-0.1,0-0.3,0.1-0.3,0.1c-0.1,0.2-0.1,0.5,0,0.7c0.3,1.1-1.8,0.3-1.2,1.5
			c0,0-0.2,0.2-0.3,0.2c-0.5,0-1.1,0.2-1.5-0.1c-0.5-0.4-1-0.1-1.4-0.3c-0.5-0.3-0.7-0.2-1,0.2c-0.2,0.2-0.4,0.4-0.4-0.1
			c-0.1-0.6-0.4-0.6-0.7-0.3c-0.3,0.3-0.6,0.4-0.2-0.5c0.5-0.5,0.5-0.7,0.5-0.7c-0.2-0.2-0.5-0.3-0.8-0.4c-0.5-0.2-0.7,0-0.6,0.5
			c0.1,0.3,0.2,0.6,0.3,0.8c-0.6,0.2-1,0.4-1.1-0.3c-0.1-0.4-0.2-0.2-0.4,0c-0.6,0.7-0.8,0.7-1.8,0.5c-0.7-0.1-1.5-0.8-2.4-0.1
			c-0.6,0.5-0.9,0.3-1.1-0.5c-0.1-0.2-0.2-0.4-0.2-0.6c0,0.2-0.1,0.3-0.2,0.5c-0.2,0.4-0.2,1-0.5,1.3c-0.3,0.3-0.8,0.2-1.1-0.2
			c-0.1-0.1-0.4,0.2-0.6,0.2c-0.8,0-1.6-0.1-2.4-0.2c-0.1,0-0.1-0.3-0.2-0.5c-0.3-0.4-0.6-0.4-0.7,0.1c-0.2,0.7-0.4,0.6-1.1,0.5
			c-0.8-0.1-1.7-0.4-2.5,0.2c-0.4,0.3-1,0-1.3-0.4c-0.2-0.3-0.3-0.7-0.5-1.1c-0.2-0.4-0.2-0.2-0.4,0.1c-0.2,0.4-0.5,0.9-0.9,1.1
			c-0.3,0.1-0.9-0.2-1.3-0.4c-0.3-0.2-0.8-0.5-0.3-1C86,7.5,86,7.4,86,7.3c-0.1,0-0.3-0.1-0.3-0.1c-0.4,0.2-1.1,0.4-0.6,1
			c0.5,0.5-0.4,0.6-0.2,1.1c0.1,0.2-0.5,0.1-0.7-0.1c0,0-0.2,0.1-0.3,0.2c-0.1,0.1,0.1,0.5-0.4,0.3c-0.4-0.2-0.9-0.2-1.4-0.2
			c-0.6,0-1.2-0.2-1.4-0.8c0-0.1,0.1-0.1,0-0.1c0.1-0.2,0.1-0.2,0.1-0.2c-0.1,0-0.2,0.1-0.2,0.2c0,0,0.1,0.1,0.1,0.1
			c-0.3,0.1-0.5,0.1-0.7,0.1c0,0.1,0,0.3,0,0.4c0.2,0.5-0.3,0.7-0.5,0.6c-0.6-0.2-1.1-0.5-1.6-0.8c-0.1-0.1-0.4-0.1-0.4-0.1
			c-0.4,0.8-1.1,0.1-1.4,0.3c-0.6,0.5-1.2,0.2-1.8,0.3c-0.5,0.1-1,0-1.3-0.5c-0.2-0.3-0.3-0.2-0.5,0C71.9,9.3,71.7,10,71,9.8
			c-1-0.3-1.9-0.2-2.9,0c-0.3,0.1-0.6-0.2-0.9-0.5c-0.3-0.2-0.5-0.2-0.7-0.2c0,0,0,0.2-0.1,0.2c0.2,0,0.3,0.1,0.5,0.1
			c0.1,0,0.1-0.1,0.3-0.1c-0.1,0.2-0.1,0.3-0.1,0.3c-0.8,0.3-1.5,0.3-2.2-0.3c-1.2-1-1.8-0.9-2.8,0c-0.4,0.4-0.9,0.5-1.3,0.4
			c-0.3-0.1-0.6-0.5-0.8-0.8c-0.5-0.6-0.3,0-0.4,0.2c-0.1,0.1-0.2,0.2-0.4,0.3c-0.8,0.2-1.6,0.4-2.5,0.4c-1.3,0-1.3,0.1-1.9-0.5
			c-0.3-0.3-0.8-0.4-1-0.2c-1.1,0.6-1.9,0.6-2.5-0.6c0-0.1-0.2,0-0.4,0c0.1,0.6-0.3,0.6-0.7,0.6c-0.9,0-1.9-0.2-2.6,0.7
			c-0.1,0.1-0.5,0.1-0.7,0c-0.1-0.1-0.1-0.4-0.2-0.6c-0.1-0.2-0.2-0.4-0.2-0.4c-0.6,0.2-1.3,0.3-1.8,0.7c-0.5,0.3-0.9,1-1.1-0.2
			c0,0-0.2-0.1-0.3,0c-1,0.5-2.1,0.1-3.1,0.3c-0.8,0.1-1.6-0.3-2.4,0.2c0,0-0.4-0.3-0.5-0.6c-0.1-0.1,0.1-0.3,0.1-0.4
			c-0.1,0-0.3-0.1-0.3,0c-0.5,1-1.2,1-2,0.4c-0.1-0.1-0.5,0.1-0.6,0.3c-0.5,0.5-0.7,0.5-1.5,0.5c-0.4,0-1-0.1-1.3,0.1
			c-0.8,0.6-1.4,0.3-2-0.1c-0.6-0.4-1.1-0.3-1.6,0c-0.2,0.1-0.4,0.3-0.6,0.4c-0.1,0-0.3,0-0.3-0.1C27,10,26.9,9.8,26.9,9.6
			c0-0.2,0.1-0.4,0.2-0.5c-0.2,0-0.4,0-0.5,0.1c-0.9,0.8-2.1-0.3-3,0.6c0,0-0.1-0.1-0.1-0.1c-0.2-1.1-0.7-0.6-1-0.2
			c-0.3,0.3-0.5,0.2-0.7,0c-0.3-0.4-0.5-0.5-0.8,0c-0.3,0.4-0.6,0.5-1.1,0.1c-0.1-0.1-0.5,0-0.6,0.1c-0.4,0.8-0.9,0.1-1.3,0.2
			c-0.7,0.1-1.2-0.5-1.8-0.6c-0.6-0.1-1.4,0.1-2.1,0.2c-0.1,0-0.3,0-0.3-0.1c-0.5-0.9-1.2,0.1-1.9-0.2c-0.6-0.3-1.7-0.3-2.4,0
			C8.5,9.5,7.6,9.5,6.7,9.4c-1,0-1.9-0.2-2.9-0.4C3.3,9,2.8,9,2.2,8.9c0-0.8-0.9-0.8-1.1-1.2C0.6,6.9,0.1,5.9,0,5
			c-0.1-0.8,0.4-1.6,0.6-2.4c0.2-1.3,0.8-2,2.2-1.8c0.2,0,0.6-0.3,0.8-0.3C3.8,0.6,4,1,4.3,1.1C4.8,1.4,5.3,1.7,6,1.2
			C6.4,1,7,1.3,7.4,0.8c0.5,0.3,1,0.5,1.4,0.8C9.2,1.9,9.6,2,10.1,1.9c1.5,0,3,0,4.6,0c0.5,0,1-0.2,1.4,0.3c0.3,0.3,0.7-0.6,1.2,0
			c0.2,0.3,0.8,0.3,1.1,0.4c0.7,0.2,0.4-0.8,0.8-0.7c0.4,0.1,0.7,0.4,1.1,0.7c0,0,0.1-0.1,0.1-0.1c0.3-0.4,0.6-0.3,0.9,0
			c0.3,0.2,0.8,0.2,1.1,0.1c1.4-0.5,2.7-0.6,4.1,0c0.3,0.1,0.9,0.1,1.1-0.1c0.6-0.7,1.2,0.2,1.7-0.2C30,2,30.5,2.6,31,2.9
			c0.3,0.1,0.6,0.3,0.8,0c0.4-0.7,0.9-0.2,1.3-0.2c0.9,0,1.9,0.1,2.8,0c0.3,0,0.4,0.7,0.9,0.2c0.6-0.6,1.4-0.5,2,0
			c0.4,0.3,0.5,0.2,0.7-0.1c0.3-0.5,0.5-0.3,0.8,0C40.5,2.8,40.8,3,40.8,3c0.8-0.7,1.9,0,2.7-0.4c0.4-0.2,0.5-0.4,0.9-0.1
			c0.6,0.5,1.5-0.2,2,0.5c0.1-0.1,0.3-0.3,0.4-0.3c1.7-0.1,3.3-0.5,5-0.4c5.7,0.1,11.4,0,17.1,0c0.8,0,1.6,0.2,2.3-0.3
			C71.5,1.8,72,1.9,72.3,2c0.7,0.4,1.4,0.4,2.1,0c0.1,0,0.2,0,0.3,0C75.8,2.4,76.8,2.4,78,2c0.6-0.2,1.4-0.3,2.1,0.2
			C80.6,2.6,81,2,81.5,2c0.5-0.1,1,0.2,1.5,0.2c0.4,0,1-0.6,1-0.6c0.5,0.6,0.8,0.1,1.3,0c0.5-0.1,1.1,0.1,1.6,0.2
			c0.4,0,0.8,0.3,1,0.1c0.6-0.4,1.2,0,1.8,0c1.2,0.1,2.4,0.1,3.6,0c1.2-0.1,2.3,0.3,3.5-0.3c0.2-0.1,0.8-0.1,0.9,0
			c0.7,0.7,1.4,0.1,2.1,0.1c1.2,0.1,2.5-0.1,3.7,0c0.5,0.1,0.8,0.3,1.3,0c0.4-0.3,1,0.3,1.5-0.1c0.1-0.1,0.4,0.1,0.7,0.2
			c0.2,0.1,0.5,0.2,0.7,0.2c0.7-0.5,1.3-0.5,2,0c0.8-0.7,1.4-0.1,2,0.3c0.3,0.2,0.6,0.1,0.6-0.3c0-0.1,0.2-0.2,0.3-0.3
			c0.5,0.6,1.2,0.3,1.8,0.3c0.5,0,1-0.3,1.6-0.3c0.5-0.1,1.1,0,1.6-0.2c0.6-0.2,1.1,0.5,1.6,0.1c0.7-0.5,1.5-0.3,2.3-0.4
			c0.5-0.1,1.1,0.2,1.6-0.3c0.4,0.5,1,0.4,1.5,0.3c0.8-0.1,1.6,0.4,2.3-0.4c0.1-0.1,0.3,0,0.4,0c1.3,0.8,2.8,0.2,4.2,0.3
			c0.4-0.7,0.9,0.4,1.4-0.1c0.2-0.2,1,0.2,1.5-0.2c0.8,0.7,1.5,0.3,2.4,0c0.4-0.1,1-0.2,1.3,0.1c0.4,0.4,0.8-0.3,1.2,0.2
			c0.2,0.2,1.2-0.2,1.4,0.1c0.5,0.6,0.8-0.2,1.3-0.1c0.3,0.1,0.7,0,0.8,0.2c0.5,0.6,0.8,0.5,1.2,0c0,0,0.3,0.1,0.4,0.1
			c0.6,0.2,1.1,0.3,1.7,0.4c1.2-1.1,2.7-0.6,4.1-0.7c0.7,0,1.5-0.2,2,0.1c0.6,0.4,1.2,0.3,1.8,0.2c0.3-0.1,0.5-0.2,0.9,0
			c0.3,0.1,0.8-0.4,1.1-0.3c2,0.4,4-1.1,6,0c0.1,0.1,0.4-0.1,0.7-0.2c0.2-0.1,0.4-0.2,0.5-0.1c0.6,0.5,1,0.4,1.6,0
			c0.3-0.2,0.8,0,1.1,0.4c0.1,0.1,0.4,0.5,0.5,0.1c0.2-1,0.6-0.5,1-0.2c0.1,0.1,0.4,0.2,0.5,0.3c0.2-1.2,1.1-0.5,1.6-0.6
			c1.2-0.1,2.4-0.1,3.6,0c0.5,0,1.2-0.7,1.4,0.3c0,0,0.4,0.1,0.5,0c0.4-0.5,1-0.3,1.4-0.2c0.3,0.1,0.5,0.4,0.8,0
			c0.5-0.5,1.1-0.7,1.8-0.4c0.5,0.2,1-0.1,1.6,0.3c0.3,0.2,1.1,0.3,1.5-0.3c0.2-0.2,0.6-0.3,0.9-0.2c0.4,0.1,0.9,0.4,1.3,0.5
			c0.5,0,1-0.2,1.5-0.3c0.6-0.1,1.2,0.2,1.7-0.1c0.6-0.3,1.1,0.1,1.6,0c0.5-0.1,0.9-0.3,1.4-0.4c0.5-0.1,1,0.1,1.5,0
			c0.7-0.1,1.4,0.2,2.2,0.1c0.7-0.1,1.4-0.1,2.1-0.1c0.8,0,1.6,0.2,2.1,0.8c0.4,0.4,0.7,0.5,1.1,0c0.4-0.4,0.8,0.7,1.2,0
			c0-0.1,0.3-0.1,0.4,0c0.2,0.1,0.4,0.4,0.6,0.5c0.1,0.1,0.3,0.1,0.4,0.1c0.1-0.6,0.4-0.9,1.1-1c0.5,0,1-0.3,1.6-0.3
			c0.5,0,1.1,0.4,1.5,0.3c0.6-0.2,1.1-0.4,1.8-0.3c0.3,0,0.6,0,0.9,0.1c0.8,0.3,1.6,0.4,2.4-0.1c0.1-0.1,0.6,0,0.6,0.1
			c0.4,0.8,0.9,0.1,1.3,0.2c2.9,0.3,5.8-0.4,8.8-0.4c1,0,2,0.6,3.1,0.1c0.2-0.1,0.7,0.4,0.9,0.3c0.5-0.2,0.9-0.6,1.5-0.1
			c0.5,0.5,1-0.2,1.4-0.1c0.9,0.4,1.7,0.1,2.6,0.2c0.8,0.1,1.8-0.3,2.5,0.3c0.8-0.7,1.5,0.3,2.3,0.1c1.1-0.2,2.3,0,3.4-0.1
			c1.1-0.1,2.2,0.2,3.3-0.3c0.4-0.2,1,0.3,1.5,0.3c0.9,0.1,1.9,0,2.8,0c0.6,0,1.2-0.1,1.7,0.5c0.3,0.4,0.8,0.4,1.1,0
			c0.3-0.3,0.7,0.5,0.9-0.2c1.2,1.3,2.7-0.8,3.9,0.3c0,0,0.1-0.1,0.1-0.1c0-0.7,0.3-0.6,0.8-0.4c0.4,0.2,0.9,0.1,1.4,0.1
			c0.8-0.2,1,0,0.8,0.6c0,0.2-0.2,0.4-0.3,0.6c0.3-0.1,0.6-0.1,0.8-0.2c0.6-0.7,1.3-0.9,2.1-0.8c0.4,0,0.9,0,1.3,0
			c0.5-0.1,0.6,0.2,0.6,0.7c0,0.5,0.9,0.7,1,0.3c0.2-0.6,0.4-0.6,0.9-0.6c0.7,0.1,1.3-0.2,1.9-0.3c0.4-0.1,0.9-0.6,1.4,0
			c1.3,0,2.5,0,3.8,0c0.8-0.8,1.6,0,2.3,0c0.3,0,0.6,0.4,1,0c0.1-0.1,0.8,0,0.8,0.2c0.2,1,0.9,0.5,1.4,0.5c0.3,0,0.6-0.2,0.8-0.4
			c0.5-0.5,1-0.3,1.5-0.1c0.4,0.2,1.1,0.3,0.9,1.1c0,0,0.4,0.1,0.6,0.2c0-0.9,0.9-0.6,1.3-0.9c0.4-0.3,1-0.6,1.2,0.4
			c0,0,0.4,0.1,0.6,0c0.5-0.2,1.1-0.9,1.6-0.6c0.6,0.4,1.1,0.1,1.6,0c0.3-0.1,0.6,0.7,1.1,0.1c0.6-0.7,0.8,0.4,1.3,0.2
			c0.4-0.1,0.9,0,1.2-0.4c0.3-0.4,0.6-0.5,1.1-0.1c0.2,0.1,0.7,0.2,0.8,0c0.6-0.5,1.2-0.2,1.8-0.3c0.7,0,1.5-0.2,2,0.1
			c0.6,0.3,1.1-0.6,1.6,0c0.3,0.3,0.8-0.2,1.1,0.2c0.1,0.2,0.6,0,0.9,0c1,0,1,0,1.6,1.1c0.1,0.2,0.3,0.2,0.5,0.3
			c0-0.2,0.1-0.4,0-0.5c-0.2-0.2-0.5-0.5,0.1-0.5c0.3,0,0.6,0,0.9,0c0,0,0.1,0.2,0.1,0.2c-0.1,0.2-0.5,0.4,0,0.5
			c0.1,0,0.4-0.1,0.4-0.2c0.1-1,0.8-0.9,1.5-0.9c0.5,0,1,0,1.5,0c0.2,0,0.3,0.3,0.4,0.4c0.2,0.4,0.4,0.4,0.7,0.1
			c0.4-0.4,0.7-0.3,1.2-0.1c0.3,0.1,0.7,0.3,0.8,0.2c0.8-0.6,1.7-0.3,2.5-0.3c0.6-0.1,1,0.1,1.3,0.8c0.1,0.5,0.6,0.5,0.7,0
			c0.1-0.8,0.7-0.5,1.2-0.7c0.5-0.2,0.7-0.1,0.9,0.2c0.4-0.4,0.9-0.4,1.3-0.3c0.5,0,1.1-0.1,1.4,0.2c0.5,0.3,0.8-0.4,1.3-0.2
			c0.2,0.1,0.6,0.1,0.7,0.2c0.1,0.4,0.1,0.8,0.6,0.2c0.5-0.6,1.1-0.5,1.7-0.3c0.2,0,0.3,0.2,0.5,0.3c0.5,0,1,0,1.5,0
			c0.5,0,1,0,1.5,0c0.4,0,0.7,0.8,1.3,0.1c0.2-0.2,0.8,0.2,1.3,0.2c0.5,0,1,0.1,1.5,0c0.5-0.1,1.1-0.5,1.3-0.3
			c0.7,0.4,1.6,0,1.9,0.4c0.8,0.8,1.3-0.4,2-0.1c0.2,0.1,0.6,0.1,0.9,0.2c1.6,0.2,3.2,0.4,4.9,0.6c0.1,0,0.3,0,0.3-0.1
			c0.4-0.5,0.9-0.3,1.4-0.3c1.1,0,2.2-0.1,3.3,0.4c2.8-0.2,5.6,0.2,8.4,0.4c0.6,0,1,0,1.5,0.5c0.3,0.3,1.1,0.4,1.3,0.2
			c0.8-0.5,1.6-0.3,2.4-0.3c0.5,0,1,0.5,1.6,0c0.1-0.1,0.3,0,0.4,0c0.4-0.1,0.6,0.8,1.1,0.3c0.4-0.4,0.8,0.3,1.3,0.1
			c0.5-0.2,1.1,0.6,1.5-0.2c0-0.1,0.1-0.1,0.1-0.1c0.3,0.1,0.5,0.2,0.8,0.4c0.3,0.1,0.5,0.3,0.8,0.3c0.3,0,0.7-0.3,0.8-0.2
			c0.5,0.5,0.9,0.8,1.4,0.1c0,0,0.2,0,0.2,0c0.1,1.2,1.5,0.1,1.8,1c0.5-0.6,1.1,0.2,1.7-0.2c0.8-0.4,1.8-0.4,2.6,0
			c0.1,0.1,0.4,0.2,0.5,0.1c0.5-0.6,1.2-0.3,1.8-0.3c0.6,0,1.1,0,1.7,0c0.6,0,1.3,0.1,1.9,0c0.9-0.3,0.8,0.7,1.4,0.8
			c0.3,0,0.7,0.2,1,0.4c0.3,0.1,0.7-0.7,1,0c0,0,0.4,0,0.5-0.1c1-0.8,1-0.8,1.4,0.2c0.1,0.3-0.4,0.7,0.1,0.9
			c-0.1,0.3-0.2,0.6-0.4,0.8c-0.4,0.4-0.6-0.1-0.9-0.2c-0.3-0.1-0.7-0.3-1-0.3c-0.3,0-0.6,0.1-0.8,0.2c-0.2,0.1-0.2,0.4-0.3,0.6
			c0.2,0.1,0.5,0.1,0.7,0.2c0.1,0,0.3,0,0.4,0c1.1,0.1,1.3,0.3,1,1.5c0,0.1,0,0.3,0,0.4c0.1,0.1,0.3,0,0.3,0c0.2-0.3,0.9-0.5,0.4-1
			c-0.1-0.1-0.1-0.3-0.1-0.4c0.6,0,1.4,0.2,1.8-0.1c0.8-0.5,1-0.3,1.3,0.4c0,0,0.3,0.1,0.4,0c0.2-0.2,0.4-0.5,0.7-0.1
			c0.3,0.5,0.6,0.4,1,0c0.1-0.2,0.4-0.2,0.6-0.3c0.1,0.2,0.2,0.4,0.2,0.7c0,0.2,0,0.4,0,0.6c0,0.1,0.1,0.2,0.2,0.3
			c0.1-0.1,0.2-0.2,0.3-0.3c0.2-0.5,0.4-1,1-1.6c0.1,0,0.3-0.1,0.1-0.1c0.1-0.2-0.1-0.3-0.2-0.2c-0.1,0-0.2,0.2-0.2,0.3
			c-0.7,0-1.2-0.3-1.6,0.1c-0.1,0.1-0.6-0.1-0.6-0.2c-0.1-0.5-0.1-0.8-0.6-0.2c-0.3,0.3-0.5,0.5-0.8,0c-0.2-0.3-0.4-0.6-0.6-0.9
			c-0.1-0.1-0.2-0.1-0.2-0.2c0,0.1-0.1,0.2-0.1,0.3c-0.1,0.3,0.2,0.7-0.3,0.7c-0.3,0-0.7-0.1-1-0.3c-0.4-0.4-0.3-1.6,0.1-2
			c0.4-0.4,1.2-0.5,1.6,0c0.4,0.5,1,0.3,1.5,0.6c0.1,0.1,0.3,0.1,0.4,0c0.3-0.5,0.7-0.4,1.2-0.2c0.5,0.2,1.1,0,1.7,0
			c0.6,0,1.3-0.1,1.6,0.2c0.7,0.6,1-0.4,1.5-0.2c0.3,0.1,0.7-0.1,0.9,0c0.7,0.5,1.4,0.3,2.1,0.4c0.3,0,0.6,0.1,0.9,0.2
			c0.4,0.1,0.7,0.2,1.1,0.2c0.5,0,1.2-0.5,1.3-0.3c0.5,0.6,0.8-0.1,1.3-0.1c1,0.2,2-0.1,3.1,0.3c1.1,0.4,2.4,0.3,3.6,0.5
			c0.4,0,1.1-0.3,1.1,0.6c0.1,0,0.3,0,0.4-0.1c0.4-0.3,0.6-0.8,1.2-0.3c0.2,0.2,0.9-0.5,1.4-0.1c0.2,0.1,0.4,0.1,0.6,0.1
			c0.1,0,0.3-0.1,0.4-0.2c0.1,0.2,0.2,0.6,0.3,0.6c0.7,0,1.5,0.2,2-0.1c1.2-0.6,2.1,0.4,3.1,0.3c0.4,0.8,1.1,0.4,1.5,0.2
			c1.1-0.7,2.3,0.8,3.3-0.3c0.1,0.1,0.2,0.2,0.3,0.3c0.4,0.4,0.6,0.7,1.2,0.2c0.2-0.2,0.9-0.1,1.2,0c0.5,0.3,0.8,0.1,1.3,0.1
			c0.8-0.1,1.6,0.1,2.4,0.2c0.3,0.1,0.5,0.6,0.8,0.7c0.3,0.1,0.6-0.3,1-0.3c0.3-0.1,0.6-0.1,0.7,0.4c0,0.1,0.3,0.2,0.5,0.3
			c0.3-0.6,0.7,0.1,1,0c0.5-0.2,0.9-0.5,0.7,0.4c0,0.1,0.1,0.2,0.1,0.3c0.1,0,0.2-0.1,0.2-0.1c0.1-1,0.5-0.6,0.9-0.2
			c0.2,0.2,0.6,0.8,0.6-0.1c0-0.5,0.1-0.7,0.6-0.6c0.8,0.1,1.5,0,2.3,0.3c1,0.3,2.2,0.1,3.4,0.1c0.9,0,1.8-0.1,2.3,0.8
			c0.3,0.5,0.8,0.2,1.2,0.3c0.5,0.1,0.3-0.4,0.5-0.6c0.3-0.3,0.5-0.6,1.2-0.3c0.9,0.4,2.1,0.6,3.2,0.5c0.7-0.1,1.3,0.1,1.9,0.2
			c0.1,0,0.2,0.2,0.3,0.3c0.8-1,1.9,0.1,2.8-0.3c0.5-0.3,0.9,0.1,1.2,0.6c0.5,0.7,0.6,0.7,1.1,0.1c0.1-0.1,0.3-0.3,0.4-0.3
			c0.4,0.3,0.8,0.2,1.2,0c0,0,0.2,0.1,0.3,0.2c0.4,0.4,0.6,0.1,0.9-0.1c0.1-0.1,0.5,0.4,0.8,0.7c0,0,0.1-0.1,0.1-0.1
			c0.3-0.4,0.6-0.3,0.9,0c0.3,0.4,0.7,0.7,1.1,1.1c0.5,0.4,0.9,0.2,1.1-0.5c0-0.2-0.1-0.6,0.3-0.3c0.6,0.5,1.3,0.1,2,0.2
			c0.2,0,0.5,0,0.5,0c0.1,0.3,0.1,0.7,0.3,1c0.1,0.1,0.6-0.1,0.9-0.2c0,0,0.1,0.2,0.1,0.3C473.9,14,474.1,14.3,473.4,14.4z
			 M363.7,10.2c0,0-0.1,0.1-0.1,0.1c0,0.1,0.1,0.2,0.1,0.2c0,0,0.1-0.1,0.1-0.1C363.8,10.4,363.7,10.3,363.7,10.2z M356.2,8.3
			c0.1,0,0.3-0.1,0.5-0.2c-0.2-0.2-0.3-0.3-0.5-0.5c-0.1,0.1-0.2,0.1-0.2,0.2C356,8,356.1,8.2,356.2,8.3z M311.8,7
			c-0.3,0.6-0.5,1-0.7,1.4c0,0.1,0.3,0.3,0.5,0.3c0.3,0,0.7,0.1,0.6-0.4C312.2,7.9,312,7.6,311.8,7z M55.2,8.7c0,0-0.1,0.1-0.1,0.1
			c0,0.1,0.1,0.2,0.1,0.2c0,0,0.1-0.1,0.1-0.1C55.3,8.9,55.2,8.8,55.2,8.7z M64.9,5.4c-1-0.2-0.8,0.4-0.8,0.8c0,0.1,0.1,0.2,0.2,0.3
			c0.3-0.3,0.6-0.6,0.9-1C65,5.4,64.8,5.3,64.9,5.4z M68.1,5.3C68,5.4,68,5.5,68,5.6c0,0,0.1,0.1,0.1,0.1c0-0.1,0.1-0.2,0.1-0.2
			C68.2,5.4,68.1,5.4,68.1,5.3z M69.6,5.3c0,0-0.1,0.1-0.1,0.1c0,0.1,0.1,0.2,0.1,0.3c0,0,0.1-0.1,0.1-0.1
			C69.7,5.5,69.6,5.4,69.6,5.3z M71.5,8.7c0,0.1-0.1,0.2-0.1,0.3c0,0,0.1,0.1,0.1,0.1c0-0.1,0.1-0.2,0.1-0.2
			C71.6,8.8,71.5,8.7,71.5,8.7z M74.5,5.3c0,0-0.1,0.1-0.1,0.1c0,0.1,0.1,0.2,0.1,0.3c0,0,0.1-0.1,0.1-0.1
			C74.6,5.5,74.6,5.4,74.5,5.3z M75,8.3c-0.1,0.1-0.2,0.2-0.3,0.2c0.2,0.1,0.3,0.2,0.5,0.2c0.1,0,0.2-0.1,0.3-0.2
			C75.3,8.4,75.2,8.4,75,8.3z M78.3,7.3c-0.2,0.3-0.3,0.6-0.5,0.9c0,0,0.2,0.2,0.3,0.2c0.2-0.1,0.4-0.3,0.6-0.5
			C78.5,7.6,78.4,7.4,78.3,7.3z M79.6,5.1c0,0-0.2,0-0.2,0c0,0,0,0.1-0.1,0.3c0.1,0.1,0.2,0.3,0.4,0.5c0.1,0.1,0.2,0.1,0.4,0.1
			c0-0.1,0.1-0.3,0.1-0.3C79.9,5.4,79.7,5.2,79.6,5.1z M79.7,7.2c-0.2,0-0.3,0.1-0.5,0.2c0.1,0.1,0.2,0.1,0.3,0.2
			c0.1-0.1,0.3-0.1,0.4-0.2C79.9,7.3,79.8,7.2,79.7,7.2z M81,5.3c0,0.1-0.1,0.2-0.1,0.2c0.1,0.1,0.1,0.1,0.1,0.1
			c0-0.1,0.1-0.2,0.1-0.3C81.1,5.4,81,5.4,81,5.3z M82.9,8.3c0,0.1-0.1,0.2-0.1,0.3c0,0,0.1,0.1,0.1,0.1c0-0.1,0.1-0.2,0.1-0.2
			C83,8.4,82.9,8.4,82.9,8.3z M88.5,5c-0.1,0.1-0.1,0.1-0.1,0.1c0.1,0,0.2,0.1,0.3,0.1c0,0,0.1-0.1,0.1-0.1C88.7,5.1,88.6,5,88.5,5z
			 M93.4,7.3c0,0-0.1,0.1-0.1,0.1c0.1,0,0.2,0.1,0.2,0.1c0.1-0.1,0.1-0.1,0.1-0.1C93.6,7.3,93.5,7.3,93.4,7.3z M97,7.2
			c-0.1,0-0.2,0.1-0.3,0.2c0.2,0.2,0.4,0.3,0.6,0.5c0-0.1,0.1-0.2,0.2-0.5C97.4,7.4,97.2,7.3,97,7.2z M100.7,5.6
			c-0.3,0.1-0.4,0.1-0.5,0.2c0.2,0.2,0.3,0.4,0.5,0.6c0.1-0.1,0.2-0.2,0.2-0.3C100.8,6,100.7,5.8,100.7,5.6z M101.8,7.2
			c-0.2,0.1-0.3,0.2-0.5,0.4c0,0,0.2,0.3,0.3,0.3c0.2,0,0.4-0.1,0.7-0.3C102,7.4,101.8,7.2,101.8,7.2z M103.5,7
			c-0.6-0.2-0.3-1.3-0.5-1.2c-0.5,0.1-0.1,0.8-0.3,1.2c0,0.1-0.1,0.1-0.1,0.1c-0.3,0.3,0,0.4,0.1,0.5c0.1,0.1,0.3,0.1,0.4,0.1
			c0.2-0.1,0.3-0.3,0.4-0.4C103.6,7.2,103.6,7,103.5,7z M104.6,7.3c-0.1,0.2-0.2,0.5-0.2,0.7c0,0.1,0.1,0.2,0.2,0.4
			c0.2-0.2,0.4-0.4,0.6-0.6C104.9,7.6,104.7,7.4,104.6,7.3z M106.4,4.6c-0.2,0-0.5,0-0.7,0c-0.1,0-0.2,0.3-0.2,0.4
			c0.1,0.5,0.2,0.2,0.4,0.1c0.2-0.1,0.4,0,0.6,0c-0.1,0.1-0.3,0.3-0.3,0.4c0.2,0.2,0.4,0.4,0.6,0.6c0.1-0.2,0.3-0.4,0.3-0.7
			C107.2,4.6,107.2,4.6,106.4,4.6z M109.8,4.2c-0.1,0.1-0.2,0.3-0.2,0.3c0.1,0.2,0.2,0.3,0.4,0.5c0,0,0.2-0.2,0.3-0.2
			C110.2,4.5,110,4.4,109.8,4.2z M110.6,5.7c0,0-0.1,0.1-0.1,0.1c0,0.1,0.1,0.2,0.1,0.2c0,0,0.1-0.1,0.1-0.1
			C110.7,5.9,110.6,5.8,110.6,5.7z M111.7,8.3c0,0-0.1,0.1-0.1,0.1c0,0.1,0.1,0.2,0.1,0.3c0,0,0.1-0.1,0.1-0.1
			C111.8,8.5,111.8,8.4,111.7,8.3z M112.1,4.2c0,0-0.1,0.1-0.1,0.1c0,0.1,0.1,0.2,0.1,0.3c0,0,0.1-0.1,0.1-0.1
			C112.2,4.4,112.1,4.3,112.1,4.2z M120.4,4.2c-0.2,0-0.3,0.1-0.5,0.1c0,0.1,0.1,0.2,0.1,0.2c0.2,0,0.3,0,0.5-0.1
			C120.5,4.4,120.5,4.2,120.4,4.2z M122.2,3.8c-0.3,0.3-0.6,0.5-0.8,0.8c0,0,0.1,0.3,0.3,0.6c0.3-0.4,0.6-0.7,0.8-1
			C122.5,4.1,122.3,3.9,122.2,3.8z M123.9,4.1c0,0.1-0.1,0.2-0.1,0.3c0.2,0,0.5,0.1,0.7,0.1c0.1,0,0.2-0.2,0.3-0.2
			C124.5,4.3,124.3,4.2,123.9,4.1z M129,3.8c-0.2,0-0.5,0.2-0.5,0.4c0,0.3,0.1,0.6,0.2,0.9c0,0,0.2,0,0.4,0
			c-0.1-0.6,0.3-0.5,0.7-0.5c0.1,0,0.3-0.1,0.5-0.2C129.7,4.2,129.3,3.9,129,3.8z M130.3,6.8c-0.1,0.2-0.1,0.3-0.2,0.5
			c-0.1,0.1-0.2,0.2-0.2,0.3c0,0.1,0,0.3,0,0.4c0.2,0,0.4,0,0.5-0.1c0.1-0.1,0.1-0.3,0.1-0.6C130.5,7.1,130.4,7,130.3,6.8z
			 M131.4,7.3c0,0.1-0.1,0.2-0.1,0.3c0,0.1,0.2,0.2,0.2,0.3c0-0.1,0.1-0.2,0.2-0.5C131.7,7.4,131.5,7.3,131.4,7.3z M132.1,5
			c0,0-0.1,0.1-0.1,0.1c0.1,0,0.2,0.1,0.2,0.1c0.1-0.1,0.1-0.1,0.1-0.1C132.3,5.1,132.2,5,132.1,5z M135.4,3.6
			c-0.3-0.3-0.6-0.4-0.8,0.2c-0.1,0.3-0.3,0.5-0.4,0.8c0,0.1,0.1,0.2,0.1,0.3c0.3-0.1,0.5-0.2,0.7-0.3c0.3-0.1,0.7,0.1,0.6-0.4
			C135.8,4,135.6,3.8,135.4,3.6z M135.6,5.4c0,0-0.1,0.1-0.1,0.1c0.1,0,0.2,0.1,0.3,0.1c0,0,0.1-0.1,0.1-0.1
			C135.7,5.5,135.6,5.4,135.6,5.4z M137.5,6.8c0,0,0.1-0.1,0.1-0.1c0-0.1-0.1-0.2-0.1-0.3c0,0-0.1,0.1-0.1,0.1
			C137.4,6.7,137.5,6.7,137.5,6.8z M136.4,6.5c0,0-0.1,0.1-0.1,0.1c0,0.1,0.1,0.2,0.1,0.3c0,0,0.1-0.1,0.1-0.1
			C136.5,6.6,136.4,6.5,136.4,6.5z M138.4,4.7c-0.2-0.9-0.2-0.9-0.9-0.9c-0.2,0-0.4,0-0.6,0c-0.1,0-0.2,0.1-0.3,0.2
			c0.1,0.1,0.2,0.1,0.3,0.2c0.3,0.2,0.6,0.6,1,0.7c0.3,0.1-0.1,0.8,0.5,0.6C138.5,5.5,138.4,5,138.4,4.7z M139.8,5.7
			c0,0-0.1,0.1-0.1,0.1c0,0.1,0.1,0.2,0.1,0.3c0,0,0.1-0.1,0.1-0.1C139.9,5.9,139.8,5.8,139.8,5.7z M143.7,3.6
			c-0.3-0.2-0.5-0.7-0.9-0.5c-0.2,0.1-0.2,0.5-0.2,0.8c0,0.1,0,0.2,0,0.6c0,0.1,0,0.4,0.1,0.7c0,0.1,0.4,0.1,0.5,0.1
			c0.3-0.4,0.6-0.8,0.8-1.2C144.1,4,143.9,3.7,143.7,3.6z M144,5.7c-0.2,0.1-0.4,0.1-0.5,0.3c0,0.1,0.1,0.3,0.2,0.4
			c0.2-0.2,0.3-0.4,0.5-0.5C144.1,5.9,144,5.7,144,5.7z M145.7,4.2c-0.1-0.1-0.1-0.3-0.3-0.4c-0.1-0.1-0.3,0-0.3,0
			c-0.1,0.1-0.2,0.3-0.1,0.5c0.1,0.2,0.2,0.4,0.4,0.6c0.1,0.1,0.2,0.2,0.2,0.3c0-0.1,0.1-0.2,0.1-0.3c0-0.1,0-0.2,0-0.4
			S145.7,4.3,145.7,4.2z M146.6,3.8c0,0-0.1,0.1-0.1,0.1c0,0.1,0.1,0.2,0.1,0.3c0,0,0.1-0.1,0.1-0.1C146.7,4,146.7,3.9,146.6,3.8z
			 M150.8,3.8c0,0-0.1,0.1-0.1,0.1c0,0.1,0.1,0.2,0.1,0.3c0,0,0.1-0.1,0.1-0.1C150.9,4,150.8,3.9,150.8,3.8z M156.5,3.8
			c-0.2,0-0.5,0-0.7,0c-0.1,0-0.3,0-0.4,0c-0.1,0-0.1,0.2-0.1,0.2c0.5,0,0.9,0,1.4,0C156.6,4,156.5,3.8,156.5,3.8z M157.5,4.2
			c-0.2,0.1-0.3,0.2-0.5,0.4c0,0,0.2,0.3,0.3,0.3c0.2,0,0.4-0.1,0.7-0.3C157.8,4.4,157.6,4.2,157.5,4.2z M160,3.8
			c-0.1,0-0.2,0.1-0.3,0.2c0.3,0.2,0.6,0.4,0.8,0.6c0,0,0.2-0.1,0.4-0.2C160.6,4.2,160.3,4,160,3.8z M164.1,7.2c0,0,0.1-0.1,0.1-0.1
			c0-0.1-0.1-0.2-0.1-0.3c0,0-0.1,0.1-0.1,0.1C164,7,164,7.1,164.1,7.2z M161.9,2c-0.1,0.1-0.2,0.2-0.2,0.3c0,0.1,0.1,0.2,0.1,0.3
			c0.1-0.1,0.3-0.1,0.3-0.1C162,2.2,161.9,2.1,161.9,2z M164.7,3.8c-0.8-0.1-1.6,0.1-2.3-0.4c-0.3-0.2-0.7,0-1,0.3
			c-0.2,0.3-0.1,0.4,0.2,0.4c0.5,0,0.5,0.4,0.3,0.6c-0.1,0.2-0.4,0.3-0.6,0.4c0.4,0.1,0.9,0.3,1.3,0.4c0,0,0.1-0.2,0.1-0.3
			c0.3-0.9,0.7-1.1,1.5-1c0.2,0,0.5-0.1,0.9-0.2C164.9,3.9,164.8,3.8,164.7,3.8z M168.8,4.2c-0.1-0.2-0.4-0.3-0.7-0.6
			c-0.2,0.3-0.4,0.5-0.4,0.8c-0.1,0.5,0.2,0.9,0.6,0.8C168.7,5.2,169,4.7,168.8,4.2z M169.8,4.9c0,0,0.1-0.1,0.1-0.1
			c0-0.1-0.1-0.2-0.1-0.3c0,0-0.1,0.1-0.1,0.1C169.7,4.8,169.7,4.9,169.8,4.9z M170.6,3.4c-0.1,0-0.2,0-0.5,0c0,0-0.2,0-0.4,0.1
			c0,0,0,0.2,0,0.2c0.2,0.1,0.4,0.2,0.6,0.2c0.2,0,0.4-0.1,0.5-0.1c0.1,0,0.2-0.2,0.2-0.2C170.9,3.6,170.8,3.5,170.6,3.4z
			 M172.4,4.9c0.1,0,0.2-0.1,0.3-0.1c0,0-0.1-0.1-0.1-0.1c-0.1,0-0.2,0.1-0.2,0.1C172.3,4.8,172.3,4.9,172.4,4.9z M173,3.3
			c0-0.1-0.2-0.2-0.2-0.1c-0.3,0.1-0.6,0.3-0.9,0.5c0.2,0.1,0.3,0.2,0.5,0.2c0.2-0.1,0.4-0.1,0.6-0.3C173,3.6,173,3.4,173,3.3z
			 M173.7,4.9c0-0.2,0.1-0.4,0.1-0.5c0-0.1-0.2-0.1-0.2-0.1c0,0.2-0.1,0.3-0.1,0.5C173.4,4.8,173.5,4.8,173.7,4.9z M174,3.1
			c-0.2,0.2-0.4,0.3-0.6,0.5c0.1,0.1,0.2,0.2,0.3,0.2c0.2,0,0.4-0.1,0.5-0.2C174.1,3.3,174.1,3.2,174,3.1z M176.3,2.8
			c-0.1-0.1-0.4-0.1-0.6,0c-0.8,0.2-1,0.8-0.8,1.4c0,0.3,0,0.5,0,0.7c0,0.1,0.1,0.3,0.2,0.4c0.1-0.1,0.2-0.2,0.3-0.3
			c0.1-0.2,0.2-0.4,0.2-0.6c0-0.4,0.1-0.6,0.5-0.6c0.2,0,0.4-0.1,0.6-0.2C176.6,3.3,176.5,3,176.3,2.8z M177.9,3.1
			c-0.1,0.1-0.3,0.1-0.3,0.2c0,0.2,0.1,0.3,0.1,0.5c0.1,0,0.2-0.1,0.2-0.1C177.9,3.5,177.9,3.3,177.9,3.1z M178.1,4.2
			c0,0-0.1,0.1-0.1,0.1c0,0.1,0.1,0.2,0.1,0.3c0,0,0.1-0.1,0.1-0.1C178.2,4.4,178.2,4.3,178.1,4.2z M179,3.1
			c-0.1,0.1-0.3,0.3-0.3,0.4c0,0.2,0.2,0.3,0.4,0.6c0.2-0.3,0.3-0.5,0.3-0.6C179.3,3.3,179.1,3.2,179,3.1z M181.5,6.8
			c0-0.1,0.1-0.2,0.1-0.2c-0.1-0.1-0.1-0.1-0.1-0.1c0,0.1-0.1,0.2-0.1,0.3C181.4,6.7,181.5,6.8,181.5,6.8z M181.2,6
			c0,0,0.1-0.1,0.1-0.1c-0.1,0-0.2-0.1-0.2-0.1c-0.1,0.1-0.1,0.1-0.1,0.1C181.1,5.9,181.1,6,181.2,6z M182.3,3.1
			c-0.2-0.1-0.6,0.1-0.7,0c-0.5-0.5-0.7-0.4-0.6,0.5c0,0,0.2,0.1,0.3,0.2c0.4-0.6,0.8,0.5,1.1,0C182.5,3.5,182.4,3.2,182.3,3.1z
			 M183.1,3.4c0,0-0.1,0.1-0.1,0.1c0,0.1,0.1,0.2,0.1,0.3c0,0,0.1-0.1,0.1-0.1C183.1,3.6,183.1,3.5,183.1,3.4z M183.9,3.1
			c0,0.1-0.2,0.3-0.2,0.3c0.4,0.3,0.2,0.8,0.3,1.2c0,0.1,0.2,0.4,0.3,0.4c0.3-0.1,0.6-0.2,0.7-0.5C185.2,4.2,184.4,3.2,183.9,3.1z
			 M187.2,1.6c0,0.1-0.1,0.2-0.1,0.3c0,0,0.1,0.1,0.1,0.1c0-0.1,0.1-0.2,0.1-0.3C187.4,1.7,187.3,1.6,187.2,1.6z M186.4,2.8
			c-0.2,0-0.5,0.2-0.8,0.4c0.1,0.2,0.2,0.4,0.4,0.7c0.1,0.1,0.2,0.3,0.4,0.4c0.2,0.1,0.2,0.1,0.3-0.4c0.1-0.2,0.4-0.3,0.6-0.4
			C187.1,3.1,186.8,2.8,186.4,2.8z M187.9,6.1c-0.1,0.2-0.1,0.3-0.2,0.6c0.1,0.1,0.2,0.3,0.3,0.4c0-0.2,0.1-0.3,0.1-0.5
			C188.1,6.5,188,6.3,187.9,6.1z M188.3,3.9c0,0.1-0.1,0.2-0.1,0.3c0,0.1,0.2,0.2,0.2,0.3c0-0.1,0.1-0.2,0.2-0.5
			C188.6,4,188.4,3.9,188.3,3.9z M191.2,3.1c-0.5,0-0.7,0-0.9,0c-0.1,0-0.1,0.2-0.1,0.2c0,0,0.1,0.1,0.1,0.1c0.2,0,0.5,0.1,0.7,0
			c0.3-0.1,0.7,0.3,0.9-0.2C191.6,3.1,191.3,3.1,191.2,3.1z M192.8,3c-0.1,0.1-0.3,0.1-0.4,0.2c0.1,0.1,0.2,0.2,0.3,0.2
			c0.2,0,0.3-0.1,0.5-0.2C193,3.2,192.9,3.1,192.8,3z M197.9,7.5c0.1-0.1,0.1-0.1,0.1-0.1c-0.1,0-0.2-0.1-0.3-0.1
			c0,0-0.1,0.1-0.1,0.1C197.8,7.4,197.8,7.5,197.9,7.5z M198,6.8c0.1,0,0.2,0,0.6,0c0.1,0,0.4-0.1,0.6-0.2c0.1-0.1,0.2-0.4,0.2-0.5
			c-0.1-0.1-0.3-0.3-0.5-0.3c-0.3,0-0.6,0.1-0.8,0.2c-0.2,0.1-0.3,0.3-0.4,0.4C197.8,6.6,197.9,6.8,198,6.8z M196.7,2
			c0,0-0.1,0.1-0.1,0.1c0.1,0,0.2,0.1,0.2,0.1c0.1-0.1,0.1-0.1,0.1-0.1C196.8,2.1,196.7,2,196.7,2z M200.6,3.6
			c-0.3-0.3-0.5-0.1-0.8,0.1c-0.1,0.1-0.3,0.1-0.5,0.1c0.1-0.2,0.1-0.3,0.2-0.5c0.1-0.3,0-0.6-0.4-0.6c-0.5,0-1,0-1.5,0
			c-0.6,0.1-1.1,0.2-1.5,0.3c0.6-0.3,0.2-0.3-0.2-0.3c-0.3,0-0.5,0.2-0.7,0.4c-0.8,0.1-1.1,0-1.3,0c-0.1,0-0.2,0.1-0.3,0.1
			c0,0.1,0,0.2,0.1,0.3c0.4,0.3,0.9,0.5,1.3,0.8c0,0.1,0,0.2,0,0.3c0,0.1,0.1,0.3,0.2,0.6c-0.1-0.3-0.1-0.6-0.1-0.7
			c0.2,0.4,0.3,0.2,0.3,0.1c0-0.1-0.2-0.2-0.3-0.2C195,3.8,195,3.6,195,3.4c0.1,0,0.1,0,0.2-0.1c0,0,0,0.1,0,0.1
			c0.5,0,1,0.5,0.8,0.6c-0.5,0.5,0.3,0.6,0.2,1.1c-0.1,0.4,0.2,1,0.4,1.5c0,0.1,0.3,0.2,0.5,0.2c0.1,0,0.2-0.3,0.2-0.4
			c0-0.1-0.1-0.2-0.2-0.3c-0.2-0.4-0.6-0.9-0.5-1.2c0.1-0.3,0.7-0.6,1.1-0.8c0.5-0.4,0.8-0.4,0.8,0.4c0,0.1,0.4,0.2,0.4,0.2
			c0.4-0.4,0.7-0.1,1,0c0.2,0,0.6-0.1,0.8-0.3C200.8,4.2,200.8,3.8,200.6,3.6z M200.9,7.2c-0.1,0-0.1,0.2-0.1,0.2
			c0.2,0,0.3,0.1,0.5,0.1c0,0,0.1-0.1,0.2-0.3C201.2,7.3,201.1,7.2,200.9,7.2z M202,3.1c-0.2,0-0.3,0.1-0.5,0.1
			c0,0.1,0.1,0.2,0.1,0.2c0.2,0,0.3,0,0.5-0.1C202.1,3.2,202.1,3.1,202,3.1z M207.9,3.3c-0.2-0.3-0.5-0.6-1.1-0.6
			c-0.4,0-0.6,0.8-1.1,0.3c-0.3-0.4-0.6-0.3-0.9,0c0,0-0.3-0.1-0.4-0.2c-0.2-0.1-0.4-0.3-0.5-0.4c0,0.2-0.1,0.5-0.1,0.7
			c0,0.4,0.1,0.9,0,1.3c0,0.2-0.7,0.3-0.7,0.4c0.1,0.5,1.6,1.2,2,0.9c0.1,0,0-0.2,0-0.4c0-0.2-0.1-0.5-0.2-0.7
			c-0.3-1.2-0.3-1.2,1-1.2c0.6-0.1,1.1,0,1,0.9c0,0,0.4,0.2,0.6,0.1C207.8,4.3,208.1,3.6,207.9,3.3z M210.2,3.1c-0.2,0-0.4,0-0.6,0
			c-0.1,0-0.3,0-0.4,0c-0.2,0.1-0.4,0.2-0.5,0.2c0.2,0.2,0.5,0.5,0.7,0.5c0.2,0,0.5-0.2,0.8-0.3c0.1-0.1,0.2-0.2,0.3-0.3
			C210.4,3.1,210.3,3.1,210.2,3.1z M213.7,3.1c0,0,0,0.2,0,0.2c0.2,0,0.3,0,0.5,0c0,0,0-0.2,0-0.3C214.1,3.1,213.9,3.1,213.7,3.1z
			 M216.7,1.6c-0.2,0.1-0.3,0.2-0.5,0.4c0,0,0.2,0.2,0.2,0.3c0.2-0.2,0.4-0.3,0.5-0.5C216.9,1.7,216.8,1.6,216.7,1.6z M217.6,3.1
			c-0.2-0.2-0.5-0.4-0.6-0.4c-0.7,0.4-1.4,0.4-2.1,0.4c-0.1,0-0.1,0.2-0.2,0.3c0.5,0.2,0.9,0.3,1.3,0.5c0.6,0.2,1.1,0.3,1.4-0.3
			C217.6,3.4,217.7,3.2,217.6,3.1z M218.8,6c0-0.1,0.1-0.2,0.2-0.5c-0.1,0-0.2-0.1-0.3-0.1c0,0.1-0.1,0.2-0.1,0.3
			C218.6,5.8,218.7,5.9,218.8,6z M219.1,3.1c-0.2,0-0.3,0.1-0.5,0.1c0.2,0.1,0.3,0.2,0.4,0.3c0.3-0.1,0.4-0.1,0.6-0.2
			C219.4,3.2,219.3,3.1,219.1,3.1z M221,3.4c0,0.1-0.1,0.2-0.1,0.3c0,0,0.1,0.1,0.1,0.1c0-0.1,0.1-0.2,0.1-0.2
			C221.1,3.5,221,3.5,221,3.4z M225.7,3.6c0.1-0.1-0.2-0.5-0.3-0.7c0-0.1-0.3-0.1-0.4,0c-0.1,0.2-0.4,0.7-0.3,0.7
			c0.4,0.3,0.3,0.8,0.3,1.2c0,0.1,0.2,0.3,0.3,0.4c0.2-0.2,0.3-0.3,0.5-0.5C225.2,4.3,225.4,4,225.7,3.6z M229.1,3.6
			c-0.1-0.8-1.1-0.3-1.6-0.8c-0.1-0.1-0.7,0.3-1,0.5c-0.1,0.1,0,0.4,0,0.7c0,0.1,0.1,0.4,0.3,0.6c0.1,0.1,0.3,0.1,0.4,0.2
			c0-0.1,0.1-0.3,0.1-0.3c-0.1-0.2-0.3-0.3-0.3-0.4c0.1-0.2,0.2-0.4,0.4-0.5c0,0,0.3,0.1,0.4,0.2c0.1,0.1,0.2,0.2,0.3,0.3
			c0.1,0.3-0.3,1.1,0.5,0.9C228.8,4.8,229.1,4,229.1,3.6z M230.9,4.5c-0.3-0.4-0.6-0.9-0.9-1.3c0-0.1-0.2-0.1-0.3-0.1
			c0,0.1-0.1,0.2-0.1,0.3c0.2,0.3,0.2,0.6,0,1c-0.2,0.6,0.4,0.4,0.7,0.5c0.1,0,0.3,0,0.4,0C231,4.9,231.1,4.8,230.9,4.5z M232.8,4.9
			c0.1-0.2,0.2-0.3,0.2-0.5c0-0.1-0.1-0.2-0.2-0.3c-0.1,0.1-0.2,0.3-0.2,0.4C232.6,4.8,232.7,4.9,232.8,4.9z M233.5,3.1
			c-0.4-0.1-0.8-0.4-1.1-0.3c-0.3,0.1-0.5,0.5-0.8,0.8c0,0,0.1,0.2,0.2,0.4c0.5-0.9,1.2,0.4,1.7-0.4c0.1-0.1,0.2-0.2,0.3-0.3
			C233.6,3.2,233.6,3.1,233.5,3.1z M234.6,4.6c-0.1,0.1-0.1,0.1-0.1,0.1c0.1,0,0.2,0.1,0.3,0.1c0,0,0.1-0.1,0.1-0.1
			C234.8,4.7,234.7,4.7,234.6,4.6z M236.6,3.1c-0.2,0.2-0.3,0.3-0.5,0.5c0.2,0.1,0.5,0.2,0.7,0.2c0.1,0,0.2-0.1,0.4-0.2
			C236.9,3.4,236.7,3.2,236.6,3.1z M239.1,3.4c-0.1,0.1-0.3,0.2-0.5,0.3c0.3,0.3,0.6,0.5,0.8,0.8c0.2-0.2,0.5-0.5,0.7-0.8
			C240.3,3.5,240.1,3.4,239.1,3.4z M241,4c0.1,0,0.2,0.1,0.2,0.1c0.1-0.1,0.1-0.2,0.1-0.3c0,0,0,0-0.1,0C241.1,3.9,241,4,241,4z
			 M241.5,3.5c-0.1,0-0.2,0.1-0.2,0.2c0,0,0,0,0,0C241.6,3.5,241.6,3.5,241.5,3.5z M241.4,3.7C241.4,3.8,241.5,3.8,241.4,3.7
			c0.1,0,0.2-0.1,0.3-0.1C241.5,3.7,241.5,3.7,241.4,3.7z M243.3,3.4c-0.2-0.3-0.4-0.3-0.7,0c-0.1,0.1-0.4,0.2-0.6,0.3
			c0.2,0.1,0.4,0.1,0.7,0.2c0.1,0,0.1,0,0.4,0c0.1,0,0.3-0.1,0.5-0.2C243.5,3.6,243.4,3.5,243.3,3.4z M249.4,2
			c0,0.2-0.1,0.3-0.1,0.5c0,0,0.1,0.1,0.3,0.2c0-0.2,0.1-0.4,0.1-0.5C249.6,2.1,249.5,2,249.4,2z M261.4,8.2c0-0.1-0.1-0.1-0.1-0.2
			C261.3,8.2,261.4,8.2,261.4,8.2z M261.3,8.3c0-0.1-0.1-0.2-0.1-0.3c0,0-0.1,0.1-0.1,0.1C261.1,8.2,261.2,8.2,261.3,8.3z M260.9,8
			c0.1-0.1,0.1-0.2,0.2-0.3c-0.1-0.3-0.2-0.4-0.2-0.5c-0.1,0.2-0.1,0.3-0.1,0.5C260.7,7.8,260.8,7.9,260.9,8z M260,3.3
			c-0.3-0.3-0.4-0.1-0.5,0.1c-0.8,0.5-0.8,0.5-1.8-0.1c-0.1,0-0.2-0.1-0.3-0.1c-0.3,0.1-0.3,0.9-0.9,0.4c-0.4-0.4-0.6,0.1-0.9,0.3
			c-0.2,0.1-0.3,0.1-0.5,0.2c0.1,0.1,0.3,0.2,0.4,0.2c0.4,0,0.9,0,1.3,0c0.5,0,0.9,0.3,0.9,0.7c-0.1,0.8,0.3,0.8,0.9,0.8
			c0.3,0,0.5,0.1,0.8,0c0.5-0.1,0.3-0.6,0.3-0.9c0-0.6,0.1-0.7,0.6-0.2c0.1,0.1,0.5-0.2,0.8-0.3c0.1,0,0.1-0.1,0.1-0.1
			C260.6,3.8,260.3,3.6,260,3.3z M260.8,5c0,0.2-0.1,0.3-0.1,0.5c0.3,0,0.7,0.1,1,0.1c0-0.1,0-0.2,0-0.4
			C261.4,5.2,261.1,5.1,260.8,5z M263.6,3.4c-0.1,0.1-0.3,0.3-0.3,0.4c0,0.2,0.2,0.3,0.4,0.6c0.2-0.3,0.3-0.5,0.3-0.6
			C264,3.7,263.8,3.6,263.6,3.4z M268.3,3.6c-0.3,0-0.7,0.2-1,0.3c-0.1,0-0.1,0.1-0.1,0.1c0.3,0.3,0.7,0.5,1,0.8
			c0.3,0.2,0.4,0.2,0.4-0.1c0-0.2,0.2-0.4,0.3-0.7C268.8,3.8,268.6,3.6,268.3,3.6z M270.2,3.5c-0.4-0.1-0.5,0.2-0.4,0.6
			c0,0.2,0.2,0.4,0.3,0.6c0.3-0.2,0.6-0.3,0.9-0.5C270.7,3.8,270.5,3.5,270.2,3.5z M277.3,3.8c-0.8,0-1.5,0-2.3,0
			c-0.4,0-0.7,0.1-0.8-0.5c-0.1-0.5-1-0.4-1-0.1c-0.1,0.9-0.7,0.5-1.1,0.6c-0.2,0-0.6-0.1-0.3,0.3c0.1,0.2,0.5,0.3,0.5,0.3
			c0.4-0.4,0.7-0.5,0.9,0.2c0.1,0.2,0.4,0.6,0.6,0.6c0.6,0.1,1.2,0,1.9,0c0.1,0,0.1-0.2,0.1-0.3c0-0.6,0-1,0.7-0.3
			c0.2,0.2,1.1-0.1,1.3-0.5C277.7,4,277.5,3.8,277.3,3.8z M277.5,7.3c0,0.1-0.1,0.2-0.1,0.3c0,0.1,0.2,0.2,0.2,0.3
			c0-0.1,0.1-0.2,0.2-0.5C277.8,7.4,277.6,7.3,277.5,7.3z M279.2,3.2c-0.1,0.3-0.3,0.5-0.3,0.7c0,0.1,0.3,0.3,0.3,0.3
			c0.2-0.1,0.3-0.3,0.4-0.5C279.6,3.7,279.4,3.5,279.2,3.2z M285.8,3.9c0,0-0.1,0.1-0.1,0.1c0.1,0,0.2,0.1,0.2,0.1
			c0.1-0.1,0.1-0.1,0.1-0.1C286,4,285.9,3.9,285.8,3.9z M286.3,4.9c0,0.1-0.1,0.2-0.1,0.3c0,0,0.1,0.1,0.1,0.1
			c0-0.1,0.1-0.2,0.1-0.2C286.4,5,286.3,5,286.3,4.9z M290.8,4.2c-0.5,0-1,0-1.5,0c-0.5-0.1-0.9-0.3-1.3-0.3c-0.1,0-0.3,0.1-0.4,0.3
			c0,0.1,0.1,0.5,0.2,0.5c0.5-0.1,1,0.9,1.6,0.1c0.1-0.2,0.8,0,1.3,0c0.1,0,0.2-0.1,0.3-0.1C290.9,4.4,290.9,4.2,290.8,4.2z
			 M292.7,4.3c0,0,0,0.2,0,0.2c0.2,0,0.3,0,0.5,0c0,0,0-0.2,0-0.3C293,4.2,292.8,4.2,292.7,4.3z M293.5,5.3c0,0.1-0.1,0.2-0.1,0.3
			c0,0,0.1,0.1,0.1,0.1c0-0.1,0.1-0.2,0.1-0.2C293.6,5.4,293.5,5.4,293.5,5.3z M294.7,6.4c0.1,0,0.3-0.1,0.5-0.2
			c-0.1-0.3-0.3-0.6-0.5-1.1c-0.1,0.3-0.2,0.4-0.2,0.6C294.5,6,294.3,6.4,294.7,6.4z M294.9,4.2c-0.5,0-0.7,0-1,0
			c0,0-0.1,0.1-0.1,0.1c0,0.1,0.1,0.2,0.1,0.2c0.2,0,0.5,0,0.7,0c0.3,0,0.6-0.1,0.9-0.1C295.2,4.3,294.9,4.2,294.9,4.2z M299,4.2
			c-0.6,0.1-0.1,0.3-0.1,0.5c0,0.4-0.4,0.6-0.9,0.6c-0.4,0-0.5-0.1-0.5-0.5c0-0.2-0.1-0.6-0.2-0.6c-0.4-0.1-0.7,0-1.1,0
			c0,0.1,0,0.3,0.1,0.4c0.4,0.5,0.9,0.9,1.3,1.3c0.2,0.3,0.5,0.6,0.7,0.8c0.1,0.2,0.3,0.3,0.4,0.4c0.1-0.2,0.3-0.4,0.3-0.5
			c0-0.6,0-1.1,0.9-1c0.1,0,0.3-0.1,0.3-0.2c0.1-0.4,0.2-0.9,0.4-1.4c0,0-0.2-0.2-0.2-0.2C299.9,4.4,299.4,4.2,299,4.2z M300.5,2.3
			c-0.1,0-0.2,0.2-0.4,0.3c0.1,0.2,0.2,0.3,0.4,0.4c0.1,0,0.3-0.1,0.6-0.3C300.8,2.6,300.7,2.4,300.5,2.3z M302.2,6
			c0.1-0.1,0.3-0.1,0.3-0.1c-0.1-0.3-0.2-0.4-0.2-0.5c-0.1,0.1-0.2,0.2-0.2,0.3C302,5.8,302.1,5.9,302.2,6z M303.7,4.2
			c-0.3-0.1-0.6,0-1.1,0c0,0-0.3,0.1-0.5,0.2c0.3,0.1,0.4,0.8,0.8,0.2c0.1-0.1,0.5,0.2,0.7,0.3c0.2,0,0.4-0.1,0.6-0.2
			C304.1,4.6,304,4.3,303.7,4.2z M305.3,5.8c-0.1,0.1-0.2,0.2-0.2,0.3c0,0.1,0.1,0.2,0.1,0.3c0.1-0.1,0.3-0.1,0.3-0.1
			C305.4,6,305.4,5.9,305.3,5.8z M309.1,2.7c0,0-0.1,0.1-0.1,0.1c0,0.1,0.1,0.2,0.1,0.3c0,0,0.1-0.1,0.1-0.1
			C309.1,2.9,309.1,2.8,309.1,2.7z M314.2,7.2c0,0-0.3,0.2-0.3,0.3c0,0.2,0.1,0.4,0.3,0.7c0.2-0.3,0.5-0.4,0.4-0.5
			C314.5,7.5,314.3,7.3,314.2,7.2z M319.9,5.7c-0.1,0.2-0.4,0.4-0.3,0.5c0.1,0.3,0.3,0.5,0.6,0.8c0-0.4,0.1-0.6,0.1-0.8
			C320.2,6,320,5.9,319.9,5.7z M322.9,6.5c-0.1,0-0.2,0.1-0.3,0.1c0.2,0.2,0.3,0.4,0.5,0.6c0.1-0.1,0.1-0.2,0.3-0.4
			C323.2,6.7,323.1,6.5,322.9,6.5z M335.1,7.2c0.1,0,0.2-0.1,0.3-0.2c-0.1-0.1-0.3-0.2-0.4-0.2c-0.1,0.1-0.2,0.2-0.3,0.2
			C334.8,7.1,335,7.2,335.1,7.2z M329,7.3c0,0.1,0.1,0.2,0.2,0.3c0.1-0.1,0.2-0.2,0.2-0.3c0-0.2,0-0.5,0-0.7
			c-0.1,0.1-0.3,0.1-0.4,0.2C329,6.9,329,7.1,329,7.3z M327.3,7.5c0.1-0.1,0.2-0.1,0.3-0.2c-0.2,0.1-0.2,0.1-0.2,0.1
			c0-0.1-0.1-0.2-0.2-0.2c-0.1,0.1-0.1,0.1-0.2,0.2C327.2,7.4,327.2,7.5,327.3,7.5z M330.6,4.7c-0.3,1.3-1.3,0.6-2,0.6
			c-0.4,0-0.7-0.2-1.2,0c-0.3,0.1-0.8,0.1-1.2-0.2c-0.2-0.2-0.7-0.1-1.1-0.1c-0.1,0-0.4,0.4-0.3,0.5c0.3,0.3,0.4,0.6,0.4,1
			c0,0.1,0.2,0.2,0.2,0.3c0.6-0.8,0.9,0,1.3,0.3c0.1,0.1,0.2,0.1,0.3,0.1c0-0.1,0-0.2,0-0.4c0-0.2,0-0.5,0-0.7
			c0-0.1,0.1-0.2,0.1-0.3c0.2-0.2,1.7,0.4,1.8,0.7c0,0,0,0,0,0c0.2-0.1,0.3-0.2,0.4-0.3c0.1-0.1,0.1-0.2,0.3-0.2
			C331.1,5.1,330.9,4.9,330.6,4.7z M330.5,6.1c0.3-0.1,0.5-0.2,0.8-0.4c0.1,0,0.2-0.1,0.4-0.2C331.2,5.7,330.8,5.9,330.5,6.1z
			 M331.5,6.8c-0.3,0.1-0.4,0.1-0.6,0.2c0.2,0.1,0.3,0.2,0.5,0.2c0.2,0,0.3-0.1,0.5-0.1C331.8,7,331.6,6.9,331.5,6.8z M335.9,5.7
			c-0.3-0.1-0.6-0.3-1-0.4c-0.6-0.1-1.2,0-1.7-0.4c-0.3-0.2-0.7,0-1,0.4c-0.3,0.4,0.2,0.5,0.3,0.7c0.2,0.4,0.5,0.8,0.8,1.2
			c0.1,0.1,0.3,0.3,0.4,0.4c0.1-0.2,0.2-0.4,0.3-0.6c-0.1-0.2-0.2-0.4-0.3-0.5c-0.3-0.4,0-0.4,0.2-0.4c0.3,0.1,0.6,0.3,1,0.3
			c0.3,0,0.7-0.2,1-0.3c0.1,0,0.2-0.1,0.3-0.2C336.1,5.8,336,5.7,335.9,5.7z M337.4,5.6c-0.1-0.1-0.3-0.1-0.4-0.1
			c-0.1,0.2-0.2,0.4-0.2,0.3c0,0.5,0,0.6,0,0.6c-0.2,0.2-0.4,0.5-0.1,0.7c0,0,0.4-0.2,0.5-0.4c0.1-0.1,0-0.4,0.1-0.5
			C337.6,6,337.7,5.8,337.4,5.6z M338.7,7.6c0.1-0.1,0.2-0.3,0.2-0.4c-0.1-0.1-0.2-0.2-0.2-0.3c-0.1,0.2-0.2,0.3-0.2,0.5
			C338.5,7.4,338.6,7.5,338.7,7.6z M340.1,6c-0.4-0.3-0.8-0.5-1.2-0.8c-0.2-0.2-0.4-0.4-0.5,0c-0.1,0.2-0.3,0.6-0.2,0.8
			c0.3,0.7,0.9,0.5,1.5,0.5c0.1,0,0.3,0,0.4,0c0.1,0,0.2-0.1,0.3-0.2C340.3,6.2,340.2,6.1,340.1,6z M342.4,8c0-0.1,0.1-0.2,0.1-0.3
			c0,0-0.1-0.1-0.1-0.1c0,0.1-0.1,0.2-0.1,0.3C342.3,7.9,342.4,7.9,342.4,8z M342,8.6c0.1,0,0.2-0.1,0.3-0.1c0,0-0.1-0.1-0.1-0.1
			c-0.1,0-0.2,0.1-0.2,0.1C341.9,8.6,342,8.6,342,8.6z M344.2,6c-0.3-0.1-0.7-0.3-0.8-0.3c-0.6,0.5-1.2,0.2-1.8,0
			c-0.1,0-0.3-0.1-0.4,0c-0.1,0.1-0.2,0.3-0.2,0.5c0,0.1,0.1,0.3,0.2,0.3c1,0,2,0,3,0c0.1,0,0.1-0.1,0.2-0.2
			C344.4,6.1,344.3,6,344.2,6z M345.1,6.1c0,0.1-0.1,0.2-0.1,0.3c0,0,0.1,0.1,0.1,0.1c0-0.1,0.1-0.2,0.1-0.3
			C345.2,6.2,345.1,6.1,345.1,6.1z M346.5,6.6c-0.1-0.4-0.1-0.6-0.1-0.8c0-0.1-0.2-0.1-0.3-0.1c-0.1,0-0.2,0.1-0.3,0.1
			c0.6,0.6-0.2,1-0.3,1.4c0,0.1,0,0.2,0,0.3c0.1,0,0.3,0.1,0.4,0C346.2,7.3,346.7,7,346.5,6.6z M354.5,8.7c0.1,0,0.2-0.1,0.2-0.1
			c0,0-0.1-0.1-0.1-0.1c-0.1,0-0.2,0.1-0.3,0.1C354.4,8.6,354.5,8.6,354.5,8.7z M354,6.4c-0.4,0-0.8,0-1.2-0.2
			c-1.7,0-2.3-0.2-2.9-0.5c-0.5-0.2-0.3,0.2-0.1,0.4c-0.2,0.1-0.4,0.3-0.5,0.2c-0.2,0-0.6-0.4-0.6-0.3c-0.6,0.6-1.1-0.2-1.6,0
			c-0.1,0.1-0.3,0.3-0.3,0.4c0,0.1,0.2,0.3,0.3,0.3c0.7,0,1.4,0,2.1,0c0.3,0,0.6-0.1,0.6,0.4c0,0.4,0.4,0.4,0.7,0.2
			c0.1-0.1,0.2-0.2,0.3-0.3c0.3-0.2,0.5-0.5,0.8-0.7c0.4,0.5,1.2,0.3,1.3,1.1c0,0.1,0.2,0.2,0.3,0.2c0-0.1,0.1-0.2,0.1-0.3
			c0.2-0.8,0.3-0.8,0.8-0.4c0.2,0.2,0.4,0.5,0.5,0.5c0.3-0.1,0.6-0.3,0.9-0.5c-0.2-0.1-0.4-0.1-0.6-0.2C354.7,6.5,354.4,6.4,354,6.4
			z M376.4,8.4c0.2,0,0.3,0.1,0.6,0.2c0.6,0.4,0.9-0.4,1.4-0.5C378.3,8.1,378.3,8,376.4,8.4z M381.6,7.9c-0.5-0.1-0.9-0.3-1.3-0.5
			l-1.2-0.1c-0.6,0.4-0.4,1-0.4,1.5c0,0.1,0.2,0.1,0.3,0.2c0.3-0.1,0.6-0.3,1-0.4c0.2,0,0.3,0.6,0.7,0.1c0.1-0.1,0.5-0.1,0.6,0
			c0.5,0.4,0.7-0.2,0.8-0.4C382.2,8.2,382,8,381.6,7.9z M383.5,7.6c-0.1,0.1-0.2,0.1-0.2,0.2c0.1,0.2,0.1,0.4,0.3,0.5
			c0.1,0,0.3-0.1,0.5-0.2C383.8,8,383.7,7.8,383.5,7.6z M394.4,7.2c0,0.1-0.1,0.2-0.1,0.3c0,0,0.1,0.1,0.1,0.1
			c0-0.1,0.1-0.2,0.1-0.3C394.6,7.3,394.5,7.2,394.4,7.2z M398.3,9.1c-0.1-0.1-0.4-0.3-0.5-0.3c-1,0.1-1,0.1-1.2-0.7
			c-0.1-0.2-0.2-0.4-0.2-0.6c-0.2,0.2-0.5,0.5-0.5,0.7c-0.1,0.8,0,1.6,0,2.4c0,0.1,0,0.3,0,0.4c0,0.1,0.2,0.1,0.2,0.2
			c0-0.1,0.1-0.2,0.1-0.3c0.1-0.2,0-0.5,0.1-0.7c0.2-0.4,0.4-1.1,1.1-0.8c0.2,0.1,0.4,0,0.6,0C398.4,9.4,398.4,9.4,398.3,9.1z
			 M398.4,10.4c-0.1-0.1-0.4-0.1-0.6-0.1c0,0.2-0.1,0.5,0,0.6c0.2,0.3,0.4,0.4,0.6,0.6c0.1,0.1,0.2,0.1,0.3,0.1
			c0-0.1,0.1-0.2,0.2-0.5C398.7,11,398.6,10.6,398.4,10.4z M400,11.7c0.1,0,0.2-0.1,0.3-0.2c-0.2-0.2-0.4-0.3-0.5-0.5
			c-0.1,0.1-0.3,0.3-0.2,0.3C399.7,11.5,399.9,11.6,400,11.7z M400.1,8c0,0.1-0.1,0.2-0.1,0.2c0.1,0,0.1,0.1,0.2,0.1
			C400.2,8.1,400.1,8,400.1,8z M399.3,9.2c0,0,0,0.2,0,0.2c0.4,0.1,0.8,0.2,1.3,0.3c-0.1-0.7-0.2-1-0.3-1.3
			C400.1,8.9,399.7,9.1,399.3,9.2z M400.6,8.5c-0.1,0-0.2-0.1-0.3-0.1c0.3,1.3,0.4,1.3,0.5,1.1C401.2,9,400.5,8.9,400.6,8.5z
			 M405.4,8c0,0-0.1,0.1-0.1,0.1c0.1,0,0.2,0.1,0.2,0.1c0.1-0.1,0.1-0.1,0.1-0.1C405.5,8.1,405.5,8,405.4,8z M412.3,11.7
			c0.2-0.2,0.4-0.3,0.5-0.5c-0.2-0.1-0.4-0.2-0.5-0.2c-0.1,0.1-0.2,0.3-0.3,0.5C412.1,11.5,412.2,11.6,412.3,11.7z M410.3,12.4
			c0.1,0,0.2-0.1,0.3-0.1c0,0-0.1-0.1-0.1-0.1c-0.1,0-0.2,0.1-0.2,0.1C410.2,12.3,410.3,12.4,410.3,12.4z M407.2,9.3
			c0,0.4-0.1,0.6-0.1,0.8c0,0.2,0.2,0.3,0.4,0.5c0.1-0.2,0.4-0.4,0.4-0.5C407.8,9.9,407.5,9.7,407.2,9.3z M411.2,10.1
			c-0.1-0.2-0.3-0.4-0.5-0.7c-1.1,1-1.8,0.1-2.5-0.6c-0.1-0.1-0.2-0.1-0.3-0.1c0,0.1-0.1,0.2-0.1,0.3c0.3,0.9,2,2.2,3,2.2
			c0.9,0,0.1-0.4,0.1-0.6C411,10.5,411.2,10.3,411.2,10.1z M412.4,9.5c-0.3,0-0.7-0.2-0.7,0.3c0,0.1,0.1,0.3,0.2,0.5
			c0.3-0.1,0.6-0.3,1.1-0.5C412.7,9.6,412.6,9.5,412.4,9.5z M419.5,9.9c-0.4,0.4-0.7,0.4-1.1,0c-0.9,0.8-1.6-0.1-2.4-0.2
			c-0.2-0.1-0.3,0-0.6,0c-0.4,0.2-0.9,0.4-1.1-0.4c-0.1-0.4-0.6,0.4-1,0.2c0,0.2-0.1,0.5,0.1,0.6c0.4,0.5,0.9,0.9,1.7,0.8
			c0.6-0.1,1.3,0.2,1.9,0.3c0.1,0,0.3,0.2,0.3,0.3c0.1,0.2,0.2,0.5,0.2,0.8c0.1-0.2,0.1-0.5,0.2-0.7c0.3-0.7,0.8-1.1,1.4-0.7
			c0.7,0.6,1-0.3,1.5-0.1c0,0,0.1-0.2,0.2-0.2C420.7,10.4,419.6,9.7,419.5,9.9z M427.6,10.5c-0.2-0.1-0.4-0.2-0.5-0.2
			c-0.3,0.8-0.9,0-1.3,0.2c-0.5,0.1-1.1,0.2-1.6,0.2c0,0-0.2-0.3-0.1-0.3c0.4-0.6-0.2-0.5-0.3-0.4c-0.5,0.5-1.1,0.4-1.7,0.2
			c-0.5-0.1-1,0.3-0.8,0.6c0.4,0.5,0.3,1,0.4,1.5c0,0.1,0.3,0.2,0.4,0.2c0.5-0.1,0.2-0.3,0-0.5c0,0,0.2-0.3,0.2-0.3
			c0.6,0.3,1.2,0.6,1.4-0.4c0.5,0,1.1,0.2,1.5-0.4c0.4,0.3,1,0.5,1.3,1c0.2,0.2,0.1,0.7,0.5,0.5c0.3-0.2,0.5-0.6,0.8-0.9
			C428,11.1,426.8,10.8,427.6,10.5z M437.6,11.4c-0.5,0.6-1.2,0.1-1.8,0.3c-0.1,0-0.2,0.1-0.2,0.2c0,0,0.1,0.1,0.1,0.1
			c0.6,0.1,1,0.4,1,1c0,0,0.2,0.1,0.3,0c0.5-0.2,0.3-1.3,1.2-1C437.9,11.6,437.7,11.4,437.6,11.4z M438.3,12.3
			c0.1,0.1,0.1,0.1,0.2,0.2C438.4,12.3,438.4,12.3,438.3,12.3C438.3,12.2,438.3,12.2,438.3,12.3z M438.4,12.1
			C438.4,12.1,438.4,12.1,438.4,12.1c0.1,0.3,0.2,0.2,0.2,0.2C438.6,12.2,438.5,12.2,438.4,12.1z M446.8,15.1
			c0.1-0.1,0.2-0.3,0.2-0.4c-0.1-0.1-0.2-0.2-0.2-0.3c-0.1,0.2-0.2,0.3-0.2,0.5C446.6,14.9,446.7,15,446.8,15.1z M442.6,14
			c0.1-0.2,0.2-0.3,0.2-0.5c0-0.1-0.1-0.2-0.2-0.3c-0.1,0.1-0.2,0.3-0.2,0.4C442.5,13.8,442.6,13.9,442.6,14z M447.2,12.5
			c-0.1-0.1-0.2-0.3-0.2-0.5c0.1-0.8-0.5-0.7-0.9-0.7c-0.7-0.1-0.8,0.1-0.3,0.5c0,0,0,0.1-0.1,0.1c-0.5,0.2-1,0.1-1.8-0.5
			c0,0-0.1-0.1-0.1-0.1c-1.1,0.9-2.2-0.6-3.3-0.1c-0.1,0-0.1,0-0.2,0c-0.3,0.2-0.6,0.3-0.9,0.5c0.3,0.3,0.5,0.6,0.8,0.9
			c0,0,0.2-0.1,0.2-0.1c0-1.1,0.8-0.4,1.3-0.5c0.2-0.1,0.5,0.5,0.8,0c0,0,0.5,0,0.5,0.1c0.1,0.5,0.2,0.6,0.7,0.3
			c0.5-0.3,0.8,0,0.9,0.7c0.1,0.7,0.1,0.6,0.9,0.5c0.5-0.1,1,0,1.5-0.1C447.6,13.5,447.7,13,447.2,12.5z"/>
		</clipPath>	
	</defs>
		<path clip-path="url(#underline-mask)" id="underline-path" fill="none" stroke="#828282" stroke-width="15" stroke-linecap="round" stroke-linejoin="round" stroke-miterlimit="10" stroke-dasharray="1000" stroke-dashoffset="-1000" d="M501,13.7c-6.6,3-43.7,0.5-58.9-0.8c-0.2,0-0.3,0-0.5-0.1c-48.2-9-289.6-8.7-296.2-8.7C43.6,9.2,0.1,5.3-1.4,5.1"/>
</svg>
