<svg id="Layer_1" data-name="Layer 1" xmlns="http://www.w3.org/2000/svg" xmlns:xlink="http://www.w3.org/1999/xlink" width="23.27" height="17.97" viewBox="0 0 23.27 17.97"><defs><mask id="mask" x="0" y="0" width="23.27" height="17.97" maskUnits="userSpaceOnUse"><g transform="translate(0 0)"><g id="mask-2"><polygon id="path-1" points="0 0 23.27 0 23.27 17.97 0 17.97 0 0" fill="#fff" fill-rule="evenodd"/></g></g></mask></defs><title>eye-closed</title><g id="Symbols"><g id="Hide-Icon"><g id="Group-3"><g mask="url(#mask)"><path id="Fill-1" d="M12.37,12.85,7.72,8.19a4.54,4.54,0,0,0-.07.75,4,4,0,0,0,4,4,4.42,4.42,0,0,0,.74-.07m4.24.28-1.79-1.8A4,4,0,0,0,9.24,5.75L7.67,4.18a8.69,8.69,0,0,1,4.19-.95c4.63.15,8.2,4.24,9.32,5.69a18.92,18.92,0,0,1-4.57,4.21M13.46,10,10.6,7.11a2.15,2.15,0,0,1,1-.28,2.1,2.1,0,0,1,2.11,2.11,2.15,2.15,0,0,1-.28,1m9.65-1.6c-.19-.28-4.61-6.8-11.18-7A11,11,0,0,0,6.27,2.79L3.49,0,2.17,1.31,18.83,18l1.31-1.32L18,14.49a22.09,22.09,0,0,0,5.09-4.93,1,1,0,0,0,.2-.58V8.89a.94.94,0,0,0-.16-.52m-11.7,6.27C6.77,14.49,3.21,10.4,2.09,9A20.54,20.54,0,0,1,5.26,5.74L3.93,4.4A23.5,23.5,0,0,0,.2,8.32a.9.9,0,0,0-.2.57V9a.94.94,0,0,0,.16.52c.18.28,4.6,6.8,11.18,7h.35a10.3,10.3,0,0,0,3.68-.69l-1.5-1.5a8.3,8.3,0,0,1-2.46.3" transform="translate(0 0)" fill="#333f48" fill-rule="evenodd"/></g></g></g></g></svg>