<svg id="Layer_1" data-name="Layer 1" xmlns="http://www.w3.org/2000/svg" xmlns:xlink="http://www.w3.org/1999/xlink" width="23.27" height="15.19" viewBox="0 0 23.27 15.19"><defs><mask id="mask" x="0" y="0" width="23.27" height="15.19" maskUnits="userSpaceOnUse"><g transform="translate(0 -0.47)"><g id="mask-2"><polygon id="path-1" points="0 0.47 23.27 0.47 23.27 15.66 0 15.66 0 0.47" fill="#fff" fill-rule="evenodd"/></g></g></mask></defs><title>eye-open</title><g id="Symbols"><g id="Show-Icon"><g id="Group-6"><path id="Fill-1" d="M11.63,6a2.11,2.11,0,1,0,2.11,2.11A2.1,2.1,0,0,0,11.63,6m0,6.09a4,4,0,1,1,4-4,4,4,0,0,1-4,4" transform="translate(0 -0.47)" fill="#333f48" fill-rule="evenodd"/><g id="Group-5"><g mask="url(#mask)"><path id="Fill-3" d="M2.09,8.08c1.12,1.45,4.68,5.54,9.32,5.69,3.32.11,6.61-1.81,9.77-5.72-1.12-1.45-4.69-5.54-9.32-5.69C8.53,2.25,5.25,4.17,2.09,8.08m9.6,7.58h-.35c-6.58-.23-11-6.75-11.18-7A.87.87,0,0,1,0,8.11V8a.9.9,0,0,1,.2-.57C3.87,2.68,7.82.35,11.93.47c6.57.23,11,6.75,11.18,7a.94.94,0,0,1,.16.52v.09a.9.9,0,0,1-.2.57c-3.57,4.64-7.4,7-11.38,7" transform="translate(0 -0.47)" fill="#333f48" fill-rule="evenodd"/></g></g></g></g></g></svg>