<?xml version="1.0" encoding="utf-8"?>
<!-- Generator: Adobe Illustrator 23.0.3, SVG Export Plug-In . SVG Version: 6.00 Build 0)  -->
<svg version="1.1" id="Layer_1" xmlns="http://www.w3.org/2000/svg" xmlns:xlink="http://www.w3.org/1999/xlink" x="0px" y="0px"
	 viewBox="0 0 10 10" style="enable-background:new 0 0 10 10;" xml:space="preserve">
<style type="text/css">
	.st0{fill-rule:evenodd;clip-rule:evenodd;fill:#0E76A8;}
</style>
<title>Icons / -Global / Download / Slate / 16</title>
<desc>Created with Sketch.</desc>
<g id="Global">
	<g transform="translate(-535.000000, -996.000000)">
		<g id="Sections" transform="translate(132.000000, 152.000000)">
			<g id="Icons" transform="translate(0.000000, 721.000000)">
				<g id="Examples" transform="translate(0.000000, 112.000000)">
					<g id="Large">
						<g transform="translate(400.000000, 8.000000)">
							<path id="LinkedIn" class="st0" d="M4.2,5.4c0.3,0,0.6-0.1,0.8-0.4c0.2-0.2,0.4-0.5,0.4-0.8S5.3,3.6,5.1,3.4
								C4.8,3.1,4.5,3,4.2,3S3.6,3.1,3.4,3.4C3.1,3.6,3,3.9,3,4.2s0.1,0.6,0.4,0.8C3.6,5.3,3.9,5.4,4.2,5.4z M8.6,13V9.7
								c0-0.5,0.1-0.9,0.2-1.2C9,8.2,9.4,8,9.8,8c0.5,0,0.8,0.2,1,0.6c0.1,0.2,0.1,0.6,0.1,1.2V13H13V9.3c0-1-0.1-1.8-0.4-2.3
								c-0.4-0.6-1.1-0.9-2-0.9c-0.5,0-0.9,0.1-1.2,0.4C8.9,6.7,8.7,6.9,8.6,7.2h0V6.3h-2V13H8.6z M5.2,13V6.3H3.2V13H5.2z"/>
						</g>
					</g>
				</g>
			</g>
		</g>
	</g>
</g>
</svg>
