<?xml version="1.0" encoding="UTF-8"?>
<svg width="10px" height="10px" viewBox="0 0 10 10" version="1.1" xmlns="http://www.w3.org/2000/svg" xmlns:xlink="http://www.w3.org/1999/xlink">
    <!-- Generator: Sketch 54.1 (76490) - https://sketchapp.com -->
    <title>Icons / -Global / Download / Slate / 16</title>
    <desc>Created with Sketch.</desc>
    <g id="Global" stroke="none" stroke-width="1" fill="none" fill-rule="evenodd">
        <g id="Global-Styles-/-04---Visual-Assets" transform="translate(-535.000000, -996.000000)" fill="#333F48">
            <g id="Sections" transform="translate(132.000000, 152.000000)">
                <g id="Icons" transform="translate(0.000000, 721.000000)">
                    <g id="Examples" transform="translate(0.000000, 112.000000)">
                        <g id="Large">
                            <g id="Visual-Asset/Icons/-Global/LinkedIn/Large/Slate" transform="translate(400.000000, 8.000000)">
                                <path d="M4.20535714,5.41071429 C4.53273821,5.41071429 4.81547608,5.29166678 5.05357143,5.05357143 C5.29166678,4.81547608 5.41071429,4.53273821 5.41071429,4.20535714 C5.41071429,3.87797608 5.29166678,3.59523821 5.05357143,3.35714286 C4.81547608,3.11904751 4.53273821,3 4.20535714,3 C3.87797608,3 3.59523821,3.11904751 3.35714286,3.35714286 C3.11904751,3.59523821 3,3.87797608 3,4.20535714 C3,4.53273821 3.11904751,4.81547608 3.35714286,5.05357143 C3.59523821,5.29166678 3.87797608,5.41071429 4.20535714,5.41071429 Z M8.60267857,13 L8.60267857,9.69642857 C8.60267857,9.17559535 8.67708322,8.78125 8.82589286,8.51339286 C9.01934535,8.15625 9.35416678,7.97767857 9.83035714,7.97767857 C10.3065475,7.97767857 10.6264882,8.17857143 10.7901786,8.58035714 C10.8794643,8.81845249 10.9241071,9.20535714 10.9241071,9.74107143 L10.9241071,13 L13,13 L13,9.33928571 C13,8.3125 12.8511904,7.55357143 12.5535714,7.0625 C12.1666668,6.45238107 11.4895832,6.14732143 10.5223214,6.14732143 C10.0461311,6.14732143 9.62946429,6.26636893 9.27232143,6.50446429 C8.94494036,6.69791678 8.70684535,6.94345249 8.55803571,7.24107143 L8.53571429,7.24107143 L8.53571429,6.32589286 L6.54910714,6.32589286 L6.54910714,13 L8.60267857,13 Z M5.23214286,13 L5.23214286,6.32589286 L3.15625,6.32589286 L3.15625,13 L5.23214286,13 Z" id="LinkedIn"></path>
                            </g>
                        </g>
                    </g>
                </g>
            </g>
        </g>
    </g>
</svg>