<?xml version="1.0" encoding="utf-8"?>
<!-- Generator: Adobe Illustrator 24.0.1, SVG Export Plug-In . SVG Version: 6.00 Build 0)  -->
<svg version="1.0" xmlns="http://www.w3.org/2000/svg" xmlns:xlink="http://www.w3.org/1999/xlink" x="0px" y="0px"
	 viewBox="0 0 181 35" style="enable-background:new 0 0 181 35;" xml:space="preserve" width="181" height="35">
	<defs>
		<clipPath id="scribble-path-2-mask">
			<path d="M1,3.8c-0.3,0.3-0.5,0.3-0.6,0C0.2,3.6,0.1,3.4,0,3.2c0-0.1,0.1-0.3,0.2-0.3
			c0.3-0.3,0.5-0.5,0.5-0.9c0-0.1,0.1-0.2,0.2-0.3c0.6-0.4,1.2-0.9,1.9-1.2C3.2,0.3,3.6,0.2,4,0.4c0.2,0,0.4,0.2,0.5,0.1
			c0.6-0.4,1.2-0.2,1.8-0.2c0.6,0,1.2,0.1,1.8,0c0.5-0.1,1-0.1,1.4-0.2c0.3-0.1,0.7-0.1,0.9,0.2c0.6-0.1,1.2,0.2,1.7,0.2
			c0.6,0,1.1,0.3,1.7,0.3c0.2,0,0.4,0.2,0.5,0.3c0.2,0.1,0.2,0.2,0,0.4c-0.3,0.4-0.8,0.4-1,0.9c0.4,0,0.9,0,1.3,0.1
			c1,0.4,2.1,0.3,3.1,0.5c0.9,0.1,1.8,0.2,2.7,0.6c0.1,0,0.2,0.1,0.3,0c1.2-0.2,2.4,0.1,3.5,0.3c1.1,0.1,2.1,0.2,3.2,0.2
			c0.1,0,0.2,0,0.3,0.1c0.6,0.5,1.2,0.4,1.9,0.4c1.4,0.1,2.9,0.1,4.3,0.2c0.2,0,0.4,0.1,0.5,0.2c0.5,0.5,1.2,0.1,1.7,0.5
			c0.1,0.1,0.4-0.2,0.7-0.2c0.8,0,1.6,0.3,2.5,0.2c0.8,0,1.7-0.2,2.5,0.1c0.7-0.3,1.3,0.1,1.9,0.1c1.2,0,2.5,0,3.6,0.2
			c0.8,0.2,1.5,0.1,2.3,0.2c0.6,0,1.1,0.1,1.6,0.2c0.5,0.1,1-0.2,1.5,0.2c0.7-0.1,1.4,0.3,2,0.2c0.5-0.1,1.1-0.1,1.6-0.2
			c0.9-0.1,1.8,0.3,2.7,0.2c0,0,0.1,0,0.1,0C59.7,7.6,60.2,7,60.7,7c0.6,0,1.2-0.2,1.8,0.2c0.2,0.1,0.5,0,0.8,0
			c1.2-0.2,2.3,0.3,3.5,0.2c0.4,0.4,0.9,0,1.3,0c0.4,0,0.9,0.1,1.3-0.1c0.3-0.1,0.8,0.1,1.2,0.1c1.4,0,2.9,0.4,4.3,0.2
			c0.9,0.4,1.8,0.2,2.7,0.2c1.2,0,2.3,0.2,3.4,0.8c0.2,0.1,0.4,0.1,0.6,0.1c0.3,0.1,0.6-0.2,1,0c0.3,0.2,0.7,0,1.1,0
			c0.4,0,0.8,0,1.1,0c0.5,0,0.9,0.1,1.4,0.2c0.4,0.1,0.9-0.2,1.3,0.2c0.1,0.1,0.4-0.2,0.6-0.2C89,9.1,90,8.8,90.9,9.3
			c0.1,0,0.1,0,0.2,0c1.1,0.1,2.3,0.1,3.4,0.2c0.4,0,0.8,0.2,1.3,0.2c0.4,0,0.9-0.1,1.3,0.2c0.2,0.1,0.5,0.1,0.7,0
			c0.4-0.3,0.6,0,0.9,0.1c0.1,0,0.2,0.2,0.3,0.1c0.4-0.3,0.8-0.3,1.2-0.2c0.4,0.1,0.7-0.3,1-0.1c0.5-0.3,0.8-0.3,1.1,0.3
			c0.1,0.3,0.5,0.3,0.7,0.2c0.5-0.3,0.9-0.3,1.3,0c0.2,0.1,0.4,0,0.7,0c1,0,2,0,3,0c0.5,0,1.1-0.1,1.5,0.1c0.4,0.2,1-0.1,1.3,0.3
			c0,0,0.1,0,0.2,0c1.1,0,2.1,0,3.2,0.2c0.4,0.1,0.9,0.2,1.4-0.2c0.1-0.1,0.4-0.1,0.5,0c0.4,0.3,0.9,0.2,1.4,0.2c1.4,0,2.7,0,4,0.5
			c0.1,0,0.2,0,0.3,0c1,0.1,2,0,2.9,0.3c1,0.3,2.1,0.1,3.1,0.2c0.3,0,0.6-0.1,0.9-0.2c0.4,0.4,1,0,1.2,0.3c0.3,0.3,0.4-0.3,0.6,0.1
			c0.1,0.1,0.4,0,0.6,0.1c0.2,0.1,0.5,0.1,0.7,0.2c0.2,0.1,0.4,0.2,0.6,0.2c0.9,0,1.7,0,2.6,0c0.2,0,0.5,0,0.5,0
			c0.2,0.7,0.6,0.4,1,0.2c0.2-0.1,0.4-0.1,0.6,0c0.5,0.3,0.9,0.3,1.4,0c0.2-0.1,0.5,0.2,0.8,0c0.8,0.4,1.7,0.3,2.5,0.6
			c0.3,0.1,0.7,0,1-0.1c1.1-0.3,1.3-0.3,2.2,0c0.2,0.1,0.4,0,0.7,0c0.6,0,1.3,0,1.9,0c1.1,0.1,2.1,0,3.2,0.3c0.5,0.1,1.1,0,1.6,0.3
			c0.6,0.3,1.2,0.1,1.7,0.1c0.6,0.1,1.1,0,1.7,0c1,0,2,0.2,3,0.3c1,0.1,2,0.4,3.1,0.4c0.2,0,0.4,0.1,0.6,0.2c0.2,0,0.4,0.1,0.5,0
			c0.5-0.3,1.1-0.3,1.5-0.1c0.4,0.1,0.8,0.1,1.2,0.2c0.5,0.1,1,0.1,1.5,0.2c0.5,0.1,1-0.2,1.4,0.2c0.1,0.1,0.2,0.1,0.3,0
			c0.8-0.5,1.6-0.2,2.4,0.1c0.3,0.1,0.6,0.2,0.9,0.2c0.8,0,1.7,0,2.5,0c1.3-0.1,2.6,0.2,3.9,0.2c0.4,0,0.8,0.2,1,0.6
			c0.1,0.2,0.2,0.4,0.4,0.3c0.5-0.2,0.6,0.3,0.7,0.5c0.3,0.9,0,1.7-0.2,2.6c-0.1,0.4-0.6,0.6-1.1,0.5c-0.3,0-0.8-0.1-1,0.1
			c-0.4,0.4-0.8,0.4-1.2,0.4c-0.3,0.1-0.8,0.4-1,0.2c-0.3-0.2-0.5,0.1-0.8-0.2c-0.2-0.2-0.7-0.1-1,0c-1.3,0.1-2.5-0.3-3.7-0.2
			c-0.7-0.4-1.4-0.2-2.1-0.2c-0.4,0-0.9,0.1-1.2-0.4c-0.6,0-1.2,0-1.7,0c-0.2,0-0.4,0.2-0.5,0.1c-0.4-0.1-0.7-0.3-1-0.4
			c-0.3,0.4-0.8,0.3-1,0.1c-0.4-0.3-0.9-0.1-1.3-0.2c-0.4,0-0.8,0.1-1.1-0.1c-0.3-0.2-0.6-0.1-1-0.1c-0.4,0-0.7,0.1-1-0.2
			c0,0-0.1,0-0.1,0c-0.9-0.1-1.9-0.1-2.8-0.2c-0.3,0-0.7-0.3-0.9-0.1c-0.2,0.1-0.5-0.2-0.7,0.1c-0.2-0.4-0.6-0.2-0.9-0.2
			c-0.3,0-0.6,0-0.9,0c-0.3,0-0.6-0.1-0.9,0.1c-0.1,0.1-0.5-0.1-0.8-0.2c-0.3-0.1-0.7-0.3-0.8-0.2c-0.3,0.3-0.5-0.1-0.7,0
			c-0.3,0-0.6,0-0.9,0c-0.3,0-0.5-0.2-0.8-0.2c-0.5,0-1-0.1-1.5,0.2c-0.6,0.3-1.3-0.2-2-0.2c-0.2-0.4-0.4,0.3-0.7,0
			c-0.2-0.1-0.5-0.1-0.7-0.2c-0.4-0.1-0.9,0.1-1.3-0.2c-0.1-0.1-0.3,0-0.5,0.1c-0.6,0.2-1.2,0.2-1.8-0.1c-0.3-0.2-0.7-0.3-1-0.2
			c-0.5,0-1,0-1.5,0c-0.6,0-1.2,0.1-1.8-0.2c-0.2-0.1-0.6-0.1-1,0.1c-0.1,0.1-0.5-0.1-0.8-0.1c-0.4-0.1-0.9,0.2-1.3-0.2
			c-0.4,0.5-0.7-0.1-1.2-0.1c-0.4,0.1-0.8,0-1.2,0c-0.5,0-0.9,0-1.4,0c-0.5,0-0.9,0.1-1.3,0c-0.9-0.2-1.8-0.1-2.6-0.3
			c-0.6-0.1-1.3,0.1-1.7-0.5c-0.2-0.2-0.2,0.1-0.3,0.1c-0.6,0.1-1.1,0.2-1.7,0.2c-0.3,0-0.7-0.2-1-0.2c-0.4,0-0.8,0-1.1,0
			c0,0-0.1,0-0.1,0c-0.3-0.1-0.6-0.3-0.9-0.3c-0.3,0-0.6,0.2-0.9,0.3c-0.3,0.1-0.6,0.1-0.8,0c-0.3-0.2-0.5-0.3-0.7,0
			c-0.6-0.4-1.3-0.1-1.9-0.3c-0.2-0.1-0.3-0.1-0.5-0.1c-2.7,0.2-5.4-0.3-8.2-0.2c-0.6,0-1.3,0-1.9,0c-0.2,0-0.6,0.1-0.5-0.3
			c0,0-0.3-0.1-0.3-0.1c-0.3,0.4-0.7,0.1-1,0.3c-0.3,0.2-0.5,0.2-0.8,0c-0.2-0.1-0.4-0.1-0.6-0.1c-0.7,0-1.4,0-2,0
			c-0.3,0-0.8,0.2-1-0.4c0,0-0.2-0.1-0.3,0c-0.5,0.5-1.3,0-1.9,0.4c-0.1,0.1-0.3,0-0.4-0.1c-0.2-0.2-0.3-0.2-0.6,0
			c-0.3,0.2-0.1-0.3-0.2-0.3c0,0-0.1,0-0.2,0c-0.1,0-0.3,0.2-0.4,0.1c-0.5-0.2-1.1,0-1.6,0c-0.6,0-1.1,0-1.7,0
			c-0.5,0-0.9-0.3-1.5-0.2c-0.5,0.1-1,0-1.5,0c-0.7,0-1.3,0.4-2.1,0.2c-0.4-0.1-0.8,0.1-1.1-0.2c-0.3,0.4-0.7,0.2-1,0.2
			c-0.5,0-1,0.1-1.5-0.2c-0.3-0.1-0.8,0.1-1.2,0.1c-0.4,0-0.9,0.2-1.2,0.1c-0.6-0.3-1.2-0.3-1.8,0c-0.5-0.4-1.2,0.1-1.7-0.4
			c-0.2-0.2-0.5-0.3-0.8-0.4c-0.3-0.1-0.8-0.1-0.8,0c-0.3,0.6-0.6,0.4-1,0.2c-0.1-0.1-0.3-0.1-0.4-0.1c-0.6,0.4-1.3,0.2-1.9,0.2
			c-1.4,0.1-2.8,0.4-4.2,0.2c-0.3,0-0.7,0.1-0.9-0.2c0,0-0.2-0.1-0.2,0c-0.8,0.5-1.7-0.4-2.4,0.2c-0.7,0-1.4,0-2,0
			c-0.5,0-1-0.2-1.5,0.2c-0.1,0.1-0.3,0.1-0.3,0c-0.3-0.2-0.5-0.2-0.8-0.2c-1.2,0-2.4-0.1-3.6,0c-0.6,0.1-1.1,0.1-1.7,0
			c-1.2-0.1-2.4-0.1-3.6,0c-0.4,0-0.7,0.3-1.2,0.2c-0.3,0-0.6,0.4-0.9,0.2c-0.3-0.3-0.6-0.1-0.9-0.2c-0.1,0-0.2,0-0.2,0
			c-0.6-0.6-1.1-0.1-1.7-0.1c-0.3,0-0.6-0.3-0.9,0c-0.2,0.2-0.6,0.2-0.9-0.1c-0.1,0.1-0.3,0.2-0.4,0.3c0,0,0.1,0.2,0.2,0.3l0.6,0
			c0.6,0,1.1,0.3,1.7,0.3c0.1,0,0.2,0.1,0.3,0.1c0.9,0.1,1.8,0.1,2.7,0.2c0.3,0,0.7,0.2,1,0.2c0.3,0,0.7-0.3,0.8-0.2
			c0.3,0.2,0.6,0.1,0.8,0.2c0.4,0.1,0.8,0.2,1.3,0.2c0.5,0,0.8,0.2,1.2,0.4c0.5,0.2,1,0.1,1.5,0.3c0.3,0.1,0.7-0.1,0.9,0.2
			c0.1,0.1,0.4,0,0.5-0.1c0.5-0.3,1-0.2,1.5-0.1c0.3,0.1,0.6,0.1,0.8,0.2c0.1,0,0.3,0,0.3,0c0.3,0.4,0.7,0.5,1.1,0.4
			c0.4,0,0.8,0,1.2-0.2c0.3-0.2,0.9-0.2,1.3,0.1c0.1,0,0.1,0.1,0.2,0.1c0.7,0,1.3,0.1,1.9,0.4c0.2,0.1,0.4,0,0.7,0.1
			c0.9,0,1.8,0.1,2.7,0c0.4,0,0.7,0.2,1.2,0.1c0.3-0.1,0.8,0.1,1.2,0.2c0.4,0,0.8,0.3,1.2,0.4c0.5,0.1,1,0.1,1.4,0.1
			c0.6,0,1.2,0,1.7,0.3c0.2,0.1,0.4,0.1,0.6,0.1c0.6,0,1.2,0,1.8,0c1,0,2,0.4,3,0.2c0.5,0.4,1.1,0.2,1.7,0.2c0.5,0,1,0,1.5,0.2
			c0.4,0.2,1-0.1,1.5,0.2c0.3,0.2,0.8,0,1.2,0c0.3,0,0.6-0.1,0.9,0c0.3,0.1,0.7,0.5,0.9,0.4C86,21,86.3,21,86.7,21
			c0.5,0,1-0.2,1.4,0.1c0.4,0.2,0.9-0.2,1.2,0.3c0,0.1,0.3,0.1,0.3,0c0.3-0.4,0.6,0.1,0.9-0.1c0.7-0.3,1-0.2,1.5,0.4
			c0.2,0.2,0.5,0.2,0.6,0.1c0.5-0.3,1-0.1,1.6-0.3c0.3-0.1,0.9,0,1.2,0.2c0.3,0.2,0.6,0.1,0.8,0.1c0.6,0,1.2-0.1,1.8,0.4
			c0.1,0.1,0.2,0.1,0.3,0.1c0.2,0,0.4,0,0.6,0c1.7-0.2,3.5,0.3,5.2,0.2c0.1,0,0.3,0.1,0.4,0.1c0.5,0.2,1.1,0.3,1.7,0.4
			c0.5,0,1.1,0.1,1.6,0.2c0.6,0.1,1.1,0.2,1.7,0.2c0.6,0,1.1,0,1.7,0c0.6,0,1.1,0,1.7,0c0.4,0,0.8,0.2,1.3,0.2
			c0.4,0.1,0.8-0.1,1.2,0.2c0.2,0.2,0.7,0,1,0c0.9,0,1.7,0.1,2.5,0.4c0.2,0.1,0.5,0,0.8,0c0.2,0,0.4,0,0.5,0.1
			c0.3,0.4,0.6,0.4,0.9,0c0.1-0.1,0.2-0.2,0.3-0.1c0.8,0.4,1.6,0.2,2.4,0.2c0.8,0,1.5,0.1,2.1,0.6c0.1,0.1,0.2,0.1,0.3,0.1
			c0.5,0.1,1.1,0.2,1.6,0.2c0.5,0,1.1,0,1.6,0c0.7-0.1,1.5,0.1,2.2,0.3c0.4,0.1,0.8,0.2,1.3,0.2c0.7,0,1.4,0.1,2.1,0.3
			c0.5,0.2,1.1,0.1,1.6,0.1c0.4,0,0.8,0.1,1.1,0.3c0.3,0.2,0.5,0.3,0.9,0c0.1-0.1,0.4,0,0.6,0c0.6,0.2,1.2,0.4,1.9,0.3
			c0.9,0,1.7,0.1,2.6,0c0.8-0.1,1.5,0.3,2.3,0.3c0.1,0,0.3,0.1,0.3,0.2c0.1,0.5,0.5,0.5,0.8,0.4c0.8-0.1,1.5,0.1,2.3-0.2
			c0.3-0.1,0.8-0.2,1.2,0.1c0.1,0.1,0.2,0,0.3,0c0.5,0,0.9,0,1.4,0.2c0.4,0.2,0.9,0,1.4,0.2c0.2,0.1,0.5,0.1,0.8,0
			c0.6-0.1,1.1,0.3,1.7,0.2c0.1,0,0.1,0,0.2,0.1c0.3,0.3,0.4,0.8,1,0.6c0.3,0.3,0.6,0.5,1,0.5c0.1,0,0.2,0.1,0.3,0.2
			c0.9,0.1,1.7,0.1,2.6,0.2c0.6,0.1,1.3,0.2,1.9,0.2c0.6,0,1.3,0,1.9,0c0.4,0,0.7,0.5,1.1,0c0.4,0.3,0.8,0.2,1.2,0.2
			c0.4,0,0.8,0,1.2,0c0.8,0,1.5,0.1,2.1,0.7c0.1,0.1,0.3,0.1,0.3,0.3c0,0.2,0.2,0.5,0.3,0.5c0.6,0.2,0.4,0.4,0.2,0.8
			c-0.2,0.3-0.2,0.8-0.7,0.9c-0.8,0.2-1.6,0.3-2.3,0.8c-0.1,0.1-0.4,0-0.4-0.1c-0.3-0.4-0.6-0.2-1-0.2c-0.6,0.1-1.3,0.1-2-0.1
			c-0.6-0.2-1.3,0-2,0c-0.3,0-0.7,0.1-0.9,0c-0.3-0.2-0.5,0-0.8-0.1c-0.3-0.1-0.6,0-0.8-0.2c-0.3-0.3-0.5,0.4-0.7,0
			c-0.1-0.2-0.6-0.4-0.7-0.3c-0.3,0.1-0.5,0.2-0.8,0.2c-0.5-0.1-0.9,0.2-1.4,0.2c-0.4,0-0.8-0.3-1.3-0.2c-0.9,0.1-1.7,0.2-2.6,0.2
			c-0.9,0-1.8,0-2.7,0c-0.3,0-0.5,0.2-0.8,0.2c-0.6,0.1-1.2-0.1-1.8-0.3c-0.2-0.1-0.4-0.2-0.6-0.2c-1.4,0.3-2.4,0.3-3.9,0
			c-0.1,0-0.2,0-0.3,0c-0.6-0.1-1.2,0.2-1.7-0.2c-0.5,0.4-1.1,0.1-1.6,0.2c-0.2,0-0.5,0.2-0.7,0.1c-0.2,0-0.4-0.2-0.6-0.3
			c-0.1,0-0.2,0.1-0.2,0.1c-0.8,0-1.7,0.1-2.5-0.1c-0.7-0.2-1.5,0-2.2,0c-0.2,0-0.5,0.1-0.7,0c-0.5-0.1-1-0.6-1.6-0.1
			c-0.9-0.1-1.8,0.2-2.6-0.2c-0.2-0.1-0.5-0.1-0.8,0c-0.2,0.1-0.4,0.3-0.4-0.2c0-0.3-0.2-0.4-0.4-0.2c-0.3,0.3-0.6,0.4-1,0.4
			c-0.5,0-1,0.3-1.5,0.2c-0.8-0.2-1.6-0.2-2.4-0.4c-0.9-0.2-1.9,0-2.8,0c-0.2,0.4-0.3-0.1-0.5-0.1c-0.6,0.1-1.3-0.2-1.9,0.2
			c0,0-0.3-0.1-0.3-0.2c0-0.3-0.2-0.3-0.4-0.2c-0.8,0.4-1.7,0.3-2.5,0.1c-0.5-0.1-1.1-0.2-1.5-0.1c-0.6,0.2-1.1,0.3-1.6,0
			c-0.2-0.1-0.4,0-0.7,0c-0.9,0.2-0.9,0.2-1.8,0c-0.1,0-0.2-0.1-0.2,0c-0.7,0.5-1.4,0.2-2.2,0.2c-0.7,0.1-1.4,0-2.1,0
			c-0.2,0-0.4,0-0.5-0.1c-0.3-0.1-0.7-0.2-1-0.2c-0.3,0.1-0.6,0.3-0.8,0.2c-0.3-0.2-0.5-0.1-0.7-0.2c-0.3,0-0.6,0.1-0.8-0.2
			c0,0-0.3,0.2-0.4,0.2c-0.7,0-1.4,0.1-2,0c-0.6-0.1-1.2,0.1-1.8-0.2c-0.4-0.2-1.1,0-1.6-0.3c-0.2-0.1-0.5,0.1-0.7,0.2
			c-0.3,0.2-0.7,0.3-1,0.5c-0.4-0.4-0.7,0.1-1.1,0c-0.2-0.1-0.5,0-0.6,0.1c-0.4,0.2-0.6,0.2-0.9-0.1C89.4,33,89.2,32.9,89,33
			c-0.9,0.2-0.8,0.2-2,0c-0.8-0.1-1.6,0-2.3,0.3c-0.5,0.2-1,0.3-1.4-0.2C83.3,32.9,83,32.9,83,33c-0.2,0.3-0.5,0.1-0.7,0.2
			c-0.4,0.1-0.7-0.3-1.1,0c-0.3,0.2-0.8,0-1.2,0c-0.4,0-0.8,0-1.1,0c-0.4,0-0.8,0-1.2,0c-0.6-0.1-1.2-0.2-1.8-0.2
			c-0.3,0-0.6,0.1-0.9,0.2c-0.9,0.4-1.9,0.3-3.1,0.1c-0.3-0.1-0.9-0.4-1.1,0.3c-0.5,0-1,0-1.5,0c-0.2,0-0.3-0.1-0.5-0.1
			c-0.8,0-1.6,0-2.4-0.2c-0.8-0.3-1.6,0.3-2.4,0.5c-0.3,0.1-0.6,0.2-0.9,0.2c-1,0-2,0-3,0c-0.3,0-0.7,0.2-0.7-0.4
			c-0.1,0-0.2,0.1-0.2,0.1c-0.8,0.2-1.5,0.6-2.3,0.1c-0.4,0.3-0.6,0.2-0.7-0.2c0,0-0.2-0.1-0.3,0c-0.5,0.4-1.1,0.2-1.7,0.2
			c-0.6,0-1.1-0.1-1.7,0.2c-0.3,0.1-0.8,0.2-1.2-0.1c-0.2-0.2-0.4,0.2-0.6,0.2c-0.6-0.1-1.1,0.2-1.7,0.1c-0.5-0.1-1.1,0-1.6-0.1
			c-0.2-0.1-0.3-0.2-0.5,0c-0.2,0.3-0.5,0.3-0.8,0.1c-0.4-0.2-0.4-0.2-1.2-0.1c-0.3,0-0.6,0.1-0.9-0.2c-0.3-0.3-0.8-0.3-1.2-0.2
			c-0.2,0-0.7-0.1-0.2,0.3c-0.1,0-0.2,0.1-0.3,0.1c-0.7,0-1.5-0.1-2.1,0.4c0,0-0.1,0-0.1,0c-1.1-0.1-2.1,0.4-3.2,0.2
			c-0.1,0-0.3,0-0.4-0.1c-0.3-0.2-0.6-0.1-0.9,0c-0.8,0.3-1.7,0.1-2.5,0.1c-0.9-1-2-0.1-3-0.2c-0.1,0-0.3,0.1-0.4,0.1
			c-0.3,0.2-0.7-0.1-1,0.3c-0.5-0.2-0.9-0.5-1.4-0.7c-0.2-0.1-0.3-0.3-0.4-0.4c-0.4-0.1-0.5-0.5-0.5-0.8c-0.1-0.3,0-0.5,0-0.8
			c-0.2-1,0.3-1.7,1-2.3c0.4-0.3,1-0.6,1.5-0.7c1.2-0.2,2.4-0.8,3.7-0.7c1-0.4,2-0.2,3-0.2c1,0,2-0.2,3-0.4c0.1,0,0.3,0.1,0.4,0.1
			c0.6-0.1,1.2,0.2,1.7-0.2c0.5,0.1,1-0.1,1.5,0.1c0.3,0.1,0.7-0.1,1.1-0.1c1.6,0,3.2,0,4.9,0c0.4,0,0.7,0.2,1.1-0.2
			c0,0,0.1-0.1,0.2,0c1.1,0.5,2.4,0.1,3.5,0.2c0.4,0,0.7-0.1,1.1,0.2c0.1,0.1,0.4,0,0.5-0.1c0.5-0.4,1.1,0,1.7-0.4
			c0.5-0.4,1.1-0.2,1.7-0.2c1.4,0,2.8,0,4.2,0c0.5,0,1,0,1.5-0.2c0.4-0.2,1-0.2,1.5,0.1c0.1,0.1,0.5,0.1,0.6,0
			c0.4-0.3,0.8-0.2,1.2-0.2c2.4,0,4.9,0,7.3,0c0.6,0,1.1,0.2,1.7,0.2c0.6,0,1.2,0.1,1.7,0c1.8-0.4,3.6-0.3,5.4-0.2
			c3,0.2,6,0.1,8.9,0.2c0.2,0,0.4,0.1,0.6,0.2c0.1,0,0.3,0.1,0.4,0c0.8-0.4,1.5,0.1,2.3,0c0.8-0.1,1.6-0.2,2.4,0
			c1.4,0.3,2.7,0.1,4.1,0.2c0.6,0,1.2-0.1,1.8-0.2c0.2,0,0.5-0.1,0.5,0c0.3,0.6,0.8,0.2,1.2,0.2c0.6,0,1.2-0.2,1.7,0.2
			c0.1,0.1,0.3,0,0.4,0c1,0.1,2-0.1,3,0.2c0.4,0.1,0.9,0.1,1-0.5c0-0.2,0.2-0.4,0.2-0.5c-0.2-0.3-0.3-0.1-0.5,0.1
			c-0.1,0.1-0.3,0.1-0.4,0c-0.6-0.2-1.1-0.2-1.7-0.2c-0.2,0-0.4-0.2-0.4-0.4c-0.1-0.2-0.2-0.3-0.4-0.2c-0.4,0.4-0.9,0.2-1.4,0.2
			c-0.7,0-0.9,0-1.4,0.2c0,0,0-0.1,0-0.1c-0.6-0.1-1.2-0.5-1.8,0c-0.1,0.1-0.3,0.1-0.4,0.1c-0.3,0-0.3-0.2-0.2-0.3
			c0.2-0.3,0.2-0.3-0.1-0.3c-0.3,0-0.5,0-0.7-0.2c-0.2,0.1-0.4,0.3-0.6,0.4c-0.5,0.1-0.9,0.1-1.4,0.1c-0.2,0-0.4,0-0.6,0
			c-0.2-0.1,0.7-0.5-0.1-0.4c-0.3,0-0.8-0.3-0.8,0.3c0,0-0.1,0-0.2,0c-0.6-0.2-1.1-0.7-1.8-0.2c-0.4-0.4-0.9-0.1-1.4-0.2
			c-0.1,0-0.3-0.1-0.4-0.2c-0.3-0.4-0.8-0.4-1.1-0.2c-0.9,0.4-1.8,0.1-2.7,0.2c-0.3,0-0.1-0.3-0.1-0.5c0-0.1,0,0-0.1,0
			c0,0,0.1,0.1,0.1,0.1c0,0,0.1-0.1,0.1-0.1c0,0,0,0-0.1,0c-0.2,0.2-0.3-0.1-0.6,0c-0.5,0.2-1.1,0.1-1.6,0.1c-0.1,0-0.2-0.1-0.3-0.1
			c0.1-0.1,0.3-0.1,0.3-0.2c0.1-0.1,0.1-0.2,0.1-0.3c-0.1,0-0.3-0.1-0.4-0.1c-0.4,0.4-0.8,0.7-1.4,0.6c-0.1,0-0.2,0-0.2,0
			c-0.3-0.1-0.4-0.8-0.9-0.4c-0.3,0.3-0.7,0.1-1.1,0.1c-0.4,0-0.7,0.1-1-0.3c0-0.1-0.2-0.1-0.3-0.1c-0.4,0-0.8,0-1.2,0
			c-0.4,0-0.8-0.2-1.1-0.2c-0.3,0-0.6-0.1-0.8,0.2c-0.1,0.1-0.5,0.1-0.6,0c-0.3-0.4-1,0-1.3-0.5c-0.2-0.3-0.4-0.3-0.8-0.2
			c-0.2,0.1-0.5,0.1-0.7,0.2c-0.6,0.3-1.1-0.2-1.7-0.2c0,0,0-0.1-0.1-0.2c-0.3-0.4-0.3-0.4-0.7-0.1c-0.5,0.5-0.8,0.5-1.3,0
			c0-0.1,0,0-0.1,0c0,0,0.1,0.1,0.1,0.1c0,0,0.1-0.1,0.1-0.1c0,0,0,0-0.1,0c-0.3,0-0.5-0.1-0.7,0c0-0.5-0.4-0.3-0.6-0.3
			c-0.4,0-0.8,0.2-1.3,0.2c-0.4,0-0.8-0.1-1.1-0.2c-0.1,0-0.2,0-0.3,0c-1.3,0.2-2.5-0.2-3.7-0.2c-0.1,0-0.3-0.1-0.4-0.2
			c-0.6-0.3-1.2-0.5-1.8-0.1c-0.1,0.1-0.4,0.1-0.5,0c-0.7-0.3-1.4-0.2-2.1-0.2c-0.7,0-1.4-0.2-2.1-0.4c-0.5-0.1-1-0.1-1.5-0.1
			c-0.6,0-1.1-0.1-1.5-0.5c-0.4-0.4-0.9-0.2-1.4-0.2c0,0.5-0.4,0.4-0.7,0.4c-0.3,0-0.6,0.1-0.8-0.2c-0.1-0.1-0.4,0-0.7,0
			c-0.2,0-0.4,0.1-0.4,0c-0.4-0.7-1-0.2-1.4-0.2c-0.4,0-0.9,0.1-1.2-0.3c-0.1-0.1-0.4-0.1-0.6,0c-0.5,0.2-1,0.3-1.4-0.2
			c-0.4,0.1-0.8-0.7-1.2-0.1c0,0-0.1,0-0.2,0c-0.5-0.1-0.9-0.1-1.4-0.2c-0.4-0.1-0.9,0.1-1.3-0.1c-0.2-0.1-0.6-0.1-0.9-0.1
			c-0.6,0-1.3,0.2-1.9,0c-0.5-0.2-1.1-0.1-1.7-0.4c-0.4-0.2-1-0.1-1.6,0c-0.6,0.1-1.2-0.1-1.8-0.3c-0.6-0.2-1.2-0.4-1.9-0.4
			c-1.3,0.1-2.5-0.4-3.7-0.2c-0.4-0.4-1.1,0-1.5-0.4c-0.1-0.1-0.4,0-0.6,0.1c-0.3,0.1-0.4,0.2-0.5-0.2c0-0.1-0.2-0.2-0.3-0.2
			c-0.4,0-0.8,0-1.2,0c-0.4,0-0.8-0.1-1.1-0.2c-0.2,0-0.4-0.1-0.5-0.2c-0.3-0.3-0.5-0.3-0.8-0.1c-0.3,0.2-0.6,0.2-1,0
			c-0.2-0.1-0.5-0.4-0.8-0.1c-0.1,0.1-0.6-0.1-0.8-0.2c-0.3-0.2-0.6-0.2-0.9-0.2c-0.3,0-0.6,0-0.9,0c-0.3,0-0.7-0.2-1-0.2
			c-0.4,0-0.8-0.1-1.1,0c-0.4,0.1-0.6-0.3-1-0.1c0,0-0.2-0.1-0.2-0.1c-0.3-0.1-0.6-0.4-1-0.3c-0.1,0-0.3-0.1-0.3-0.2
			c0-0.6-0.5-0.8-0.8-1.1c-0.1-0.1-0.5-0.1-0.5-0.1c0-0.3-0.1-0.7,0-1c0.1-0.3,0.3-0.5,0.5-0.7c0.2-0.2,0.4-0.3,0.2-0.7
			c-0.1-0.3,0.4-0.5,0.7-0.7c0.4-0.3,1-0.1,1.4-0.4c0.3-0.2,0.6-0.2,0.9-0.2c0.3,0,0.6,0.2,0.9,0.2c0.8,0,1.6,0,2.4,0
			c0.6,0,1.3-0.2,1.8,0.2c0.5-0.3,1.1-0.1,1.7-0.2c0.6,0,1.3,0,1.9,0c0.6,0,1.3,0.1,2-0.2c0.5-0.2,1.2,0.1,1.9-0.2
			c0.1-0.1,0.4,0.1,0.5,0.1c0.8,0,1.6,0,2.4,0c0.2,0,0.4-0.2,0.6-0.2c0.5,0,1-0.2,1.5,0.1c0.2,0.1,0.4,0.1,0.6,0.1
			c0.2,0,0.5,0.1,0.5,0c0.2-0.3,0.4,0.1,0.5,0c0.3-0.4,0.4,0.2,0.6,0.1c0.6-0.1,1.3,0.1,1.9-0.2c0.3-0.1,0.7,0.1,1.1,0.1
			c0.4,0,0.7-0.3,1.1-0.3c0.4,0,0.9-0.2,1.3,0.2c0.7-0.1,1.3,0.2,2-0.1c0.2-0.1,0.5-0.1,0.8-0.1c1.9,0,3.8,0,5.6,0
			c0.6,0,1.1-0.1,1.4-0.7c0-0.1,0.2-0.1,0.2-0.2c0,0.1,0.1,0.1,0.1,0.2c0,0.1,0,0.3,0,0.4c0.1,0.2,0.3,0.4,0.4,0.4
			c0.5,0,1.1,0.1,1.6-0.1c0.5-0.2,1.2-0.1,1.7,0c0.4,0.1,0.6,0.1,1,0c0.5-0.2,1-0.2,1.6-0.3c0.1,0,0.1-0.1,0.1-0.1
			c-0.1,0-0.1-0.1-0.2-0.1c-0.1-0.1-0.2-0.2-0.4-0.2c-0.1,0-0.2,0.1-0.3,0.1c-0.5-0.3-1.1,0-1.6-0.2c-0.5-0.2-1-0.2-1.6-0.1
			c-0.6,0.1-1.2-0.1-1.8-0.1c0,0,0-0.1-0.1-0.1c-0.1,0-0.2-0.1-0.3-0.1c-1.2,0.2-2.3-0.3-3.4-0.2c-0.4,0-0.9,0.1-1.2,0.3
			c-0.4,0.3-0.7-0.2-1-0.1c-0.4,0.2-0.7,0.3-1,0.1c-0.4-0.3-1,0-1.2-0.5c-0.4,0-0.7,0-1.1,0.1c-0.2,0-0.3,0.1-0.5,0
			c-0.4-0.3-0.9-0.4-1.4-0.3c-0.7,0.1-1.5-0.1-2.2,0.2c-0.3,0.1-0.7,0-1-0.2c-0.6-0.4-1.2-0.5-1.9-0.4c-0.2,0-0.3-0.1-0.5-0.1
			c-0.2,0-0.5-0.2-0.6-0.1c-0.4,0.4-0.8-0.1-1.2,0c-0.4,0-0.9-0.5-1.2,0.2c0,0.1-0.3,0.1-0.4,0c-0.4-0.3-0.8-0.2-1.3-0.2
			c-0.4,0-0.7-0.2-1-0.2c-0.8-0.1-1.6,0.2-2.4,0.3c-0.4,0-0.8,0.4-1-0.3c-0.4-0.1-0.8,0-0.9-0.6c-0.1,0-0.2,0-0.2,0
			c-0.6,0.3-1.2,0.4-1.9,0.1c-0.6-0.2-1.4-0.2-2.1-0.5c-0.2-0.1-0.5-0.1-0.7,0c-0.9,0.4-1.9,0.1-2.8,0.2c-0.4,0.1-0.8-0.6-1.2,0
			c-0.4-0.2-0.8-0.2-1.3-0.2c-0.1,0-0.2-0.2-0.2-0.3c-0.1-0.3-0.3-0.4-0.8-0.4c-0.8,0.1-1.5,0.3-2.3,0.3c-0.4,0-0.8-0.2-1.1-0.2
			C10,6.7,9.6,6.6,9.1,6.6c-0.5,0-1,0-1.5,0C7.1,6.6,6.6,6.5,6,6.4C4.8,6.1,3.4,5.9,2.1,5.7c-0.4-0.1-0.7-0.3-1-0.5
			C0.7,4.8,0.9,4.4,1,3.8C1,3.7,0.9,3.8,1,3.8C0.9,4,0.9,4,0.9,4.1C1,4,1.1,4,1.1,3.9C1.1,3.9,1.1,3.8,1,3.8z M59.2,10.6
			c-0.3,0-0.6,0-0.9,0c-0.2,0-0.3,0.2-0.5,0.4c0.1,0.1,0.3,0.3,0.4,0.3c0.5,0,1,0,1.6,0c0.1,0,0.2-0.1,0.3-0.1
			c0.1-0.1,0.1-0.2,0.2-0.4c-0.1-0.1-0.2-0.2-0.3-0.2C59.7,10.6,59.4,10.6,59.2,10.6z M165.6,31.6c0.1-0.1,0.3-0.1,0.4-0.2
			c0.1-0.1,0.2-0.2,0.2-0.3c-0.1-0.1-0.2-0.1-0.3-0.2c-0.3,0-0.4,0.2-0.6,0.4c0,0,0,0.1,0,0.2C165.4,31.5,165.5,31.5,165.6,31.6z
			 M116.4,28.2c0.1-0.1,0.2-0.3,0.3-0.4c-0.1,0-0.2-0.1-0.2-0.1c-0.1,0.1-0.3,0.2-0.4,0.4C116.2,28.1,116.2,28.1,116.4,28.2z
			 M91.1,25.5c0.3-0.1,0.4-0.1,0.5-0.1c-0.1,0-0.1-0.1-0.2-0.1c-0.1,0-0.3,0-0.4,0.1C91.1,25.4,91.1,25.5,91.1,25.5z M76.2,10
			c0.2-0.1,0.2-0.1,0.3-0.1c-0.1,0-0.1-0.1-0.2-0.1c-0.1,0-0.1,0-0.2,0.1C76.2,9.9,76.2,10,76.2,10z M37.2,19.5
			C37.2,19.4,37.2,19.4,37.2,19.5c-0.1,0-0.1,0-0.2,0.1c0,0,0,0,0.1,0.1C37.2,19.6,37.2,19.5,37.2,19.5z M177.7,19.8
			c0,0-0.1-0.1-0.1-0.1c0,0-0.1,0.1-0.1,0.1C177.6,19.7,177.6,19.8,177.7,19.8C177.7,19.8,177.7,19.8,177.7,19.8z M101.3,28.2
			C101.3,28.2,101.2,28.2,101.3,28.2c-0.1,0.1,0,0.2,0,0.2c0,0,0.1-0.1,0.1-0.1C101.3,28.3,101.3,28.2,101.3,28.2z M164.6,33.8
			C164.6,33.7,164.6,33.7,164.6,33.8c0-0.1,0-0.1-0.1-0.2c0,0,0,0-0.1,0.1C164.5,33.7,164.5,33.7,164.6,33.8z"/>
	</clipPath>
	</defs>
	<path clip-path="url(#scribble-path-2-mask)" id="scribble-path-1" fill="none" stroke="#333F48" stroke-width="3" stroke-linecap="round" stroke-linejoin="round" stroke-miterlimit="10" stroke-dasharray="1000" stroke-dashoffset="-1000" d="M28.9,32.4c53.8-5.3,140,0.1,140,0.1c-14.2-1.3-41.9-5.6-41.9-5.6C90.6,24.7,15.9,14.5,15.9,14.5c99.8-4,161.6,3.9,161.6,3.9
		s0.4-0.1,0,0c-0.6,0.1-36.5-3-36.5-3C105.7,13,3.3,2.9,3.3,2.9"/>
</svg>
