<?xml version="1.0" encoding="utf-8"?>
<!-- Generator: Adobe Illustrator 24.0.1, SVG Export Plug-In . SVG Version: 6.00 Build 0)  -->
<svg version="1.1" xmlns="http://www.w3.org/2000/svg" xmlns:xlink="http://www.w3.org/1999/xlink" x="0px" y="0px"
	 viewBox="0 0 195 44" style="enable-background:new 0 0 195 44;" xml:space="preserve" width="195" height="44">
	<defs>
	<clipPath id="scribble-path-1-mask">
		<path d="M41,33.5c1.3,0,2.6,0,3.9,0c1,0,1.9-0.2,2.9-0.2c0.3,0,0.6,0.1,0.9,0.1c0.5,0,0.9,0,1.4,0.1
			c0.7,0.1,1.4-0.4,2.2,0c0.1,0.1,0.3,0,0.5,0c0.9-0.3,1.9-0.2,2.8,0c0.2,0,0.3,0.1,0.5,0.1c1.5-0.4,3.1-0.2,4.7-0.2
			c2.2-0.1,4.4,0,6.5,0c0.9,0,1.9-0.1,2.8,0c0.9,0.1,1.9,0,2.8,0c0.6,0,1.3-0.2,1.9-0.2c0.8,0,1.7,0.2,2.5,0.3c0.4,0,0.8,0.2,1,0.1
			c0.6-0.2,1.2-0.2,1.8-0.2c1.7,0,3.5,0,5.2,0c1,0,2.1,0.3,3.1,0.2c1.8-0.2,3.5,0,5.3-0.2c1.2-0.1,2.4-0.1,3.6-0.2
			c1.1-0.2,2.1,0.2,3.2,0.1c0.2,0,0.5,0.1,0.7,0.2c0.7,0.2,1.3,0.4,1.9,0c0.2-0.1,0.4-0.1,0.6-0.1c1.1,0,2.3,0,3.4,0
			c0.4,0,0.8,0.1,1.2,0.2c0.3,0,0.6,0.1,0.8,0c1.5-0.3,2.9-0.3,4.4-0.1c0.8,0.1,1.6,0.1,2.4,0c0.8-0.1,1.6-0.2,2.4-0.3
			c0.3,0,0.6,0,0.8,0c1.9,0,3.7-0.1,5.6,0c1.2,0.1,2.4,0.2,3.6,0.2c0.3,0,0.6,0.1,0.8,0c0.8-0.4,1.6-0.1,2.3,0.1
			c0.7,0.1,1.4,0.3,2.1,0.4c0.1,0,0.2,0,0.3-0.1c0.6-0.4,1.2-0.4,1.8-0.4c0.8,0,1.7,0,2.5,0c0.5,0,0.9,0.2,1.4,0.2
			c0.6,0,1.2,0.3,1.9,0.1c0.5-0.2,1.2,0.1,1.8,0.1c0.6,0,1.1-0.1,1.7-0.2c0.5,0,1.1-0.1,1.6,0c1.1,0.3,2.1,0.2,3.2,0.1
			c0.4,0,0.9,0.2,1.1-0.3c0.1-0.1,0.3-0.1,0.4-0.1c0.7,0.5,1.6-0.2,2.3,0.2c0.1,0,0.2-0.1,0.3-0.1c0-0.1-0.1-0.2-0.1-0.2
			c-0.5-0.2-0.8-0.6-1.4-0.6c-0.6,0-1.2,0.1-1.8,0.1c-0.1,0-0.2,0-0.3,0c-1-0.5-2.1-0.7-3.3-0.8c-1-0.1-2-0.2-3-0.2
			c-0.4,0-0.9-0.1-1.2-0.3c-0.2-0.1-0.1-0.5-0.5-0.4c-0.3,0.1-0.7,0.1-1-0.2c-0.3-0.3-0.6-0.2-0.9-0.2c-0.3,0-0.6,0-1,0
			c-0.3,0-0.6-0.2-0.9-0.2c-0.7,0-1.5-0.5-2.2-0.2c-0.1,0.1-0.5,0-0.5-0.1c-0.3-0.5-0.7-0.4-1.1-0.4c-1.1,0-2.2,0.1-3.3-0.3
			c-0.5-0.1-1-0.4-1.5-0.4c-0.5,0-1,0.1-1.5,0.2c-0.3,0-0.4-0.1-0.3-0.4c-0.3-0.1-0.6-0.3-0.9-0.3c-0.6,0-1.3-0.2-1.9,0.2
			c-0.3,0.1-0.6,0-1,0.1c-0.1,0-0.2,0-0.2-0.1c-0.9-0.6-0.9-0.6-1.4-0.7c-1.1-0.1-2.1-0.1-3.1-0.6c-0.1,0-0.2-0.1-0.3-0.1
			c-0.5,0-1,0.1-1.6,0.1c-0.5,0-0.9-0.3-1.3-0.3c-1.3,0-2.5-0.2-3.8-0.5c-0.5-0.1-1,0-1.4,0c-0.4,0-0.9,0.2-1.3-0.4
			c-0.1-0.2-0.6-0.1-0.9-0.1c-0.6,0.1-1.3-0.3-1.8,0.3c-0.1,0.1-0.3,0-0.4-0.1c-0.3-0.5-0.8-0.5-1.3-0.5c-1.1-0.1-2.1-0.2-3.2-0.4
			c-1.1-0.2-2.3-0.2-3.5-0.3c-0.3,0-0.7,0.2-0.9-0.3c0-0.1-0.3-0.2-0.4-0.1c-0.4,0.2-0.7,0.3-0.9-0.2c0,0-0.2,0-0.3,0
			c-0.8,0-1.5,0-2.3,0.1c-0.1,0-0.2,0-0.2,0c-0.3-0.1-0.3-0.6-0.8-0.4c-0.3,0.1-0.5,0.2-0.8,0.2c-0.3,0.1-0.6,0.2-1-0.2
			c-0.3-0.3-0.7-0.5-1.2-0.2c-0.4,0.2-0.8,0.2-1.3-0.1c-0.3-0.2-0.6-0.5-1-0.1c0,0-0.3-0.1-0.4-0.1c-0.8-0.4-1.7-0.4-2.6-0.1
			c-0.3,0.1-0.7,0.4-1-0.2c-0.1-0.1-0.5,0-0.8,0c-0.3,0-0.6,0.1-0.8-0.1c-0.5-0.3-0.9-0.3-1.4,0c-0.6,0.3-1.2,0-1.5-0.3
			c-0.4-0.4-0.7-0.4-1-0.1c-0.8,0.5-1.3,0.4-2-0.2c-0.2-0.2-0.8-0.1-1.2-0.1c-0.3,0-0.7,0.1-1,0.2c-0.1,0-0.3,0-0.4,0
			c-0.4-0.9-1-0.2-1.5-0.2c-0.2,0-0.5,0.2-0.7,0.2c-0.5,0-1.1-0.3-1.5-0.1c-0.5,0.1-0.9,0-1.4-0.1c-0.7-0.2-1.4-0.1-2.1-0.2
			c-1.7-0.2-3.5-0.4-5.3-0.3c-0.2,0-0.4,0.1-0.6,0.1c-0.3,0-0.6,0.1-0.8,0.1c-0.5-0.1-1-0.3-1.5-0.4c-0.5-0.1-0.9,0.3-1.5,0
			c-0.4-0.2-1,0-1.6-0.1c-0.5,0-1,0.1-1.4-0.3c-0.1-0.1-0.2-0.1-0.3,0c-0.7,0.1-1.4,0.2-2.1,0.2c-0.7,0-1.4-0.1-2.1-0.1
			c-0.8,0-1.6,0.2-2.4,0.2c-0.5,0-1,0-1.5,0c-0.1,0-0.2,0-0.4,0C44.1,21,43.6,21,43.3,21c-0.1,0-0.3,0.1-0.4,0.1
			c-0.8-0.1-1.5,0-2.2,0.1c-1,0.1-1.9,0.5-2.9,0.1c-0.6-0.2-1.4,0-2.1-0.2c-0.6-0.2-1.3,0.2-2,0c-0.1,0-0.4,0.1-0.4,0.2
			c0,0.6-0.4,0.5-0.8,0.5c-0.5-0.1-1-0.2-1.4,0c-0.1,0-0.3,0-0.3,0c-0.9-0.8-1.8-0.3-2.8-0.1c-1,0.2-2,0.4-3,0.5
			C24.5,21.7,24,22,23.6,22c-0.5,0-1,0-1.5,0c-0.7,0-1.4-0.1-2,0.2c-0.2,0.1-0.4,0-0.6,0c-0.4-0.1-0.9-0.1-1.3-0.2
			c-0.4-0.1-0.8,0.2-1.3,0.1c-0.5-0.1-1.1,0.2-1.7,0.3c-0.8,0.1-1.7,0.2-2.5,0c-0.5-0.1-0.9,0.1-1.4-0.1c-0.5-0.1-0.9-0.1-1.4,0.1
			c-0.5,0.2-1,0.1-1.6,0.1c-1.1,0-2.2,0-3.4,0.1c-1.2,0.1-2.4-0.1-3.5-0.2c-0.1,0-0.3-0.2-0.3-0.4c-0.1-0.1,0-0.3,0-0.5
			c0-0.6,0-0.7-0.6-0.8c-0.1,0-0.2-0.2-0.3-0.3c-0.3-0.6-0.4-1.1,0.2-1.6c0.1-0.1,0.2-0.3,0.2-0.4c0.2-1,0.9-1.4,1.8-1.6
			c1.1-0.3,2.1-0.7,3.2-1c0.4-0.1,0.9-0.1,1.3-0.2c0.6-0.1,1.3-0.1,1.9-0.2c0.9-0.3,1.8-0.2,2.7-0.2c0.8,0,1.6,0.2,2.4-0.2
			c0.1-0.1,0.3-0.1,0.5,0c1,0.5,2.1,0.1,3.1,0.1c1.4,0,2.9-0.2,4.3,0c1.1,0.2,2.3,0.2,3.5-0.1c0.7-0.2,1.6-0.2,2.3,0
			c1.1,0.3,2.2,0.1,3.2,0.2c1.3,0,2.6-0.1,3.9,0.1c0.8,0.1,1.6-0.3,2.4,0c0.8,0.3,1.6,0,2.4,0.2c0.7,0.1,1.3,0,2,0
			c0.8,0,1.6,0.2,2.4,0.2c2.1,0,4.2,0.2,6.2,0.2c0.8,0,1.7-0.1,2.5,0.2c0.1,0,0.3,0,0.4,0c1.1-0.4,2.2,0.1,3.3,0c1.1,0,2.2,0,3.3,0
			c0.9,0,1.9-0.1,2.8-0.1c0.3,0,0.6,0.1,0.9,0.1c0.8,0,1.7-0.1,2.5-0.2c1.5-0.2,3-0.3,4.4,0.1c0.2,0,0.4,0.1,0.6,0.1
			c1.2-0.3,2.4,0.1,3.6,0c0.6,0,1.2-0.2,1.8-0.1c0.6,0.1,1.1,0.1,1.6-0.1c0.1,0,0.2,0,0.2,0c1.5,0.6,3.1-0.3,4.6,0
			c1.4,0.3,2.8,0.2,4.2,0.2c0.9,0,1.8-0.1,2.7,0c0.9,0.1,1.8,0.2,2.8,0.2c0.6,0,1.2-0.1,1.8-0.1c0.1,0,0.2-0.1,0.3-0.2
			c0-0.1,0-0.2-0.1-0.3c-0.2-0.3-0.7-0.3-0.6-0.8c-0.1,0-0.3-0.1-0.4-0.1c-1,0.2-2,0.2-3,0c-0.7-0.1-1.5-0.2-2.1,0
			C87.5,15,86.7,14.9,86,15c-0.1,0-0.3,0-0.3,0c-0.4-0.8-1-0.3-1.5-0.2c-0.2,0.1-0.5,0.1-0.8,0c-0.5-0.1-1-0.1-1.6-0.1
			c-0.5,0-1,0-1.5-0.2c-0.5-0.2-1-0.3-1.6-0.1c-0.4,0.1-0.9,0-1.4-0.1C76.7,14,76.1,14,75.4,14c-0.6,0-1.2,0-1.8,0
			c-0.5,0-1.1-0.2-1.6,0c-0.1,0-0.3,0-0.5-0.1c-0.6-0.5-1.4-0.4-2.1-0.4c-0.9,0-1.8,0-2.7,0c-0.2,0-0.6,0.1-0.7,0
			c-0.8-0.6-1.6-0.4-2.5-0.4c-0.3,0-0.6,0-1,0c-1.5,0-3-0.2-4.5-0.5c-0.2,0-0.3,0-0.5,0c-1.4,0-2.8-0.2-4.1-0.5
			c-0.2,0-0.3-0.1-0.5,0c-1.2,0.5-2.5,0-3.7-0.1c-1.2-0.1-2.4-0.1-3.6-0.2c-1-0.1-2-0.3-3-0.5c-0.5-0.1-0.9-0.2-1.4-0.2
			c-0.7,0-1.3-0.3-2.1-0.1c-0.6,0.2-1.4,0-2,0c-0.5,0-1,0-1.5-0.3c-0.1-0.1-0.3-0.2-0.4-0.2c-1.1,0.3-2.1-0.1-3.1-0.3
			c-1.4-0.3-2.8-0.1-4.2-0.4c-1.2-0.3-2.5-0.2-3.7-0.3c-0.3,0-0.5-0.1-0.8-0.1c-0.7-0.2-1.5-0.4-2.2-0.3c-0.2,0-0.5,0.1-0.7-0.1
			c-0.4-0.3-0.8-0.3-1.3-0.3c-0.5,0-1-0.1-1.4-0.1c-0.7,0-1.3-0.1-1.8-0.6c-0.1-0.1-0.3-0.1-0.4,0c-0.7,0.2-1.4,0.2-2.1-0.1
			c-0.5-0.2-1.1,0-1.6-0.4c-0.4-0.3-1.1-0.2-1.6-0.3C9.6,7.2,8.9,7.1,8.4,7C7.6,6.7,6.9,6.4,6.2,6.1C6,5.9,5.8,6,5.6,6
			c-1.5-0.2-3.1-0.1-4-1.8C1.4,3.9,1,3.8,0.8,3.5C0.1,3,0.1,2.5,0.5,1.8C1,0.7,1.9,0.2,3,0C3.2,0,3.4,0,3.5,0c0.9,0.6,2,0.5,2.9,0.9
			c0.4,0.2,0.9,0.1,1.1,0.5C7.6,1.6,7.8,1.6,8,1.6c1.3,0,2.6,0.5,3.8,0.8c1.2,0.3,2.3,0.5,3.5,0.7c0.4,0.1,0.8,0.2,1.3,0.2
			c1.6,0.2,3.2,0.7,4.8,0.7c0.4,0,0.8,0.2,1.3,0.2c1.3,0.2,2.5,0.3,3.8,0.5c0,0,0.1,0,0.1,0c1.3,0.8,2.7,0.4,4,0.5
			c0.2,0,0.4,0,0.6,0c1,0.5,2,0.4,3,0.5c0.5,0,0.9,0.1,1.4,0.1c0.4,0,0.9,0,1.3,0.1c1.3,0.5,2.6,0.1,3.9,0.4c1,0.3,2.1,0.2,3.1,0.3
			c0.4,0,0.7,0.2,1,0.2c0.8,0,1.5,0.4,2.3,0.1c0.3-0.1,0.8,0.1,1.1,0.2c0.3,0.1,0.5,0.4,0.9,0.1c0,0,0.2,0,0.2,0
			c0.7,0.6,1.5,0.3,2.3,0.5c0.3,0.1,0.5,0,0.8,0c0.8,0,1.5-0.2,2.3,0.1c0.2,0.1,0.4,0,0.6,0c0.9,0,1.8,0.1,2.7,0.4
			c0.2,0.1,0.5,0.1,0.7,0.1c0.8-0.2,1.6-0.2,2.4,0c0.8,0.2,1.7,0.1,2.6,0.3C65.4,9,67,8.9,68.5,8.9c0.8,0,1.6,0.3,2.3,0.4
			c0.1,0,0.2,0,0.4,0c1.2,0.1,2.5,0.1,3.7,0.3c0.9,0.1,1.8,0.2,2.7,0.2c0.5,0,0.8,0.5,1.3,0.3c0.4-0.1,1,0.1,1.5,0.1
			c0.5,0.1,1,0.2,1.5,0.3c0.3,0,0.6,0,1,0c1,0.1,2-0.1,3,0.3c0.2,0.1,0.4,0.1,0.6,0c1.1-0.3,2.1-0.2,3.2,0c1.3,0.2,2.7,0.2,3.9,0.6
			c0.9,0.3,1.8,0.3,2.7,0.4c1,0.2,2.1,0.1,3.1,0.3c1.1,0.2,2.2,0.1,3.3,0.2c2.4,0.3,4.9,0.1,7.3,0.9c0.9-0.1,1.7,0.2,2.6,0.1
			c0.5-0.1,1.1,0.1,1.7,0.1c0.1,0,0.2,0.1,0.4,0.1c1.3,0.1,2.6,0.1,3.8,0.3c1.1,0.1,2.2,0,3.1,0.6c0.2,0.1,0.4,0.1,0.6,0.1
			c0.1,0,0.3-0.1,0.3-0.1c0.8,0.6,1.7,0,2.6,0.2c0.9,0.2,1.8,0.3,2.7,0.4c0.8,0.1,1.7,0.2,2.5,0.2c1.1,0.1,2.1,0.1,3.2,0.5
			c0.1,0,0.3,0,0.5,0c1.1-0.1,2.2,0.3,3.3,0c0.1,0,0.3,0.1,0.5,0.1c1.4,0.4,2.9,0.6,4.4,0.6c1.4,0,2.7,0.2,4.1,0.3
			c0.9,0.1,1.8,0.2,2.6,0.3c0.9,0.1,1.9,0.2,2.8,0.4c1,0.2,2.1,0.1,3.1,0.2c0.5,0.1,1.1,0.3,1.6,0.3c0.5,0,1-0.2,1.5-0.1
			c1.5,0.3,2.9,0.3,4.4,0.5c1.8,0.2,3.6,0.4,5.5,0.5c0.8,0,1.6,0.4,2.4,0.6c0.3,0.1,0.6,0,0.9,0c0.6,0,1.1-0.1,1.7,0
			c0.7,0.1,1.4,0.3,2.2,0.3c1.2,0.1,2.5,0.2,3.7,0.3c1,0.1,2,0.2,2.9,0.6c0.2,0.1,0.4,0.2,0.6,0.2c1.2-0.1,2.4,0.2,3.7,0.4
			c0.6,0.1,1.2,0.1,1.8,0c0.6-0.1,1.1,0.4,1.6,0.4c0.5,0,1-0.2,1.5,0c0.4,0.2,0.8,0.3,1.3,0.3c0.7,0,1.2,0.2,1.6,0.7
			c0.2,0.2,0.5,0.3,0.8,0.4c0.8,0.3,0.9,0.7,0.6,1.5c-0.1,0.3-0.2,0.5-0.3,0.8c-0.1,0.3,0.1,0.7-0.3,0.9c-0.5,0.2-0.8,0.6-1.4,0.7
			c-0.6,0.1-1.5,0-1.6,1c0,0-0.1,0.1-0.2,0.1c-0.4,0.1-0.9,0.4-1.2,0.4c-0.8-0.2-1.6,0.1-2.5,0c-0.7-0.1-1.3-0.4-2.1-0.3
			c-0.5,0.1-1-0.2-1.5-0.3c-0.4-0.1-0.8-0.2-1.2-0.2c-0.5,0-1.1,0.2-1.6-0.2c-0.1-0.1-0.3,0-0.4,0.1c-0.2,0-0.5,0.1-0.7,0.1
			c-1.7-0.2-3.5-0.5-5.2-0.7c-1-0.1-2-0.1-3-0.3c-0.7-0.1-1.4-0.2-2.1-0.3c-0.2,0-0.8,0.1-0.7-0.5c0,0-0.3-0.1-0.5-0.1
			c-0.4,0-0.9,0.1-1.3,0.1c-1.3,0-2.6-0.1-3.9-0.4c-0.5-0.1-1-0.1-1.6,0c-1.1,0-2.2-0.1-3.3-0.4c-0.3-0.1-0.7-0.1-1.1,0
			c-0.9,0-1.8-0.2-2.7-0.4c-0.2,0-0.3-0.1-0.5-0.1c-1.4-0.1-2.7-0.1-4.1-0.3c-1.3-0.1-2.5-0.3-3.8-0.5c-0.1,0-0.3-0.1-0.3-0.1
			c0-0.7-0.4-0.4-0.7-0.3c-0.5,0.1-1.1,0.2-1.6,0.2c-0.5,0-1,0-1.5,0c-0.1,0-0.2,0-0.2,0c-0.6-0.7-1.3,0-1.9-0.2
			c-1.4-0.4-3,0.1-4.3-0.7c-0.1-0.1-0.2,0-0.3-0.1c-0.5-0.1-1.1,0.2-1.4-0.4c-0.6,0.1-1.1,0.1-1.7,0.2c-0.5,0-1,0-1.6,0
			c-1.4,0-2.9,0.1-4.3-0.4c-0.5-0.2-1,0-1.6-0.1c-0.5-0.1-1.1,0-1.6,0.1c-0.8,0-1.6,0.3-2.4,0c-0.2-0.1-0.4,0-0.6,0
			c-1.3-0.1-2.6-0.3-3.9-0.4c-0.4,0-0.9,0-1.4-0.1c-1.6-0.1-3.3-0.4-4.9-0.3c-0.9,0.1-1.7-0.1-2.6-0.3c-0.6-0.2-1.1-0.2-1.7,0.2
			c-0.3,0.2-0.8,0-1.2,0c-0.1,0-0.2,0.1-0.2,0.2c0,0.1,0.1,0.2,0.1,0.2c0.1,0.1,0.3,0,0.3,0.1c0.5,0.5,0.8,0.6,1.2,0.4
			c0.7-0.4,1.3-0.1,1.9,0.3c0.3,0.2,0.6,0.3,0.9,0.3c0.5,0,1.1,0,1.6,0c1.2,0,2.4,0.3,3.7,0.4c1,0.1,1.9,0.2,2.9,0.3
			c1.4,0.2,2.9,0.3,4.3,0.7c0.3,0.1,0.6,0.1,0.9,0.3c0.1,0.1,0.3,0.1,0.4,0.2c0.5,0,0.9-0.1,1.4,0.2c0.4,0.3,1,0.2,1.5,0.3
			c0.5,0,1.1,0,1.6,0c0.6,0,1.2,0,1.6,0.3c0.6,0.4,1.3,0.4,1.9,0.4c0.7,0,1.3,0.2,2,0c1-0.2,1.9,0.1,2.8,0.3c0.3,0,0.6,0.1,0.9,0.2
			c0.2,0,0.4,0,0.5,0c0.5,0.6,1.3,0.3,1.9,0.5c1.6,0.3,3.2,0.2,4.8,0.7c0.4,0.1,0.4,0.7,1,0.5c0.4-0.1,0.8-0.1,1.2,0
			c0.5,0.2,0.9,0.4,1.5,0.5c1.1,0.2,2.2,0.5,3.3,0.4c0.3,0,0.7-0.1,0.8,0.3c0,0.1,0.2,0.1,0.3,0.1c0.6-0.5,1.1,0,1.6,0.1
			c1,0.1,1.9,0.3,2.9,0.5c0.3,0.1,0.7,0.3,1,0.3c0.4,0,0.7,0,1,0.1c0.4,0.1,0.8,0,1.2,0.1c0.8,0.3,1.6,0.3,2.3,0.8
			c0.2,0.2,0.6,0.3,0.9,0.3c1.1,0.1,1.1,0.1,2.1,0.5c0.2,0.1,0.4,0.1,0.6,0.1c0.4,0,0.6,0.3,0.7,0.7c0,0.1,0,0.3,0,0.3
			c0.3,0.1,0.5,0.1,0.8,0.2c0.4,0.1-0.2,0.6,0.3,0.6c0,0,0.1,0,0.1,0.1c0.1,0.1,0.3,0.2,0.1,0.5c-0.3,0.4-0.5,0.8-0.5,1.3
			c0,0.4-0.4,0.8-0.8,0.8c-1.5,0.2-2.8,1.2-4.2,1.5c-0.1,0-0.1,0.1-0.2,0.1c0,0,0.1,0.1,0.1,0.1c0.5,0.2,1,0.5,1.6,0.5
			c1.8,0,3.6,0,5.4,0.3c1,0.1,2.1,0,3.1,0.2c1.4,0.3,2.9,0.1,4.2,0.7c0.1,0,0.2,0,0.4,0c1.4,0.1,2.8,0.1,4.2,0.3c1,0.2,2-0.2,3,0.4
			c0.1,0.1,0.3,0,0.5,0c0.7,0.1,1.3,0.2,2,0.2c0.9,0.1,1.7,0.5,2.6,0.3c0.3,0,0.9,0.1,0.8,0.7c0,0.1,0,0.2,0.1,0.2
			c0.1,0,0.2,0,0.2-0.1c0.1-0.4,0.2-0.8,0.7-0.6c0.5,0.2,1.1,0.2,1.1,0.9c0,0.2,0.2,0.4,0.2,0.6c0.1,0.6-0.3,1.2-0.9,1.2
			c-0.6,0-1.1,0-1.6,0.4c-0.5,0.3-1.1,0.3-1.7,0.3c-0.2,0-0.4-0.3-0.6-0.3c-0.2,0-0.4,0.3-0.6,0.3c-0.5-0.1-1-0.2-1.3-0.4
			c-0.3-0.2-0.6-0.3-1-0.3c-0.8,0-1.6-0.1-2.3-0.5c-0.1-0.1-0.3,0-0.4,0c-0.3,0.1-0.6,0.3-0.9,0.4c-0.1,0-0.3,0.1-0.3,0.1
			c-0.4-0.6-1-0.1-1.5-0.4c-0.4-0.3-1-0.2-1.5-0.4c-0.3-0.1-0.6-0.1-0.9,0c-0.5,0.1-1,0.1-1.4,0.1c-0.1,0-0.3-0.1-0.4-0.2
			c-0.2-0.4-0.5-0.4-0.7-0.3c-0.8,0.3-1.6-0.1-2.3,0c-0.1,0-0.3,0-0.2-0.3c0.2-0.4,0-0.6-0.4-0.3c-0.8,0.5-1.6,0.4-2.4,0.2
			c-0.3-0.1-0.6-0.1-0.8,0c-0.5,0.2-1.1,0.4-1.5-0.2c0-0.1-0.6,0.2-0.6,0.1c-0.3-0.6-0.8-0.1-1.2-0.2c-0.6-0.1-1.3-0.2-1.9-0.2
			c-0.7,0-1.5,0-2.2,0c-0.4,0-0.8,0.1-1.2,0c-0.8-0.2-1.5-0.6-2.4-0.2c-0.5-0.4-1-0.1-1.4,0.1c-1,0.4-1.9,0.1-2.9-0.3
			c-0.2-0.1-0.5-0.2-0.6-0.2c-0.6,0.2-1.2,0.1-1.8,0.2c-0.6,0.1-1.2,0.1-1.8-0.2c-0.3-0.1-0.8,0.2-1.1,0.1c-0.3-0.1-0.6-0.5-0.9-0.6
			c-0.1-0.1-0.4-0.1-0.5,0c-1.3,0.5-2.7,0.2-4-0.1c-0.5-0.1-0.9-0.1-1.4,0c-0.2,0-0.4,0.2-0.5-0.1c-0.2-0.4-0.4-0.3-0.7-0.2
			c-0.5,0.2-1,0.3-1.4-0.2c-0.1-0.1-0.4-0.1-0.5,0c-0.8,0.5-1.6,0.3-2.4,0c-0.8-0.2-1.6-0.2-2.4,0c-0.3,0.1-0.6,0-0.9,0
			c-0.1,0-0.2-0.1-0.3-0.1c-0.5-0.2-1,0.4-1.6,0c-0.4-0.3-1-0.4-1.5-0.4c-0.7,0-1.4,0.1-2.1,0.1c-0.9,0-1.8-0.2-2.7,0
			c-0.3,0.1-0.8,0.2-1.1-0.3c-0.1-0.2-0.7-0.1-1-0.1c-0.4,0-0.8,0.3-1.3,0.1c-0.4-0.1-0.8,0-1.3,0.1c-0.3,0-0.6,0-0.8,0
			c-0.3,0-0.5-0.1-0.7-0.4c-0.1-0.1-0.3-0.2-0.4-0.1c-0.9,0.3-1.7,0.3-2.6,0c-0.2-0.1-0.5,0-0.6,0.1c-0.4,0.3-0.7,0.3-1.1,0.2
			c-0.7-0.1-1.5-0.2-2.2-0.4c-0.7-0.2-1.5,0-2.3,0c-0.2,0-0.5-0.1-0.7-0.1c-0.2,0-0.4-0.1-0.6-0.1c-1.4,0.4-2.8,0.2-4.2,0.2
			c-0.6,0-1.3,0-1.9,0c-0.5,0-1.1-0.3-1.5-0.2c-0.6,0.2-0.9-0.6-1.4-0.3c-0.5-0.4-1-0.2-1.4,0.1c-0.4,0.3-0.8,0.4-1.3,0.2
			c-0.2-0.1-0.5-0.1-0.7-0.1c-1,0.3-2,0.2-3.1,0c-0.6-0.1-1.2,0-1.8,0c-0.6,0-1.2,0.2-1.8-0.2c-0.1-0.1-0.4,0-0.6,0
			c-1.4,0.3-2.8,0.3-4.2,0.4c-0.6,0-1.2-0.1-1.8-0.2c-0.4,0-0.7,0.1-1.1,0.1c-0.5,0-1.1,0.2-1.6,0.1c-1.7-0.4-3.4-0.1-5-0.2
			c-0.9,0.4-1.8-0.1-2.7,0.2c-0.8,0.2-1.8,0-2.6,0.1c-0.9,0.1-1.8-0.1-2.7-0.3c-0.5-0.1-0.9-0.2-1.3,0.2c-0.3,0.3-0.8,0.5-1.3,0.2
			c-0.1-0.1-0.2,0-0.4-0.1c-0.7-0.2-1.4,0.3-2.2,0.1c-0.7-0.2-1.5,0.2-2.2,0.3c-0.4,0.1-0.9,0.3-0.9-0.5c0,0-0.3-0.1-0.4-0.1
			c-0.7,0.5-1.5,0.6-2.4,0.6c-0.6,0-1.3,0-1.9,0.2c-0.5,0.1-1.1,0-1.7-0.1c-0.2,0-0.3-0.1-0.5-0.1c-0.7,0.1-1.3,0.2-2-0.1
			c-0.1,0-0.3,0.1-0.4,0.1c-0.4,0.1-0.8,0.2-1.3,0.2c-0.8,0-1.5-0.1-2.2,0.4c-0.2,0.1-0.5,0.2-0.7,0.1c-0.7-0.2-1.5,0.2-2.2-0.2
			c-0.1-0.1-0.3,0-0.4,0c-0.9,0.4-1.8,0.2-2.7,0.2c-1.4,0.1-2.8,0-4.2,0.3c-1.1,0.2-2.2,0.1-3.3,0.2c-0.2,0-0.5,0-0.7,0
			c-0.2,0-0.4-0.2-0.5-0.3c-0.2-0.9-0.9-1.5-1-2.4c0-0.1-0.1-0.3-0.1-0.3c0.6-0.7,0.9-1.7,2-2.1c1.1-0.4,2.1-0.6,3.2-0.9
			c1.9-0.5,3.8-0.6,5.7-0.5C40,33.6,40.5,33.5,41,33.5C41,33.5,41,33.5,41,33.5z"/>
	</clipPath>
	</defs>
	<path clip-path="url(#scribble-path-1-mask)" id="scribble-path-1" fill="none" stroke="#333F48" stroke-width="3" stroke-linecap="round" stroke-linejoin="round" stroke-miterlimit="10" stroke-dasharray="1000" stroke-dashoffset="-1000" d="M191.2,43.5c-46.8-11.4-159-6.1-159-6.1c6.1-2.2,50-1.9,50-1.9c87.1,1.9,81.9-2,81.9-2C113.6,16.5,3.3,19.3,3.3,19.3l39.6-1.8 c48.2-0.7,148.9,7.8,148.9,7.8l-76.2-9.7c0,0-35.1-5.3-62.7-5.7S2.7,2.4,2.7,2.4"
		/>
</svg>
