<?xml version="1.0" encoding="utf-8"?>
<!-- Generator: Adobe Illustrator 24.0.1, SVG Export Plug-In . SVG Version: 6.00 Build 0)  -->
<svg version="1.0" id="scribble-3" xmlns="http://www.w3.org/2000/svg" xmlns:xlink="http://www.w3.org/1999/xlink" x="0px" y="0px"
	 viewBox="0 0 182 23" enable-background="new 0 0 182 23" xml:space="preserve" width="182" height="23">
	<defs>
		<clipPath id="scribble-path-3-mask">
		<path d="M174.1,13.4c-0.8,0-1.7,0-2.5,0c-0.1,0-0.2-0.1-0.2-0.2c0-0.3-0.3-0.3-0.4-0.2
			c-0.3,0.3-0.6,0.2-1,0.3c-0.4,0.1-0.8-0.1-1.1,0.3c-0.1,0.1-0.4,0.1-0.5,0c-0.7-0.4-1.5-0.4-2.4-0.5c-0.9-0.1-1.7,0-2.6,0.1
			c-0.3,0-0.6,0-1-0.1c-0.5-0.2-1.1-0.2-1.7-0.1c-0.6,0.1-1.3-0.3-1.9-0.1c-0.1,0-0.3-0.1-0.4-0.2c-0.1-0.1-0.2-0.2-0.4,0
			c-0.4,0.3-0.9,0.5-1.5,0.3c-0.6-0.2-1.3-0.1-1.9-0.1c-0.3,0-0.7-0.2-0.8-0.1c-0.4,0.4-0.5-0.1-0.7-0.2c-0.3-0.1-0.7,0.2-1-0.1
			c0,0-0.4,0.2-0.6,0.2c-0.3,0.1-0.2,0.3-0.2,0.4c0,0.1,0.2,0.2,0.3,0.3c0.4,0.1,0.8,0.1,1.2,0.1c0.3,0,0.3,0.6,0.8,0.4
			c0.3-0.1,0.6-0.1,0.9-0.1c0.6,0,1.2-0.1,1.7,0.2c0.5,0.2,0.9,0,1.3,0.1c0.6,0.2,1.3,0.2,1.9,0.4c0.6,0.1,1.2,0.2,1.8,0.3
			c0.3,0.1,0.7-0.1,1-0.1c0.1,0,0.3,0.1,0.4,0.1c-0.1,0.2-0.1,0.4-0.2,0.5c-0.1,0.1-0.3,0.1-0.4,0c-0.2-0.1-0.3-0.2-0.5,0
			c0,0,0,0.2,0,0.2c0.1,0.1,0.3,0.1,0.4,0.1c0.3,0,0.6,0.1,0.8-0.3c0.3-0.5,0.8-0.4,1.3-0.3c0.7,0.2,1.3,0.6,2,0.4
			c0.1,0,0.2,0,0.2,0c0.2,0.7,0.7,0,1.1,0.2c0.4,0.2,0.9,0.2,1.4,0.3c0.4,0.1,0.8,0.2,1.3,0.3c0.4,0.1,0.9,0.1,1.3,0.1
			c0.1,0,0.2,0.1,0.3,0.2c-0.1,0.1-0.1,0.2-0.2,0.2c-0.3,0-0.5,0.1-0.7,0.4c-0.1,0.1-0.2,0.3-0.2,0.3c0.2,0.2,0.4,0,0.5-0.2
			c0.1-0.3,0.4-0.1,0.6-0.2c0.2-0.1,0.5-0.5,0.6-0.4c0.6,0.3,1.3-0.2,1.8,0.4c0.2,0.2,0.5,0.3,0.8,0.3c0.3,0,0.6,0.1,0.8,0.2
			c0.5,0.2,1,0.5,1.5,0.5c0.3,0,0.5,0.2,0.2,0.6c-0.1,0.2-0.1,0.4-0.2,0.6c0,0.1-0.1,0.2-0.2,0.3c0.1,0,0.2,0.1,0.3,0
			c0.1,0,0.3-0.2,0.3-0.2c0-0.2,0-0.4,0.2-0.6c0.1-0.1,0.1-0.2,0.2-0.3c0.2,0.4,0.4-0.3,0.6,0c0.1,0.2,0.2,0.6,0.6,0.5
			c0,0,0.1,0.1,0.1,0.1c-0.1,0.2-0.4,0.4-0.1,0.6c0,0,0.3-0.4,0.4-0.4c0.1-0.1,0.4,0,0.5,0c0,0.1,0,0.3-0.1,0.4
			c-0.1,0.2-0.2,0.5-0.3,0.7c0,0.1,0.1,0.3,0.1,0.4c0.2-0.1,0.3-0.1,0.5-0.2c0.2-0.1,0.2-0.3,0-0.5c-0.3-0.2,0.1-0.3,0.1-0.4
			c0.1,0.1,0.3,0.1,0.3,0.2c0.2,0.6,0.4,1.1,0.5,1.7c0.1,0.3-0.4,0.8-0.6,0.8c-0.4,0.1-0.8,0.2-1.1,0.1c-0.2-0.1-0.7,0.1-0.8-0.5
			c0,0-0.3-0.1-0.4-0.1c-0.4,0-0.7,0-0.8-0.4c0-0.1-0.1-0.2-0.2-0.2c-0.3,0-0.8,0.2-1,0c-0.3-0.2-0.4-0.4-0.8-0.4
			c-0.1,0-0.4-0.2-0.6-0.1c-0.4,0.1-0.8,0.1-0.7-0.5c0,0-0.3-0.1-0.4-0.1c-0.3,0.3-0.5,0.4-0.6-0.1c0-0.1-0.3-0.1-0.5-0.1
			c-0.3,0-0.6,0.1-0.8-0.2c-0.1-0.1-0.3-0.1-0.4-0.1c-0.3,0-0.8,0.3-0.9-0.3c0,0-0.1-0.1-0.1-0.1c-0.8,0.2-1.5-0.1-2.2-0.3
			c-0.2-0.1-0.5-0.1-0.7-0.2c-0.3-0.1-0.6-0.2-1-0.2c-0.2,0-0.5-0.1-0.7-0.1c-0.2,0-0.3-0.1-0.1-0.2c0.2-0.2,0.3-0.4,0.4-0.5
			c0,0-0.1-0.2-0.1-0.2c-0.1-0.1-0.2-0.3-0.3,0c-0.1,0.7-0.7,0.6-1.2,0.8c-0.2,0.1-0.7-0.2-1-0.3c-0.3-0.1,0.1-0.3,0-0.4
			c-0.2-0.1-0.4-0.1-0.5,0c-0.4,0.3-0.7,0.3-1.1,0.1c-0.1-0.1-0.4-0.1-0.4,0c-0.2,0.2-0.4,0.1-0.6,0.1c-0.2,0-0.4-0.4-0.6,0
			c0,0-0.2,0-0.3-0.1c-0.1-0.1-0.2-0.2-0.4-0.3c-0.5-0.1-1,0.2-1.4-0.2c-0.4-0.4-0.9,0.1-1.3-0.3c-0.3,0.5-0.5,0.1-0.8,0
			c-0.2-0.1-0.4,0-0.7-0.1c-0.2-0.1-0.5,0.1-0.7,0c-0.2,0-0.3-0.2-0.5-0.3c0.1-0.1,0.2-0.2,0.2-0.4c0-0.1,0.1-0.2,0.1-0.3
			c-0.1,0-0.2,0-0.2,0c-0.8,0.3-0.7,0.3-1.7,0.2c-0.5-0.1-1,0-1.6-0.1c-1-0.2-2-0.1-3-0.5c-0.6,0.2-1.2-0.1-1.8-0.1
			c-0.6,0-0.3-0.2-0.2-0.4c0-0.1,0-0.1-0.1-0.2c0,0-0.1,0-0.2,0c-0.2,0.1-0.3,0.3-0.5,0.4c-0.2,0.1-0.5,0.1-0.6,0
			c-0.3-0.3-0.7-0.3-1.1-0.2c-0.5,0.1-1,0.1-1.5-0.2c-0.2-0.1-0.4-0.1-0.6-0.1c-0.5,0-1,0.1-1.5,0.1c-0.4,0-0.9-0.3-1.3-0.1
			c-0.1,0-0.2,0-0.3-0.1c-0.1-0.1-0.4-0.2-0.1-0.4c0.1-0.1,0.2-0.2,0.3-0.4c0-0.1-0.1-0.2-0.1-0.3c0,0-0.2,0-0.2,0
			c-0.1,0.2-0.2,0.4-0.3,0.6c-0.2,0.3-0.3,0.3-0.5,0c-0.1-0.4-0.3-0.3-0.5-0.1c-0.3,0.4-0.5,0.5-0.9,0.1c-0.1-0.1-0.3-0.1-0.5-0.1
			c-0.3,0-0.6,0-0.9,0.1c-0.5,0.1-1,0-1.4-0.4c-0.2-0.2-0.3-0.1-0.6,0c-0.5,0.2-1,0.2-1.6,0.3c-0.1,0-0.2,0-0.2,0
			c-0.1-0.5-0.3-0.6-0.8-0.3c-0.3,0.2-0.6-0.1-1,0.1c-0.2,0.1-0.5,0.1-0.7,0.1c-0.3,0-0.6,0.2-0.7-0.3c0,0-0.3-0.1-0.4-0.1
			c-1.1,0.2-2.1-0.2-3.2,0.1c-0.3,0.1-0.5-0.1-0.6-0.3c-0.2-0.5-0.3-0.3-0.6-0.2c-0.7,0.2-1.4,0.4-2.1,0c-0.4-0.2-0.6,0.2-0.7,0.1
			c-0.3-0.3-0.9,0.1-1-0.5c-0.4,0.1-0.7,0.1-1.1,0.2c-0.3,0-0.6,0.3-0.7,0.2c-0.4-0.3-0.8-0.1-1.2-0.1c-0.1,0-0.3,0-0.3,0
			c-0.4-0.5-1-0.3-1.5-0.3c-0.4,0-0.8-0.2-1.3-0.1c-0.4,0.1-0.9,0.2-1.3,0c-0.4-0.2-0.9,0.2-1.3-0.2c-0.1-0.1-0.3,0-0.5,0
			c-0.4,0-0.9,0.2-1.3,0.1c-0.5-0.2-0.7,0.4-1.2,0c-0.3-0.2-0.8,0.1-1.2,0c-0.7-0.2-1.3,0-1.9,0.2c-0.4,0.1-0.9,0.2-1.3-0.2
			c-0.1-0.1-0.3-0.1-0.4-0.1c-0.3,0.2-0.6,0.2-1,0.1c-0.3-0.1-0.7,0.1-1.1-0.2c0,0-0.2,0-0.2,0c-0.5,0.5-1,0-1.6,0.1
			c-0.6,0.1-1.2,0.1-1.7,0.2c-0.2,0-0.5-0.1-0.7-0.1c-0.2,0-0.5,0.1-0.7,0.1c-0.3,0-0.5,0-0.8-0.1c-0.2-0.1-0.2,0.3-0.5,0.1
			c-0.3-0.2-0.7,0-1.1,0c-0.4,0-0.8,0.3-1.2-0.1c-0.1,0-0.3,0.1-0.4,0.1c-0.1,0-0.2,0.1-0.3,0.1c-0.4,0-0.8-0.2-1.2-0.1
			c-0.4,0.1-0.8,0.2-1.2-0.1c-0.1-0.1-0.5,0-0.7,0c-1.8,0.3-3.7,0-5.5,0.3c-0.1,0-0.2,0-0.2,0c-0.4-0.1-0.6-0.4-1.1-0.2
			c-0.4,0.2-0.9,0.1-1.4,0.2c-0.8,0.1-1.5-0.1-2.2-0.2c-0.4-0.1-0.7,0-1.1,0.1c-0.2,0-0.4,0.2-0.6,0.2c-0.5-0.1-1-0.3-1.4,0.1
			c-0.5-0.4-1,0-1.6,0c-0.4,0-0.9-0.1-1.2,0.3c0,0-0.2,0-0.3,0c-0.1,0-0.2-0.1-0.3-0.1c-0.7,0.1-1.4,0.1-2.1,0.2
			c-0.6,0.1-1.3-0.3-1.9-0.1c-0.2,0.1-0.5,0-0.7,0.2c-0.2,0.2-0.5,0.1-0.7,0c-0.1-0.1-0.4,0.1-0.6,0.2c-0.2,0.1-0.4-0.4-0.6,0.1
			c0-0.1-0.1-0.1-0.1-0.2c0-0.1,0-0.4-0.2-0.1c-0.3,0.3-0.5,0.5-0.9,0.2C63.4,13.9,63,14,62.7,14c-0.6,0-1.3,0.3-1.9-0.1
			c-0.9,0.3-1.9,0.3-2.8,0.3c-0.5,0.4-1,0.4-1.6,0.2c-0.3-0.1-0.8,0.1-1.2,0.1c-0.4,0-0.7,0.2-1.1-0.1c-0.2-0.1-0.7-0.1-0.9,0.1
			c-0.3,0.2-0.5,0.3-0.8,0.1c0,0-0.2,0.1-0.3,0.1c-0.1,0.1-0.3,0.2-0.4,0.2c-0.9-0.3-1.8,0-2.7,0c-0.1,0-0.1-0.1-0.2-0.1
			c0.1,0,0.2-0.1,0.3-0.1c0.1,0,0.1-0.1,0.1-0.1c-0.1,0-0.1-0.1-0.2-0.1c-0.2,0-0.4,0.1-0.6,0.3c-0.3,0.3-0.7,0.3-1.2,0.4
			c-0.7,0-1.5,0.1-2.2,0.2c-0.2,0-0.5,0-0.7,0.1c-0.3,0-0.3-0.5-0.7-0.3c-0.3,0.2-0.7,0.1-1,0.2c-0.3,0-0.6,0-0.9,0.1
			c-1.4,0.6-2.9,0.4-4.3,0.6c-0.5,0.1-1,0-1.6-0.1c-0.5,0-1,0.3-1.4-0.1c-0.1-0.1-0.2,0-0.3,0c-0.4,0.1-0.7,0.3-1,0.3
			c-0.4,0-0.7-0.1-1.1-0.1c-0.4,0-0.8,0.3-1.2,0.3c-2.1,0.2-4.2,0.4-6.3,0.6c-0.3,0-0.6-0.2-0.9-0.1c-0.4,0.1-0.8-0.1-1.2,0
			c-0.4,0.1-0.9,0.1-1.4,0.2c-0.4,0.1-0.9,0.2-1.3,0.2c-0.2,0-0.5-0.1-0.7,0c-1.9,0.2-3.9,0.4-5.8,0.5c-0.3,0-0.5,0.4-0.9,0.1
			c-0.2-0.1-0.6,0-0.9,0.1c-0.4,0.1-0.8,0.1-1.1-0.3c-0.2-0.2-0.4-0.2-0.7-0.2c-0.2,0-0.4-0.2-0.6-0.2c0.3-0.4-0.5-0.4-0.3-0.8
			c0.1-0.3-0.4-0.4-0.2-0.8c0.2-0.4,0.8-1.2,1.2-1.4c0.4-0.3,0.8-0.5,1.4-0.6c0.5-0.1,1-0.4,1.5-0.6c0.2-0.1,0.3-0.2,0.5-0.2
			c0.8-0.1,1.6-0.3,2.3-0.6c0.1,0,0.2,0,0.3,0c1.3,0.2,1.3,0.1,2.5-0.2c0.4-0.1,1-0.3,1.4-0.1c0.4,0.2,0.6,0.1,0.8-0.2
			c0.2-0.5,0.7-0.5,1.1-0.4c0.3,0.1,0.6,0,0.9-0.1c0.4-0.1,0.6-0.3,1.1-0.1c0.3,0.1,0.8,0.1,1.2-0.2c0.1-0.1,0.4,0,0.5-0.1
			c0.3-0.2,0.6,0.3,0.9,0c0.2-0.2,0.6-0.1,0.9-0.1c0.8-0.1,1.5-0.5,2.3-0.5c0.8,0,1.6,0,2.3-0.2c0.6-0.2,1.2-0.3,1.9-0.4
			c0.4,0,0.8-0.2,1.2,0.1c0.2,0.1,0.6,0,0.8-0.1c1-0.4,1.9-0.5,3-0.3c0.2,0.1,0.5,0,0.7-0.1C40.1,8.7,41,8.5,42,8.5
			c0.8,0,1.6,0,2.4,0c0.8,0,1.6-0.2,2.4-0.2c0.4,0,0.8,0.1,1.2,0.2c0.5,0.1,0.8,0.2,1.2-0.1c0.1-0.1,0.4,0,0.5,0
			c0.2,0,0.4,0.1,0.7,0.1c0.2,0,0.5-0.2,0.7-0.2c0.2,0,0.4,0.1,0.6,0.1c1.1,0,2.2-0.1,3.3-0.1c0.3,0,0.6,0.1,1,0.1
			c0.3,0,0.6-0.1,1,0.1c0.3,0.1,0.7-0.1,1-0.1c0.3,0,0.7-0.2,1,0.1c0.1,0.1,0.3,0.1,0.3,0c0.5-0.5,1.1,0,1.7-0.1
			c0.6-0.1,1.2-0.1,1.7-0.2c0.3,0,0.3,0.2,0.5,0.3c0.2,0.1,0.6,0,0.8,0c0.1,0,0.3-0.1,0.4-0.2c0.5-0.2,1,0.1,1.6-0.1
			c0.5-0.2,1-0.3,1.5,0.1c0.3-0.3,0.6-0.1,0.9-0.1c0.4,0,0.8-0.2,1.2,0.1c0.3,0.2,0.8,0,1.2,0.1c0.6,0.1,1.2,0.1,1.8-0.3
			c0.1-0.1,0.3,0,0.4,0c0.4-0.1,0.5,0.5,0.7,0.4c0.3-0.2,0.6-0.2,0.9-0.2c0.5,0,1-0.3,1.4,0.1c0.4-0.6,0.9,0.1,1.5-0.1
			c0.4-0.1,1-0.1,1.4,0.2c0.3,0.2,0.4-0.4,0.6,0c0.1,0.1,0.4,0,0.6,0c0.8-0.1,1.6-0.1,2.4-0.2c0.7-0.1,1.4,0,2.1,0
			c0.7,0,1.4,0.1,2.1,0.2c0.6,0.1,1.3,0.1,1.9,0.1c0.5,0,0.9-0.2,1.5,0.1c0.4,0.2,1-0.3,1.4,0.1c0,0,0.1,0,0.1,0c1-0.3,2,0.1,3.1,0
			c0.6-0.1,1.3-0.2,1.9,0c0.6,0.1,1.2-0.3,1.8,0.1c0.1,0,0.2,0,0.3,0c1,0,2.1-0.2,3.1,0c0.9,0.2,1.9-0.3,2.8,0.2
			c0.1,0.1,0.3,0,0.5,0c1.1,0,2.1-0.1,3.2,0c0.5,0.1,1,0,1.6,0.1c0.6,0.1,1.1,0.2,1.7,0.1C111.9,9,112.4,9,113,9
			c0.6-0.1,1.1,0.2,1.7,0.1c0.5-0.1,1-0.2,1.6,0c0.4,0.1,0.8,0,1.3-0.1c1.1-0.1,2.1,0.1,3.2,0.3c0.4,0.1,0.8,0,1.2,0
			c0.4,0,0.6-0.6,1-0.3c0.4,0.2,0.6,0.2,0.9-0.1c0.6,0.5,1.4-0.2,1.9,0.3c0.7-0.1,1.3-0.1,2-0.2c0.4,0,0.9-0.1,1.3,0.1
			c0.4,0.2,0.9-0.2,1.3,0.1c0.2,0.1,0.7,0,1,0c1.2-0.1,2.5-0.4,3.7,0.1c0.2,0.1,0.5,0,0.7,0c1.2,0,2.3-0.4,3.5-0.1
			c0.2,0.1,0.6,0,0.7-0.2c0.2-0.1,0.3,0,0.3,0.1c0.2,0.2,0.3,0.3,0.5,0c0,0,0.3,0.1,0.3,0.1c0,0.3,0.2,0.3,0.4,0.3
			c0.6,0,1.2-0.3,1.8,0c0.1,0.1,0.4-0.1,0.5-0.3c0.1-0.1,0.1-0.3,0-0.4c0-0.1-0.2-0.2-0.3-0.2c-0.6,0-1.2,0.3-1.8-0.1
			c0,0-0.2,0.1-0.3,0.2c-0.3,0.2-0.4,0.2-0.5-0.2c0-0.1-0.1-0.1-0.1-0.1c-0.4,0.7-0.9,0-1.3,0.1c-0.5,0-0.9-0.2-1.4-0.1
			c-0.3,0-0.1-0.2,0-0.3c0.1-0.1,0.2-0.3,0.2-0.3c-0.2-0.2-0.3,0-0.5,0.1c-0.1,0.1-0.3,0.2-0.4,0.3c-0.2,0.1-0.3,0.4-0.5,0.1
			c-0.1-0.1-0.3,0-0.4,0c-0.8,0.2-1.5,0-2.2-0.2c-0.3-0.1-0.5,0.5-0.9,0c-0.1-0.2-0.5-0.2-0.8-0.2c-0.3,0-0.7,0.1-1,0.1
			c-0.1,0-0.3-0.1-0.4-0.1c-1.2-0.3-1.6-0.3-2.8,0.1c-0.1,0-0.2-0.1-0.3-0.1c-0.1,0-0.1,0.3-0.3,0.1c0-0.1,0-0.2,0.1-0.3
			c0.1-0.1,0.1-0.2,0.2-0.3c0,0,0-0.1,0.1-0.2c-0.1,0-0.1-0.1-0.2-0.1c-0.7,0.1-1.3,0.4-2,0.5c-0.1,0-0.2,0.2-0.4,0
			c-0.3-0.4-0.7-0.3-1-0.1c-0.4,0.3-0.8,0.3-1.3,0.1c-0.2-0.1-0.4,0-0.7,0c-0.4,0-0.9,0.4-1-0.3c-0.3,0-0.8-0.1-1,0.1
			c-0.3,0.3-0.5,0.1-0.8,0c-0.3-0.1-0.6-0.2-1-0.2c-0.4,0.1-0.9,0.2-1.3-0.3c-0.1-0.1-0.4,0-0.6,0.1c-0.3,0.1-0.7,0.3-1,0.2
			c-0.4-0.2-0.7-0.1-1.1-0.1c-0.1,0-0.2-0.1-0.3-0.2c-0.1-0.1-0.3-0.2-0.3-0.2c-0.4,0.3-0.9,0-1.3,0.1c-0.3,0.1-0.6,0.6-0.8-0.1
			c0,0-0.2-0.1-0.2,0c-0.4,0.5-0.9,0.2-1.4,0.1C110,6.8,109.5,7,109,7c-0.2,0-0.3-0.2-0.5-0.2c-0.2,0-0.4-0.3-0.6,0
			c-0.1,0.1-0.4,0-0.6,0.1c-0.4,0-0.6-0.8-1-0.2c-0.4-0.3-0.9-0.1-1.3-0.1c-0.4,0-0.9,0.1-1.3,0.1c-0.2,0-0.5,0.1-0.7,0.1
			c-0.1,0-0.3-0.1-0.4-0.1c0.1-0.1,0.1-0.2,0.2-0.3c0.1-0.1,0.2-0.1,0.3-0.2c0.1-0.1,0.1-0.2,0.1-0.3c-0.1,0-0.2,0-0.2,0
			c-0.1,0.4-0.9,0-0.9,0.7c0,0-0.3,0.1-0.4,0.1c-0.7,0.2-1.4-0.1-2.1,0c-0.1,0-0.2-0.2-0.3-0.2c-0.3-0.1-0.5-0.6-1-0.2
			c-0.3,0.2-0.9,0.2-1.3,0.2c-0.3,0-0.6,0.4-0.9,0c0,0-0.1,0.1-0.2,0.1c-0.1,0-0.3,0.1-0.4,0.1c-0.3,0-0.7-0.2-0.9,0
			c-0.4,0.3-0.7,0-1,0c-0.3,0-0.7,0.2-1-0.1c-0.2-0.3-0.3,0.4-0.6,0.1c-0.1-0.1-0.4-0.2-0.6-0.3c-0.1,0-0.3,0-0.3,0
			c-0.3,0.4-0.7,0.2-1,0.1c-0.9-0.3-1.7,0-2.6,0c-0.3,0-0.6,0.2-0.7-0.3c0,0-0.3-0.1-0.4,0c-0.5,0.4-1.1,0.3-1.7,0.2
			c-0.5-0.1-1.1,0.1-1.6,0.1c-0.2,0-0.5,0.1-0.5-0.3c0,0-0.3-0.1-0.4,0c-0.8,0.5-1.7,0.2-2.5,0.4c-0.5-0.4-1-0.1-1.4-0.1
			c-0.5,0-1,0.2-1.4-0.3c0-0.1-0.3-0.1-0.3,0c-0.3,0.3-0.6,0.4-0.9,0.1C75.2,6.5,75,6.1,74.8,6C74.5,6,74,6,73.7,6.1
			c-0.3,0.2-0.7,0.1-1,0.2c-0.1,0-0.2-0.1-0.2-0.2c0-0.7-0.4-0.3-0.6-0.2c-0.4,0.2-0.7,0.1-1.1,0.1c-0.8,0-1.6,0.3-2.4,0
			c-0.1,0-0.2,0-0.2,0c-0.6,0.6-1.3,0.2-1.9,0C66,6,65.8,6.3,65.6,6.2c-0.4-0.2-0.7,0-1,0c-0.4-0.1-0.9,0.3-1.3-0.1
			c-0.4,0.6-0.8,0-1.2,0.1c-0.4,0.1-0.9-0.3-1.3-0.2c-0.4,0.1-0.9-0.3-1.2,0.1c-0.2,0.2-0.3,0.1-0.5-0.1c-0.3-0.3-0.5-0.3-0.9-0.1
			c-0.5,0.2-1.2,0.4-1.7,0.2c-0.5-0.2-0.9,0-1.3-0.1c-1-0.2-1.9,0.1-2.8,0c-1.2-0.1-2.4,0.1-3.6-0.3c-0.1,0-0.3,0-0.3,0.1
			c-0.4,0.5-0.9,0.1-1.4,0.1c-0.2,0-0.4-0.2-0.5-0.2c-1.1,0.2-2.2,0-3.3,0c-0.4,0-0.8-0.2-1.1-0.1c-0.4,0.3-0.7-0.1-1,0
			c-0.4,0.1-0.8,0.1-1.2,0.1c-0.2,0-0.4-0.2-0.6-0.1c-0.5,0.1-1-0.3-1.4,0.1c-0.5-0.2-1.2,0-1.7-0.1c-0.5-0.2-1-0.1-1.4,0
			c-1,0.2-2-0.1-3.1,0c-0.1,0-0.2,0.1-0.2,0c-0.7-0.7-1.5-0.2-2.2-0.3c-0.4,0-0.9-0.1-1.3-0.1c-0.3,0-0.5,0.2-0.8,0.2
			c-0.2,0-0.5-0.3-0.7-0.3c-0.6,0.1-1.2-0.2-1.8-0.1c-1,0.1-2,0.1-2.9,0c-0.3,0-0.6-0.4-0.9-0.3c-0.2,0-0.5,0.4-0.8,0.2
			c-0.3-0.2-0.5-0.1-0.8-0.1c-0.5,0-1,0.2-1.6-0.1c-0.4-0.2-1,0.3-1.4-0.1c-0.5,0.3-1,0.2-1.4,0c-0.6-0.2-1.1,0-1.6,0
			c-0.5,0-1-0.1-1.4-0.1c-0.5,0-1.1,0.2-1.5,0c-0.5-0.2-0.9,0-1.4-0.2C8.6,4.3,7.9,4.6,7.3,4.7c-0.2,0-0.6,0.1-0.7,0
			C6.1,4.1,5.5,4.4,4.9,4.4c-0.5,0.1-1-0.1-1.5-0.3C2.9,4,2.5,3.6,2.1,3.5c-0.5,0-0.9-0.2-1.4-0.4C0,2.8-0.1,2.7,0,1.8
			c0.1-0.8,0.2-1,0.4-1.3C0.8,0.1,1.3,0.1,1.8,0c0.9-0.1,1.7,0,2.5,0.2c0.3,0.1,0.6-0.1,0.9,0c0.3,0,0.6,0.1,0.9,0.1
			c0.3,0.1,0.6,0.1,1,0.1c0.3,0,0.6-0.1,0.9-0.1c0.1,0,0.3,0,0.4,0C9,0.9,9.6,0.7,10.3,0.7c1.6-0.1,3.2,0.1,4.8-0.2
			c0.1,0,0.2,0,0.3,0c0.5,0.3,1,0.2,1.5,0.3c0.5,0.1,1,0.1,1.4,0.1c0.4,0,0.9,0.3,1.3,0.1c0.8,0.3,1.7,0,2.5,0c0.3,0,0.7-0.2,1,0.1
			c0,0,0.2-0.1,0.4-0.1c0.2-0.1,0.4-0.2,0.5-0.1c0.4,0.3,0.8,0.1,1.2,0.1c0.2,0,0.4,0,0.4,0.3c0,0.1,0.1,0.2,0.1,0.2
			c0.5,0,1,0.1,1.4,0.1c0.5,0,1.1,0,1.6-0.2c0.7-0.2,1.4,0.5,2-0.2c0,0,0.2,0.2,0.3,0.2c0.9,0.1,1.8,0.4,2.6-0.2
			c0.1,0,0.3,0,0.3,0.1c0,0.4,0.3,0.4,0.6,0.3c0.3,0,0.7-0.1,1-0.1c0.3,0.1,0.6,0,0.9,0.1c0.3,0.1,0.7-0.2,1,0.2c0,0,0.1,0,0.2,0
			c1.1,0,2.2-0.1,3.3-0.1c0.4,0,0.9,0,1.3,0.1c0.5,0.2,0.9,0.2,1.3,0.1c1.2-0.3,2.4,0.1,3.6-0.1c0.1,0,0.2,0,0.2,0
			c0.3,0,0.3,0.7,0.8,0.2c0.2-0.2,0.6-0.1,0.9-0.1c0.5,0,1,0.1,1.6,0.1c0.5,0,1-0.2,1.5-0.1c1,0.1,2.1,0.2,3.1,0.2
			c0.6,0.4,1.3-0.1,2,0.3C57.5,2.2,57.7,2,57.9,2c0.1,0,0.3-0.1,0.4,0c0.3,0.3,0.7,0.3,1.1,0.3c0.8-0.1,1.7-0.3,2.4,0.4
			c0,0,0.1-0.1,0.2-0.1c0.5-0.1,0.8-0.5,1.4-0.4c0.4,0,0.9,0,1.3,0.2c0.3,0.1,0.5,0.1,0.8,0.1c0.6,0,1.1-0.3,1.7,0.1
			c0.1,0,0.2,0,0.2,0c0.5,0,0.9-0.5,1.4-0.3c0.5,0.2,0.9,0.1,1.3,0.1c0.3,0,0.8,0.1,1,0c0.5-0.3,0.7,0.2,1,0.2c0.2,0,0.4,0,0.6,0
			c0.7-0.1,1.3-0.1,2-0.2c0.7-0.1,1.3,0,1.9,0.2c0.4,0.1,0.6,0.1,1-0.1C77.6,2.2,78,2.1,78,2.1c0.5,0.6,1.1,0,1.6,0.1
			c0.9,0.2,1.8,0,2.7,0c0.3,0,0.7,0,1,0.1c0.7,0.3,1.3,0.1,2,0c0.5,0,0.9-0.1,1.4,0.1c0.4,0.1,1-0.3,1.4,0.1c0.1,0.1,0.3,0,0.5,0
			c0.6,0,1.2-0.2,1.7,0C91,2.7,91.6,2.2,92,2.7c0,0,0.2,0,0.3-0.1c0.2-0.2,0.4-0.2,0.7-0.1c0.1,0.1,0.3,0.1,0.4,0.1
			c0.9,0,1.8-0.1,2.7,0c0.6,0.1,1.1,0.2,1.7-0.2c0.1,0,0.2,0,0.2,0c1,0.3,2.1,0,3,0.4c0.1,0,0.1,0,0.2,0c0.6,0,1.1-0.2,1.7,0.1
			c0.3,0.1,0.4-0.4,0.8-0.1c0.2,0.2,0.5,0.2,0.8,0.2c0.3,0,0.5,0,0.8-0.1c0.3,0,0.6-0.1,0.9-0.1c0.9,0.2,1.9,0,2.8,0.4
			c1.2-0.3,2.5,0.4,3.7-0.2c0.4,0.3,0.9-0.1,1.3,0.3c0.1,0.1,0.3,0.2,0.4,0.2c0.5-0.5,1-0.1,1.4-0.1c0.5,0,1.1-0.1,1.6-0.1
			c0.1,0,0.3,0,0.3,0c0.1,0.6,0.6,0.3,0.9,0.3c0.8,0,1.6-0.1,2.4-0.2c0.1,0,0.4,0,0.4,0c0.2,0.9,0.7,0.3,1.1,0.3
			c0.3,0,0.6,0.2,0.8,0.1c0.3-0.2,0.5-0.2,0.7-0.2c0.2,0,0.4,0,0.5,0.1c0.2,0.1,0.5,0.3,0.6,0.2c0.4-0.3,0.7,0.1,1.1,0
			c0.4-0.1,0.8-0.1,1.2-0.1c0.6,0,1.2-0.1,1.9,0.2C130,4,130.6,4,131.2,4c0.3,0,0.7,0.2,1-0.1c0.4,0.3,0.9,0,1.2,0.2
			c0.4,0.2,0.7,0.1,1.1,0.1c0.4,0,0.8-0.1,1.2-0.1c0.7,0.1,1.4,0.2,2.1,0.4c0.1,0,0.3,0.1,0.4,0.1c1.4,0,2.7-0.1,4.1-0.1
			c0.3,0,0.5-0.1,0.8,0.1c0.4,0.2,0.8,0.2,1.3,0.2c0.5-0.1,1.1-0.3,1.5,0.2c0.1,0.1,0.3,0,0.4,0c0.3,0,0.7-0.1,1-0.1
			c1.5-0.1,2.9,0.1,4.3,0.4c0.2,0,0.4,0.2,0.5,0.1c0.9-0.2,1.8-0.1,2.7,0c1.1,0.1,2.3,0,3.4,0.3c0.5,0.1,1-0.1,1.5,0.1
			c0.5,0.2,1,0,1.5,0.3c0.1,0.1,0.3,0,0.5,0c1.8-0.3,3.5,0.2,5.3,0.5c0.2,0,0.4,0.1,0.6,0.1c0.4,0,0.9-0.2,1.3,0
			c0.4,0.2,0.9-0.2,1.3,0.2c0.1,0.1,0.4,0,0.7,0c0.2,0,0.4-0.1,0.4,0c0.5,0.6,1.1,0.2,1.6,0.3c0.5,0.1,1.1,0,1.6,0.4
			c0.1,0.1,0.4,0.1,0.6,0.1c0.4,0,0.9,0.2,1.3,0.4c0.2,0.1,0.4,0.1,0.6,0.1c0.5-0.1,0.8,0,1.1,0.4c0.1,0.1,0.2,0.3,0.4,0.4
			c-0.5,0.4,0.3,0.6,0.1,1c-0.2,0.3-0.2,0.5,0.1,0.8c0.2,0.2,0.2,0.5,0,0.7c-0.3,0.4-0.6,0.7-1.2,0.8c-0.5,0-1,0.4-1.5,0.6
			C175.5,13.1,174.9,13.4,174.1,13.4z"/>
	</clipPath>
	</defs>
		<path id="scribble-path-3" clip-path="url(#scribble-path-3-mask)" fill="none" stroke="#333F48" stroke-width="3" stroke-linecap="round" stroke-linejoin="round" stroke-miterlimit="10" stroke-dasharray="1000" stroke-dashoffset="-1000" d="
		M179.5,20.9C128.5,1.1,9.7,17.3,9.7,17.3c10.4-11.6,110.9-6,112.8-5.9c32.3,1.5,54.7-1.1,54.7-1.1C165.3,4.5,50.9,3.8,50.9,3.8
		C7.7,3,1.9,1.9,1.9,1.9"/>
</svg>
