<?xml version="1.0" encoding="UTF-8"?>
<svg width="12px" height="10px" viewBox="0 0 12 10" version="1.1" xmlns="http://www.w3.org/2000/svg" xmlns:xlink="http://www.w3.org/1999/xlink">
    <!-- Generator: Sketch 54.1 (76490) - https://sketchapp.com -->
    <title>Icons / -Global / Download / Slate / 16</title>
    <desc>Created with Sketch.</desc>
    <g id="Global" stroke="none" stroke-width="1" fill="none" fill-rule="evenodd">
        <g id="Global-Styles-/-04---Visual-Assets" transform="translate(-834.000000, -996.000000)" fill="#333F48">
            <g id="Sections" transform="translate(132.000000, 152.000000)">
                <g id="Icons" transform="translate(0.000000, 721.000000)">
                    <g id="Examples" transform="translate(0.000000, 112.000000)">
                        <g id="Large">
                            <g id="Visual-Asset/Icons/-Global/Twitter/Large/Slate" transform="translate(700.000000, 8.000000)">
                                <path d="M5.7734375,13 C7.21093738,13 8.48437512,12.6233973 9.59375,11.8701923 C10.6093749,11.1971154 11.3984375,10.2916665 11.9609375,9.15384615 C12.5078124,8.08012808 12.78125,6.96634615 12.78125,5.8125 C12.78125,5.66826923 12.7734376,5.56410269 12.7578125,5.5 C13.2421876,5.13141038 13.6562499,4.69070501 14,4.17788462 C13.53125,4.38621807 13.0625,4.52243578 12.59375,4.58653846 C13.1250001,4.25 13.484375,3.78525653 13.671875,3.19230769 C13.1874999,3.48076923 12.6640625,3.68108962 12.1015625,3.79326923 C11.8671875,3.55288462 11.5976562,3.36057692 11.2929688,3.21634615 C10.9882812,3.07211538 10.6562499,3 10.296875,3 C9.85937488,3 9.453125,3.11217961 9.078125,3.33653846 C8.703125,3.56089731 8.40624988,3.86939115 8.1875,4.26201923 C7.96875012,4.65464731 7.859375,5.07532039 7.859375,5.52403846 C7.859375,5.71634615 7.87500012,5.90865385 7.90625,6.10096154 C6.90624988,6.05288462 5.96484387,5.79647424 5.08203125,5.33173077 C4.19921863,4.8669873 3.453125,4.2419873 2.84375,3.45673077 C2.609375,3.85737192 2.4921875,4.27804499 2.4921875,4.71875 C2.4921875,5.15945501 2.59374988,5.56410269 2.796875,5.93269231 C3.00000012,6.30128193 3.265625,6.60576923 3.59375,6.84615385 C3.20312488,6.83012808 2.83593762,6.71794884 2.4921875,6.50961538 L2.4921875,6.55769231 C2.4921875,7.15064115 2.6796875,7.6794873 3.0546875,8.14423077 C3.4296875,8.60897424 3.8984375,8.90544884 4.4609375,9.03365385 C4.24218762,9.08173077 4.02343738,9.10576923 3.8046875,9.10576923 C3.6640625,9.10576923 3.51562512,9.09775653 3.359375,9.08173077 C3.51562512,9.57852576 3.80078113,9.99118578 4.21484375,10.3197115 C4.62890637,10.6482373 5.10937512,10.8125 5.65625,10.8125 C4.74999988,11.5336538 3.72656262,11.8942308 2.5859375,11.8942308 C2.36718762,11.8942308 2.17187488,11.8862181 2,11.8701923 C3.14062512,12.6233973 4.39843738,13 5.7734375,13 Z" id="Twitter"></path>
                            </g>
                        </g>
                    </g>
                </g>
            </g>
        </g>
    </g>
</svg>