<?xml version="1.0" encoding="utf-8"?>
<!-- Generator: Adobe Illustrator 23.0.3, SVG Export Plug-In . SVG Version: 6.00 Build 0)  -->
<svg version="1.1" id="Layer_1" xmlns="http://www.w3.org/2000/svg" xmlns:xlink="http://www.w3.org/1999/xlink" x="0px" y="0px"
	 viewBox="0 0 12 10" style="enable-background:new 0 0 12 10;" xml:space="preserve">
<style type="text/css">
	.st0{fill-rule:evenodd;clip-rule:evenodd;fill:#1DA1F2;}
</style>
<title>Icons / -Global / Download / Slate / 16</title>
<desc>Created with Sketch.</desc>
<g id="Global">
	<g transform="translate(-834.000000, -996.000000)">
		<g id="Sections" transform="translate(132.000000, 152.000000)">
			<g id="Icons" transform="translate(0.000000, 721.000000)">
				<g id="Examples" transform="translate(0.000000, 112.000000)">
					<g id="Large">
						<g transform="translate(700.000000, 8.000000)">
							<path id="Twitter" class="st0" d="M5.8,13c1.4,0,2.7-0.4,3.8-1.1c1-0.7,1.8-1.6,2.4-2.7c0.5-1.1,0.8-2.2,0.8-3.3
								c0-0.1,0-0.2,0-0.3c0.5-0.4,0.9-0.8,1.2-1.3c-0.5,0.2-0.9,0.3-1.4,0.4c0.5-0.3,0.9-0.8,1.1-1.4c-0.5,0.3-1,0.5-1.6,0.6
								c-0.2-0.2-0.5-0.4-0.8-0.6C11,3.1,10.7,3,10.3,3C9.9,3,9.5,3.1,9.1,3.3C8.7,3.6,8.4,3.9,8.2,4.3S7.9,5.1,7.9,5.5
								c0,0.2,0,0.4,0,0.6c-1,0-1.9-0.3-2.8-0.8S3.5,4.2,2.8,3.5C2.6,3.9,2.5,4.3,2.5,4.7s0.1,0.8,0.3,1.2C3,6.3,3.3,6.6,3.6,6.8
								c-0.4,0-0.8-0.1-1.1-0.3v0c0,0.6,0.2,1.1,0.6,1.6S3.9,8.9,4.5,9C4.2,9.1,4,9.1,3.8,9.1c-0.1,0-0.3,0-0.4,0
								c0.2,0.5,0.4,0.9,0.9,1.2s0.9,0.5,1.4,0.5c-0.9,0.7-1.9,1.1-3.1,1.1c-0.2,0-0.4,0-0.6,0C3.1,12.6,4.4,13,5.8,13z"/>
						</g>
					</g>
				</g>
			</g>
		</g>
	</g>
</g>
</svg>
